<svg width="580" height="442" viewBox="0 0 580 442" fill="none" xmlns="http://www.w3.org/2000/svg">
<path d="M12 0.5H568C574.351 0.5 579.5 5.64873 579.5 12V430C579.5 436.351 574.351 441.5 568 441.5H12C5.64873 441.5 0.5 436.351 0.5 430V12C0.5 5.64873 5.64873 0.5 12 0.5Z" fill="black"/>
<path d="M12 0.5H568C574.351 0.5 579.5 5.64873 579.5 12V430C579.5 436.351 574.351 441.5 568 441.5H12C5.64873 441.5 0.5 436.351 0.5 430V12C0.5 5.64873 5.64873 0.5 12 0.5Z" stroke="#2C2C2C"/>
<path d="M507 32L504 35M504 35L507 38M504 35H524M511 28L514 25M514 25L517 28M514 25V45M517 42L514 45M514 45L511 42M521 32L524 35M524 35L521 38" stroke="#4BC1BD" stroke-width="2" stroke-linecap="round" stroke-linejoin="round"/>
<path d="M548 36C548.552 36 549 35.5523 549 35C549 34.4477 548.552 34 548 34C547.448 34 547 34.4477 547 35C547 35.5523 547.448 36 548 36Z" stroke="#4BC1BD" stroke-width="2" stroke-linecap="round" stroke-linejoin="round"/>
<path d="M548 29C548.552 29 549 28.5523 549 28C549 27.4477 548.552 27 548 27C547.448 27 547 27.4477 547 28C547 28.5523 547.448 29 548 29Z" stroke="#4BC1BD" stroke-width="2" stroke-linecap="round" stroke-linejoin="round"/>
<path d="M548 43C548.552 43 549 42.5523 549 42C549 41.4477 548.552 41 548 41C547.448 41 547 41.4477 547 42C547 42.5523 547.448 43 548 43Z" stroke="#4BC1BD" stroke-width="2" stroke-linecap="round" stroke-linejoin="round"/>
<path d="M63.942 41V31.226H60.072V28.4H71.358V31.226H67.506V41H63.942ZM76.6514 41.162C75.4994 41.162 74.4914 40.946 73.6274 40.514C72.7754 40.07 72.1094 39.47 71.6294 38.714C71.1614 37.946 70.9274 37.076 70.9274 36.104C70.9274 35.132 71.1554 34.268 71.6114 33.512C72.0794 32.744 72.7214 32.15 73.5374 31.73C74.3534 31.298 75.2714 31.082 76.2914 31.082C77.2514 31.082 78.1274 31.28 78.9194 31.676C79.7114 32.06 80.3414 32.63 80.8094 33.386C81.2774 34.142 81.5114 35.06 81.5114 36.14C81.5114 36.26 81.5054 36.398 81.4934 36.554C81.4814 36.71 81.4694 36.854 81.4574 36.986H73.7354V35.186H79.6394L78.3434 35.69C78.3554 35.246 78.2714 34.862 78.0914 34.538C77.9234 34.214 77.6834 33.962 77.3714 33.782C77.0714 33.602 76.7174 33.512 76.3094 33.512C75.9014 33.512 75.5414 33.602 75.2294 33.782C74.9294 33.962 74.6954 34.22 74.5274 34.556C74.3594 34.88 74.2754 35.264 74.2754 35.708V36.23C74.2754 36.71 74.3714 37.124 74.5634 37.472C74.7674 37.82 75.0554 38.09 75.4274 38.282C75.7994 38.462 76.2434 38.552 76.7594 38.552C77.2394 38.552 77.6474 38.486 77.9834 38.354C78.3314 38.21 78.6734 37.994 79.0094 37.706L80.8094 39.578C80.3414 40.094 79.7654 40.49 79.0814 40.766C78.3974 41.03 77.5874 41.162 76.6514 41.162ZM88.7826 41V39.182L88.5486 38.732V35.384C88.5486 34.844 88.3806 34.43 88.0446 34.142C87.7206 33.842 87.1986 33.692 86.4786 33.692C86.0106 33.692 85.5366 33.77 85.0566 33.926C84.5766 34.07 84.1686 34.274 83.8326 34.538L82.6806 32.216C83.2326 31.856 83.8926 31.58 84.6606 31.388C85.4406 31.184 86.2146 31.082 86.9826 31.082C88.5666 31.082 89.7906 31.448 90.6546 32.18C91.5306 32.9 91.9686 34.034 91.9686 35.582V41H88.7826ZM85.9026 41.162C85.1226 41.162 84.4626 41.03 83.9226 40.766C83.3826 40.502 82.9686 40.142 82.6806 39.686C82.4046 39.23 82.2666 38.72 82.2666 38.156C82.2666 37.556 82.4166 37.04 82.7166 36.608C83.0286 36.164 83.5026 35.828 84.1386 35.6C84.7746 35.36 85.5966 35.24 86.6046 35.24H88.9086V37.022H87.0726C86.5206 37.022 86.1306 37.112 85.9026 37.292C85.6866 37.472 85.5786 37.712 85.5786 38.012C85.5786 38.312 85.6926 38.552 85.9206 38.732C86.1486 38.912 86.4606 39.002 86.8566 39.002C87.2286 39.002 87.5646 38.912 87.8646 38.732C88.1766 38.54 88.4046 38.252 88.5486 37.868L89.0166 39.128C88.8366 39.8 88.4826 40.31 87.9546 40.658C87.4386 40.994 86.7546 41.162 85.9026 41.162ZM106.835 31.082C107.591 31.082 108.263 31.238 108.851 31.55C109.451 31.85 109.919 32.318 110.255 32.954C110.603 33.59 110.777 34.412 110.777 35.42V41H107.357V35.978C107.357 35.282 107.225 34.778 106.961 34.466C106.697 34.142 106.337 33.98 105.881 33.98C105.557 33.98 105.263 34.058 104.999 34.214C104.735 34.37 104.531 34.61 104.387 34.934C104.243 35.246 104.171 35.654 104.171 36.158V41H100.751V35.978C100.751 35.282 100.619 34.778 100.355 34.466C100.103 34.142 99.7433 33.98 99.2753 33.98C98.9393 33.98 98.6393 34.058 98.3753 34.214C98.1233 34.37 97.9193 34.61 97.7633 34.934C97.6193 35.246 97.5473 35.654 97.5473 36.158V41H94.1273V31.244H97.3853V33.962L96.7373 33.188C97.0973 32.492 97.5893 31.97 98.2133 31.622C98.8373 31.262 99.5333 31.082 100.301 31.082C101.177 31.082 101.945 31.31 102.605 31.766C103.277 32.21 103.727 32.906 103.955 33.854L102.839 33.62C103.187 32.828 103.709 32.21 104.405 31.766C105.113 31.31 105.923 31.082 106.835 31.082Z" fill="white"/>
<path d="M36 44V42C36 40.9391 35.5786 39.9217 34.8284 39.1716C34.0783 38.4214 33.0609 38 32 38H26C24.9391 38 23.9217 38.4214 23.1716 39.1716C22.4214 39.9217 22 40.9391 22 42V44M42 44V42C41.9993 41.1137 41.7044 40.2528 41.1614 39.5523C40.6184 38.8519 39.8581 38.3516 39 38.13M36 26.13C36.8604 26.3503 37.623 26.8507 38.1676 27.5523C38.7122 28.2539 39.0078 29.1168 39.0078 30.005C39.0078 30.8932 38.7122 31.7561 38.1676 32.4577C37.623 33.1593 36.8604 33.6597 36 33.88M33 30C33 32.2091 31.2091 34 29 34C26.7909 34 25 32.2091 25 30C25 27.7909 26.7909 26 29 26C31.2091 26 33 27.7909 33 30Z" stroke="#4BC1BD" stroke-width="2" stroke-linecap="round" stroke-linejoin="round"/>
<mask id="path-6-inside-1_9327_48937" fill="white">
<path d="M20 69H560V422H20V69Z"/>
</mask>
<path d="M20 70H560V68H20V70Z" fill="#2C2C2C" mask="url(#path-6-inside-1_9327_48937)"/>
<path d="M32 332.5H548C554.351 332.5 559.5 337.649 559.5 344V410C559.5 416.351 554.351 421.5 548 421.5H32C25.6487 421.5 20.5 416.351 20.5 410V344C20.5 337.649 25.6487 332.5 32 332.5Z" fill="black"/>
<path d="M32 332.5H548C554.351 332.5 559.5 337.649 559.5 344V410C559.5 416.351 554.351 421.5 548 421.5H32C25.6487 421.5 20.5 416.351 20.5 410V344C20.5 337.649 25.6487 332.5 32 332.5Z" stroke="#2C2C2C"/>
<rect x="211" y="353" width="158" height="48" rx="24" stroke="#4BC1BD" stroke-width="2"/>
<path d="M242.515 383H240.265L244.361 371.364H246.963L251.066 383H248.816L245.708 373.75H245.617L242.515 383ZM242.588 378.438H248.725V380.131H242.588V378.438ZM255.64 383.153C254.955 383.153 254.341 382.977 253.8 382.625C253.258 382.273 252.83 381.761 252.515 381.091C252.201 380.42 252.044 379.606 252.044 378.648C252.044 377.678 252.203 376.86 252.521 376.193C252.843 375.523 253.277 375.017 253.822 374.676C254.368 374.331 254.976 374.159 255.646 374.159C256.157 374.159 256.578 374.246 256.907 374.42C257.237 374.591 257.498 374.797 257.692 375.04C257.885 375.278 258.034 375.504 258.14 375.716H258.226V371.364H260.288V383H258.265V381.625H258.14C258.034 381.837 257.881 382.062 257.68 382.301C257.479 382.536 257.214 382.737 256.885 382.903C256.555 383.07 256.14 383.153 255.64 383.153ZM256.214 381.466C256.65 381.466 257.021 381.348 257.328 381.114C257.635 380.875 257.868 380.544 258.027 380.119C258.186 379.695 258.265 379.201 258.265 378.636C258.265 378.072 258.186 377.581 258.027 377.165C257.872 376.748 257.64 376.424 257.334 376.193C257.031 375.962 256.657 375.847 256.214 375.847C255.756 375.847 255.373 375.966 255.067 376.205C254.76 376.443 254.529 376.773 254.373 377.193C254.218 377.614 254.14 378.095 254.14 378.636C254.14 379.182 254.218 379.669 254.373 380.097C254.532 380.521 254.765 380.856 255.072 381.102C255.383 381.345 255.764 381.466 256.214 381.466ZM265.879 383.153C265.193 383.153 264.579 382.977 264.038 382.625C263.496 382.273 263.068 381.761 262.754 381.091C262.439 380.42 262.282 379.606 262.282 378.648C262.282 377.678 262.441 376.86 262.759 376.193C263.081 375.523 263.515 375.017 264.06 374.676C264.606 374.331 265.214 374.159 265.884 374.159C266.396 374.159 266.816 374.246 267.146 374.42C267.475 374.591 267.737 374.797 267.93 375.04C268.123 375.278 268.273 375.504 268.379 375.716H268.464V371.364H270.526V383H268.504V381.625H268.379C268.273 381.837 268.119 382.062 267.918 382.301C267.718 382.536 267.452 382.737 267.123 382.903C266.793 383.07 266.379 383.153 265.879 383.153ZM266.452 381.466C266.888 381.466 267.259 381.348 267.566 381.114C267.873 380.875 268.106 380.544 268.265 380.119C268.424 379.695 268.504 379.201 268.504 378.636C268.504 378.072 268.424 377.581 268.265 377.165C268.11 376.748 267.879 376.424 267.572 376.193C267.269 375.962 266.896 375.847 266.452 375.847C265.994 375.847 265.612 375.966 265.305 376.205C264.998 376.443 264.767 376.773 264.612 377.193C264.456 377.614 264.379 378.095 264.379 378.636C264.379 379.182 264.456 379.669 264.612 380.097C264.771 380.521 265.004 380.856 265.31 381.102C265.621 381.345 266.002 381.466 266.452 381.466ZM277.098 371.364H279.677L283.132 379.795H283.268L286.723 371.364H289.302V383H287.28V375.006H287.172L283.956 382.966H282.444L279.228 374.989H279.12V383H277.098V371.364ZM295.53 383.17C294.655 383.17 293.9 382.989 293.263 382.625C292.631 382.258 292.144 381.739 291.803 381.068C291.462 380.394 291.292 379.6 291.292 378.688C291.292 377.79 291.462 377.002 291.803 376.324C292.148 375.642 292.629 375.112 293.246 374.733C293.864 374.35 294.589 374.159 295.422 374.159C295.96 374.159 296.468 374.246 296.945 374.42C297.426 374.591 297.851 374.856 298.218 375.216C298.589 375.576 298.881 376.034 299.093 376.591C299.305 377.144 299.411 377.803 299.411 378.568V379.199H292.258V377.812H297.44C297.436 377.419 297.351 377.068 297.184 376.761C297.017 376.451 296.784 376.206 296.485 376.028C296.19 375.85 295.845 375.761 295.451 375.761C295.03 375.761 294.661 375.864 294.343 376.068C294.025 376.269 293.777 376.534 293.599 376.864C293.424 377.189 293.335 377.547 293.332 377.938V379.148C293.332 379.655 293.424 380.091 293.61 380.455C293.796 380.814 294.055 381.091 294.388 381.284C294.722 381.473 295.112 381.568 295.559 381.568C295.858 381.568 296.129 381.527 296.371 381.443C296.614 381.356 296.824 381.229 297.002 381.062C297.18 380.896 297.315 380.689 297.405 380.443L299.326 380.659C299.205 381.167 298.974 381.61 298.633 381.989C298.296 382.364 297.864 382.655 297.337 382.864C296.811 383.068 296.208 383.17 295.53 383.17ZM301.311 383V374.273H303.277V375.756H303.379C303.561 375.256 303.862 374.866 304.283 374.585C304.703 374.301 305.205 374.159 305.788 374.159C306.379 374.159 306.877 374.303 307.283 374.591C307.692 374.875 307.98 375.263 308.146 375.756H308.237C308.431 375.271 308.756 374.884 309.215 374.597C309.677 374.305 310.224 374.159 310.857 374.159C311.66 374.159 312.315 374.413 312.823 374.92C313.33 375.428 313.584 376.169 313.584 377.142V383H311.521V377.46C311.521 376.919 311.377 376.523 311.09 376.273C310.802 376.019 310.449 375.892 310.033 375.892C309.537 375.892 309.148 376.047 308.868 376.358C308.591 376.665 308.453 377.064 308.453 377.557V383H306.436V377.375C306.436 376.924 306.3 376.564 306.027 376.295C305.758 376.027 305.406 375.892 304.97 375.892C304.675 375.892 304.406 375.968 304.163 376.119C303.921 376.267 303.728 376.477 303.584 376.75C303.44 377.019 303.368 377.333 303.368 377.693V383H301.311ZM315.921 383V371.364H317.978V375.716H318.064C318.17 375.504 318.319 375.278 318.512 375.04C318.706 374.797 318.967 374.591 319.296 374.42C319.626 374.246 320.046 374.159 320.558 374.159C321.232 374.159 321.84 374.331 322.382 374.676C322.927 375.017 323.359 375.523 323.677 376.193C323.999 376.86 324.16 377.678 324.16 378.648C324.16 379.606 324.003 380.42 323.689 381.091C323.374 381.761 322.946 382.273 322.404 382.625C321.863 382.977 321.249 383.153 320.564 383.153C320.064 383.153 319.649 383.07 319.319 382.903C318.99 382.737 318.725 382.536 318.524 382.301C318.327 382.062 318.173 381.837 318.064 381.625H317.944V383H315.921ZM317.939 378.636C317.939 379.201 318.018 379.695 318.177 380.119C318.34 380.544 318.573 380.875 318.876 381.114C319.183 381.348 319.554 381.466 319.99 381.466C320.444 381.466 320.825 381.345 321.132 381.102C321.439 380.856 321.67 380.521 321.825 380.097C321.984 379.669 322.064 379.182 322.064 378.636C322.064 378.095 321.986 377.614 321.831 377.193C321.675 376.773 321.444 376.443 321.137 376.205C320.831 375.966 320.448 375.847 319.99 375.847C319.55 375.847 319.177 375.962 318.87 376.193C318.564 376.424 318.331 376.748 318.171 377.165C318.016 377.581 317.939 378.072 317.939 378.636ZM329.932 383.17C329.057 383.17 328.302 382.989 327.665 382.625C327.033 382.258 326.546 381.739 326.205 381.068C325.864 380.394 325.694 379.6 325.694 378.688C325.694 377.79 325.864 377.002 326.205 376.324C326.55 375.642 327.031 375.112 327.648 374.733C328.266 374.35 328.991 374.159 329.824 374.159C330.362 374.159 330.87 374.246 331.347 374.42C331.828 374.591 332.252 374.856 332.62 375.216C332.991 375.576 333.283 376.034 333.495 376.591C333.707 377.144 333.813 377.803 333.813 378.568V379.199H326.66V377.812H331.841C331.838 377.419 331.752 377.068 331.586 376.761C331.419 376.451 331.186 376.206 330.887 376.028C330.591 375.85 330.247 375.761 329.853 375.761C329.432 375.761 329.063 375.864 328.745 376.068C328.427 376.269 328.179 376.534 328.001 376.864C327.826 377.189 327.737 377.547 327.733 377.938V379.148C327.733 379.655 327.826 380.091 328.012 380.455C328.197 380.814 328.457 381.091 328.79 381.284C329.124 381.473 329.514 381.568 329.961 381.568C330.26 381.568 330.531 381.527 330.773 381.443C331.016 381.356 331.226 381.229 331.404 381.062C331.582 380.896 331.716 380.689 331.807 380.443L333.728 380.659C333.607 381.167 333.376 381.61 333.035 381.989C332.697 382.364 332.266 382.655 331.739 382.864C331.213 383.068 330.61 383.17 329.932 383.17ZM335.713 383V374.273H337.707V375.727H337.798C337.957 375.223 338.23 374.835 338.616 374.562C339.007 374.286 339.452 374.148 339.952 374.148C340.065 374.148 340.192 374.153 340.332 374.165C340.476 374.172 340.596 374.186 340.69 374.205V376.097C340.603 376.066 340.465 376.04 340.276 376.017C340.09 375.991 339.91 375.977 339.736 375.977C339.361 375.977 339.024 376.059 338.724 376.222C338.429 376.381 338.196 376.602 338.026 376.886C337.855 377.17 337.77 377.498 337.77 377.869V383H335.713Z" fill="#4BC1BD"/>
<path d="M32 90.5H268C274.351 90.5 279.5 95.6487 279.5 102V299.727C279.5 306.079 274.351 311.227 268 311.227H32C25.6487 311.227 20.5 306.079 20.5 299.727V102C20.5 95.6487 25.6487 90.5 32 90.5Z" fill="black"/>
<path d="M32 90.5H268C274.351 90.5 279.5 95.6487 279.5 102V299.727C279.5 306.079 274.351 311.227 268 311.227H32C25.6487 311.227 20.5 306.079 20.5 299.727V102C20.5 95.6487 25.6487 90.5 32 90.5Z" stroke="#2C2C2C"/>
<rect x="91" y="111" width="118" height="118" rx="59" fill="black" stroke="#06B6D4" stroke-width="2" stroke-dasharray="3 0"/>
<path d="M150 171V179M150 171L146 175M150 171L154 175M142 172.899C141.257 172.14 140.697 171.222 140.361 170.214C140.026 169.206 139.924 168.135 140.063 167.082C140.203 166.029 140.58 165.022 141.167 164.137C141.754 163.251 142.534 162.511 143.449 161.972C144.364 161.432 145.39 161.109 146.449 161.025C147.508 160.941 148.572 161.099 149.561 161.487C150.549 161.875 151.437 162.483 152.156 163.265C152.875 164.047 153.406 164.982 153.71 166H155.5C156.466 166 157.405 166.31 158.181 166.885C158.957 167.461 159.527 168.27 159.807 169.194C160.087 170.118 160.063 171.107 159.737 172.016C159.412 172.925 158.803 173.706 158 174.242" stroke="#06B6D4" stroke-width="2" stroke-linecap="round" stroke-linejoin="round"/>
<path d="M138.143 247.364V259H136.018L130.955 251.676H130.87V259H128.41V247.364H130.569L135.592 254.682H135.694V247.364H138.143ZM142.619 259.165C142.062 259.165 141.566 259.068 141.13 258.875C140.694 258.678 140.35 258.388 140.096 258.006C139.846 257.619 139.721 257.138 139.721 256.562C139.721 256.078 139.81 255.67 139.988 255.341C140.166 255.011 140.408 254.746 140.715 254.545C141.022 254.345 141.371 254.193 141.761 254.091C142.155 253.989 142.567 253.917 142.999 253.875C143.507 253.822 143.916 253.773 144.227 253.727C144.537 253.678 144.763 253.606 144.903 253.511C145.043 253.417 145.113 253.277 145.113 253.091V253.057C145.113 252.697 144.999 252.419 144.772 252.222C144.549 252.025 144.23 251.926 143.817 251.926C143.382 251.926 143.035 252.023 142.778 252.216C142.52 252.405 142.35 252.644 142.266 252.932L140.028 252.75C140.141 252.22 140.365 251.761 140.698 251.375C141.031 250.985 141.461 250.686 141.988 250.477C142.518 250.265 143.132 250.159 143.829 250.159C144.314 250.159 144.778 250.216 145.221 250.33C145.668 250.443 146.064 250.619 146.408 250.858C146.757 251.097 147.031 251.403 147.232 251.778C147.433 252.15 147.533 252.595 147.533 253.114V259H145.238V257.79H145.17C145.03 258.062 144.842 258.303 144.607 258.511C144.372 258.716 144.09 258.877 143.761 258.994C143.431 259.108 143.05 259.165 142.619 259.165ZM143.312 257.494C143.668 257.494 143.982 257.424 144.255 257.284C144.528 257.14 144.742 256.947 144.897 256.705C145.052 256.462 145.13 256.187 145.13 255.881V254.955C145.054 255.004 144.95 255.049 144.817 255.091C144.689 255.129 144.543 255.165 144.38 255.199C144.217 255.229 144.054 255.258 143.891 255.284C143.728 255.307 143.581 255.328 143.448 255.347C143.164 255.388 142.916 255.455 142.704 255.545C142.492 255.636 142.327 255.759 142.21 255.915C142.092 256.066 142.033 256.256 142.033 256.483C142.033 256.812 142.153 257.064 142.391 257.239C142.634 257.409 142.941 257.494 143.312 257.494ZM149.411 259V250.273H151.718V251.812H151.82C152.002 251.301 152.305 250.898 152.729 250.602C153.154 250.307 153.661 250.159 154.252 250.159C154.851 250.159 155.36 250.309 155.781 250.608C156.201 250.903 156.481 251.305 156.621 251.812H156.712C156.89 251.312 157.212 250.913 157.678 250.614C158.148 250.311 158.703 250.159 159.343 250.159C160.157 250.159 160.818 250.419 161.326 250.938C161.837 251.453 162.093 252.184 162.093 253.131V259H159.678V253.608C159.678 253.123 159.549 252.759 159.292 252.517C159.034 252.275 158.712 252.153 158.326 252.153C157.887 252.153 157.544 252.294 157.298 252.574C157.051 252.85 156.928 253.216 156.928 253.67V259H154.582V253.557C154.582 253.129 154.459 252.788 154.212 252.534C153.97 252.28 153.65 252.153 153.252 252.153C152.983 252.153 152.741 252.222 152.525 252.358C152.313 252.491 152.144 252.678 152.019 252.92C151.894 253.159 151.832 253.439 151.832 253.761V259H149.411ZM167.982 259.17C167.085 259.17 166.312 258.989 165.664 258.625C165.02 258.258 164.524 257.739 164.175 257.068C163.827 256.394 163.653 255.597 163.653 254.676C163.653 253.778 163.827 252.991 164.175 252.312C164.524 251.634 165.014 251.106 165.647 250.727C166.283 250.348 167.03 250.159 167.886 250.159C168.461 250.159 168.997 250.252 169.494 250.438C169.994 250.619 170.429 250.894 170.8 251.261C171.175 251.629 171.467 252.091 171.675 252.648C171.884 253.201 171.988 253.848 171.988 254.591V255.256H164.619V253.756H169.71C169.71 253.407 169.634 253.098 169.482 252.83C169.331 252.561 169.121 252.35 168.852 252.199C168.586 252.044 168.278 251.966 167.925 251.966C167.558 251.966 167.232 252.051 166.948 252.222C166.668 252.388 166.448 252.614 166.289 252.898C166.13 253.178 166.049 253.491 166.045 253.835V255.261C166.045 255.693 166.124 256.066 166.283 256.381C166.446 256.695 166.675 256.938 166.971 257.108C167.266 257.278 167.617 257.364 168.022 257.364C168.291 257.364 168.537 257.326 168.761 257.25C168.984 257.174 169.175 257.061 169.335 256.909C169.494 256.758 169.615 256.572 169.698 256.352L171.937 256.5C171.823 257.038 171.59 257.508 171.238 257.909C170.889 258.307 170.439 258.617 169.886 258.841C169.336 259.061 168.702 259.17 167.982 259.17Z" fill="white"/>
<path d="M134.187 280.704V279.454H142.914V280.704H139.255V291.091H137.846V280.704H134.187ZM144.907 291.091V282.364H146.248V291.091H144.907ZM145.589 280.909C145.327 280.909 145.102 280.82 144.913 280.642C144.727 280.464 144.634 280.25 144.634 280C144.634 279.75 144.727 279.536 144.913 279.358C145.102 279.18 145.327 279.091 145.589 279.091C145.85 279.091 146.074 279.18 146.259 279.358C146.449 279.536 146.543 279.75 146.543 280C146.543 280.25 146.449 280.464 146.259 280.642C146.074 280.82 145.85 280.909 145.589 280.909ZM152.499 282.364V283.5H147.977V282.364H152.499ZM149.295 280.273H150.636V288.591C150.636 288.97 150.691 289.254 150.8 289.443C150.914 289.629 151.058 289.754 151.232 289.818C151.41 289.879 151.598 289.909 151.795 289.909C151.942 289.909 152.064 289.901 152.158 289.886C152.253 289.867 152.329 289.852 152.386 289.841L152.658 291.045C152.567 291.079 152.441 291.114 152.278 291.148C152.115 291.186 151.908 291.204 151.658 291.204C151.28 291.204 150.908 291.123 150.545 290.96C150.185 290.797 149.886 290.549 149.647 290.216C149.412 289.882 149.295 289.462 149.295 288.954V280.273ZM156.045 279.454V291.091H154.704V279.454H156.045ZM162.16 291.273C161.319 291.273 160.594 291.087 159.984 290.716C159.378 290.341 158.91 289.818 158.58 289.148C158.254 288.473 158.092 287.689 158.092 286.795C158.092 285.901 158.254 285.114 158.58 284.432C158.91 283.746 159.368 283.212 159.955 282.829C160.546 282.443 161.236 282.25 162.023 282.25C162.478 282.25 162.927 282.326 163.37 282.477C163.813 282.629 164.217 282.875 164.58 283.216C164.944 283.553 165.234 284 165.45 284.557C165.665 285.114 165.773 285.799 165.773 286.614V287.182H159.046V286.023H164.41C164.41 285.53 164.311 285.091 164.114 284.704C163.921 284.318 163.645 284.013 163.285 283.79C162.929 283.566 162.508 283.454 162.023 283.454C161.489 283.454 161.027 283.587 160.637 283.852C160.251 284.114 159.953 284.454 159.745 284.875C159.537 285.295 159.433 285.746 159.433 286.227V287C159.433 287.659 159.546 288.218 159.773 288.676C160.004 289.131 160.325 289.477 160.734 289.716C161.143 289.951 161.618 290.068 162.16 290.068C162.512 290.068 162.83 290.019 163.114 289.92C163.402 289.818 163.65 289.667 163.859 289.466C164.067 289.261 164.228 289.007 164.342 288.704L165.637 289.068C165.501 289.507 165.272 289.894 164.95 290.227C164.628 290.557 164.23 290.814 163.756 291C163.283 291.182 162.751 291.273 162.16 291.273Z" fill="#808080"/>
<path d="M312 90.5H548C554.351 90.5 559.5 95.6487 559.5 102V299.727C559.5 306.079 554.351 311.227 548 311.227H312C305.649 311.227 300.5 306.079 300.5 299.727V102C300.5 95.6487 305.649 90.5 312 90.5Z" fill="black"/>
<path d="M312 90.5H548C554.351 90.5 559.5 95.6487 559.5 102V299.727C559.5 306.079 554.351 311.227 548 311.227H312C305.649 311.227 300.5 306.079 300.5 299.727V102C300.5 95.6487 305.649 90.5 312 90.5Z" stroke="#2C2C2C"/>
<rect x="371" y="111" width="118" height="118" rx="59" fill="black" stroke="#06B6D4" stroke-width="2" stroke-dasharray="3 0"/>
<path d="M430 171V179M430 171L426 175M430 171L434 175M422 172.899C421.257 172.14 420.697 171.222 420.361 170.214C420.025 169.206 419.924 168.135 420.063 167.082C420.203 166.029 420.58 165.022 421.167 164.137C421.754 163.251 422.534 162.511 423.449 161.972C424.364 161.432 425.39 161.109 426.449 161.025C427.508 160.941 428.572 161.099 429.561 161.487C430.549 161.875 431.437 162.483 432.156 163.265C432.875 164.047 433.406 164.982 433.71 166H435.5C436.465 166 437.405 166.31 438.181 166.885C438.956 167.461 439.526 168.27 439.807 169.194C440.087 170.118 440.063 171.107 439.737 172.016C439.412 172.925 438.803 173.706 438 174.242" stroke="#06B6D4" stroke-width="2" stroke-linecap="round" stroke-linejoin="round"/>
<path d="M418.143 247.364V259H416.018L410.955 251.676H410.87V259H408.41V247.364H410.569L415.592 254.682H415.694V247.364H418.143ZM422.619 259.165C422.062 259.165 421.566 259.068 421.13 258.875C420.694 258.678 420.35 258.388 420.096 258.006C419.846 257.619 419.721 257.138 419.721 256.562C419.721 256.078 419.81 255.67 419.988 255.341C420.166 255.011 420.408 254.746 420.715 254.545C421.022 254.345 421.371 254.193 421.761 254.091C422.155 253.989 422.567 253.917 422.999 253.875C423.507 253.822 423.916 253.773 424.227 253.727C424.537 253.678 424.763 253.606 424.903 253.511C425.043 253.417 425.113 253.277 425.113 253.091V253.057C425.113 252.697 424.999 252.419 424.772 252.222C424.549 252.025 424.23 251.926 423.817 251.926C423.382 251.926 423.035 252.023 422.778 252.216C422.52 252.405 422.35 252.644 422.266 252.932L420.028 252.75C420.141 252.22 420.365 251.761 420.698 251.375C421.031 250.985 421.461 250.686 421.988 250.477C422.518 250.265 423.132 250.159 423.829 250.159C424.314 250.159 424.778 250.216 425.221 250.33C425.668 250.443 426.064 250.619 426.408 250.858C426.757 251.097 427.031 251.403 427.232 251.778C427.433 252.15 427.533 252.595 427.533 253.114V259H425.238V257.79H425.17C425.03 258.062 424.842 258.303 424.607 258.511C424.372 258.716 424.09 258.877 423.761 258.994C423.431 259.108 423.05 259.165 422.619 259.165ZM423.312 257.494C423.668 257.494 423.982 257.424 424.255 257.284C424.528 257.14 424.742 256.947 424.897 256.705C425.052 256.462 425.13 256.187 425.13 255.881V254.955C425.054 255.004 424.95 255.049 424.817 255.091C424.689 255.129 424.543 255.165 424.38 255.199C424.217 255.229 424.054 255.258 423.891 255.284C423.728 255.307 423.581 255.328 423.448 255.347C423.164 255.388 422.916 255.455 422.704 255.545C422.492 255.636 422.327 255.759 422.21 255.915C422.092 256.066 422.033 256.256 422.033 256.483C422.033 256.812 422.153 257.064 422.391 257.239C422.634 257.409 422.941 257.494 423.312 257.494ZM429.411 259V250.273H431.718V251.812H431.82C432.002 251.301 432.305 250.898 432.729 250.602C433.154 250.307 433.661 250.159 434.252 250.159C434.851 250.159 435.36 250.309 435.781 250.608C436.201 250.903 436.481 251.305 436.621 251.812H436.712C436.89 251.312 437.212 250.913 437.678 250.614C438.148 250.311 438.703 250.159 439.343 250.159C440.157 250.159 440.818 250.419 441.326 250.938C441.837 251.453 442.093 252.184 442.093 253.131V259H439.678V253.608C439.678 253.123 439.549 252.759 439.292 252.517C439.034 252.275 438.712 252.153 438.326 252.153C437.887 252.153 437.544 252.294 437.298 252.574C437.051 252.85 436.928 253.216 436.928 253.67V259H434.582V253.557C434.582 253.129 434.459 252.788 434.212 252.534C433.97 252.28 433.65 252.153 433.252 252.153C432.983 252.153 432.741 252.222 432.525 252.358C432.313 252.491 432.144 252.678 432.019 252.92C431.894 253.159 431.832 253.439 431.832 253.761V259H429.411ZM447.982 259.17C447.085 259.17 446.312 258.989 445.664 258.625C445.02 258.258 444.524 257.739 444.175 257.068C443.827 256.394 443.653 255.597 443.653 254.676C443.653 253.778 443.827 252.991 444.175 252.312C444.524 251.634 445.014 251.106 445.647 250.727C446.283 250.348 447.03 250.159 447.886 250.159C448.461 250.159 448.997 250.252 449.494 250.438C449.994 250.619 450.429 250.894 450.8 251.261C451.175 251.629 451.467 252.091 451.675 252.648C451.884 253.201 451.988 253.848 451.988 254.591V255.256H444.619V253.756H449.71C449.71 253.407 449.634 253.098 449.482 252.83C449.331 252.561 449.121 252.35 448.852 252.199C448.586 252.044 448.278 251.966 447.925 251.966C447.558 251.966 447.232 252.051 446.948 252.222C446.668 252.388 446.448 252.614 446.289 252.898C446.13 253.178 446.049 253.491 446.045 253.835V255.261C446.045 255.693 446.124 256.066 446.283 256.381C446.446 256.695 446.675 256.938 446.971 257.108C447.266 257.278 447.617 257.364 448.022 257.364C448.291 257.364 448.537 257.326 448.761 257.25C448.984 257.174 449.175 257.061 449.335 256.909C449.494 256.758 449.615 256.572 449.698 256.352L451.937 256.5C451.823 257.038 451.59 257.508 451.238 257.909C450.889 258.307 450.439 258.617 449.886 258.841C449.336 259.061 448.702 259.17 447.982 259.17Z" fill="white"/>
<path d="M414.187 280.704V279.454H422.914V280.704H419.255V291.091H417.846V280.704H414.187ZM424.907 291.091V282.364H426.248V291.091H424.907ZM425.589 280.909C425.327 280.909 425.102 280.82 424.913 280.642C424.727 280.464 424.634 280.25 424.634 280C424.634 279.75 424.727 279.536 424.913 279.358C425.102 279.18 425.327 279.091 425.589 279.091C425.85 279.091 426.074 279.18 426.259 279.358C426.449 279.536 426.543 279.75 426.543 280C426.543 280.25 426.449 280.464 426.259 280.642C426.074 280.82 425.85 280.909 425.589 280.909ZM432.499 282.364V283.5H427.977V282.364H432.499ZM429.295 280.273H430.636V288.591C430.636 288.97 430.691 289.254 430.8 289.443C430.914 289.629 431.058 289.754 431.232 289.818C431.41 289.879 431.598 289.909 431.795 289.909C431.942 289.909 432.064 289.901 432.158 289.886C432.253 289.867 432.329 289.852 432.386 289.841L432.658 291.045C432.567 291.079 432.441 291.114 432.278 291.148C432.115 291.186 431.908 291.204 431.658 291.204C431.28 291.204 430.908 291.123 430.545 290.96C430.185 290.797 429.886 290.549 429.647 290.216C429.412 289.882 429.295 289.462 429.295 288.954V280.273ZM436.045 279.454V291.091H434.704V279.454H436.045ZM442.16 291.273C441.319 291.273 440.594 291.087 439.984 290.716C439.378 290.341 438.91 289.818 438.58 289.148C438.254 288.473 438.092 287.689 438.092 286.795C438.092 285.901 438.254 285.114 438.58 284.432C438.91 283.746 439.368 283.212 439.955 282.829C440.546 282.443 441.236 282.25 442.023 282.25C442.478 282.25 442.927 282.326 443.37 282.477C443.813 282.629 444.217 282.875 444.58 283.216C444.944 283.553 445.234 284 445.45 284.557C445.665 285.114 445.773 285.799 445.773 286.614V287.182H439.046V286.023H444.41C444.41 285.53 444.311 285.091 444.114 284.704C443.921 284.318 443.645 284.013 443.285 283.79C442.929 283.566 442.508 283.454 442.023 283.454C441.489 283.454 441.027 283.587 440.637 283.852C440.251 284.114 439.953 284.454 439.745 284.875C439.537 285.295 439.433 285.746 439.433 286.227V287C439.433 287.659 439.546 288.218 439.773 288.676C440.004 289.131 440.325 289.477 440.734 289.716C441.143 289.951 441.618 290.068 442.16 290.068C442.512 290.068 442.83 290.019 443.114 289.92C443.402 289.818 443.65 289.667 443.859 289.466C444.067 289.261 444.228 289.007 444.342 288.704L445.637 289.068C445.501 289.507 445.272 289.894 444.95 290.227C444.628 290.557 444.23 290.814 443.756 291C443.283 291.182 442.751 291.273 442.16 291.273Z" fill="#808080"/>
</svg>
