<svg width="1440" height="420" viewBox="0 0 1440 420" fill="none" xmlns="http://www.w3.org/2000/svg">
<g clip-path="url(#clip0_9324_17527)">
<path d="M1409 1H31C14.4315 1 1 14.4314 1 31V389C1 405.569 14.4314 419 31 419H1409C1425.57 419 1439 405.569 1439 389V31C1439 14.4315 1425.57 1 1409 1Z" fill="black" stroke="#06B6D4" stroke-width="2" stroke-dasharray="5 3"/>
<path d="M687.911 235.593C687.515 234.64 687.239 233.626 687.101 232.567L687.597 232.503C687.533 232.011 687.5 231.51 687.5 231V229.5H687V226.5H687.5V223.5H687V220.5H687.5V217.5H687V214.5H687.5V211.5H687V208.5H687.5V205.5H687V202.5H687.5V199.5H687V196.5H687.5V193.5H687V190.5H687.5V189C687.5 188.49 687.533 187.989 687.597 187.497L687.101 187.433C687.239 186.374 687.515 185.36 687.911 184.407L688.372 184.598C688.76 183.663 689.267 182.791 689.876 181.999L689.479 181.695C690.118 180.863 690.863 180.118 691.695 179.479L691.999 179.876C692.791 179.267 693.663 178.76 694.598 178.372L694.407 177.911C695.36 177.515 696.374 177.239 697.433 177.101L697.497 177.597C697.989 177.533 698.49 177.5 699 177.5H700.5V177H703.5V177.5H706.5V177H709.5V177.5H712.5V177H715.5V177.5H718.5V177H721.5V177.5H724.5V177H727.5V177.5H730.5V177H733.5V177.5H736.5V177H739.5V177.5H741C741.51 177.5 742.011 177.533 742.503 177.597L742.567 177.101C743.626 177.239 744.64 177.515 745.593 177.911L745.402 178.372C746.337 178.76 747.209 179.267 748.001 179.876L748.305 179.479C749.137 180.118 749.882 180.863 750.521 181.695L750.124 181.999C750.733 182.791 751.24 183.663 751.628 184.598L752.089 184.407C752.485 185.36 752.761 186.374 752.899 187.433L752.403 187.497C752.467 187.989 752.5 188.49 752.5 189V190.5H753V193.5H752.5V196.5H753V199.5H752.5V202.5H753V205.5H752.5V208.5H753V211.5H752.5V214.5H753V217.5H752.5V220.5H753V223.5H752.5V226.5H753V229.5H752.5V231C752.5 231.51 752.467 232.011 752.403 232.503L752.899 232.567C752.761 233.626 752.485 234.64 752.089 235.593L751.628 235.402C751.24 236.337 750.733 237.209 750.124 238.001L750.521 238.305C749.882 239.137 749.137 239.882 748.305 240.521L748.001 240.124C747.209 240.733 746.337 241.24 745.402 241.628L745.593 242.089C744.64 242.485 743.626 242.761 742.567 242.899L742.503 242.403C742.011 242.467 741.51 242.5 741 242.5H739.5V243H736.5V242.5H733.5V243H730.5V242.5H727.5V243H724.5V242.5H721.5V243H718.5V242.5H715.5V243H712.5V242.5H709.5V243H706.5V242.5H703.5V243H700.5V242.5H699C698.49 242.5 697.989 242.467 697.497 242.403L697.433 242.899C696.374 242.761 695.36 242.485 694.407 242.089L694.598 241.628C693.663 241.24 692.791 240.733 691.999 240.124L691.695 240.521C690.863 239.882 690.118 239.137 689.479 238.305L689.876 238.001C689.267 237.209 688.76 236.337 688.372 235.402L687.911 235.593Z" stroke="#06B6D4"/>
<path d="M720 211V219M720 211L716 215M720 211L724 215M712 212.899C711.257 212.14 710.697 211.222 710.361 210.214C710.026 209.206 709.924 208.136 710.064 207.083C710.203 206.03 710.581 205.022 711.167 204.137C711.754 203.251 712.535 202.511 713.45 201.972C714.365 201.433 715.391 201.109 716.45 201.025C717.508 200.941 718.572 201.099 719.561 201.487C720.55 201.875 721.437 202.483 722.156 203.265C722.875 204.047 723.406 204.982 723.71 206H725.5C726.466 206 727.406 206.311 728.181 206.886C728.957 207.461 729.527 208.27 729.807 209.194C730.087 210.118 730.063 211.108 729.738 212.017C729.412 212.926 728.803 213.706 728 214.242" stroke="#06B6D4" stroke-width="2" stroke-linecap="round" stroke-linejoin="round"/>
</g>
<defs>
<clipPath id="clip0_9324_17527">
<rect width="1440" height="420" fill="white"/>
</clipPath>
</defs>
</svg>
