<svg width="580" height="209" viewBox="0 0 580 209" fill="none" xmlns="http://www.w3.org/2000/svg">
<path d="M0.5 12C0.5 5.64872 5.64873 0.5 12 0.5H568C574.351 0.5 579.5 5.64873 579.5 12V197C579.5 203.351 574.351 208.5 568 208.5H12C5.64873 208.5 0.5 203.351 0.5 197V12Z" fill="black"/>
<path d="M0.5 12C0.5 5.64872 5.64873 0.5 12 0.5H568C574.351 0.5 579.5 5.64873 579.5 12V197C579.5 203.351 574.351 208.5 568 208.5H12C5.64873 208.5 0.5 203.351 0.5 197V12Z" stroke="#2C2C2C"/>
<path d="M20.5 32C20.5 25.6487 25.6487 20.5 32 20.5H268C274.351 20.5 279.5 25.6487 279.5 32V125C279.5 131.351 274.351 136.5 268 136.5H32C25.6487 136.5 20.5 131.351 20.5 125V32Z" fill="black" stroke="#2C2C2C"/>
<path d="M116.29 77.8211V76.7274H123.927V77.8211H120.725V86.9092H119.492V77.8211H116.29ZM127.765 87.0683C127.029 87.0683 126.394 86.9059 125.861 86.5811C125.33 86.2529 124.921 85.7955 124.633 85.2089C124.348 84.6189 124.205 83.9329 124.205 83.1507C124.205 82.3685 124.348 81.6791 124.633 81.0825C124.921 80.4826 125.322 80.0152 125.836 79.6805C126.353 79.3424 126.956 79.1734 127.646 79.1734C128.043 79.1734 128.436 79.2397 128.824 79.3722C129.212 79.5048 129.565 79.7203 129.883 80.0186C130.201 80.3135 130.454 80.7046 130.643 81.1919C130.832 81.6791 130.927 82.279 130.927 82.9916V83.4887H125.04V82.4745H129.734C129.734 82.0436 129.647 81.6592 129.475 81.3211C129.306 80.983 129.064 80.7162 128.749 80.5207C128.438 80.3251 128.07 80.2274 127.646 80.2274C127.178 80.2274 126.774 80.3434 126.432 80.5754C126.094 80.8041 125.834 81.1024 125.652 81.4703C125.47 81.8382 125.378 82.2326 125.378 82.6535V83.3296C125.378 83.9063 125.478 84.3952 125.677 84.7963C125.879 85.194 126.159 85.4972 126.517 85.7061C126.875 85.9115 127.291 86.0143 127.765 86.0143C128.073 86.0143 128.351 85.9712 128.6 85.885C128.852 85.7955 129.069 85.663 129.251 85.4873C129.434 85.3083 129.574 85.0863 129.674 84.8211L130.807 85.1393C130.688 85.5238 130.488 85.8618 130.206 86.1535C129.924 86.4419 129.576 86.6672 129.162 86.8296C128.748 86.9887 128.282 87.0683 127.765 87.0683ZM134.959 87.0882C134.475 87.0882 134.036 86.997 133.641 86.8147C133.247 86.6291 132.934 86.3623 132.702 86.0143C132.47 85.663 132.354 85.2387 132.354 84.7416C132.354 84.3041 132.44 83.9494 132.612 83.6776C132.784 83.4026 133.015 83.1871 133.303 83.0313C133.592 82.8756 133.91 82.7596 134.258 82.6833C134.609 82.6038 134.962 82.5408 135.317 82.4944C135.781 82.4347 136.157 82.39 136.445 82.3602C136.737 82.327 136.949 82.2723 137.082 82.1961C137.217 82.1199 137.285 81.9873 137.285 81.7984V81.7586C137.285 81.2681 137.151 80.8869 136.883 80.6151C136.618 80.3434 136.215 80.2075 135.675 80.2075C135.114 80.2075 134.675 80.3301 134.357 80.5754C134.039 80.8206 133.815 81.0825 133.686 81.3609L132.572 80.9632C132.771 80.4991 133.036 80.1379 133.368 79.8794C133.703 79.6175 134.067 79.4352 134.462 79.3325C134.859 79.2264 135.25 79.1734 135.635 79.1734C135.88 79.1734 136.162 79.2032 136.48 79.2629C136.802 79.3192 137.111 79.4369 137.41 79.6159C137.711 79.7948 137.962 80.065 138.16 80.4262C138.359 80.7875 138.459 81.2714 138.459 81.8779V86.9092H137.285V85.8751H137.226C137.146 86.0408 137.014 86.2181 136.828 86.407C136.642 86.596 136.396 86.7567 136.087 86.8893C135.779 87.0219 135.403 87.0882 134.959 87.0882ZM135.138 86.0342C135.602 86.0342 135.993 85.943 136.311 85.7607C136.632 85.5785 136.874 85.3431 137.037 85.0548C137.203 84.7664 137.285 84.4632 137.285 84.145V83.0711C137.236 83.1308 137.126 83.1855 136.957 83.2352C136.792 83.2816 136.599 83.323 136.381 83.3595C136.165 83.3926 135.955 83.4224 135.749 83.449C135.547 83.4722 135.383 83.492 135.257 83.5086C134.952 83.5484 134.667 83.613 134.402 83.7025C134.14 83.7887 133.928 83.9196 133.766 84.0953C133.606 84.2676 133.527 84.5029 133.527 84.8012C133.527 85.2089 133.678 85.5171 133.979 85.7259C134.284 85.9314 134.67 86.0342 135.138 86.0342ZM140.6 86.9092V79.2728H141.734V80.466H141.833C141.992 80.0583 142.249 79.7418 142.604 79.5164C142.958 79.2877 143.384 79.1734 143.881 79.1734C144.385 79.1734 144.805 79.2877 145.139 79.5164C145.477 79.7418 145.741 80.0583 145.93 80.466H146.009C146.205 80.0716 146.498 79.7584 146.889 79.5264C147.28 79.291 147.749 79.1734 148.296 79.1734C148.979 79.1734 149.537 79.3872 149.972 79.8147C150.406 80.239 150.623 80.9002 150.623 81.7984V86.9092H149.45V81.7984C149.45 81.2349 149.296 80.8322 148.987 80.5903C148.679 80.3483 148.316 80.2274 147.899 80.2274C147.362 80.2274 146.946 80.3898 146.651 80.7146C146.356 81.0361 146.208 81.4437 146.208 81.9376V86.9092H145.015V81.6791C145.015 81.2449 144.874 80.8952 144.592 80.6301C144.311 80.3616 143.948 80.2274 143.504 80.2274C143.199 80.2274 142.914 80.3086 142.649 80.471C142.387 80.6334 142.175 80.8588 142.012 81.1471C141.853 81.4321 141.774 81.7619 141.774 82.1365V86.9092H140.6ZM162.433 79.2728C162.373 78.769 162.131 78.3779 161.707 78.0995C161.283 77.8211 160.763 77.6819 160.146 77.6819C159.695 77.6819 159.301 77.7548 158.963 77.9007C158.628 78.0465 158.366 78.247 158.177 78.5022C157.992 78.7574 157.899 79.0474 157.899 79.3722C157.899 79.644 157.964 79.8777 158.093 80.0732C158.225 80.2655 158.394 80.4262 158.6 80.5555C158.805 80.6814 159.021 80.7858 159.246 80.8687C159.472 80.9482 159.679 81.0129 159.868 81.0626L160.902 81.341C161.167 81.4106 161.462 81.5067 161.787 81.6294C162.115 81.752 162.428 81.9194 162.726 82.1315C163.028 82.3403 163.276 82.6088 163.472 82.9369C163.668 83.265 163.765 83.6677 163.765 84.145C163.765 84.6952 163.621 85.1923 163.333 85.6365C163.048 86.0806 162.63 86.4336 162.08 86.6954C161.533 86.9572 160.869 87.0882 160.086 87.0882C159.357 87.0882 158.726 86.9705 158.192 86.7352C157.662 86.4999 157.244 86.1717 156.939 85.7508C156.638 85.3299 156.467 84.841 156.427 84.2842H157.7C157.733 84.6686 157.862 84.9868 158.088 85.2387C158.316 85.4873 158.605 85.6729 158.953 85.7955C159.304 85.9149 159.682 85.9745 160.086 85.9745C160.557 85.9745 160.98 85.8983 161.354 85.7458C161.729 85.5901 162.025 85.3746 162.244 85.0995C162.463 84.8211 162.572 84.4963 162.572 84.1251C162.572 83.787 162.478 83.5119 162.289 83.2998C162.1 83.0877 161.851 82.9153 161.543 82.7828C161.235 82.6502 160.902 82.5342 160.544 82.4347L159.291 82.0768C158.495 81.8481 157.866 81.5216 157.402 81.0974C156.938 80.6731 156.706 80.118 156.706 79.4319C156.706 78.8618 156.86 78.3647 157.168 77.9404C157.48 77.5129 157.897 77.1814 158.421 76.9461C158.948 76.7075 159.536 76.5882 160.186 76.5882C160.842 76.5882 161.425 76.7058 161.936 76.9411C162.446 77.1731 162.851 77.4913 163.149 77.8957C163.45 78.3 163.61 78.7591 163.626 79.2728H162.433ZM165.633 86.9092V79.2728H166.807V86.9092H165.633ZM166.23 78.0001C166.001 78.0001 165.804 77.9222 165.638 77.7664C165.476 77.6106 165.395 77.4234 165.395 77.2046C165.395 76.9859 165.476 76.7986 165.638 76.6428C165.804 76.4871 166.001 76.4092 166.23 76.4092C166.459 76.4092 166.654 76.4871 166.817 76.6428C166.982 76.7986 167.065 76.9859 167.065 77.2046C167.065 77.4234 166.982 77.6106 166.817 77.7664C166.654 77.9222 166.459 78.0001 166.23 78.0001ZM168.737 86.9092V86.0143L173.072 80.4461V80.3666H168.876V79.2728H174.584V80.2075L170.368 85.7359V85.8154H174.723V86.9092H168.737ZM179.513 87.0683C178.777 87.0683 178.142 86.9059 177.609 86.5811C177.078 86.2529 176.669 85.7955 176.381 85.2089C176.096 84.6189 175.953 83.9329 175.953 83.1507C175.953 82.3685 176.096 81.6791 176.381 81.0825C176.669 80.4826 177.07 80.0152 177.584 79.6805C178.101 79.3424 178.704 79.1734 179.394 79.1734C179.791 79.1734 180.184 79.2397 180.572 79.3722C180.96 79.5048 181.313 79.7203 181.631 80.0186C181.949 80.3135 182.203 80.7046 182.391 81.1919C182.58 81.6791 182.675 82.279 182.675 82.9916V83.4887H176.788V82.4745H181.482C181.482 82.0436 181.395 81.6592 181.223 81.3211C181.054 80.983 180.812 80.7162 180.497 80.5207C180.186 80.3251 179.818 80.2274 179.394 80.2274C178.926 80.2274 178.522 80.3434 178.18 80.5754C177.842 80.8041 177.582 81.1024 177.4 81.4703C177.218 81.8382 177.127 82.2326 177.127 82.6535V83.3296C177.127 83.9063 177.226 84.3952 177.425 84.7963C177.627 85.194 177.907 85.4972 178.265 85.7061C178.623 85.9115 179.039 86.0143 179.513 86.0143C179.821 86.0143 180.1 85.9712 180.348 85.885C180.6 85.7955 180.817 85.663 180.999 85.4873C181.182 85.3083 181.323 85.0863 181.422 84.8211L182.555 85.1393C182.436 85.5238 182.236 85.8618 181.954 86.1535C181.672 86.4419 181.324 86.6672 180.91 86.8296C180.496 86.9887 180.03 87.0683 179.513 87.0683Z" fill="#808080"/>
<path d="M133.763 101V112.636H131.303V103.335H131.235L128.57 105.006V102.824L131.451 101H133.763ZM141.092 112.892C140.114 112.888 139.273 112.648 138.569 112.17C137.868 111.693 137.328 111.002 136.95 110.096C136.575 109.191 136.389 108.102 136.393 106.829C136.393 105.56 136.58 104.479 136.955 103.585C137.334 102.691 137.874 102.011 138.575 101.545C139.279 101.076 140.118 100.841 141.092 100.841C142.065 100.841 142.902 101.076 143.603 101.545C144.308 102.015 144.849 102.697 145.228 103.591C145.607 104.481 145.794 105.56 145.79 106.829C145.79 108.106 145.601 109.197 145.222 110.102C144.847 111.007 144.309 111.699 143.609 112.176C142.908 112.653 142.069 112.892 141.092 112.892ZM141.092 110.852C141.758 110.852 142.29 110.517 142.688 109.846C143.086 109.176 143.283 108.17 143.279 106.829C143.279 105.947 143.188 105.212 143.006 104.625C142.828 104.038 142.575 103.596 142.245 103.301C141.919 103.006 141.535 102.858 141.092 102.858C140.429 102.858 139.898 103.189 139.501 103.852C139.103 104.515 138.902 105.507 138.898 106.829C138.898 107.723 138.987 108.47 139.165 109.068C139.347 109.663 139.603 110.11 139.933 110.409C140.262 110.704 140.648 110.852 141.092 110.852ZM153.005 105.858V107.778H147.698V105.858H153.005ZM160.107 101V112.636H157.647V103.335H157.579L154.914 105.006V102.824L157.795 101H160.107ZM167.123 112.795C166.32 112.795 165.604 112.648 164.975 112.352C164.35 112.057 163.854 111.649 163.487 111.131C163.119 110.612 162.928 110.017 162.913 109.346H165.299C165.326 109.797 165.515 110.163 165.867 110.443C166.219 110.723 166.638 110.864 167.123 110.864C167.509 110.864 167.85 110.778 168.146 110.608C168.445 110.434 168.678 110.193 168.844 109.886C169.015 109.576 169.1 109.22 169.1 108.818C169.1 108.409 169.013 108.049 168.839 107.739C168.668 107.428 168.432 107.185 168.129 107.011C167.826 106.837 167.479 106.748 167.089 106.744C166.748 106.744 166.416 106.814 166.094 106.954C165.776 107.095 165.528 107.286 165.35 107.528L163.163 107.136L163.714 101H170.827V103.011H165.742L165.441 105.926H165.509C165.714 105.638 166.022 105.399 166.435 105.21C166.848 105.021 167.31 104.926 167.822 104.926C168.522 104.926 169.147 105.091 169.697 105.42C170.246 105.75 170.68 106.203 170.998 106.778C171.316 107.35 171.473 108.009 171.469 108.756C171.473 109.54 171.291 110.237 170.924 110.846C170.56 111.453 170.051 111.93 169.396 112.278C168.744 112.623 167.987 112.795 167.123 112.795Z" fill="white"/>
<path d="M154 62V60C154 58.9391 153.579 57.9217 152.828 57.1716C152.078 56.4214 151.061 56 150 56H144C142.939 56 141.922 56.4214 141.172 57.1716C140.421 57.9217 140 58.9391 140 60V62M160 62V60C159.999 59.1137 159.704 58.2528 159.161 57.5523C158.618 56.8519 157.858 56.3516 157 56.13M154 44.13C154.86 44.3503 155.623 44.8507 156.168 45.5523C156.712 46.2539 157.008 47.1168 157.008 48.005C157.008 48.8932 156.712 49.7561 156.168 50.4577C155.623 51.1593 154.86 51.6597 154 51.88M151 48C151 50.2091 149.209 52 147 52C144.791 52 143 50.2091 143 48C143 45.7909 144.791 44 147 44C149.209 44 151 45.7909 151 48Z" stroke="#4BC1BD" stroke-width="2" stroke-linecap="round" stroke-linejoin="round"/>
<path d="M300.5 32C300.5 25.6487 305.649 20.5 312 20.5H548C554.351 20.5 559.5 25.6487 559.5 32V125C559.5 131.351 554.351 136.5 548 136.5H312C305.649 136.5 300.5 131.351 300.5 125V32Z" fill="black" stroke="#2C2C2C"/>
<path d="M402.289 86.9092V76.7274H403.522V85.8154H408.255V86.9092H402.289ZM413.107 87.0683C412.417 87.0683 411.813 86.9042 411.292 86.5761C410.775 86.248 410.371 85.7889 410.079 85.199C409.791 84.609 409.647 83.9196 409.647 83.1308C409.647 82.3353 409.791 81.641 410.079 81.0477C410.371 80.4544 410.775 79.9937 411.292 79.6656C411.813 79.3374 412.417 79.1734 413.107 79.1734C413.796 79.1734 414.399 79.3374 414.916 79.6656C415.437 79.9937 415.841 80.4544 416.13 81.0477C416.421 81.641 416.567 82.3353 416.567 83.1308C416.567 83.9196 416.421 84.609 416.13 85.199C415.841 85.7889 415.437 86.248 414.916 86.5761C414.399 86.9042 413.796 87.0683 413.107 87.0683ZM413.107 86.0143C413.63 86.0143 414.061 85.8801 414.399 85.6116C414.737 85.3431 414.988 84.9901 415.15 84.5526C415.313 84.1151 415.394 83.6412 415.394 83.1308C415.394 82.6204 415.313 82.1447 415.15 81.7039C414.988 81.2631 414.737 80.9068 414.399 80.635C414.061 80.3633 413.63 80.2274 413.107 80.2274C412.583 80.2274 412.152 80.3633 411.814 80.635C411.476 80.9068 411.226 81.2631 411.063 81.7039C410.901 82.1447 410.82 82.6204 410.82 83.1308C410.82 83.6412 410.901 84.1151 411.063 84.5526C411.226 84.9901 411.476 85.3431 411.814 85.6116C412.152 85.8801 412.583 86.0143 413.107 86.0143ZM421.46 87.0683C420.744 87.0683 420.128 86.8992 419.611 86.5612C419.094 86.2231 418.696 85.7574 418.418 85.1642C418.139 84.5709 418 83.8931 418 83.1308C418 82.3552 418.143 81.6708 418.428 81.0775C418.716 80.4809 419.117 80.0152 419.631 79.6805C420.148 79.3424 420.751 79.1734 421.44 79.1734C421.977 79.1734 422.461 79.2728 422.892 79.4717C423.323 79.6705 423.676 79.949 423.951 80.3069C424.226 80.6649 424.397 81.0825 424.463 81.5597H423.29C423.2 81.2117 423.002 80.9035 422.693 80.635C422.388 80.3633 421.977 80.2274 421.46 80.2274C421.003 80.2274 420.602 80.3467 420.257 80.5853C419.916 80.8206 419.649 81.1537 419.457 81.5846C419.268 82.0122 419.173 82.5143 419.173 83.091C419.173 83.681 419.266 84.1947 419.452 84.6322C419.641 85.0697 419.906 85.4094 420.247 85.6514C420.592 85.8933 420.996 86.0143 421.46 86.0143C421.765 86.0143 422.042 85.9613 422.291 85.8552C422.539 85.7491 422.75 85.5967 422.922 85.3978C423.094 85.199 423.217 84.9603 423.29 84.6819H424.463C424.397 85.1327 424.233 85.5387 423.971 85.8999C423.712 86.2579 423.369 86.5429 422.942 86.7551C422.518 86.9639 422.024 87.0683 421.46 87.0683ZM428.426 87.0882C427.942 87.0882 427.502 86.997 427.108 86.8147C426.714 86.6291 426.4 86.3623 426.168 86.0143C425.936 85.663 425.82 85.2387 425.82 84.7416C425.82 84.3041 425.907 83.9494 426.079 83.6776C426.251 83.4026 426.482 83.1871 426.77 83.0313C427.058 82.8756 427.377 82.7596 427.725 82.6833C428.076 82.6038 428.429 82.5408 428.783 82.4944C429.247 82.4347 429.624 82.39 429.912 82.3602C430.204 82.327 430.416 82.2723 430.548 82.1961C430.684 82.1199 430.752 81.9873 430.752 81.7984V81.7586C430.752 81.2681 430.618 80.8869 430.35 80.6151C430.084 80.3434 429.682 80.2075 429.141 80.2075C428.581 80.2075 428.142 80.3301 427.824 80.5754C427.506 80.8206 427.282 81.0825 427.153 81.3609L426.039 80.9632C426.238 80.4991 426.503 80.1379 426.835 79.8794C427.169 79.6175 427.534 79.4352 427.928 79.3325C428.326 79.2264 428.717 79.1734 429.102 79.1734C429.347 79.1734 429.629 79.2032 429.947 79.2629C430.268 79.3192 430.578 79.4369 430.877 79.6159C431.178 79.7948 431.428 80.065 431.627 80.4262C431.826 80.7875 431.926 81.2714 431.926 81.8779V86.9092H430.752V85.8751H430.693C430.613 86.0408 430.48 86.2181 430.295 86.407C430.109 86.596 429.862 86.7567 429.554 86.8893C429.246 87.0219 428.87 87.0882 428.426 87.0882ZM428.604 86.0342C429.069 86.0342 429.46 85.943 429.778 85.7607C430.099 85.5785 430.341 85.3431 430.504 85.0548C430.669 84.7664 430.752 84.4632 430.752 84.145V83.0711C430.703 83.1308 430.593 83.1855 430.424 83.2352C430.258 83.2816 430.066 83.323 429.847 83.3595C429.632 83.3926 429.421 83.4224 429.216 83.449C429.014 83.4722 428.85 83.492 428.724 83.5086C428.419 83.5484 428.134 83.613 427.869 83.7025C427.607 83.7887 427.395 83.9196 427.232 84.0953C427.073 84.2676 426.994 84.5029 426.994 84.8012C426.994 85.2089 427.145 85.5171 427.446 85.7259C427.751 85.9314 428.137 86.0342 428.604 86.0342ZM437.388 79.2728V80.2671H433.431V79.2728H437.388ZM434.584 77.4433H435.757V84.7217C435.757 85.0531 435.805 85.3017 435.902 85.4674C436.001 85.6298 436.127 85.7392 436.279 85.7955C436.435 85.8486 436.599 85.8751 436.772 85.8751C436.901 85.8751 437.007 85.8685 437.09 85.8552C437.173 85.8386 437.239 85.8254 437.289 85.8154L437.527 86.8694C437.448 86.8992 437.337 86.9291 437.194 86.9589C437.052 86.992 436.871 87.0086 436.652 87.0086C436.321 87.0086 435.996 86.9374 435.678 86.7948C435.363 86.6523 435.101 86.4352 434.892 86.1436C434.687 85.8519 434.584 85.484 434.584 85.0399V77.4433ZM439.153 86.9092V79.2728H440.326V86.9092H439.153ZM439.75 78.0001C439.521 78.0001 439.324 77.9222 439.158 77.7664C438.996 77.6106 438.914 77.4234 438.914 77.2046C438.914 76.9859 438.996 76.7986 439.158 76.6428C439.324 76.4871 439.521 76.4092 439.75 76.4092C439.978 76.4092 440.174 76.4871 440.336 76.6428C440.502 76.7986 440.585 76.9859 440.585 77.2046C440.585 77.4234 440.502 77.6106 440.336 77.7664C440.174 77.9222 439.978 78.0001 439.75 78.0001ZM445.578 87.0683C444.888 87.0683 444.283 86.9042 443.763 86.5761C443.246 86.248 442.841 85.7889 442.55 85.199C442.261 84.609 442.117 83.9196 442.117 83.1308C442.117 82.3353 442.261 81.641 442.55 81.0477C442.841 80.4544 443.246 79.9937 443.763 79.6656C444.283 79.3374 444.888 79.1734 445.578 79.1734C446.267 79.1734 446.87 79.3374 447.387 79.6656C447.908 79.9937 448.312 80.4544 448.6 81.0477C448.892 81.641 449.038 82.3353 449.038 83.1308C449.038 83.9196 448.892 84.609 448.6 85.199C448.312 85.7889 447.908 86.248 447.387 86.5761C446.87 86.9042 446.267 87.0683 445.578 87.0683ZM445.578 86.0143C446.101 86.0143 446.532 85.8801 446.87 85.6116C447.208 85.3431 447.458 84.9901 447.621 84.5526C447.783 84.1151 447.864 83.6412 447.864 83.1308C447.864 82.6204 447.783 82.1447 447.621 81.7039C447.458 81.2631 447.208 80.9068 446.87 80.635C446.532 80.3633 446.101 80.2274 445.578 80.2274C445.054 80.2274 444.623 80.3633 444.285 80.635C443.947 80.9068 443.697 81.2631 443.534 81.7039C443.372 82.1447 443.291 82.6204 443.291 83.1308C443.291 83.6412 443.372 84.1151 443.534 84.5526C443.697 84.9901 443.947 85.3431 444.285 85.6116C444.623 85.8801 445.054 86.0143 445.578 86.0143ZM452.002 82.3154V86.9092H450.829V79.2728H451.962V80.466H452.062C452.241 80.0782 452.512 79.7667 452.877 79.5313C453.242 79.2927 453.712 79.1734 454.289 79.1734C454.806 79.1734 455.258 79.2794 455.646 79.4916C456.034 79.7004 456.336 80.0186 456.551 80.4461C456.766 80.8704 456.874 81.4073 456.874 82.0569V86.9092H455.701V82.1365C455.701 81.5365 455.545 81.0692 455.234 80.7345C454.922 80.3964 454.494 80.2274 453.951 80.2274C453.576 80.2274 453.242 80.3086 452.947 80.471C452.655 80.6334 452.425 80.8704 452.256 81.1819C452.087 81.4935 452.002 81.8713 452.002 82.3154Z" fill="#808080"/>
<path d="M352.332 113V111.54L358.138 103.392H352.32V101.364H361.229V102.824L355.417 110.972H361.241V113H352.332ZM368.68 109.284V104.273H371.1V113H368.776V111.415H368.685C368.488 111.926 368.161 112.337 367.702 112.648C367.248 112.958 366.693 113.114 366.038 113.114C365.454 113.114 364.941 112.981 364.498 112.716C364.055 112.451 363.708 112.074 363.458 111.585C363.212 111.097 363.087 110.511 363.083 109.83V104.273H365.504V109.398C365.507 109.913 365.646 110.32 365.918 110.619C366.191 110.919 366.557 111.068 367.015 111.068C367.307 111.068 367.579 111.002 367.833 110.869C368.087 110.733 368.291 110.532 368.447 110.267C368.606 110.002 368.683 109.674 368.68 109.284ZM365.373 103.08C365.047 103.08 364.767 102.966 364.532 102.739C364.297 102.508 364.18 102.235 364.18 101.92C364.18 101.598 364.297 101.326 364.532 101.102C364.767 100.879 365.047 100.767 365.373 100.767C365.702 100.767 365.981 100.879 366.208 101.102C366.439 101.326 366.555 101.598 366.555 101.92C366.555 102.235 366.439 102.508 366.208 102.739C365.981 102.966 365.702 103.08 365.373 103.08ZM368.85 103.08C368.524 103.08 368.244 102.966 368.009 102.739C367.774 102.508 367.657 102.235 367.657 101.92C367.657 101.598 367.774 101.326 368.009 101.102C368.244 100.879 368.524 100.767 368.85 100.767C369.18 100.767 369.458 100.879 369.685 101.102C369.916 101.326 370.032 101.598 370.032 101.92C370.032 102.235 369.916 102.508 369.685 102.739C369.458 102.966 369.18 103.08 368.85 103.08ZM373.036 113V104.273H375.383V105.795H375.474C375.633 105.254 375.9 104.845 376.275 104.568C376.65 104.288 377.082 104.148 377.57 104.148C377.692 104.148 377.822 104.155 377.962 104.17C378.103 104.186 378.226 104.206 378.332 104.233V106.381C378.218 106.347 378.061 106.316 377.86 106.29C377.659 106.263 377.476 106.25 377.309 106.25C376.953 106.25 376.635 106.328 376.354 106.483C376.078 106.634 375.858 106.847 375.695 107.119C375.536 107.392 375.457 107.706 375.457 108.062V113H373.036ZM379.583 113V104.273H382.004V113H379.583ZM380.799 103.148C380.439 103.148 380.13 103.028 379.873 102.79C379.619 102.547 379.492 102.258 379.492 101.92C379.492 101.587 379.619 101.301 379.873 101.062C380.13 100.82 380.439 100.699 380.799 100.699C381.159 100.699 381.466 100.82 381.719 101.062C381.977 101.301 382.106 101.587 382.106 101.92C382.106 102.258 381.977 102.547 381.719 102.79C381.466 103.028 381.159 103.148 380.799 103.148ZM387.886 113.17C386.992 113.17 386.223 112.981 385.579 112.602C384.939 112.22 384.446 111.689 384.102 111.011C383.761 110.333 383.59 109.553 383.59 108.67C383.59 107.777 383.763 106.992 384.107 106.318C384.456 105.64 384.95 105.112 385.59 104.733C386.23 104.35 386.992 104.159 387.874 104.159C388.636 104.159 389.302 104.297 389.874 104.574C390.446 104.85 390.899 105.239 391.232 105.739C391.566 106.239 391.749 106.826 391.783 107.5H389.499C389.435 107.064 389.264 106.714 388.988 106.449C388.715 106.18 388.357 106.045 387.914 106.045C387.539 106.045 387.211 106.148 386.931 106.352C386.655 106.553 386.439 106.847 386.283 107.233C386.128 107.619 386.05 108.087 386.05 108.636C386.05 109.193 386.126 109.667 386.278 110.057C386.433 110.447 386.651 110.744 386.931 110.949C387.211 111.153 387.539 111.256 387.914 111.256C388.191 111.256 388.439 111.199 388.658 111.085C388.882 110.972 389.066 110.807 389.21 110.591C389.357 110.371 389.454 110.108 389.499 109.801H391.783C391.746 110.468 391.564 111.055 391.238 111.562C390.916 112.066 390.471 112.46 389.903 112.744C389.335 113.028 388.662 113.17 387.886 113.17ZM395.754 107.955V113H393.333V101.364H395.685V105.812H395.788C395.985 105.297 396.303 104.894 396.742 104.602C397.182 104.307 397.733 104.159 398.396 104.159C399.002 104.159 399.53 104.292 399.981 104.557C400.435 104.818 400.788 105.195 401.038 105.688C401.291 106.176 401.416 106.761 401.413 107.443V113H398.992V107.875C398.996 107.337 398.86 106.919 398.583 106.619C398.31 106.32 397.928 106.17 397.435 106.17C397.106 106.17 396.814 106.241 396.56 106.381C396.31 106.521 396.113 106.725 395.969 106.994C395.829 107.259 395.757 107.58 395.754 107.955ZM405.948 111.409L405.886 112.034C405.836 112.534 405.742 113.032 405.602 113.528C405.465 114.028 405.321 114.481 405.17 114.886C405.022 115.292 404.903 115.61 404.812 115.841H403.244C403.3 115.617 403.378 115.305 403.477 114.903C403.575 114.506 403.668 114.059 403.755 113.562C403.842 113.066 403.897 112.561 403.92 112.045L403.948 111.409H405.948ZM417.675 104.71C417.63 104.252 417.435 103.896 417.09 103.642C416.746 103.388 416.278 103.261 415.687 103.261C415.285 103.261 414.946 103.318 414.67 103.432C414.393 103.542 414.181 103.695 414.033 103.892C413.889 104.089 413.817 104.312 413.817 104.562C413.81 104.771 413.853 104.953 413.948 105.108C414.047 105.263 414.181 105.398 414.352 105.511C414.522 105.621 414.719 105.718 414.942 105.801C415.166 105.881 415.405 105.949 415.658 106.006L416.704 106.256C417.211 106.369 417.677 106.521 418.102 106.71C418.526 106.9 418.893 107.133 419.204 107.409C419.514 107.686 419.755 108.011 419.925 108.386C420.1 108.761 420.189 109.191 420.192 109.676C420.189 110.388 420.007 111.006 419.647 111.528C419.291 112.047 418.776 112.451 418.102 112.739C417.431 113.023 416.622 113.165 415.675 113.165C414.736 113.165 413.918 113.021 413.221 112.733C412.528 112.445 411.986 112.019 411.596 111.455C411.21 110.886 411.007 110.184 410.988 109.347H413.369C413.395 109.737 413.507 110.062 413.704 110.324C413.905 110.581 414.172 110.777 414.505 110.909C414.842 111.038 415.223 111.102 415.647 111.102C416.064 111.102 416.425 111.042 416.732 110.92C417.043 110.799 417.283 110.631 417.454 110.415C417.624 110.199 417.71 109.951 417.71 109.67C417.71 109.409 417.632 109.189 417.477 109.011C417.325 108.833 417.102 108.682 416.806 108.557C416.514 108.432 416.156 108.318 415.732 108.216L414.465 107.898C413.484 107.659 412.71 107.286 412.141 106.778C411.573 106.271 411.291 105.587 411.295 104.727C411.291 104.023 411.478 103.407 411.857 102.881C412.24 102.354 412.764 101.943 413.431 101.648C414.098 101.352 414.855 101.205 415.704 101.205C416.567 101.205 417.321 101.352 417.965 101.648C418.613 101.943 419.117 102.354 419.477 102.881C419.836 103.407 420.022 104.017 420.033 104.71H417.675ZM423.523 113L421.148 104.273H423.597L424.95 110.136H425.029L426.438 104.273H428.842L430.273 110.102H430.347L431.677 104.273H434.12L431.751 113H429.188L427.688 107.511H427.58L426.08 113H423.523ZM435.411 113V104.273H437.832V113H435.411ZM436.627 103.148C436.267 103.148 435.959 103.028 435.701 102.79C435.447 102.547 435.32 102.258 435.32 101.92C435.32 101.587 435.447 101.301 435.701 101.062C435.959 100.82 436.267 100.699 436.627 100.699C436.987 100.699 437.294 100.82 437.548 101.062C437.805 101.301 437.934 101.587 437.934 101.92C437.934 102.258 437.805 102.547 437.548 102.79C437.294 103.028 436.987 103.148 436.627 103.148ZM444.413 104.273V106.091H439.157V104.273H444.413ZM440.35 102.182H442.771V110.318C442.771 110.542 442.805 110.716 442.873 110.841C442.941 110.962 443.036 111.047 443.157 111.097C443.282 111.146 443.426 111.17 443.589 111.17C443.702 111.17 443.816 111.161 443.93 111.142C444.043 111.119 444.13 111.102 444.191 111.091L444.572 112.892C444.451 112.93 444.28 112.973 444.06 113.023C443.841 113.076 443.574 113.108 443.259 113.119C442.676 113.142 442.165 113.064 441.725 112.886C441.29 112.708 440.951 112.432 440.708 112.057C440.466 111.682 440.346 111.208 440.35 110.636V102.182ZM445.944 113V111.557L450.217 106.267V106.205H446.092V104.273H453.131V105.847L449.12 111.006V111.068H453.279V113H445.944ZM458.857 113.17C457.96 113.17 457.187 112.989 456.539 112.625C455.895 112.258 455.399 111.739 455.05 111.068C454.702 110.394 454.528 109.597 454.528 108.676C454.528 107.778 454.702 106.991 455.05 106.312C455.399 105.634 455.889 105.106 456.522 104.727C457.158 104.348 457.905 104.159 458.761 104.159C459.336 104.159 459.872 104.252 460.369 104.438C460.869 104.619 461.304 104.894 461.675 105.261C462.05 105.629 462.342 106.091 462.55 106.648C462.759 107.201 462.863 107.848 462.863 108.591V109.256H455.494V107.756H460.585C460.585 107.407 460.509 107.098 460.357 106.83C460.206 106.561 459.996 106.35 459.727 106.199C459.461 106.044 459.153 105.966 458.8 105.966C458.433 105.966 458.107 106.051 457.823 106.222C457.543 106.388 457.323 106.614 457.164 106.898C457.005 107.178 456.924 107.491 456.92 107.835V109.261C456.92 109.693 456.999 110.066 457.158 110.381C457.321 110.695 457.55 110.938 457.846 111.108C458.141 111.278 458.492 111.364 458.897 111.364C459.166 111.364 459.412 111.326 459.636 111.25C459.859 111.174 460.05 111.061 460.21 110.909C460.369 110.758 460.49 110.572 460.573 110.352L462.812 110.5C462.698 111.038 462.465 111.508 462.113 111.909C461.764 112.307 461.314 112.617 460.761 112.841C460.211 113.061 459.577 113.17 458.857 113.17ZM464.442 113V104.273H466.789V105.795H466.88C467.039 105.254 467.306 104.845 467.681 104.568C468.056 104.288 468.488 104.148 468.977 104.148C469.098 104.148 469.228 104.155 469.369 104.17C469.509 104.186 469.632 104.206 469.738 104.233V106.381C469.624 106.347 469.467 106.316 469.266 106.29C469.066 106.263 468.882 106.25 468.715 106.25C468.359 106.25 468.041 106.328 467.761 106.483C467.484 106.634 467.264 106.847 467.102 107.119C466.942 107.392 466.863 107.706 466.863 108.062V113H464.442ZM473.41 101.364V113H470.989V101.364H473.41ZM477.837 113.165C477.281 113.165 476.784 113.068 476.349 112.875C475.913 112.678 475.568 112.388 475.315 112.006C475.065 111.619 474.94 111.138 474.94 110.562C474.94 110.078 475.029 109.67 475.207 109.341C475.385 109.011 475.627 108.746 475.934 108.545C476.241 108.345 476.589 108.193 476.979 108.091C477.373 107.989 477.786 107.917 478.218 107.875C478.726 107.822 479.135 107.773 479.445 107.727C479.756 107.678 479.981 107.606 480.121 107.511C480.262 107.417 480.332 107.277 480.332 107.091V107.057C480.332 106.697 480.218 106.419 479.991 106.222C479.767 106.025 479.449 105.926 479.036 105.926C478.601 105.926 478.254 106.023 477.996 106.216C477.739 106.405 477.568 106.644 477.485 106.932L475.246 106.75C475.36 106.22 475.584 105.761 475.917 105.375C476.25 104.985 476.68 104.686 477.207 104.477C477.737 104.265 478.351 104.159 479.048 104.159C479.532 104.159 479.996 104.216 480.44 104.33C480.887 104.443 481.282 104.619 481.627 104.858C481.976 105.097 482.25 105.403 482.451 105.778C482.652 106.15 482.752 106.595 482.752 107.114V113H480.457V111.79H480.388C480.248 112.062 480.061 112.303 479.826 112.511C479.591 112.716 479.309 112.877 478.979 112.994C478.65 113.108 478.269 113.165 477.837 113.165ZM478.531 111.494C478.887 111.494 479.201 111.424 479.474 111.284C479.746 111.14 479.96 110.947 480.116 110.705C480.271 110.462 480.349 110.187 480.349 109.881V108.955C480.273 109.004 480.169 109.049 480.036 109.091C479.907 109.129 479.762 109.165 479.599 109.199C479.436 109.229 479.273 109.258 479.11 109.284C478.947 109.307 478.799 109.328 478.667 109.347C478.383 109.388 478.135 109.455 477.923 109.545C477.71 109.636 477.546 109.759 477.428 109.915C477.311 110.066 477.252 110.256 477.252 110.483C477.252 110.812 477.371 111.064 477.61 111.239C477.853 111.409 478.159 111.494 478.531 111.494ZM487.05 107.955V113H484.63V104.273H486.937V105.812H487.039C487.232 105.305 487.556 104.903 488.011 104.608C488.465 104.309 489.016 104.159 489.664 104.159C490.27 104.159 490.799 104.292 491.249 104.557C491.7 104.822 492.05 105.201 492.3 105.693C492.55 106.182 492.675 106.765 492.675 107.443V113H490.255V107.875C490.259 107.341 490.122 106.924 489.846 106.625C489.569 106.322 489.189 106.17 488.704 106.17C488.378 106.17 488.09 106.241 487.84 106.381C487.594 106.521 487.401 106.725 487.261 106.994C487.124 107.259 487.054 107.58 487.05 107.955ZM497.799 113.142C497.136 113.142 496.536 112.972 495.998 112.631C495.464 112.286 495.04 111.78 494.725 111.114C494.415 110.443 494.259 109.621 494.259 108.648C494.259 107.648 494.42 106.816 494.742 106.153C495.064 105.487 495.492 104.989 496.026 104.659C496.564 104.326 497.153 104.159 497.793 104.159C498.282 104.159 498.689 104.242 499.015 104.409C499.344 104.572 499.61 104.777 499.81 105.023C500.015 105.265 500.17 105.504 500.276 105.739H500.35V101.364H502.765V113H500.379V111.602H500.276C500.163 111.845 500.002 112.085 499.793 112.324C499.589 112.559 499.322 112.754 498.992 112.909C498.666 113.064 498.269 113.142 497.799 113.142ZM498.566 111.216C498.956 111.216 499.286 111.11 499.555 110.898C499.827 110.682 500.036 110.381 500.18 109.994C500.327 109.608 500.401 109.155 500.401 108.636C500.401 108.117 500.329 107.667 500.185 107.284C500.041 106.902 499.833 106.606 499.56 106.398C499.288 106.189 498.956 106.085 498.566 106.085C498.168 106.085 497.833 106.193 497.56 106.409C497.288 106.625 497.081 106.924 496.941 107.307C496.801 107.689 496.731 108.133 496.731 108.636C496.731 109.144 496.801 109.593 496.941 109.983C497.085 110.369 497.291 110.672 497.56 110.892C497.833 111.108 498.168 111.216 498.566 111.216ZM506.17 113.148C505.795 113.148 505.473 113.015 505.204 112.75C504.939 112.481 504.806 112.159 504.806 111.784C504.806 111.413 504.939 111.095 505.204 110.83C505.473 110.564 505.795 110.432 506.17 110.432C506.533 110.432 506.852 110.564 507.124 110.83C507.397 111.095 507.533 111.413 507.533 111.784C507.533 112.034 507.469 112.263 507.34 112.472C507.215 112.676 507.05 112.841 506.846 112.966C506.641 113.087 506.416 113.148 506.17 113.148Z" fill="white"/>
<path d="M438 51C438 55.993 432.461 61.193 430.601 62.799C430.428 62.9293 430.217 62.9998 430 62.9998C429.783 62.9998 429.572 62.9293 429.399 62.799C427.539 61.193 422 55.993 422 51C422 48.8783 422.843 46.8434 424.343 45.3431C425.843 43.8429 427.878 43 430 43C432.122 43 434.157 43.8429 435.657 45.3431C437.157 46.8434 438 48.8783 438 51Z" stroke="#4BC1BD" stroke-width="2" stroke-linecap="round" stroke-linejoin="round"/>
<path d="M430 54C431.657 54 433 52.6569 433 51C433 49.3431 431.657 48 430 48C428.343 48 427 49.3431 427 51C427 52.6569 428.343 54 430 54Z" stroke="#4BC1BD" stroke-width="2" stroke-linecap="round" stroke-linejoin="round"/>
<path d="M20 163C20 159.686 22.6863 157 26 157H101C104.314 157 107 159.686 107 163V181C107 184.314 104.314 187 101 187H26C22.6863 187 20 184.314 20 181V163Z" fill="#5363EE"/>
<path d="M30.5284 168.406V167.273H37.2827V168.406H34.5597V176H33.2472V168.406H30.5284ZM40.5447 176.132C39.8999 176.132 39.3445 175.994 38.8786 175.719C38.4155 175.44 38.0575 175.05 37.8047 174.547C37.5547 174.041 37.4297 173.449 37.4297 172.77C37.4297 172.099 37.5547 171.509 37.8047 170.997C38.0575 170.486 38.4098 170.087 38.8615 169.8C39.3161 169.513 39.8473 169.369 40.4553 169.369C40.8246 169.369 41.1825 169.43 41.5291 169.553C41.8757 169.675 42.1868 169.866 42.4624 170.128C42.7379 170.389 42.9553 170.729 43.1143 171.146C43.2734 171.561 43.353 172.065 43.353 172.659V173.111H38.1499V172.156H42.1044C42.1044 171.821 42.0362 171.524 41.8999 171.266C41.7635 171.004 41.5717 170.798 41.3246 170.648C41.0803 170.497 40.7933 170.422 40.4638 170.422C40.1058 170.422 39.7933 170.51 39.5263 170.686C39.2621 170.859 39.0575 171.087 38.9126 171.368C38.7706 171.646 38.6996 171.949 38.6996 172.276V173.021C38.6996 173.459 38.7763 173.831 38.9297 174.138C39.0859 174.445 39.3033 174.679 39.5817 174.841C39.8601 175 40.1854 175.08 40.5575 175.08C40.799 175.08 41.0192 175.045 41.218 174.977C41.4169 174.906 41.5888 174.801 41.7337 174.662C41.8786 174.523 41.9893 174.351 42.0661 174.146L43.272 174.364C43.1754 174.719 43.0021 175.03 42.7521 175.297C42.505 175.561 42.1939 175.767 41.8189 175.915C41.4467 176.06 41.022 176.132 40.5447 176.132ZM47.5238 176.132C46.8903 176.132 46.3448 175.989 45.8874 175.702C45.4329 175.412 45.0835 175.013 44.8391 174.504C44.5948 173.996 44.4727 173.413 44.4727 172.757C44.4727 172.092 44.5977 171.506 44.8477 170.997C45.0977 170.486 45.4499 170.087 45.9045 169.8C46.359 169.513 46.8945 169.369 47.511 169.369C48.0082 169.369 48.4513 169.462 48.8406 169.646C49.2298 169.828 49.5437 170.084 49.7823 170.413C50.0238 170.743 50.1673 171.128 50.2127 171.568H48.9727C48.9045 171.261 48.7482 170.997 48.5039 170.776C48.2624 170.554 47.9386 170.443 47.5323 170.443C47.1772 170.443 46.8661 170.537 46.5991 170.724C46.3349 170.909 46.1289 171.173 45.9812 171.517C45.8335 171.858 45.7596 172.261 45.7596 172.727C45.7596 173.205 45.832 173.616 45.9769 173.963C46.1218 174.31 46.3263 174.578 46.5906 174.768C46.8576 174.959 47.1715 175.054 47.5323 175.054C47.7738 175.054 47.9925 175.01 48.1886 174.922C48.3874 174.831 48.5536 174.702 48.6871 174.534C48.8235 174.366 48.9187 174.165 48.9727 173.929H50.2127C50.1673 174.352 50.0295 174.73 49.7994 175.062C49.5692 175.395 49.261 175.656 48.8746 175.847C48.4911 176.037 48.0408 176.132 47.5238 176.132ZM52.8494 172.114V176H51.5753V167.273H52.8324V170.52H52.9134C53.0668 170.168 53.3011 169.888 53.6165 169.68C53.9318 169.473 54.3438 169.369 54.8523 169.369C55.3011 169.369 55.6932 169.462 56.0284 169.646C56.3665 169.831 56.6278 170.107 56.8125 170.473C57 170.837 57.0938 171.291 57.0938 171.837V176H55.8196V171.99C55.8196 171.51 55.696 171.138 55.4489 170.874C55.2017 170.607 54.858 170.473 54.4176 170.473C54.1165 170.473 53.8466 170.537 53.608 170.665C53.3722 170.793 53.1861 170.98 53.0497 171.227C52.9162 171.472 52.8494 171.767 52.8494 172.114ZM60.0682 172.114V176H58.794V169.455H60.017V170.52H60.098C60.2486 170.173 60.4844 169.895 60.8054 169.685C61.1293 169.474 61.5369 169.369 62.0284 169.369C62.4744 169.369 62.8651 169.463 63.2003 169.651C63.5355 169.835 63.7955 170.111 63.9801 170.477C64.1648 170.844 64.2571 171.297 64.2571 171.837V176H62.983V171.99C62.983 171.516 62.8594 171.145 62.6122 170.878C62.3651 170.608 62.0256 170.473 61.5938 170.473C61.2983 170.473 61.0355 170.537 60.8054 170.665C60.5781 170.793 60.3977 170.98 60.2642 171.227C60.1335 171.472 60.0682 171.767 60.0682 172.114ZM68.723 176.132C68.1094 176.132 67.5739 175.991 67.1165 175.71C66.6591 175.429 66.304 175.036 66.0511 174.53C65.7983 174.024 65.6719 173.433 65.6719 172.757C65.6719 172.078 65.7983 171.484 66.0511 170.976C66.304 170.467 66.6591 170.072 67.1165 169.791C67.5739 169.51 68.1094 169.369 68.723 169.369C69.3366 169.369 69.8722 169.51 70.3295 169.791C70.7869 170.072 71.142 170.467 71.3949 170.976C71.6477 171.484 71.7741 172.078 71.7741 172.757C71.7741 173.433 71.6477 174.024 71.3949 174.53C71.142 175.036 70.7869 175.429 70.3295 175.71C69.8722 175.991 69.3366 176.132 68.723 176.132ZM68.7273 175.062C69.125 175.062 69.4545 174.957 69.7159 174.747C69.9773 174.537 70.1705 174.257 70.2955 173.908C70.4233 173.558 70.4872 173.173 70.4872 172.753C70.4872 172.335 70.4233 171.952 70.2955 171.602C70.1705 171.25 69.9773 170.967 69.7159 170.754C69.4545 170.541 69.125 170.435 68.7273 170.435C68.3267 170.435 67.9943 170.541 67.7301 170.754C67.4688 170.967 67.2741 171.25 67.1463 171.602C67.0213 171.952 66.9588 172.335 66.9588 172.753C66.9588 173.173 67.0213 173.558 67.1463 173.908C67.2741 174.257 67.4688 174.537 67.7301 174.747C67.9943 174.957 68.3267 175.062 68.7273 175.062ZM74.4705 167.273V176H73.1964V167.273H74.4705ZM78.9418 176.132C78.3281 176.132 77.7926 175.991 77.3352 175.71C76.8778 175.429 76.5227 175.036 76.2699 174.53C76.017 174.024 75.8906 173.433 75.8906 172.757C75.8906 172.078 76.017 171.484 76.2699 170.976C76.5227 170.467 76.8778 170.072 77.3352 169.791C77.7926 169.51 78.3281 169.369 78.9418 169.369C79.5554 169.369 80.0909 169.51 80.5483 169.791C81.0057 170.072 81.3608 170.467 81.6136 170.976C81.8665 171.484 81.9929 172.078 81.9929 172.757C81.9929 173.433 81.8665 174.024 81.6136 174.53C81.3608 175.036 81.0057 175.429 80.5483 175.71C80.0909 175.991 79.5554 176.132 78.9418 176.132ZM78.946 175.062C79.3438 175.062 79.6733 174.957 79.9347 174.747C80.196 174.537 80.3892 174.257 80.5142 173.908C80.642 173.558 80.706 173.173 80.706 172.753C80.706 172.335 80.642 171.952 80.5142 171.602C80.3892 171.25 80.196 170.967 79.9347 170.754C79.6733 170.541 79.3438 170.435 78.946 170.435C78.5455 170.435 78.2131 170.541 77.9489 170.754C77.6875 170.967 77.4929 171.25 77.3651 171.602C77.2401 171.952 77.1776 172.335 77.1776 172.753C77.1776 173.173 77.2401 173.558 77.3651 173.908C77.4929 174.257 77.6875 174.537 77.9489 174.747C78.2131 174.957 78.5455 175.062 78.946 175.062ZM86.1594 178.591C85.6396 178.591 85.1921 178.523 84.8171 178.386C84.445 178.25 84.141 178.07 83.9052 177.845C83.6694 177.621 83.4933 177.375 83.3768 177.108L84.4719 176.656C84.5487 176.781 84.6509 176.913 84.7788 177.053C84.9094 177.195 85.0856 177.315 85.3072 177.415C85.5316 177.514 85.82 177.564 86.1722 177.564C86.6552 177.564 87.0543 177.446 87.3697 177.21C87.685 176.977 87.8427 176.605 87.8427 176.094V174.807H87.7617C87.685 174.946 87.5742 175.101 87.4293 175.271C87.2873 175.442 87.0913 175.589 86.8413 175.714C86.5913 175.839 86.266 175.902 85.8654 175.902C85.3484 175.902 84.8825 175.781 84.4677 175.54C84.0558 175.295 83.729 174.936 83.4876 174.462C83.2489 173.984 83.1296 173.398 83.1296 172.702C83.1296 172.006 83.2475 171.409 83.4833 170.912C83.7219 170.415 84.0487 170.034 84.4634 169.77C84.8782 169.503 85.3484 169.369 85.8739 169.369C86.2802 169.369 86.6083 169.438 86.8583 169.574C87.1083 169.707 87.3029 169.864 87.4421 170.043C87.5842 170.222 87.6935 170.379 87.7702 170.516H87.864V169.455H89.1126V176.145C89.1126 176.707 88.9819 177.169 88.7205 177.53C88.4592 177.891 88.1055 178.158 87.6594 178.331C87.2163 178.504 86.7163 178.591 86.1594 178.591ZM86.1467 174.845C86.5131 174.845 86.8228 174.76 87.0756 174.589C87.3313 174.416 87.5245 174.169 87.6552 173.848C87.7887 173.524 87.8555 173.136 87.8555 172.685C87.8555 172.244 87.7901 171.857 87.6594 171.521C87.5288 171.186 87.337 170.925 87.0842 170.737C86.8313 170.547 86.5188 170.452 86.1467 170.452C85.7631 170.452 85.4435 170.551 85.1879 170.75C84.9322 170.946 84.739 171.213 84.6083 171.551C84.4805 171.889 84.4165 172.267 84.4165 172.685C84.4165 173.114 84.4819 173.49 84.6126 173.814C84.7433 174.138 84.9364 174.391 85.1921 174.572C85.4506 174.754 85.7688 174.845 86.1467 174.845ZM91.6268 178.455C91.4364 178.455 91.2631 178.439 91.1069 178.408C90.9506 178.379 90.8342 178.348 90.7575 178.314L91.0643 177.27C91.2972 177.332 91.5046 177.359 91.6864 177.351C91.8683 177.342 92.0288 177.274 92.168 177.146C92.31 177.018 92.435 176.81 92.543 176.52L92.7006 176.085L90.3058 169.455H91.6694L93.3271 174.534H93.3952L95.0529 169.455H96.4208L93.7234 176.874C93.5984 177.214 93.4393 177.503 93.2461 177.739C93.0529 177.977 92.8228 178.156 92.5558 178.276C92.2887 178.395 91.979 178.455 91.6268 178.455Z" fill="white"/>
<path d="M117 163C117 159.686 119.686 157 123 157H148C151.314 157 154 159.686 154 163V181C154 184.314 151.314 187 148 187H123C119.686 187 117 184.314 117 181V163Z" fill="#5363EE"/>
<path d="M127.959 176V167.273H129.276V171.065H133.626V167.273H134.947V176H133.626V172.195H129.276V176H127.959ZM136.865 176V167.273H139.976C140.652 167.273 141.213 167.389 141.659 167.622C142.108 167.855 142.443 168.178 142.665 168.589C142.886 168.999 142.997 169.472 142.997 170.009C142.997 170.543 142.885 171.013 142.661 171.419C142.439 171.822 142.104 172.136 141.655 172.361C141.209 172.585 140.648 172.697 139.972 172.697H137.615V171.564H139.852C140.278 171.564 140.625 171.503 140.892 171.381C141.162 171.259 141.359 171.081 141.484 170.848C141.609 170.615 141.672 170.335 141.672 170.009C141.672 169.679 141.608 169.393 141.48 169.152C141.355 168.911 141.158 168.726 140.888 168.598C140.621 168.467 140.27 168.402 139.835 168.402H138.182V176H136.865ZM141.173 172.062L143.33 176H141.83L139.716 172.062H141.173Z" fill="white"/>
</svg>
