<svg width="200" height="254" viewBox="0 0 200 254" fill="none" xmlns="http://www.w3.org/2000/svg">
<path d="M12 0.5H188C194.351 0.5 199.5 5.64873 199.5 12V242C199.5 248.351 194.351 253.5 188 253.5H12C5.64873 253.5 0.5 248.351 0.5 242V12C0.5 5.64872 5.64873 0.5 12 0.5Z" fill="black"/>
<path d="M12 0.5H188C194.351 0.5 199.5 5.64873 199.5 12V242C199.5 248.351 194.351 253.5 188 253.5H12C5.64873 253.5 0.5 248.351 0.5 242V12C0.5 5.64872 5.64873 0.5 12 0.5Z" stroke="#2C2C2C"/>
<mask id="path-2-inside-1_9324_33369" fill="white">
<path d="M0 0H200V50H0V0Z"/>
</mask>
<path d="M200 49H0V51H200V49Z" fill="#2C2C2C" mask="url(#path-2-inside-1_9324_33369)"/>
<path d="M17 5.5H183C189.351 5.5 194.5 10.6487 194.5 17V33C194.5 39.3513 189.351 44.5 183 44.5H17C10.6487 44.5 5.5 39.3513 5.5 33V17C5.5 10.6487 10.6487 5.5 17 5.5Z" stroke="#2C2C2C"/>
<path d="M148.154 16V34M141.154 16H155.154C156.259 16 157.154 16.8954 157.154 18V32C157.154 33.1046 156.259 34 155.154 34H141.154C140.05 34 139.154 33.1046 139.154 32V18C139.154 16.8954 140.05 16 141.154 16Z" stroke="#4BC1BD" stroke-width="2" stroke-linecap="round" stroke-linejoin="round"/>
<path d="M17 5.5H88C94.3513 5.5 99.5 10.6487 99.5 17V33C99.5 39.3513 94.3513 44.5 88 44.5H17C10.6487 44.5 5.5 39.3513 5.5 33V17C5.5 10.6487 10.6487 5.5 17 5.5Z" fill="#4BC1BD"/>
<path d="M17 5.5H88C94.3513 5.5 99.5 10.6487 99.5 17V33C99.5 39.3513 94.3513 44.5 88 44.5H17C10.6487 44.5 5.5 39.3513 5.5 33V17C5.5 10.6487 10.6487 5.5 17 5.5Z" stroke="#4BC1BD"/>
<path d="M59.75 16H45.75C44.6454 16 43.75 16.8954 43.75 18V32C43.75 33.1046 44.6454 34 45.75 34H59.75C60.8546 34 61.75 33.1046 61.75 32V18C61.75 16.8954 60.8546 16 59.75 16Z" stroke="black" stroke-width="2" stroke-linecap="round" stroke-linejoin="round"/>
<rect y="100" width="200" height="1" fill="#2C2C2C"/>
<path d="M38 79L32 73L26 79" stroke="#4BC1BD" stroke-width="2" stroke-linecap="round" stroke-linejoin="round"/>
<path d="M55.1477 70.3636H57.7273L61.1818 78.7955H61.3182L64.7727 70.3636H67.3523V82H65.3295V74.0057H65.2216L62.0057 81.9659H60.4943L57.2784 73.9886H57.1705V82H55.1477V70.3636ZM73.3636 82.1705C72.5114 82.1705 71.7727 81.983 71.1477 81.608C70.5227 81.233 70.0379 80.7083 69.6932 80.0341C69.3523 79.3598 69.1818 78.572 69.1818 77.6705C69.1818 76.7689 69.3523 75.9792 69.6932 75.3011C70.0379 74.6231 70.5227 74.0966 71.1477 73.7216C71.7727 73.3466 72.5114 73.1591 73.3636 73.1591C74.2159 73.1591 74.9545 73.3466 75.5795 73.7216C76.2045 74.0966 76.6875 74.6231 77.0284 75.3011C77.3731 75.9792 77.5455 76.7689 77.5455 77.6705C77.5455 78.572 77.3731 79.3598 77.0284 80.0341C76.6875 80.7083 76.2045 81.233 75.5795 81.608C74.9545 81.983 74.2159 82.1705 73.3636 82.1705ZM73.375 80.5227C73.8371 80.5227 74.2235 80.3958 74.5341 80.142C74.8447 79.8845 75.0758 79.5398 75.2273 79.108C75.3826 78.6761 75.4602 78.1951 75.4602 77.6648C75.4602 77.1307 75.3826 76.6477 75.2273 76.2159C75.0758 75.7803 74.8447 75.4337 74.5341 75.1761C74.2235 74.9186 73.8371 74.7898 73.375 74.7898C72.9015 74.7898 72.5076 74.9186 72.1932 75.1761C71.8826 75.4337 71.6496 75.7803 71.4943 76.2159C71.3428 76.6477 71.267 77.1307 71.267 77.6648C71.267 78.1951 71.3428 78.6761 71.4943 79.108C71.6496 79.5398 71.8826 79.8845 72.1932 80.142C72.5076 80.3958 72.9015 80.5227 73.375 80.5227ZM86.7898 73.2727L83.6818 82H81.4091L78.3011 73.2727H80.4943L82.5 79.7557H82.5909L84.6023 73.2727H86.7898ZM91.7798 82.1705C90.9048 82.1705 90.1491 81.9886 89.5128 81.625C88.8802 81.2576 88.3935 80.7386 88.0526 80.0682C87.7116 79.3939 87.5412 78.6004 87.5412 77.6875C87.5412 76.7898 87.7116 76.0019 88.0526 75.3239C88.3973 74.642 88.8783 74.1117 89.4957 73.733C90.1132 73.3504 90.8385 73.1591 91.6719 73.1591C92.2098 73.1591 92.7173 73.2462 93.1946 73.4205C93.6757 73.5909 94.0999 73.8561 94.4673 74.2159C94.8385 74.5758 95.1302 75.0341 95.3423 75.5909C95.5545 76.1439 95.6605 76.803 95.6605 77.5682V78.1989H88.5071V76.8125H93.6889C93.6851 76.4186 93.5999 76.0682 93.4332 75.7614C93.2666 75.4508 93.0336 75.2064 92.7344 75.0284C92.4389 74.8504 92.0942 74.7614 91.7003 74.7614C91.2798 74.7614 90.9105 74.8636 90.5923 75.0682C90.2741 75.2689 90.026 75.5341 89.848 75.8636C89.6738 76.1894 89.5848 76.5473 89.581 76.9375V78.1477C89.581 78.6553 89.6738 79.0909 89.8594 79.4545C90.045 79.8144 90.3045 80.0909 90.6378 80.2841C90.9711 80.4735 91.3613 80.5682 91.8082 80.5682C92.1075 80.5682 92.3783 80.5265 92.6207 80.4432C92.8632 80.3561 93.0734 80.2292 93.2514 80.0625C93.4295 79.8958 93.5639 79.6894 93.6548 79.4432L95.5753 79.6591C95.4541 80.1667 95.223 80.6098 94.8821 80.9886C94.545 81.3636 94.1132 81.6553 93.5866 81.8636C93.0601 82.0682 92.4579 82.1705 91.7798 82.1705ZM106.932 78.3295V73.2727H108.989V82H106.994V80.4489H106.903C106.706 80.9375 106.383 81.3371 105.932 81.6477C105.485 81.9583 104.934 82.1136 104.278 82.1136C103.706 82.1136 103.201 81.9867 102.761 81.733C102.326 81.4754 101.985 81.1023 101.739 80.6136C101.492 80.1212 101.369 79.5265 101.369 78.8295V73.2727H103.426V78.5114C103.426 79.0644 103.578 79.5038 103.881 79.8295C104.184 80.1553 104.581 80.3182 105.074 80.3182C105.377 80.3182 105.67 80.2443 105.955 80.0966C106.239 79.9489 106.472 79.7292 106.653 79.4375C106.839 79.142 106.932 78.7727 106.932 78.3295ZM111.104 85.2727V73.2727H113.126V74.7159H113.246C113.352 74.5038 113.501 74.2784 113.695 74.0398C113.888 73.7973 114.149 73.5909 114.479 73.4205C114.808 73.2462 115.229 73.1591 115.74 73.1591C116.414 73.1591 117.022 73.3314 117.564 73.6761C118.109 74.017 118.541 74.5227 118.859 75.1932C119.181 75.8598 119.342 76.678 119.342 77.6477C119.342 78.6061 119.185 79.4205 118.871 80.0909C118.556 80.7614 118.128 81.2727 117.587 81.625C117.045 81.9773 116.431 82.1534 115.746 82.1534C115.246 82.1534 114.831 82.0701 114.501 81.9034C114.172 81.7367 113.907 81.536 113.706 81.3011C113.509 81.0625 113.356 80.8371 113.246 80.625H113.161V85.2727H111.104ZM113.121 77.6364C113.121 78.2008 113.2 78.6951 113.359 79.1193C113.522 79.5436 113.755 79.875 114.058 80.1136C114.365 80.3485 114.736 80.4659 115.172 80.4659C115.626 80.4659 116.007 80.3447 116.314 80.1023C116.621 79.8561 116.852 79.5208 117.007 79.0966C117.166 78.6686 117.246 78.1818 117.246 77.6364C117.246 77.0947 117.168 76.6136 117.013 76.1932C116.857 75.7727 116.626 75.4432 116.32 75.2045C116.013 74.9659 115.63 74.8466 115.172 74.8466C114.732 74.8466 114.359 74.9621 114.053 75.1932C113.746 75.4242 113.513 75.7481 113.354 76.1648C113.198 76.5814 113.121 77.072 113.121 77.6364Z" fill="#4BC1BD"/>
<rect y="151" width="200" height="1" fill="#2C2C2C"/>
<path d="M26 124L32 130L38 124" stroke="#4BC1BD" stroke-width="2" stroke-linecap="round" stroke-linejoin="round"/>
<path d="M55.1477 121.364H57.7273L61.1818 129.795H61.3182L64.7727 121.364H67.3523V133H65.3295V125.006H65.2216L62.0057 132.966H60.4943L57.2784 124.989H57.1705V133H55.1477V121.364ZM73.3636 133.17C72.5114 133.17 71.7727 132.983 71.1477 132.608C70.5227 132.233 70.0379 131.708 69.6932 131.034C69.3523 130.36 69.1818 129.572 69.1818 128.67C69.1818 127.769 69.3523 126.979 69.6932 126.301C70.0379 125.623 70.5227 125.097 71.1477 124.722C71.7727 124.347 72.5114 124.159 73.3636 124.159C74.2159 124.159 74.9545 124.347 75.5795 124.722C76.2045 125.097 76.6875 125.623 77.0284 126.301C77.3731 126.979 77.5455 127.769 77.5455 128.67C77.5455 129.572 77.3731 130.36 77.0284 131.034C76.6875 131.708 76.2045 132.233 75.5795 132.608C74.9545 132.983 74.2159 133.17 73.3636 133.17ZM73.375 131.523C73.8371 131.523 74.2235 131.396 74.5341 131.142C74.8447 130.884 75.0758 130.54 75.2273 130.108C75.3826 129.676 75.4602 129.195 75.4602 128.665C75.4602 128.131 75.3826 127.648 75.2273 127.216C75.0758 126.78 74.8447 126.434 74.5341 126.176C74.2235 125.919 73.8371 125.79 73.375 125.79C72.9015 125.79 72.5076 125.919 72.1932 126.176C71.8826 126.434 71.6496 126.78 71.4943 127.216C71.3428 127.648 71.267 128.131 71.267 128.665C71.267 129.195 71.3428 129.676 71.4943 130.108C71.6496 130.54 71.8826 130.884 72.1932 131.142C72.5076 131.396 72.9015 131.523 73.375 131.523ZM86.7898 124.273L83.6818 133H81.4091L78.3011 124.273H80.4943L82.5 130.756H82.5909L84.6023 124.273H86.7898ZM91.7798 133.17C90.9048 133.17 90.1491 132.989 89.5128 132.625C88.8802 132.258 88.3935 131.739 88.0526 131.068C87.7116 130.394 87.5412 129.6 87.5412 128.688C87.5412 127.79 87.7116 127.002 88.0526 126.324C88.3973 125.642 88.8783 125.112 89.4957 124.733C90.1132 124.35 90.8385 124.159 91.6719 124.159C92.2098 124.159 92.7173 124.246 93.1946 124.42C93.6757 124.591 94.0999 124.856 94.4673 125.216C94.8385 125.576 95.1302 126.034 95.3423 126.591C95.5545 127.144 95.6605 127.803 95.6605 128.568V129.199H88.5071V127.812H93.6889C93.6851 127.419 93.5999 127.068 93.4332 126.761C93.2666 126.451 93.0336 126.206 92.7344 126.028C92.4389 125.85 92.0942 125.761 91.7003 125.761C91.2798 125.761 90.9105 125.864 90.5923 126.068C90.2741 126.269 90.026 126.534 89.848 126.864C89.6738 127.189 89.5848 127.547 89.581 127.938V129.148C89.581 129.655 89.6738 130.091 89.8594 130.455C90.045 130.814 90.3045 131.091 90.6378 131.284C90.9711 131.473 91.3613 131.568 91.8082 131.568C92.1075 131.568 92.3783 131.527 92.6207 131.443C92.8632 131.356 93.0734 131.229 93.2514 131.062C93.4295 130.896 93.5639 130.689 93.6548 130.443L95.5753 130.659C95.4541 131.167 95.223 131.61 94.8821 131.989C94.545 132.364 94.1132 132.655 93.5866 132.864C93.0601 133.068 92.4579 133.17 91.7798 133.17ZM104.608 133.153C103.922 133.153 103.309 132.977 102.767 132.625C102.225 132.273 101.797 131.761 101.483 131.091C101.169 130.42 101.011 129.606 101.011 128.648C101.011 127.678 101.17 126.86 101.489 126.193C101.811 125.523 102.244 125.017 102.79 124.676C103.335 124.331 103.943 124.159 104.614 124.159C105.125 124.159 105.545 124.246 105.875 124.42C106.205 124.591 106.466 124.797 106.659 125.04C106.852 125.278 107.002 125.504 107.108 125.716H107.193V121.364H109.256V133H107.233V131.625H107.108C107.002 131.837 106.848 132.062 106.648 132.301C106.447 132.536 106.182 132.737 105.852 132.903C105.523 133.07 105.108 133.153 104.608 133.153ZM105.182 131.466C105.617 131.466 105.989 131.348 106.295 131.114C106.602 130.875 106.835 130.544 106.994 130.119C107.153 129.695 107.233 129.201 107.233 128.636C107.233 128.072 107.153 127.581 106.994 127.165C106.839 126.748 106.608 126.424 106.301 126.193C105.998 125.962 105.625 125.847 105.182 125.847C104.723 125.847 104.341 125.966 104.034 126.205C103.727 126.443 103.496 126.773 103.341 127.193C103.186 127.614 103.108 128.095 103.108 128.636C103.108 129.182 103.186 129.669 103.341 130.097C103.5 130.521 103.733 130.856 104.04 131.102C104.35 131.345 104.731 131.466 105.182 131.466ZM115.254 133.17C114.402 133.17 113.663 132.983 113.038 132.608C112.413 132.233 111.929 131.708 111.584 131.034C111.243 130.36 111.072 129.572 111.072 128.67C111.072 127.769 111.243 126.979 111.584 126.301C111.929 125.623 112.413 125.097 113.038 124.722C113.663 124.347 114.402 124.159 115.254 124.159C116.107 124.159 116.845 124.347 117.47 124.722C118.095 125.097 118.578 125.623 118.919 126.301C119.264 126.979 119.436 127.769 119.436 128.67C119.436 129.572 119.264 130.36 118.919 131.034C118.578 131.708 118.095 132.233 117.47 132.608C116.845 132.983 116.107 133.17 115.254 133.17ZM115.266 131.523C115.728 131.523 116.114 131.396 116.425 131.142C116.735 130.884 116.966 130.54 117.118 130.108C117.273 129.676 117.351 129.195 117.351 128.665C117.351 128.131 117.273 127.648 117.118 127.216C116.966 126.78 116.735 126.434 116.425 126.176C116.114 125.919 115.728 125.79 115.266 125.79C114.792 125.79 114.398 125.919 114.084 126.176C113.773 126.434 113.54 126.78 113.385 127.216C113.233 127.648 113.158 128.131 113.158 128.665C113.158 129.195 113.233 129.676 113.385 130.108C113.54 130.54 113.773 130.884 114.084 131.142C114.398 131.396 114.792 131.523 115.266 131.523ZM122.733 133L120.267 124.273H122.364L123.898 130.409H123.977L125.545 124.273H127.619L129.188 130.375H129.273L130.784 124.273H132.886L130.415 133H128.273L126.636 127.102H126.517L124.881 133H122.733ZM136.379 127.886V133H134.322V124.273H136.288V125.756H136.391C136.591 125.267 136.911 124.879 137.351 124.591C137.794 124.303 138.341 124.159 138.993 124.159C139.595 124.159 140.12 124.288 140.567 124.545C141.018 124.803 141.366 125.176 141.612 125.665C141.862 126.153 141.985 126.746 141.982 127.443V133H139.925V127.761C139.925 127.178 139.773 126.722 139.47 126.392C139.171 126.062 138.756 125.898 138.226 125.898C137.866 125.898 137.546 125.977 137.266 126.136C136.989 126.292 136.771 126.517 136.612 126.812C136.457 127.108 136.379 127.466 136.379 127.886Z" fill="#4BC1BD"/>
<rect y="202" width="200" height="1" fill="#2C2C2C"/>
<path d="M23.3 173L32 178M32 178L40.7 173M32 178V188M41 174C40.9996 173.649 40.9071 173.305 40.7315 173.001C40.556 172.698 40.3037 172.445 40 172.27L33 168.27C32.696 168.094 32.3511 168.002 32 168.002C31.6489 168.002 31.304 168.094 31 168.27L24 172.27C23.6963 172.445 23.444 172.698 23.2685 173.001C23.0929 173.305 23.0004 173.649 23 174V182C23.0004 182.351 23.0929 182.695 23.2685 182.999C23.444 183.303 23.6963 183.555 24 183.73L31 187.73C31.304 187.906 31.6489 187.998 32 187.998C32.3511 187.998 32.696 187.906 33 187.73L40 183.73C40.3037 183.555 40.556 183.303 40.7315 182.999C40.9071 182.695 40.9996 182.351 41 182V174Z" stroke="#4BC1BD" stroke-width="2" stroke-linecap="round" stroke-linejoin="round"/>
<path d="M55.1477 172.364H57.7273L61.1818 180.795H61.3182L64.7727 172.364H67.3523V184H65.3295V176.006H65.2216L62.0057 183.966H60.4943L57.2784 175.989H57.1705V184H55.1477V172.364ZM72.0682 184.176C71.5152 184.176 71.017 184.078 70.5739 183.881C70.1345 183.68 69.786 183.384 69.5284 182.994C69.2746 182.604 69.1477 182.123 69.1477 181.551C69.1477 181.059 69.2386 180.652 69.4205 180.33C69.6023 180.008 69.8504 179.75 70.1648 179.557C70.4792 179.364 70.8333 179.218 71.2273 179.119C71.625 179.017 72.036 178.943 72.4602 178.898C72.9716 178.845 73.3864 178.797 73.7045 178.756C74.0227 178.71 74.2538 178.642 74.3977 178.551C74.5455 178.456 74.6193 178.311 74.6193 178.114V178.08C74.6193 177.652 74.4924 177.32 74.2386 177.085C73.9848 176.85 73.6193 176.733 73.142 176.733C72.6383 176.733 72.2386 176.843 71.9432 177.062C71.6515 177.282 71.4545 177.542 71.3523 177.841L69.4318 177.568C69.5833 177.038 69.8333 176.595 70.1818 176.239C70.5303 175.879 70.9564 175.61 71.4602 175.432C71.964 175.25 72.5208 175.159 73.1307 175.159C73.5511 175.159 73.9697 175.208 74.3864 175.307C74.803 175.405 75.1837 175.568 75.5284 175.795C75.8731 176.019 76.1496 176.324 76.358 176.71C76.5701 177.097 76.6761 177.58 76.6761 178.159V184H74.6989V182.801H74.6307C74.5057 183.044 74.3295 183.271 74.1023 183.483C73.8788 183.691 73.5966 183.86 73.2557 183.989C72.9186 184.114 72.5227 184.176 72.0682 184.176ZM72.6023 182.665C73.0152 182.665 73.3731 182.583 73.6761 182.42C73.9792 182.254 74.2121 182.034 74.375 181.761C74.5417 181.489 74.625 181.191 74.625 180.869V179.841C74.5606 179.894 74.4508 179.943 74.2955 179.989C74.1439 180.034 73.9735 180.074 73.7841 180.108C73.5947 180.142 73.4072 180.172 73.2216 180.199C73.036 180.225 72.875 180.248 72.7386 180.267C72.4318 180.309 72.1572 180.377 71.9148 180.472C71.6723 180.566 71.4811 180.699 71.3409 180.869C71.2008 181.036 71.1307 181.252 71.1307 181.517C71.1307 181.896 71.2689 182.182 71.5455 182.375C71.822 182.568 72.1742 182.665 72.6023 182.665ZM80.6193 181.261L80.6136 178.778H80.9432L84.0795 175.273H86.483L82.625 179.568H82.1989L80.6193 181.261ZM78.7443 184V172.364H80.8011V184H78.7443ZM84.2216 184L81.3807 180.028L82.767 178.58L86.6818 184H84.2216ZM91.358 184.17C90.483 184.17 89.7273 183.989 89.0909 183.625C88.4583 183.258 87.9716 182.739 87.6307 182.068C87.2898 181.394 87.1193 180.6 87.1193 179.688C87.1193 178.79 87.2898 178.002 87.6307 177.324C87.9754 176.642 88.4564 176.112 89.0739 175.733C89.6913 175.35 90.4167 175.159 91.25 175.159C91.7879 175.159 92.2955 175.246 92.7727 175.42C93.2538 175.591 93.678 175.856 94.0455 176.216C94.4167 176.576 94.7083 177.034 94.9205 177.591C95.1326 178.144 95.2386 178.803 95.2386 179.568V180.199H88.0852V178.812H93.267C93.2633 178.419 93.178 178.068 93.0114 177.761C92.8447 177.451 92.6117 177.206 92.3125 177.028C92.017 176.85 91.6723 176.761 91.2784 176.761C90.858 176.761 90.4886 176.864 90.1705 177.068C89.8523 177.269 89.6042 177.534 89.4261 177.864C89.2519 178.189 89.1629 178.547 89.1591 178.938V180.148C89.1591 180.655 89.2519 181.091 89.4375 181.455C89.6231 181.814 89.8826 182.091 90.2159 182.284C90.5492 182.473 90.9394 182.568 91.3864 182.568C91.6856 182.568 91.9564 182.527 92.1989 182.443C92.4413 182.356 92.6515 182.229 92.8295 182.062C93.0076 181.896 93.142 181.689 93.233 181.443L95.1534 181.659C95.0322 182.167 94.8011 182.61 94.4602 182.989C94.1231 183.364 93.6913 183.655 93.1648 183.864C92.6383 184.068 92.036 184.17 91.358 184.17ZM101.038 184V172.364H105.402C106.296 172.364 107.046 172.519 107.652 172.83C108.262 173.14 108.722 173.576 109.033 174.136C109.347 174.693 109.504 175.343 109.504 176.085C109.504 176.831 109.345 177.479 109.027 178.028C108.713 178.574 108.249 178.996 107.635 179.295C107.021 179.591 106.268 179.739 105.374 179.739H102.266V177.989H105.089C105.612 177.989 106.04 177.917 106.374 177.773C106.707 177.625 106.953 177.411 107.112 177.131C107.275 176.847 107.357 176.498 107.357 176.085C107.357 175.672 107.275 175.32 107.112 175.028C106.949 174.733 106.701 174.509 106.368 174.358C106.035 174.203 105.605 174.125 105.078 174.125H103.146V184H101.038ZM107.05 178.727L109.93 184H107.578L104.749 178.727H107.05ZM115.092 184.17C114.217 184.17 113.462 183.989 112.825 183.625C112.193 183.258 111.706 182.739 111.365 182.068C111.024 181.394 110.854 180.6 110.854 179.688C110.854 178.79 111.024 178.002 111.365 177.324C111.71 176.642 112.191 176.112 112.808 175.733C113.426 175.35 114.151 175.159 114.984 175.159C115.522 175.159 116.03 175.246 116.507 175.42C116.988 175.591 117.412 175.856 117.78 176.216C118.151 176.576 118.443 177.034 118.655 177.591C118.867 178.144 118.973 178.803 118.973 179.568V180.199H111.82V178.812H117.001C116.998 178.419 116.912 178.068 116.746 177.761C116.579 177.451 116.346 177.206 116.047 177.028C115.751 176.85 115.407 176.761 115.013 176.761C114.592 176.761 114.223 176.864 113.905 177.068C113.587 177.269 113.339 177.534 113.161 177.864C112.986 178.189 112.897 178.547 112.893 178.938V180.148C112.893 180.655 112.986 181.091 113.172 181.455C113.357 181.814 113.617 182.091 113.95 182.284C114.284 182.473 114.674 182.568 115.121 182.568C115.42 182.568 115.691 182.527 115.933 182.443C116.176 182.356 116.386 182.229 116.564 182.062C116.742 181.896 116.876 181.689 116.967 181.443L118.888 181.659C118.767 182.167 118.536 182.61 118.195 182.989C117.857 183.364 117.426 183.655 116.899 183.864C116.373 184.068 115.77 184.17 115.092 184.17ZM126.276 180.33V175.273H128.332V184H126.338V182.449H126.247C126.05 182.937 125.726 183.337 125.276 183.648C124.829 183.958 124.277 184.114 123.622 184.114C123.05 184.114 122.545 183.987 122.105 183.733C121.67 183.475 121.329 183.102 121.082 182.614C120.836 182.121 120.713 181.527 120.713 180.83V175.273H122.77V180.511C122.77 181.064 122.921 181.504 123.224 181.83C123.527 182.155 123.925 182.318 124.418 182.318C124.721 182.318 125.014 182.244 125.298 182.097C125.582 181.949 125.815 181.729 125.997 181.438C126.183 181.142 126.276 180.773 126.276 180.33ZM137.345 177.58L135.47 177.784C135.417 177.595 135.324 177.417 135.192 177.25C135.063 177.083 134.889 176.949 134.669 176.847C134.449 176.744 134.18 176.693 133.862 176.693C133.434 176.693 133.074 176.786 132.783 176.972C132.495 177.157 132.353 177.398 132.357 177.693C132.353 177.947 132.446 178.153 132.635 178.312C132.828 178.472 133.146 178.602 133.589 178.705L135.078 179.023C135.904 179.201 136.518 179.483 136.919 179.869C137.324 180.256 137.529 180.761 137.533 181.386C137.529 181.936 137.368 182.42 137.05 182.841C136.735 183.258 136.298 183.583 135.737 183.818C135.177 184.053 134.533 184.17 133.805 184.17C132.737 184.17 131.877 183.947 131.226 183.5C130.574 183.049 130.186 182.422 130.061 181.619L132.067 181.426C132.158 181.82 132.351 182.117 132.646 182.318C132.942 182.519 133.326 182.619 133.8 182.619C134.288 182.619 134.68 182.519 134.976 182.318C135.275 182.117 135.425 181.869 135.425 181.574C135.425 181.324 135.328 181.117 135.135 180.955C134.946 180.792 134.65 180.667 134.249 180.58L132.76 180.267C131.923 180.093 131.304 179.799 130.902 179.386C130.5 178.97 130.302 178.443 130.305 177.807C130.302 177.269 130.447 176.803 130.743 176.409C131.042 176.011 131.457 175.705 131.987 175.489C132.521 175.269 133.137 175.159 133.834 175.159C134.857 175.159 135.661 175.377 136.249 175.812C136.839 176.248 137.205 176.837 137.345 177.58ZM141.74 184.176C141.187 184.176 140.689 184.078 140.246 183.881C139.806 183.68 139.458 183.384 139.2 182.994C138.946 182.604 138.82 182.123 138.82 181.551C138.82 181.059 138.911 180.652 139.092 180.33C139.274 180.008 139.522 179.75 139.837 179.557C140.151 179.364 140.505 179.218 140.899 179.119C141.297 179.017 141.708 178.943 142.132 178.898C142.643 178.845 143.058 178.797 143.376 178.756C143.695 178.71 143.926 178.642 144.07 178.551C144.217 178.456 144.291 178.311 144.291 178.114V178.08C144.291 177.652 144.164 177.32 143.911 177.085C143.657 176.85 143.291 176.733 142.814 176.733C142.31 176.733 141.911 176.843 141.615 177.062C141.323 177.282 141.126 177.542 141.024 177.841L139.104 177.568C139.255 177.038 139.505 176.595 139.854 176.239C140.202 175.879 140.628 175.61 141.132 175.432C141.636 175.25 142.193 175.159 142.803 175.159C143.223 175.159 143.642 175.208 144.058 175.307C144.475 175.405 144.856 175.568 145.2 175.795C145.545 176.019 145.821 176.324 146.03 176.71C146.242 177.097 146.348 177.58 146.348 178.159V184H144.371V182.801H144.303C144.178 183.044 144.001 183.271 143.774 183.483C143.551 183.691 143.268 183.86 142.928 183.989C142.59 184.114 142.195 184.176 141.74 184.176ZM142.274 182.665C142.687 182.665 143.045 182.583 143.348 182.42C143.651 182.254 143.884 182.034 144.047 181.761C144.214 181.489 144.297 181.191 144.297 180.869V179.841C144.232 179.894 144.123 179.943 143.967 179.989C143.816 180.034 143.645 180.074 143.456 180.108C143.267 180.142 143.079 180.172 142.893 180.199C142.708 180.225 142.547 180.248 142.411 180.267C142.104 180.309 141.829 180.377 141.587 180.472C141.344 180.566 141.153 180.699 141.013 180.869C140.873 181.036 140.803 181.252 140.803 181.517C140.803 181.896 140.941 182.182 141.217 182.375C141.494 182.568 141.846 182.665 142.274 182.665ZM148.507 184V172.364H150.564V176.716H150.649C150.755 176.504 150.905 176.278 151.098 176.04C151.291 175.797 151.553 175.591 151.882 175.42C152.212 175.246 152.632 175.159 153.143 175.159C153.818 175.159 154.426 175.331 154.967 175.676C155.513 176.017 155.945 176.523 156.263 177.193C156.585 177.86 156.746 178.678 156.746 179.648C156.746 180.606 156.589 181.42 156.274 182.091C155.96 182.761 155.532 183.273 154.99 183.625C154.448 183.977 153.835 184.153 153.149 184.153C152.649 184.153 152.234 184.07 151.905 183.903C151.575 183.737 151.31 183.536 151.109 183.301C150.912 183.062 150.759 182.837 150.649 182.625H150.53V184H148.507ZM150.524 179.636C150.524 180.201 150.604 180.695 150.763 181.119C150.926 181.544 151.159 181.875 151.462 182.114C151.768 182.348 152.14 182.466 152.575 182.466C153.03 182.466 153.411 182.345 153.717 182.102C154.024 181.856 154.255 181.521 154.411 181.097C154.57 180.669 154.649 180.182 154.649 179.636C154.649 179.095 154.571 178.614 154.416 178.193C154.261 177.773 154.03 177.443 153.723 177.205C153.416 176.966 153.034 176.847 152.575 176.847C152.136 176.847 151.763 176.962 151.456 177.193C151.149 177.424 150.916 177.748 150.757 178.165C150.602 178.581 150.524 179.072 150.524 179.636ZM160.551 172.364V184H158.494V172.364H160.551ZM166.53 184.17C165.655 184.17 164.899 183.989 164.263 183.625C163.63 183.258 163.143 182.739 162.803 182.068C162.462 181.394 162.291 180.6 162.291 179.688C162.291 178.79 162.462 178.002 162.803 177.324C163.147 176.642 163.628 176.112 164.246 175.733C164.863 175.35 165.589 175.159 166.422 175.159C166.96 175.159 167.467 175.246 167.945 175.42C168.426 175.591 168.85 175.856 169.217 176.216C169.589 176.576 169.88 177.034 170.092 177.591C170.304 178.144 170.411 178.803 170.411 179.568V180.199H163.257V178.812H168.439C168.435 178.419 168.35 178.068 168.183 177.761C168.017 177.451 167.784 177.206 167.484 177.028C167.189 176.85 166.844 176.761 166.45 176.761C166.03 176.761 165.661 176.864 165.342 177.068C165.024 177.269 164.776 177.534 164.598 177.864C164.424 178.189 164.335 178.547 164.331 178.938V180.148C164.331 180.655 164.424 181.091 164.609 181.455C164.795 181.814 165.054 182.091 165.388 182.284C165.721 182.473 166.111 182.568 166.558 182.568C166.857 182.568 167.128 182.527 167.371 182.443C167.613 182.356 167.823 182.229 168.001 182.062C168.179 181.896 168.314 181.689 168.405 181.443L170.325 181.659C170.204 182.167 169.973 182.61 169.632 182.989C169.295 183.364 168.863 183.655 168.337 183.864C167.81 184.068 167.208 184.17 166.53 184.17Z" fill="#4BC1BD"/>
<path d="M23 223H41M39 223V237C39 238 38 239 37 239H27C26 239 25 238 25 237V223M28 223V221C28 220 29 219 30 219H34C35 219 36 220 36 221V223M30 228V234M34 228V234" stroke="#4BC1BD" stroke-width="2" stroke-linecap="round" stroke-linejoin="round"/>
<path d="M59.0909 235H55.1477V223.364H59.1705C60.3258 223.364 61.3182 223.597 62.1477 224.062C62.9811 224.525 63.6212 225.189 64.0682 226.057C64.5152 226.924 64.7386 227.962 64.7386 229.17C64.7386 230.383 64.5133 231.424 64.0625 232.295C63.6155 233.167 62.9697 233.835 62.125 234.301C61.2841 234.767 60.2727 235 59.0909 235ZM57.2557 233.176H58.9886C59.7992 233.176 60.4754 233.028 61.017 232.733C61.5587 232.434 61.9659 231.989 62.2386 231.398C62.5114 230.803 62.6477 230.061 62.6477 229.17C62.6477 228.28 62.5114 227.542 62.2386 226.955C61.9659 226.364 61.5625 225.922 61.0284 225.631C60.4981 225.335 59.839 225.188 59.0511 225.188H57.2557V233.176ZM70.5142 235.17C69.6392 235.17 68.8835 234.989 68.2472 234.625C67.6146 234.258 67.1278 233.739 66.7869 233.068C66.446 232.394 66.2756 231.6 66.2756 230.688C66.2756 229.79 66.446 229.002 66.7869 228.324C67.1316 227.642 67.6127 227.112 68.2301 226.733C68.8475 226.35 69.5729 226.159 70.4062 226.159C70.9441 226.159 71.4517 226.246 71.929 226.42C72.41 226.591 72.8343 226.856 73.2017 227.216C73.5729 227.576 73.8646 228.034 74.0767 228.591C74.2888 229.144 74.3949 229.803 74.3949 230.568V231.199H67.2415V229.812H72.4233C72.4195 229.419 72.3343 229.068 72.1676 228.761C72.0009 228.451 71.768 228.206 71.4688 228.028C71.1733 227.85 70.8286 227.761 70.4347 227.761C70.0142 227.761 69.6449 227.864 69.3267 228.068C69.0085 228.269 68.7604 228.534 68.5824 228.864C68.4081 229.189 68.3191 229.547 68.3153 229.938V231.148C68.3153 231.655 68.4081 232.091 68.5938 232.455C68.7794 232.814 69.0388 233.091 69.3722 233.284C69.7055 233.473 70.0956 233.568 70.5426 233.568C70.8419 233.568 71.1127 233.527 71.3551 233.443C71.5975 233.356 71.8078 233.229 71.9858 233.062C72.1638 232.896 72.2983 232.689 72.3892 232.443L74.3097 232.659C74.1884 233.167 73.9574 233.61 73.6165 233.989C73.2794 234.364 72.8475 234.655 72.321 234.864C71.7945 235.068 71.1922 235.17 70.5142 235.17ZM78.1918 223.364V235H76.1349V223.364H78.1918ZM84.1705 235.17C83.2955 235.17 82.5398 234.989 81.9034 234.625C81.2708 234.258 80.7841 233.739 80.4432 233.068C80.1023 232.394 79.9318 231.6 79.9318 230.688C79.9318 229.79 80.1023 229.002 80.4432 228.324C80.7879 227.642 81.2689 227.112 81.8864 226.733C82.5038 226.35 83.2292 226.159 84.0625 226.159C84.6004 226.159 85.108 226.246 85.5852 226.42C86.0663 226.591 86.4905 226.856 86.858 227.216C87.2292 227.576 87.5208 228.034 87.733 228.591C87.9451 229.144 88.0511 229.803 88.0511 230.568V231.199H80.8977V229.812H86.0795C86.0758 229.419 85.9905 229.068 85.8239 228.761C85.6572 228.451 85.4242 228.206 85.125 228.028C84.8295 227.85 84.4848 227.761 84.0909 227.761C83.6705 227.761 83.3011 227.864 82.983 228.068C82.6648 228.269 82.4167 228.534 82.2386 228.864C82.0644 229.189 81.9754 229.547 81.9716 229.938V231.148C81.9716 231.655 82.0644 232.091 82.25 232.455C82.4356 232.814 82.6951 233.091 83.0284 233.284C83.3617 233.473 83.7519 233.568 84.1989 233.568C84.4981 233.568 84.7689 233.527 85.0114 233.443C85.2538 233.356 85.464 233.229 85.642 233.062C85.8201 232.896 85.9545 232.689 86.0455 232.443L87.9659 232.659C87.8447 233.167 87.6136 233.61 87.2727 233.989C86.9356 234.364 86.5038 234.655 85.9773 234.864C85.4508 235.068 84.8485 235.17 84.1705 235.17ZM94.1491 226.273V227.864H89.1321V226.273H94.1491ZM90.3707 224.182H92.4276V232.375C92.4276 232.652 92.4692 232.864 92.5526 233.011C92.6397 233.155 92.7533 233.254 92.8935 233.307C93.0336 233.36 93.1889 233.386 93.3594 233.386C93.4882 233.386 93.6056 233.377 93.7116 233.358C93.8215 233.339 93.9048 233.322 93.9616 233.307L94.3082 234.915C94.1984 234.953 94.0412 234.994 93.8366 235.04C93.6359 235.085 93.3897 235.112 93.098 235.119C92.5829 235.134 92.1188 235.057 91.706 234.886C91.2931 234.712 90.9654 234.443 90.723 234.08C90.4844 233.716 90.367 233.261 90.3707 232.716V224.182ZM99.6392 235.17C98.7642 235.17 98.0085 234.989 97.3722 234.625C96.7396 234.258 96.2528 233.739 95.9119 233.068C95.571 232.394 95.4006 231.6 95.4006 230.688C95.4006 229.79 95.571 229.002 95.9119 228.324C96.2566 227.642 96.7377 227.112 97.3551 226.733C97.9725 226.35 98.6979 226.159 99.5312 226.159C100.069 226.159 100.577 226.246 101.054 226.42C101.535 226.591 101.959 226.856 102.327 227.216C102.698 227.576 102.99 228.034 103.202 228.591C103.414 229.144 103.52 229.803 103.52 230.568V231.199H96.3665V229.812H101.548C101.545 229.419 101.459 229.068 101.293 228.761C101.126 228.451 100.893 228.206 100.594 228.028C100.298 227.85 99.9536 227.761 99.5597 227.761C99.1392 227.761 98.7699 227.864 98.4517 228.068C98.1335 228.269 97.8854 228.534 97.7074 228.864C97.5331 229.189 97.4441 229.547 97.4403 229.938V231.148C97.4403 231.655 97.5331 232.091 97.7188 232.455C97.9044 232.814 98.1638 233.091 98.4972 233.284C98.8305 233.473 99.2206 233.568 99.6676 233.568C99.9669 233.568 100.238 233.527 100.48 233.443C100.723 233.356 100.933 233.229 101.111 233.062C101.289 232.896 101.423 232.689 101.514 232.443L103.435 232.659C103.313 233.167 103.082 233.61 102.741 233.989C102.404 234.364 101.973 234.655 101.446 234.864C100.92 235.068 100.317 235.17 99.6392 235.17Z" fill="#4BC1BD"/>
</svg>
