<svg width="580" height="204" viewBox="0 0 580 204" fill="none" xmlns="http://www.w3.org/2000/svg">
<path d="M12 0.5H568C574.351 0.5 579.5 5.64873 579.5 12V192C579.5 198.351 574.351 203.5 568 203.5H12C5.64873 203.5 0.5 198.351 0.5 192V12C0.5 5.64873 5.64873 0.5 12 0.5Z" fill="black"/>
<path d="M12 0.5H568C574.351 0.5 579.5 5.64873 579.5 12V192C579.5 198.351 574.351 203.5 568 203.5H12C5.64873 203.5 0.5 198.351 0.5 192V12C0.5 5.64873 5.64873 0.5 12 0.5Z" stroke="#2C2C2C"/>
<path d="M507 32L504 35M504 35L507 38M504 35H524M511 28L514 25M514 25L517 28M514 25V45M517 42L514 45M514 45L511 42M521 32L524 35M524 35L521 38" stroke="#4BC1BD" stroke-width="2" stroke-linecap="round" stroke-linejoin="round"/>
<path d="M548 36C548.552 36 549 35.5523 549 35C549 34.4477 548.552 34 548 34C547.448 34 547 34.4477 547 35C547 35.5523 547.448 36 548 36Z" stroke="#4BC1BD" stroke-width="2" stroke-linecap="round" stroke-linejoin="round"/>
<path d="M548 29C548.552 29 549 28.5523 549 28C549 27.4477 548.552 27 548 27C547.448 27 547 27.4477 547 28C547 28.5523 547.448 29 548 29Z" stroke="#4BC1BD" stroke-width="2" stroke-linecap="round" stroke-linejoin="round"/>
<path d="M548 43C548.552 43 549 42.5523 549 42C549 41.4477 548.552 41 548 41C547.448 41 547 41.4477 547 42C547 42.5523 547.448 43 548 43Z" stroke="#4BC1BD" stroke-width="2" stroke-linecap="round" stroke-linejoin="round"/>
<path d="M63.942 41V31.226H60.072V28.4H71.358V31.226H67.506V41H63.942ZM72.5238 41V31.244H75.9438V41H72.5238ZM74.2338 30.164C73.6098 30.164 73.1058 29.99 72.7218 29.642C72.3378 29.294 72.1458 28.862 72.1458 28.346C72.1458 27.83 72.3378 27.398 72.7218 27.05C73.1058 26.702 73.6098 26.528 74.2338 26.528C74.8578 26.528 75.3618 26.696 75.7458 27.032C76.1298 27.356 76.3218 27.776 76.3218 28.292C76.3218 28.832 76.1298 29.282 75.7458 29.642C75.3738 29.99 74.8698 30.164 74.2338 30.164ZM82.5224 41.162C81.2744 41.162 80.3024 40.856 79.6064 40.244C78.9104 39.62 78.5624 38.684 78.5624 37.436V29.066H81.9824V37.4C81.9824 37.748 82.0784 38.024 82.2704 38.228C82.4624 38.42 82.7084 38.516 83.0084 38.516C83.4164 38.516 83.7644 38.414 84.0524 38.21L84.8984 40.604C84.6104 40.796 84.2564 40.934 83.8364 41.018C83.4164 41.114 82.9784 41.162 82.5224 41.162ZM77.1404 34.16V31.604H84.2144V34.16H77.1404ZM86.2171 41V27.644H89.6371V41H86.2171ZM96.9717 41.162C95.8197 41.162 94.8117 40.946 93.9477 40.514C93.0957 40.07 92.4297 39.47 91.9497 38.714C91.4817 37.946 91.2477 37.076 91.2477 36.104C91.2477 35.132 91.4757 34.268 91.9317 33.512C92.3997 32.744 93.0417 32.15 93.8577 31.73C94.6737 31.298 95.5917 31.082 96.6117 31.082C97.5717 31.082 98.4477 31.28 99.2397 31.676C100.032 32.06 100.662 32.63 101.13 33.386C101.598 34.142 101.832 35.06 101.832 36.14C101.832 36.26 101.826 36.398 101.814 36.554C101.802 36.71 101.79 36.854 101.778 36.986H94.0557V35.186H99.9597L98.6637 35.69C98.6757 35.246 98.5917 34.862 98.4117 34.538C98.2437 34.214 98.0037 33.962 97.6917 33.782C97.3917 33.602 97.0377 33.512 96.6297 33.512C96.2217 33.512 95.8617 33.602 95.5497 33.782C95.2497 33.962 95.0157 34.22 94.8477 34.556C94.6797 34.88 94.5957 35.264 94.5957 35.708V36.23C94.5957 36.71 94.6917 37.124 94.8837 37.472C95.0877 37.82 95.3757 38.09 95.7477 38.282C96.1197 38.462 96.5637 38.552 97.0797 38.552C97.5597 38.552 97.9677 38.486 98.3037 38.354C98.6517 38.21 98.9937 37.994 99.3297 37.706L101.13 39.578C100.662 40.094 100.086 40.49 99.4017 40.766C98.7177 41.03 97.9077 41.162 96.9717 41.162Z" fill="white"/>
<path d="M37 29.1001H23M41 35.1001H23M35.1 41.0001H23" stroke="#4BC1BD" stroke-width="2" stroke-linecap="round" stroke-linejoin="round"/>
<mask id="path-6-inside-1_9324_33435" fill="white">
<path d="M20 69H560V184H20V69Z"/>
</mask>
<path d="M20 70H560V68H20V70Z" fill="#2C2C2C" mask="url(#path-6-inside-1_9324_33435)"/>
<path d="M20.7727 97.6136V96.3636H29.5V97.6136H25.8409V108H24.4318V97.6136H20.7727ZM31.3565 111.273C31.1293 111.273 30.9266 111.254 30.7486 111.216C30.5705 111.182 30.4474 111.148 30.3793 111.114L30.7202 109.932C31.0459 110.015 31.3338 110.045 31.5838 110.023C31.8338 110 32.0554 109.888 32.2486 109.688C32.4455 109.491 32.6255 109.17 32.7884 108.727L33.0384 108.045L29.8111 99.2727H31.2656L33.6747 106.227H33.7656L36.1747 99.2727H37.6293L33.9247 109.273C33.758 109.723 33.5516 110.097 33.3054 110.392C33.0592 110.691 32.7732 110.913 32.4474 111.057C32.1255 111.201 31.7618 111.273 31.3565 111.273ZM39.3991 111.273V99.2727H40.6946V100.659H40.8537C40.9522 100.508 41.0885 100.314 41.2628 100.08C41.4408 99.8409 41.6946 99.6288 42.0241 99.4432C42.3575 99.2538 42.8082 99.1591 43.3764 99.1591C44.1113 99.1591 44.759 99.3428 45.3196 99.7102C45.8802 100.078 46.3177 100.598 46.6321 101.273C46.9465 101.947 47.1037 102.742 47.1037 103.659C47.1037 104.583 46.9465 105.384 46.6321 106.062C46.3177 106.737 45.8821 107.259 45.3253 107.631C44.7685 107.998 44.1264 108.182 43.3991 108.182C42.8385 108.182 42.3897 108.089 42.0526 107.903C41.7154 107.714 41.456 107.5 41.2741 107.261C41.0923 107.019 40.9522 106.818 40.8537 106.659H40.7401V111.273H39.3991ZM40.7173 103.636C40.7173 104.295 40.8139 104.877 41.0071 105.381C41.2003 105.881 41.4825 106.273 41.8537 106.557C42.2249 106.837 42.6795 106.977 43.2173 106.977C43.7779 106.977 44.2457 106.83 44.6207 106.534C44.9995 106.235 45.2836 105.833 45.473 105.33C45.6662 104.822 45.7628 104.258 45.7628 103.636C45.7628 103.023 45.6681 102.47 45.4787 101.977C45.2931 101.481 45.0109 101.089 44.6321 100.801C44.2571 100.509 43.7855 100.364 43.2173 100.364C42.6719 100.364 42.2135 100.502 41.8423 100.778C41.4711 101.051 41.1908 101.434 41.0014 101.926C40.812 102.415 40.7173 102.985 40.7173 103.636ZM52.8082 108.182C51.9673 108.182 51.242 107.996 50.6321 107.625C50.026 107.25 49.5582 106.727 49.2287 106.057C48.9029 105.383 48.7401 104.598 48.7401 103.705C48.7401 102.811 48.9029 102.023 49.2287 101.341C49.5582 100.655 50.0166 100.121 50.6037 99.7386C51.1946 99.3523 51.884 99.1591 52.6719 99.1591C53.1264 99.1591 53.5753 99.2348 54.0185 99.3864C54.4616 99.5379 54.8651 99.7841 55.2287 100.125C55.5923 100.462 55.8821 100.909 56.098 101.466C56.3139 102.023 56.4219 102.708 56.4219 103.523V104.091H49.6946V102.932H55.0582C55.0582 102.439 54.9598 102 54.7628 101.614C54.5696 101.227 54.2931 100.922 53.9332 100.699C53.5772 100.475 53.1567 100.364 52.6719 100.364C52.1378 100.364 51.6757 100.496 51.2855 100.761C50.8991 101.023 50.6018 101.364 50.3935 101.784C50.1851 102.205 50.081 102.655 50.081 103.136V103.909C50.081 104.568 50.1946 105.127 50.4219 105.585C50.6529 106.04 50.973 106.386 51.3821 106.625C51.7912 106.86 52.2666 106.977 52.8082 106.977C53.1605 106.977 53.4787 106.928 53.7628 106.83C54.0507 106.727 54.2988 106.576 54.5071 106.375C54.7154 106.17 54.8764 105.917 54.9901 105.614L56.2855 105.977C56.1491 106.417 55.92 106.803 55.598 107.136C55.276 107.466 54.8783 107.723 54.4048 107.909C53.9313 108.091 53.3991 108.182 52.8082 108.182ZM64.3026 102.75V108H62.9616V96.3636H64.3026V100.636H64.4162C64.6207 100.186 64.9276 99.8277 65.3366 99.5625C65.7495 99.2936 66.2988 99.1591 66.9844 99.1591C67.5791 99.1591 68.0999 99.2784 68.5469 99.517C68.9938 99.7519 69.3404 100.114 69.5866 100.602C69.8366 101.087 69.9616 101.705 69.9616 102.455V108H68.6207V102.545C68.6207 101.852 68.4408 101.316 68.081 100.938C67.7249 100.555 67.2306 100.364 66.598 100.364C66.1586 100.364 65.7647 100.456 65.4162 100.642C65.0715 100.828 64.7988 101.098 64.598 101.455C64.401 101.811 64.3026 102.242 64.3026 102.75ZM76.0739 108.182C75.233 108.182 74.5076 107.996 73.8977 107.625C73.2917 107.25 72.8239 106.727 72.4943 106.057C72.1686 105.383 72.0057 104.598 72.0057 103.705C72.0057 102.811 72.1686 102.023 72.4943 101.341C72.8239 100.655 73.2822 100.121 73.8693 99.7386C74.4602 99.3523 75.1496 99.1591 75.9375 99.1591C76.392 99.1591 76.8409 99.2348 77.2841 99.3864C77.7273 99.5379 78.1307 99.7841 78.4943 100.125C78.858 100.462 79.1477 100.909 79.3636 101.466C79.5795 102.023 79.6875 102.708 79.6875 103.523V104.091H72.9602V102.932H78.3239C78.3239 102.439 78.2254 102 78.0284 101.614C77.8352 101.227 77.5587 100.922 77.1989 100.699C76.8428 100.475 76.4223 100.364 75.9375 100.364C75.4034 100.364 74.9413 100.496 74.5511 100.761C74.1648 101.023 73.8674 101.364 73.6591 101.784C73.4508 102.205 73.3466 102.655 73.3466 103.136V103.909C73.3466 104.568 73.4602 105.127 73.6875 105.585C73.9186 106.04 74.2386 106.386 74.6477 106.625C75.0568 106.86 75.5322 106.977 76.0739 106.977C76.4261 106.977 76.7443 106.928 77.0284 106.83C77.3163 106.727 77.5644 106.576 77.7727 106.375C77.9811 106.17 78.142 105.917 78.2557 105.614L79.5511 105.977C79.4148 106.417 79.1856 106.803 78.8636 107.136C78.5417 107.466 78.1439 107.723 77.6705 107.909C77.197 108.091 76.6648 108.182 76.0739 108.182ZM81.7273 108V99.2727H83.0227V100.591H83.1136C83.2727 100.159 83.5606 99.8087 83.9773 99.5398C84.3939 99.2708 84.8636 99.1364 85.3864 99.1364C85.4848 99.1364 85.608 99.1383 85.7557 99.142C85.9034 99.1458 86.0152 99.1515 86.0909 99.1591V100.523C86.0455 100.511 85.9413 100.494 85.7784 100.472C85.6193 100.445 85.4508 100.432 85.2727 100.432C84.8485 100.432 84.4697 100.521 84.1364 100.699C83.8068 100.873 83.5455 101.116 83.3523 101.426C83.1629 101.733 83.0682 102.083 83.0682 102.477V108H81.7273ZM91.0739 108.182C90.233 108.182 89.5076 107.996 88.8977 107.625C88.2917 107.25 87.8239 106.727 87.4943 106.057C87.1686 105.383 87.0057 104.598 87.0057 103.705C87.0057 102.811 87.1686 102.023 87.4943 101.341C87.8239 100.655 88.2822 100.121 88.8693 99.7386C89.4602 99.3523 90.1496 99.1591 90.9375 99.1591C91.392 99.1591 91.8409 99.2348 92.2841 99.3864C92.7273 99.5379 93.1307 99.7841 93.4943 100.125C93.858 100.462 94.1477 100.909 94.3636 101.466C94.5795 102.023 94.6875 102.708 94.6875 103.523V104.091H87.9602V102.932H93.3239C93.3239 102.439 93.2254 102 93.0284 101.614C92.8352 101.227 92.5587 100.922 92.1989 100.699C91.8428 100.475 91.4223 100.364 90.9375 100.364C90.4034 100.364 89.9413 100.496 89.5511 100.761C89.1648 101.023 88.8674 101.364 88.6591 101.784C88.4508 102.205 88.3466 102.655 88.3466 103.136V103.909C88.3466 104.568 88.4602 105.127 88.6875 105.585C88.9186 106.04 89.2386 106.386 89.6477 106.625C90.0568 106.86 90.5322 106.977 91.0739 106.977C91.4261 106.977 91.7443 106.928 92.0284 106.83C92.3163 106.727 92.5644 106.576 92.7727 106.375C92.9811 106.17 93.142 105.917 93.2557 105.614L94.5511 105.977C94.4148 106.417 94.1856 106.803 93.8636 107.136C93.5417 107.466 93.1439 107.723 92.6705 107.909C92.197 108.091 91.6648 108.182 91.0739 108.182ZM97.7045 108.091C97.4242 108.091 97.1837 107.991 96.983 107.79C96.7822 107.589 96.6818 107.348 96.6818 107.068C96.6818 106.788 96.7822 106.547 96.983 106.347C97.1837 106.146 97.4242 106.045 97.7045 106.045C97.9848 106.045 98.2254 106.146 98.4261 106.347C98.6269 106.547 98.7273 106.788 98.7273 107.068C98.7273 107.254 98.6799 107.424 98.5852 107.58C98.4943 107.735 98.3712 107.86 98.2159 107.955C98.0644 108.045 97.8939 108.091 97.7045 108.091ZM102.111 108.091C101.83 108.091 101.59 107.991 101.389 107.79C101.188 107.589 101.088 107.348 101.088 107.068C101.088 106.788 101.188 106.547 101.389 106.347C101.59 106.146 101.83 106.045 102.111 106.045C102.391 106.045 102.632 106.146 102.832 106.347C103.033 106.547 103.134 106.788 103.134 107.068C103.134 107.254 103.086 107.424 102.991 107.58C102.901 107.735 102.777 107.86 102.622 107.955C102.471 108.045 102.3 108.091 102.111 108.091ZM106.517 108.091C106.237 108.091 105.996 107.991 105.795 107.79C105.595 107.589 105.494 107.348 105.494 107.068C105.494 106.788 105.595 106.547 105.795 106.347C105.996 106.146 106.237 106.045 106.517 106.045C106.797 106.045 107.038 106.146 107.239 106.347C107.439 106.547 107.54 106.788 107.54 107.068C107.54 107.254 107.492 107.424 107.398 107.58C107.307 107.735 107.184 107.86 107.028 107.955C106.877 108.045 106.706 108.091 106.517 108.091Z" fill="white"/>
<path d="M65 165H78M65 171H78M65 177H78M60 165H60.01M60 171H60.01M60 177H60.01" stroke="#4BC1BD" stroke-width="2" stroke-linecap="round" stroke-linejoin="round"/>
<path d="M101 165H112M101 171H112M101 177H112M95 165H96V169M95 169H97M97 177H95C95 176 97 175 97 174C97 173 96 172.5 95 173" stroke="#4BC1BD" stroke-width="2" stroke-linecap="round" stroke-linejoin="round"/>
<rect x="20" y="136" width="540" height="1" fill="#2C2C2C"/>
<path d="M17.8864 176H16.4091L20.6818 164.364H22.1364L26.4091 176H24.9318L21.4545 166.205H21.3636L17.8864 176ZM18.4318 171.455H24.3864V172.705H18.4318V171.455ZM31.3352 176.182C30.608 176.182 29.9659 175.998 29.4091 175.631C28.8523 175.259 28.4167 174.737 28.1023 174.062C27.7879 173.384 27.6307 172.583 27.6307 171.659C27.6307 170.742 27.7879 169.947 28.1023 169.273C28.4167 168.598 28.8542 168.078 29.4148 167.71C29.9754 167.343 30.6231 167.159 31.358 167.159C31.9261 167.159 32.375 167.254 32.7045 167.443C33.0379 167.629 33.2917 167.841 33.4659 168.08C33.6439 168.314 33.7822 168.508 33.8807 168.659H33.9943V164.364H35.3352V176H34.0398V174.659H33.8807C33.7822 174.818 33.642 175.019 33.4602 175.261C33.2784 175.5 33.0189 175.714 32.6818 175.903C32.3447 176.089 31.8958 176.182 31.3352 176.182ZM31.517 174.977C32.0549 174.977 32.5095 174.837 32.8807 174.557C33.2519 174.273 33.5341 173.881 33.7273 173.381C33.9205 172.877 34.017 172.295 34.017 171.636C34.017 170.985 33.9223 170.415 33.733 169.926C33.5436 169.434 33.2633 169.051 32.892 168.778C32.5208 168.502 32.0625 168.364 31.517 168.364C30.9489 168.364 30.4754 168.509 30.0966 168.801C29.7216 169.089 29.4394 169.481 29.25 169.977C29.0644 170.47 28.9716 171.023 28.9716 171.636C28.9716 172.258 29.0663 172.822 29.2557 173.33C29.4489 173.833 29.733 174.235 30.108 174.534C30.4867 174.83 30.9564 174.977 31.517 174.977ZM41.2727 176.182C40.5455 176.182 39.9034 175.998 39.3466 175.631C38.7898 175.259 38.3542 174.737 38.0398 174.062C37.7254 173.384 37.5682 172.583 37.5682 171.659C37.5682 170.742 37.7254 169.947 38.0398 169.273C38.3542 168.598 38.7917 168.078 39.3523 167.71C39.9129 167.343 40.5606 167.159 41.2955 167.159C41.8636 167.159 42.3125 167.254 42.642 167.443C42.9754 167.629 43.2292 167.841 43.4034 168.08C43.5814 168.314 43.7197 168.508 43.8182 168.659H43.9318V164.364H45.2727V176H43.9773V174.659H43.8182C43.7197 174.818 43.5795 175.019 43.3977 175.261C43.2159 175.5 42.9564 175.714 42.6193 175.903C42.2822 176.089 41.8333 176.182 41.2727 176.182ZM41.4545 174.977C41.9924 174.977 42.447 174.837 42.8182 174.557C43.1894 174.273 43.4716 173.881 43.6648 173.381C43.858 172.877 43.9545 172.295 43.9545 171.636C43.9545 170.985 43.8598 170.415 43.6705 169.926C43.4811 169.434 43.2008 169.051 42.8295 168.778C42.4583 168.502 42 168.364 41.4545 168.364C40.8864 168.364 40.4129 168.509 40.0341 168.801C39.6591 169.089 39.3769 169.481 39.1875 169.977C39.0019 170.47 38.9091 171.023 38.9091 171.636C38.9091 172.258 39.0038 172.822 39.1932 173.33C39.3864 173.833 39.6705 174.235 40.0455 174.534C40.4242 174.83 40.8939 174.977 41.4545 174.977Z" fill="#454444"/>
</svg>
