<svg width="580" height="157" viewBox="0 0 580 157" fill="none" xmlns="http://www.w3.org/2000/svg">
<path d="M12 0.5H568C574.351 0.5 579.5 5.64873 579.5 12V145C579.5 151.351 574.351 156.5 568 156.5H12C5.64873 156.5 0.5 151.351 0.5 145V12C0.5 5.64873 5.64873 0.5 12 0.5Z" fill="black"/>
<path d="M12 0.5H568C574.351 0.5 579.5 5.64873 579.5 12V145C579.5 151.351 574.351 156.5 568 156.5H12C5.64873 156.5 0.5 151.351 0.5 145V12C0.5 5.64873 5.64873 0.5 12 0.5Z" stroke="#2C2C2C"/>
<path d="M63.942 41V31.226H60.072V28.4H71.358V31.226H67.506V41H63.942ZM72.5238 41V31.244H75.9438V41H72.5238ZM74.2338 30.164C73.6098 30.164 73.1058 29.99 72.7218 29.642C72.3378 29.294 72.1458 28.862 72.1458 28.346C72.1458 27.83 72.3378 27.398 72.7218 27.05C73.1058 26.702 73.6098 26.528 74.2338 26.528C74.8578 26.528 75.3618 26.696 75.7458 27.032C76.1298 27.356 76.3218 27.776 76.3218 28.292C76.3218 28.832 76.1298 29.282 75.7458 29.642C75.3738 29.99 74.8698 30.164 74.2338 30.164ZM82.5224 41.162C81.2744 41.162 80.3024 40.856 79.6064 40.244C78.9104 39.62 78.5624 38.684 78.5624 37.436V29.066H81.9824V37.4C81.9824 37.748 82.0784 38.024 82.2704 38.228C82.4624 38.42 82.7084 38.516 83.0084 38.516C83.4164 38.516 83.7644 38.414 84.0524 38.21L84.8984 40.604C84.6104 40.796 84.2564 40.934 83.8364 41.018C83.4164 41.114 82.9784 41.162 82.5224 41.162ZM77.1404 34.16V31.604H84.2144V34.16H77.1404ZM86.2171 41V27.644H89.6371V41H86.2171ZM96.9717 41.162C95.8197 41.162 94.8117 40.946 93.9477 40.514C93.0957 40.07 92.4297 39.47 91.9497 38.714C91.4817 37.946 91.2477 37.076 91.2477 36.104C91.2477 35.132 91.4757 34.268 91.9317 33.512C92.3997 32.744 93.0417 32.15 93.8577 31.73C94.6737 31.298 95.5917 31.082 96.6117 31.082C97.5717 31.082 98.4477 31.28 99.2397 31.676C100.032 32.06 100.662 32.63 101.13 33.386C101.598 34.142 101.832 35.06 101.832 36.14C101.832 36.26 101.826 36.398 101.814 36.554C101.802 36.71 101.79 36.854 101.778 36.986H94.0557V35.186H99.9597L98.6637 35.69C98.6757 35.246 98.5917 34.862 98.4117 34.538C98.2437 34.214 98.0037 33.962 97.6917 33.782C97.3917 33.602 97.0377 33.512 96.6297 33.512C96.2217 33.512 95.8617 33.602 95.5497 33.782C95.2497 33.962 95.0157 34.22 94.8477 34.556C94.6797 34.88 94.5957 35.264 94.5957 35.708V36.23C94.5957 36.71 94.6917 37.124 94.8837 37.472C95.0877 37.82 95.3757 38.09 95.7477 38.282C96.1197 38.462 96.5637 38.552 97.0797 38.552C97.5597 38.552 97.9677 38.486 98.3037 38.354C98.6517 38.21 98.9937 37.994 99.3297 37.706L101.13 39.578C100.662 40.094 100.086 40.49 99.4017 40.766C98.7177 41.03 97.9077 41.162 96.9717 41.162Z" fill="white"/>
<path d="M37 29.1001H23M41 35.1001H23M35.1 41.0001H23" stroke="#4BC1BD" stroke-width="2" stroke-linecap="round" stroke-linejoin="round"/>
<mask id="path-4-inside-1_9324_33449" fill="white">
<path d="M20 69H560V137H20V69Z"/>
</mask>
<path d="M20 70H560V68H20V70Z" fill="#2C2C2C" mask="url(#path-4-inside-1_9324_33449)"/>
<path d="M21.8864 96.3636L25.3409 106.159H25.4773L28.9318 96.3636H30.4091L26.1364 108H24.6818L20.4091 96.3636H21.8864ZM34.7727 108.182C33.9848 108.182 33.2936 107.994 32.6989 107.619C32.108 107.244 31.6458 106.72 31.3125 106.045C30.983 105.371 30.8182 104.583 30.8182 103.682C30.8182 102.773 30.983 101.979 31.3125 101.301C31.6458 100.623 32.108 100.097 32.6989 99.7216C33.2936 99.3466 33.9848 99.1591 34.7727 99.1591C35.5606 99.1591 36.25 99.3466 36.8409 99.7216C37.4356 100.097 37.8977 100.623 38.2273 101.301C38.5606 101.979 38.7273 102.773 38.7273 103.682C38.7273 104.583 38.5606 105.371 38.2273 106.045C37.8977 106.72 37.4356 107.244 36.8409 107.619C36.25 107.994 35.5606 108.182 34.7727 108.182ZM34.7727 106.977C35.3712 106.977 35.8636 106.824 36.25 106.517C36.6364 106.21 36.9223 105.807 37.108 105.307C37.2936 104.807 37.3864 104.265 37.3864 103.682C37.3864 103.098 37.2936 102.555 37.108 102.051C36.9223 101.547 36.6364 101.14 36.25 100.83C35.8636 100.519 35.3712 100.364 34.7727 100.364C34.1742 100.364 33.6818 100.519 33.2955 100.83C32.9091 101.14 32.6231 101.547 32.4375 102.051C32.2519 102.555 32.1591 103.098 32.1591 103.682C32.1591 104.265 32.2519 104.807 32.4375 105.307C32.6231 105.807 32.9091 106.21 33.2955 106.517C33.6818 106.824 34.1742 106.977 34.7727 106.977ZM42.1151 96.3636V108H40.7741V96.3636H42.1151ZM50.071 104.432V99.2727H51.4119V108H50.071V106.523H49.9801C49.7756 106.966 49.4574 107.343 49.0256 107.653C48.5938 107.96 48.0483 108.114 47.3892 108.114C46.8438 108.114 46.3589 107.994 45.9347 107.756C45.5104 107.513 45.1771 107.15 44.9347 106.665C44.6922 106.176 44.571 105.561 44.571 104.818V99.2727H45.9119V104.727C45.9119 105.364 46.09 105.871 46.446 106.25C46.8059 106.629 47.2642 106.818 47.821 106.818C48.1544 106.818 48.4934 106.733 48.8381 106.562C49.1866 106.392 49.4782 106.131 49.7131 105.778C49.9517 105.426 50.071 104.977 50.071 104.432ZM53.8679 111.273V99.2727H55.1634V100.659H55.3224C55.4209 100.508 55.5573 100.314 55.7315 100.08C55.9096 99.8409 56.1634 99.6288 56.4929 99.4432C56.8262 99.2538 57.277 99.1591 57.8452 99.1591C58.58 99.1591 59.2277 99.3428 59.7884 99.7102C60.349 100.078 60.7865 100.598 61.1009 101.273C61.4152 101.947 61.5724 102.742 61.5724 103.659C61.5724 104.583 61.4152 105.384 61.1009 106.062C60.7865 106.737 60.3509 107.259 59.794 107.631C59.2372 107.998 58.5952 108.182 57.8679 108.182C57.3073 108.182 56.8584 108.089 56.5213 107.903C56.1842 107.714 55.9247 107.5 55.7429 107.261C55.5611 107.019 55.4209 106.818 55.3224 106.659H55.2088V111.273H53.8679ZM55.1861 103.636C55.1861 104.295 55.2827 104.877 55.4759 105.381C55.669 105.881 55.9512 106.273 56.3224 106.557C56.6937 106.837 57.1482 106.977 57.6861 106.977C58.2467 106.977 58.7145 106.83 59.0895 106.534C59.4683 106.235 59.7524 105.833 59.9418 105.33C60.1349 104.822 60.2315 104.258 60.2315 103.636C60.2315 103.023 60.1368 102.47 59.9474 101.977C59.7618 101.481 59.4796 101.089 59.1009 100.801C58.7259 100.509 58.2543 100.364 57.6861 100.364C57.1406 100.364 56.6823 100.502 56.3111 100.778C55.9399 101.051 55.6596 101.434 55.4702 101.926C55.2808 102.415 55.1861 102.985 55.1861 103.636ZM67.4134 99.2727V100.409H62.8906V99.2727H67.4134ZM64.2088 97.1818H65.5497V105.5C65.5497 105.879 65.6046 106.163 65.7145 106.352C65.8281 106.538 65.9721 106.663 66.1463 106.727C66.3243 106.788 66.5118 106.818 66.7088 106.818C66.8565 106.818 66.9777 106.811 67.0724 106.795C67.1671 106.777 67.2429 106.761 67.2997 106.75L67.5724 107.955C67.4815 107.989 67.3546 108.023 67.1918 108.057C67.0289 108.095 66.8224 108.114 66.5724 108.114C66.1937 108.114 65.8224 108.032 65.4588 107.869C65.099 107.706 64.7997 107.458 64.5611 107.125C64.3262 106.792 64.2088 106.371 64.2088 105.864V97.1818ZM71.9986 108.205C71.4455 108.205 70.9437 108.1 70.4929 107.892C70.0421 107.68 69.6842 107.375 69.419 106.977C69.1539 106.576 69.0213 106.091 69.0213 105.523C69.0213 105.023 69.1198 104.617 69.3168 104.307C69.5137 103.992 69.777 103.746 70.1065 103.568C70.4361 103.39 70.7997 103.258 71.1974 103.17C71.599 103.08 72.0024 103.008 72.4077 102.955C72.938 102.886 73.3679 102.835 73.6974 102.801C74.0308 102.763 74.2732 102.701 74.4247 102.614C74.58 102.527 74.6577 102.375 74.6577 102.159V102.114C74.6577 101.553 74.5043 101.117 74.1974 100.807C73.8944 100.496 73.4342 100.341 72.8168 100.341C72.1766 100.341 71.6747 100.481 71.3111 100.761C70.9474 101.042 70.6918 101.341 70.544 101.659L69.2713 101.205C69.4986 100.674 69.8016 100.261 70.1804 99.9659C70.563 99.6667 70.9796 99.4583 71.4304 99.3409C71.8849 99.2197 72.3319 99.1591 72.7713 99.1591C73.0516 99.1591 73.3736 99.1932 73.7372 99.2614C74.1046 99.3258 74.4588 99.4602 74.7997 99.6648C75.1444 99.8693 75.4304 100.178 75.6577 100.591C75.8849 101.004 75.9986 101.557 75.9986 102.25V108H74.6577V106.818H74.5895C74.4986 107.008 74.3471 107.21 74.1349 107.426C73.9228 107.642 73.6406 107.826 73.2884 107.977C72.9361 108.129 72.5062 108.205 71.9986 108.205ZM72.2031 107C72.7334 107 73.1804 106.896 73.544 106.688C73.9115 106.479 74.188 106.21 74.3736 105.881C74.563 105.551 74.6577 105.205 74.6577 104.841V103.614C74.6009 103.682 74.4759 103.744 74.2827 103.801C74.0933 103.854 73.8736 103.902 73.6236 103.943C73.3774 103.981 73.1368 104.015 72.902 104.045C72.6709 104.072 72.4834 104.095 72.3395 104.114C71.991 104.159 71.6652 104.233 71.3622 104.335C71.063 104.434 70.8205 104.583 70.6349 104.784C70.4531 104.981 70.3622 105.25 70.3622 105.591C70.3622 106.057 70.5346 106.409 70.8793 106.648C71.2277 106.883 71.669 107 72.2031 107ZM82.2415 99.2727V100.409H77.7188V99.2727H82.2415ZM79.0369 97.1818H80.3778V105.5C80.3778 105.879 80.4328 106.163 80.5426 106.352C80.6563 106.538 80.8002 106.663 80.9744 106.727C81.1525 106.788 81.34 106.818 81.5369 106.818C81.6847 106.818 81.8059 106.811 81.9006 106.795C81.9953 106.777 82.071 106.761 82.1278 106.75L82.4006 107.955C82.3097 107.989 82.1828 108.023 82.0199 108.057C81.857 108.095 81.6506 108.114 81.4006 108.114C81.0218 108.114 80.6506 108.032 80.2869 107.869C79.9271 107.706 79.6278 107.458 79.3892 107.125C79.1544 106.792 79.0369 106.371 79.0369 105.864V97.1818ZM87.8239 108.182C86.983 108.182 86.2576 107.996 85.6477 107.625C85.0417 107.25 84.5739 106.727 84.2443 106.057C83.9186 105.383 83.7557 104.598 83.7557 103.705C83.7557 102.811 83.9186 102.023 84.2443 101.341C84.5739 100.655 85.0322 100.121 85.6193 99.7386C86.2102 99.3523 86.8996 99.1591 87.6875 99.1591C88.142 99.1591 88.5909 99.2348 89.0341 99.3864C89.4773 99.5379 89.8807 99.7841 90.2443 100.125C90.608 100.462 90.8977 100.909 91.1136 101.466C91.3295 102.023 91.4375 102.708 91.4375 103.523V104.091H84.7102V102.932H90.0739C90.0739 102.439 89.9754 102 89.7784 101.614C89.5852 101.227 89.3087 100.922 88.9489 100.699C88.5928 100.475 88.1723 100.364 87.6875 100.364C87.1534 100.364 86.6913 100.496 86.3011 100.761C85.9148 101.023 85.6174 101.364 85.4091 101.784C85.2008 102.205 85.0966 102.655 85.0966 103.136V103.909C85.0966 104.568 85.2102 105.127 85.4375 105.585C85.6686 106.04 85.9886 106.386 86.3977 106.625C86.8068 106.86 87.2822 106.977 87.8239 106.977C88.1761 106.977 88.4943 106.928 88.7784 106.83C89.0663 106.727 89.3144 106.576 89.5227 106.375C89.7311 106.17 89.892 105.917 90.0057 105.614L91.3011 105.977C91.1648 106.417 90.9356 106.803 90.6136 107.136C90.2917 107.466 89.8939 107.723 89.4205 107.909C88.947 108.091 88.4148 108.182 87.8239 108.182ZM103.932 111.273V106.659H103.818C103.72 106.818 103.58 107.019 103.398 107.261C103.216 107.5 102.956 107.714 102.619 107.903C102.282 108.089 101.833 108.182 101.273 108.182C100.545 108.182 99.9034 107.998 99.3466 107.631C98.7898 107.259 98.3542 106.737 98.0398 106.062C97.7254 105.384 97.5682 104.583 97.5682 103.659C97.5682 102.742 97.7254 101.947 98.0398 101.273C98.3542 100.598 98.7917 100.078 99.3523 99.7102C99.9129 99.3428 100.561 99.1591 101.295 99.1591C101.864 99.1591 102.313 99.2538 102.642 99.4432C102.975 99.6288 103.229 99.8409 103.403 100.08C103.581 100.314 103.72 100.508 103.818 100.659H103.977V99.2727H105.273V111.273H103.932ZM101.455 106.977C101.992 106.977 102.447 106.837 102.818 106.557C103.189 106.273 103.472 105.881 103.665 105.381C103.858 104.877 103.955 104.295 103.955 103.636C103.955 102.985 103.86 102.415 103.67 101.926C103.481 101.434 103.201 101.051 102.83 100.778C102.458 100.502 102 100.364 101.455 100.364C100.886 100.364 100.413 100.509 100.034 100.801C99.6591 101.089 99.3769 101.481 99.1875 101.977C99.0019 102.47 98.9091 103.023 98.9091 103.636C98.9091 104.258 99.0038 104.822 99.1932 105.33C99.3864 105.833 99.6705 106.235 100.045 106.534C100.424 106.83 100.894 106.977 101.455 106.977ZM113.227 104.432V99.2727H114.568V108H113.227V106.523H113.136C112.932 106.966 112.614 107.343 112.182 107.653C111.75 107.96 111.205 108.114 110.545 108.114C110 108.114 109.515 107.994 109.091 107.756C108.667 107.513 108.333 107.15 108.091 106.665C107.848 106.176 107.727 105.561 107.727 104.818V99.2727H109.068V104.727C109.068 105.364 109.246 105.871 109.602 106.25C109.962 106.629 110.42 106.818 110.977 106.818C111.311 106.818 111.65 106.733 111.994 106.562C112.343 106.392 112.634 106.131 112.869 105.778C113.108 105.426 113.227 104.977 113.227 104.432ZM117.024 108V99.2727H118.365V108H117.024ZM117.706 97.8182C117.445 97.8182 117.219 97.7292 117.03 97.5511C116.844 97.3731 116.751 97.1591 116.751 96.9091C116.751 96.6591 116.844 96.4451 117.03 96.267C117.219 96.089 117.445 96 117.706 96C117.967 96 118.191 96.089 118.376 96.267C118.566 96.4451 118.661 96.6591 118.661 96.9091C118.661 97.1591 118.566 97.3731 118.376 97.5511C118.191 97.7292 117.967 97.8182 117.706 97.8182ZM126.662 102.75V108H125.321V99.2727H126.616V100.636H126.73C126.935 100.193 127.245 99.8371 127.662 99.5682C128.079 99.2955 128.616 99.1591 129.276 99.1591C129.866 99.1591 130.384 99.2803 130.827 99.5227C131.27 99.7614 131.615 100.125 131.861 100.614C132.107 101.098 132.23 101.712 132.23 102.455V108H130.889V102.545C130.889 101.86 130.711 101.326 130.355 100.943C129.999 100.557 129.51 100.364 128.889 100.364C128.461 100.364 128.079 100.456 127.741 100.642C127.408 100.828 127.145 101.098 126.952 101.455C126.759 101.811 126.662 102.242 126.662 102.75ZM134.68 108V99.2727H136.021V108H134.68ZM135.362 97.8182C135.101 97.8182 134.875 97.7292 134.686 97.5511C134.5 97.3731 134.408 97.1591 134.408 96.9091C134.408 96.6591 134.5 96.4451 134.686 96.267C134.875 96.089 135.101 96 135.362 96C135.624 96 135.847 96.089 136.033 96.267C136.222 96.4451 136.317 96.6591 136.317 96.9091C136.317 97.1591 136.222 97.3731 136.033 97.5511C135.847 97.7292 135.624 97.8182 135.362 97.8182ZM144.659 101.227L143.455 101.568C143.379 101.367 143.267 101.172 143.119 100.983C142.975 100.79 142.778 100.631 142.528 100.506C142.278 100.381 141.958 100.318 141.568 100.318C141.034 100.318 140.589 100.441 140.233 100.688C139.881 100.93 139.705 101.239 139.705 101.614C139.705 101.947 139.826 102.21 140.068 102.403C140.311 102.597 140.689 102.758 141.205 102.886L142.5 103.205C143.28 103.394 143.862 103.684 144.244 104.074C144.627 104.46 144.818 104.958 144.818 105.568C144.818 106.068 144.674 106.515 144.386 106.909C144.102 107.303 143.705 107.614 143.193 107.841C142.682 108.068 142.087 108.182 141.409 108.182C140.519 108.182 139.782 107.989 139.199 107.602C138.616 107.216 138.246 106.652 138.091 105.909L139.364 105.591C139.485 106.061 139.714 106.413 140.051 106.648C140.392 106.883 140.837 107 141.386 107C142.011 107 142.508 106.867 142.875 106.602C143.246 106.333 143.432 106.011 143.432 105.636C143.432 105.333 143.326 105.08 143.114 104.875C142.902 104.667 142.576 104.511 142.136 104.409L140.682 104.068C139.883 103.879 139.295 103.585 138.92 103.188C138.549 102.786 138.364 102.284 138.364 101.682C138.364 101.189 138.502 100.754 138.778 100.375C139.059 99.9962 139.439 99.6989 139.92 99.483C140.405 99.267 140.955 99.1591 141.568 99.1591C142.432 99.1591 143.11 99.3485 143.602 99.7273C144.098 100.106 144.451 100.606 144.659 101.227ZM146.837 108V99.2727H148.178V108H146.837ZM147.518 97.8182C147.257 97.8182 147.032 97.7292 146.842 97.5511C146.657 97.3731 146.564 97.1591 146.564 96.9091C146.564 96.6591 146.657 96.4451 146.842 96.267C147.032 96.089 147.257 96 147.518 96C147.78 96 148.003 96.089 148.189 96.267C148.378 96.4451 148.473 96.6591 148.473 96.9091C148.473 97.1591 148.378 97.3731 148.189 97.5511C148.003 97.7292 147.78 97.8182 147.518 97.8182ZM155.134 108V99.2727H156.474V108H155.134ZM155.815 97.8182C155.554 97.8182 155.329 97.7292 155.139 97.5511C154.954 97.3731 154.861 97.1591 154.861 96.9091C154.861 96.6591 154.954 96.4451 155.139 96.267C155.329 96.089 155.554 96 155.815 96C156.077 96 156.3 96.089 156.486 96.267C156.675 96.4451 156.77 96.6591 156.77 96.9091C156.77 97.1591 156.675 97.3731 156.486 97.5511C156.3 97.7292 156.077 97.8182 155.815 97.8182ZM160.271 102.75V108H158.93V99.2727H160.226V100.636H160.339C160.544 100.193 160.855 99.8371 161.271 99.5682C161.688 99.2955 162.226 99.1591 162.885 99.1591C163.476 99.1591 163.993 99.2803 164.436 99.5227C164.879 99.7614 165.224 100.125 165.47 100.614C165.716 101.098 165.839 101.712 165.839 102.455V108H164.499V102.545C164.499 101.86 164.321 101.326 163.964 100.943C163.608 100.557 163.12 100.364 162.499 100.364C162.071 100.364 161.688 100.456 161.351 100.642C161.018 100.828 160.754 101.098 160.561 101.455C160.368 101.811 160.271 102.242 160.271 102.75ZM172.79 108V99.2727H174.131V108H172.79ZM173.472 97.8182C173.21 97.8182 172.985 97.7292 172.795 97.5511C172.61 97.3731 172.517 97.1591 172.517 96.9091C172.517 96.6591 172.61 96.4451 172.795 96.267C172.985 96.089 173.21 96 173.472 96C173.733 96 173.956 96.089 174.142 96.267C174.331 96.4451 174.426 96.6591 174.426 96.9091C174.426 97.1591 174.331 97.3731 174.142 97.5511C173.956 97.7292 173.733 97.8182 173.472 97.8182ZM179.882 108.182C179.155 108.182 178.513 107.998 177.956 107.631C177.399 107.259 176.964 106.737 176.649 106.062C176.335 105.384 176.178 104.583 176.178 103.659C176.178 102.742 176.335 101.947 176.649 101.273C176.964 100.598 177.401 100.078 177.962 99.7102C178.522 99.3428 179.17 99.1591 179.905 99.1591C180.473 99.1591 180.922 99.2538 181.251 99.4432C181.585 99.6288 181.839 99.8409 182.013 100.08C182.191 100.314 182.329 100.508 182.428 100.659H182.541V96.3636H183.882V108H182.587V106.659H182.428C182.329 106.818 182.189 107.019 182.007 107.261C181.825 107.5 181.566 107.714 181.229 107.903C180.892 108.089 180.443 108.182 179.882 108.182ZM180.064 106.977C180.602 106.977 181.056 106.837 181.428 106.557C181.799 106.273 182.081 105.881 182.274 105.381C182.467 104.877 182.564 104.295 182.564 103.636C182.564 102.985 182.469 102.415 182.28 101.926C182.09 101.434 181.81 101.051 181.439 100.778C181.068 100.502 180.609 100.364 180.064 100.364C179.496 100.364 179.022 100.509 178.643 100.801C178.268 101.089 177.986 101.481 177.797 101.977C177.611 102.47 177.518 103.023 177.518 103.636C177.518 104.258 177.613 104.822 177.803 105.33C177.996 105.833 178.28 106.235 178.655 106.534C179.034 106.83 179.503 106.977 180.064 106.977ZM191.024 108V99.2727H192.365V108H191.024ZM191.706 97.8182C191.445 97.8182 191.219 97.7292 191.03 97.5511C190.844 97.3731 190.751 97.1591 190.751 96.9091C190.751 96.6591 190.844 96.4451 191.03 96.267C191.219 96.089 191.445 96 191.706 96C191.967 96 192.191 96.089 192.376 96.267C192.566 96.4451 192.661 96.6591 192.661 96.9091C192.661 97.1591 192.566 97.3731 192.376 97.5511C192.191 97.7292 191.967 97.8182 191.706 97.8182ZM198.116 108.182C197.389 108.182 196.747 107.998 196.19 107.631C195.634 107.259 195.198 106.737 194.884 106.062C194.569 105.384 194.412 104.583 194.412 103.659C194.412 102.742 194.569 101.947 194.884 101.273C195.198 100.598 195.635 100.078 196.196 99.7102C196.757 99.3428 197.404 99.1591 198.139 99.1591C198.707 99.1591 199.156 99.2538 199.486 99.4432C199.819 99.6288 200.073 99.8409 200.247 100.08C200.425 100.314 200.563 100.508 200.662 100.659H200.776V96.3636H202.116V108H200.821V106.659H200.662C200.563 106.818 200.423 107.019 200.241 107.261C200.06 107.5 199.8 107.714 199.463 107.903C199.126 108.089 198.677 108.182 198.116 108.182ZM198.298 106.977C198.836 106.977 199.291 106.837 199.662 106.557C200.033 106.273 200.315 105.881 200.509 105.381C200.702 104.877 200.798 104.295 200.798 103.636C200.798 102.985 200.704 102.415 200.514 101.926C200.325 101.434 200.045 101.051 199.673 100.778C199.302 100.502 198.844 100.364 198.298 100.364C197.73 100.364 197.257 100.509 196.878 100.801C196.503 101.089 196.221 101.481 196.031 101.977C195.846 102.47 195.753 103.023 195.753 103.636C195.753 104.258 195.848 104.822 196.037 105.33C196.23 105.833 196.514 106.235 196.889 106.534C197.268 106.83 197.738 106.977 198.298 106.977ZM212.804 108.182C211.986 108.182 211.281 107.989 210.69 107.602C210.099 107.216 209.645 106.684 209.327 106.006C209.009 105.328 208.849 104.553 208.849 103.682C208.849 102.795 209.012 102.013 209.338 101.335C209.668 100.653 210.126 100.121 210.713 99.7386C211.304 99.3523 211.993 99.1591 212.781 99.1591C213.395 99.1591 213.948 99.2727 214.44 99.5C214.933 99.7273 215.336 100.045 215.651 100.455C215.965 100.864 216.16 101.341 216.236 101.886H214.895C214.793 101.489 214.565 101.136 214.213 100.83C213.865 100.519 213.395 100.364 212.804 100.364C212.281 100.364 211.823 100.5 211.429 100.773C211.039 101.042 210.734 101.422 210.514 101.915C210.298 102.403 210.19 102.977 210.19 103.636C210.19 104.311 210.296 104.898 210.509 105.398C210.724 105.898 211.027 106.286 211.418 106.562C211.812 106.839 212.274 106.977 212.804 106.977C213.152 106.977 213.469 106.917 213.753 106.795C214.037 106.674 214.277 106.5 214.474 106.273C214.671 106.045 214.812 105.773 214.895 105.455H216.236C216.16 105.97 215.973 106.434 215.673 106.847C215.378 107.256 214.986 107.581 214.497 107.824C214.012 108.062 213.448 108.182 212.804 108.182ZM223.696 104.432V99.2727H225.037V108H223.696V106.523H223.605C223.401 106.966 223.082 107.343 222.651 107.653C222.219 107.96 221.673 108.114 221.014 108.114C220.469 108.114 219.984 107.994 219.56 107.756C219.135 107.513 218.802 107.15 218.56 106.665C218.317 106.176 218.196 105.561 218.196 104.818V99.2727H219.537V104.727C219.537 105.364 219.715 105.871 220.071 106.25C220.431 106.629 220.889 106.818 221.446 106.818C221.779 106.818 222.118 106.733 222.463 106.562C222.812 106.392 223.103 106.131 223.338 105.778C223.577 105.426 223.696 104.977 223.696 104.432ZM228.834 96.3636V108H227.493V96.3636H228.834ZM231.29 111.273V99.2727H232.585V100.659H232.744C232.843 100.508 232.979 100.314 233.153 100.08C233.331 99.8409 233.585 99.6288 233.915 99.4432C234.248 99.2538 234.699 99.1591 235.267 99.1591C236.002 99.1591 236.65 99.3428 237.21 99.7102C237.771 100.078 238.208 100.598 238.523 101.273C238.837 101.947 238.994 102.742 238.994 103.659C238.994 104.583 238.837 105.384 238.523 106.062C238.208 106.737 237.773 107.259 237.216 107.631C236.659 107.998 236.017 108.182 235.29 108.182C234.729 108.182 234.28 108.089 233.943 107.903C233.606 107.714 233.347 107.5 233.165 107.261C232.983 107.019 232.843 106.818 232.744 106.659H232.631V111.273H231.29ZM232.608 103.636C232.608 104.295 232.705 104.877 232.898 105.381C233.091 105.881 233.373 106.273 233.744 106.557C234.116 106.837 234.57 106.977 235.108 106.977C235.669 106.977 236.136 106.83 236.511 106.534C236.89 106.235 237.174 105.833 237.364 105.33C237.557 104.822 237.653 104.258 237.653 103.636C237.653 103.023 237.559 102.47 237.369 101.977C237.184 101.481 236.902 101.089 236.523 100.801C236.148 100.509 235.676 100.364 235.108 100.364C234.563 100.364 234.104 100.502 233.733 100.778C233.362 101.051 233.081 101.434 232.892 101.926C232.703 102.415 232.608 102.985 232.608 103.636ZM243.608 108.205C243.055 108.205 242.553 108.1 242.102 107.892C241.652 107.68 241.294 107.375 241.028 106.977C240.763 106.576 240.631 106.091 240.631 105.523C240.631 105.023 240.729 104.617 240.926 104.307C241.123 103.992 241.386 103.746 241.716 103.568C242.045 103.39 242.409 103.258 242.807 103.17C243.208 103.08 243.612 103.008 244.017 102.955C244.547 102.886 244.977 102.835 245.307 102.801C245.64 102.763 245.883 102.701 246.034 102.614C246.189 102.527 246.267 102.375 246.267 102.159V102.114C246.267 101.553 246.114 101.117 245.807 100.807C245.504 100.496 245.044 100.341 244.426 100.341C243.786 100.341 243.284 100.481 242.92 100.761C242.557 101.042 242.301 101.341 242.153 101.659L240.881 101.205C241.108 100.674 241.411 100.261 241.79 99.9659C242.172 99.6667 242.589 99.4583 243.04 99.3409C243.494 99.2197 243.941 99.1591 244.381 99.1591C244.661 99.1591 244.983 99.1932 245.347 99.2614C245.714 99.3258 246.068 99.4602 246.409 99.6648C246.754 99.8693 247.04 100.178 247.267 100.591C247.494 101.004 247.608 101.557 247.608 102.25V108H246.267V106.818H246.199C246.108 107.008 245.956 107.21 245.744 107.426C245.532 107.642 245.25 107.826 244.898 107.977C244.545 108.129 244.116 108.205 243.608 108.205ZM243.812 107C244.343 107 244.79 106.896 245.153 106.688C245.521 106.479 245.797 106.21 245.983 105.881C246.172 105.551 246.267 105.205 246.267 104.841V103.614C246.21 103.682 246.085 103.744 245.892 103.801C245.703 103.854 245.483 103.902 245.233 103.943C244.987 103.981 244.746 104.015 244.511 104.045C244.28 104.072 244.093 104.095 243.949 104.114C243.6 104.159 243.275 104.233 242.972 104.335C242.672 104.434 242.43 104.583 242.244 104.784C242.063 104.981 241.972 105.25 241.972 105.591C241.972 106.057 242.144 106.409 242.489 106.648C242.837 106.883 243.278 107 243.812 107ZM258.214 108.182C257.374 108.182 256.648 107.996 256.038 107.625C255.432 107.25 254.964 106.727 254.635 106.057C254.309 105.383 254.146 104.598 254.146 103.705C254.146 102.811 254.309 102.023 254.635 101.341C254.964 100.655 255.423 100.121 256.01 99.7386C256.601 99.3523 257.29 99.1591 258.078 99.1591C258.533 99.1591 258.982 99.2348 259.425 99.3864C259.868 99.5379 260.271 99.7841 260.635 100.125C260.999 100.462 261.288 100.909 261.504 101.466C261.72 102.023 261.828 102.708 261.828 103.523V104.091H255.101V102.932H260.464C260.464 102.439 260.366 102 260.169 101.614C259.976 101.227 259.699 100.922 259.339 100.699C258.983 100.475 258.563 100.364 258.078 100.364C257.544 100.364 257.082 100.496 256.692 100.761C256.305 101.023 256.008 101.364 255.8 101.784C255.591 102.205 255.487 102.655 255.487 103.136V103.909C255.487 104.568 255.601 105.127 255.828 105.585C256.059 106.04 256.379 106.386 256.788 106.625C257.197 106.86 257.673 106.977 258.214 106.977C258.567 106.977 258.885 106.928 259.169 106.83C259.457 106.727 259.705 106.576 259.913 106.375C260.122 106.17 260.283 105.917 260.396 105.614L261.692 105.977C261.555 106.417 261.326 106.803 261.004 107.136C260.682 107.466 260.285 107.723 259.811 107.909C259.338 108.091 258.805 108.182 258.214 108.182ZM270.05 101.227L268.845 101.568C268.769 101.367 268.658 101.172 268.51 100.983C268.366 100.79 268.169 100.631 267.919 100.506C267.669 100.381 267.349 100.318 266.959 100.318C266.425 100.318 265.98 100.441 265.624 100.688C265.271 100.93 265.095 101.239 265.095 101.614C265.095 101.947 265.216 102.21 265.459 102.403C265.701 102.597 266.08 102.758 266.595 102.886L267.891 103.205C268.671 103.394 269.252 103.684 269.635 104.074C270.018 104.46 270.209 104.958 270.209 105.568C270.209 106.068 270.065 106.515 269.777 106.909C269.493 107.303 269.095 107.614 268.584 107.841C268.072 108.068 267.478 108.182 266.8 108.182C265.91 108.182 265.173 107.989 264.589 107.602C264.006 107.216 263.637 106.652 263.482 105.909L264.754 105.591C264.875 106.061 265.105 106.413 265.442 106.648C265.783 106.883 266.228 107 266.777 107C267.402 107 267.898 106.867 268.266 106.602C268.637 106.333 268.822 106.011 268.822 105.636C268.822 105.333 268.716 105.08 268.504 104.875C268.292 104.667 267.966 104.511 267.527 104.409L266.072 104.068C265.273 103.879 264.686 103.585 264.311 103.188C263.94 102.786 263.754 102.284 263.754 101.682C263.754 101.189 263.893 100.754 264.169 100.375C264.449 99.9962 264.83 99.6989 265.311 99.483C265.796 99.267 266.345 99.1591 266.959 99.1591C267.822 99.1591 268.5 99.3485 268.993 99.7273C269.489 100.106 269.841 100.606 270.05 101.227ZM278.409 101.227L277.205 101.568C277.129 101.367 277.017 101.172 276.869 100.983C276.725 100.79 276.528 100.631 276.278 100.506C276.028 100.381 275.708 100.318 275.318 100.318C274.784 100.318 274.339 100.441 273.983 100.688C273.631 100.93 273.455 101.239 273.455 101.614C273.455 101.947 273.576 102.21 273.818 102.403C274.061 102.597 274.439 102.758 274.955 102.886L276.25 103.205C277.03 103.394 277.612 103.684 277.994 104.074C278.377 104.46 278.568 104.958 278.568 105.568C278.568 106.068 278.424 106.515 278.136 106.909C277.852 107.303 277.455 107.614 276.943 107.841C276.432 108.068 275.837 108.182 275.159 108.182C274.269 108.182 273.532 107.989 272.949 107.602C272.366 107.216 271.996 106.652 271.841 105.909L273.114 105.591C273.235 106.061 273.464 106.413 273.801 106.648C274.142 106.883 274.587 107 275.136 107C275.761 107 276.258 106.867 276.625 106.602C276.996 106.333 277.182 106.011 277.182 105.636C277.182 105.333 277.076 105.08 276.864 104.875C276.652 104.667 276.326 104.511 275.886 104.409L274.432 104.068C273.633 103.879 273.045 103.585 272.67 103.188C272.299 102.786 272.114 102.284 272.114 101.682C272.114 101.189 272.252 100.754 272.528 100.375C272.809 99.9962 273.189 99.6989 273.67 99.483C274.155 99.267 274.705 99.1591 275.318 99.1591C276.182 99.1591 276.86 99.3485 277.352 99.7273C277.848 100.106 278.201 100.606 278.409 101.227ZM284.246 108.182C283.405 108.182 282.679 107.996 282.07 107.625C281.464 107.25 280.996 106.727 280.666 106.057C280.34 105.383 280.178 104.598 280.178 103.705C280.178 102.811 280.34 102.023 280.666 101.341C280.996 100.655 281.454 100.121 282.041 99.7386C282.632 99.3523 283.321 99.1591 284.109 99.1591C284.564 99.1591 285.013 99.2348 285.456 99.3864C285.899 99.5379 286.303 99.7841 286.666 100.125C287.03 100.462 287.32 100.909 287.536 101.466C287.751 102.023 287.859 102.708 287.859 103.523V104.091H281.132V102.932H286.496C286.496 102.439 286.397 102 286.2 101.614C286.007 101.227 285.731 100.922 285.371 100.699C285.015 100.475 284.594 100.364 284.109 100.364C283.575 100.364 283.113 100.496 282.723 100.761C282.337 101.023 282.039 101.364 281.831 101.784C281.623 102.205 281.518 102.655 281.518 103.136V103.909C281.518 104.568 281.632 105.127 281.859 105.585C282.09 106.04 282.411 106.386 282.82 106.625C283.229 106.86 283.704 106.977 284.246 106.977C284.598 106.977 284.916 106.928 285.2 106.83C285.488 106.727 285.736 106.576 285.945 106.375C286.153 106.17 286.314 105.917 286.428 105.614L287.723 105.977C287.587 106.417 287.357 106.803 287.036 107.136C286.714 107.466 286.316 107.723 285.842 107.909C285.369 108.091 284.837 108.182 284.246 108.182ZM297.695 108.182C296.967 108.182 296.325 107.998 295.768 107.631C295.212 107.259 294.776 106.737 294.462 106.062C294.147 105.384 293.99 104.583 293.99 103.659C293.99 102.742 294.147 101.947 294.462 101.273C294.776 100.598 295.214 100.078 295.774 99.7102C296.335 99.3428 296.982 99.1591 297.717 99.1591C298.286 99.1591 298.734 99.2538 299.064 99.4432C299.397 99.6288 299.651 99.8409 299.825 100.08C300.003 100.314 300.142 100.508 300.24 100.659H300.354V96.3636H301.695V108H300.399V106.659H300.24C300.142 106.818 300.001 107.019 299.82 107.261C299.638 107.5 299.378 107.714 299.041 107.903C298.704 108.089 298.255 108.182 297.695 108.182ZM297.876 106.977C298.414 106.977 298.869 106.837 299.24 106.557C299.611 106.273 299.893 105.881 300.087 105.381C300.28 104.877 300.376 104.295 300.376 103.636C300.376 102.985 300.282 102.415 300.092 101.926C299.903 101.434 299.623 101.051 299.251 100.778C298.88 100.502 298.422 100.364 297.876 100.364C297.308 100.364 296.835 100.509 296.456 100.801C296.081 101.089 295.799 101.481 295.609 101.977C295.424 102.47 295.331 103.023 295.331 103.636C295.331 104.258 295.426 104.822 295.615 105.33C295.808 105.833 296.092 106.235 296.467 106.534C296.846 106.83 297.316 106.977 297.876 106.977ZM307.996 108.182C307.155 108.182 306.429 107.996 305.82 107.625C305.214 107.25 304.746 106.727 304.416 106.057C304.09 105.383 303.928 104.598 303.928 103.705C303.928 102.811 304.09 102.023 304.416 101.341C304.746 100.655 305.204 100.121 305.791 99.7386C306.382 99.3523 307.071 99.1591 307.859 99.1591C308.314 99.1591 308.763 99.2348 309.206 99.3864C309.649 99.5379 310.053 99.7841 310.416 100.125C310.78 100.462 311.07 100.909 311.286 101.466C311.501 102.023 311.609 102.708 311.609 103.523V104.091H304.882V102.932H310.246C310.246 102.439 310.147 102 309.95 101.614C309.757 101.227 309.481 100.922 309.121 100.699C308.765 100.475 308.344 100.364 307.859 100.364C307.325 100.364 306.863 100.496 306.473 100.761C306.087 101.023 305.789 101.364 305.581 101.784C305.373 102.205 305.268 102.655 305.268 103.136V103.909C305.268 104.568 305.382 105.127 305.609 105.585C305.84 106.04 306.161 106.386 306.57 106.625C306.979 106.86 307.454 106.977 307.996 106.977C308.348 106.977 308.666 106.928 308.95 106.83C309.238 106.727 309.486 106.576 309.695 106.375C309.903 106.17 310.064 105.917 310.178 105.614L311.473 105.977C311.337 106.417 311.107 106.803 310.786 107.136C310.464 107.466 310.066 107.723 309.592 107.909C309.119 108.091 308.587 108.182 307.996 108.182ZM319.831 101.227L318.626 101.568C318.551 101.367 318.439 101.172 318.291 100.983C318.147 100.79 317.95 100.631 317.7 100.506C317.45 100.381 317.13 100.318 316.74 100.318C316.206 100.318 315.761 100.441 315.405 100.688C315.053 100.93 314.876 101.239 314.876 101.614C314.876 101.947 314.998 102.21 315.24 102.403C315.482 102.597 315.861 102.758 316.376 102.886L317.672 103.205C318.452 103.394 319.034 103.684 319.416 104.074C319.799 104.46 319.99 104.958 319.99 105.568C319.99 106.068 319.846 106.515 319.558 106.909C319.274 107.303 318.876 107.614 318.365 107.841C317.854 108.068 317.259 108.182 316.581 108.182C315.691 108.182 314.954 107.989 314.371 107.602C313.787 107.216 313.418 106.652 313.263 105.909L314.536 105.591C314.657 106.061 314.886 106.413 315.223 106.648C315.564 106.883 316.009 107 316.558 107C317.183 107 317.679 106.867 318.047 106.602C318.418 106.333 318.604 106.011 318.604 105.636C318.604 105.333 318.498 105.08 318.286 104.875C318.073 104.667 317.748 104.511 317.308 104.409L315.854 104.068C315.054 103.879 314.467 103.585 314.092 103.188C313.721 102.786 313.536 102.284 313.536 101.682C313.536 101.189 313.674 100.754 313.95 100.375C314.231 99.9962 314.611 99.6989 315.092 99.483C315.577 99.267 316.126 99.1591 316.74 99.1591C317.604 99.1591 318.282 99.3485 318.774 99.7273C319.27 100.106 319.623 100.606 319.831 101.227ZM325.668 108.182C324.827 108.182 324.101 107.996 323.491 107.625C322.885 107.25 322.418 106.727 322.088 106.057C321.762 105.383 321.599 104.598 321.599 103.705C321.599 102.811 321.762 102.023 322.088 101.341C322.418 100.655 322.876 100.121 323.463 99.7386C324.054 99.3523 324.743 99.1591 325.531 99.1591C325.986 99.1591 326.435 99.2348 326.878 99.3864C327.321 99.5379 327.724 99.7841 328.088 100.125C328.452 100.462 328.741 100.909 328.957 101.466C329.173 102.023 329.281 102.708 329.281 103.523V104.091H322.554V102.932H327.918C327.918 102.439 327.819 102 327.622 101.614C327.429 101.227 327.152 100.922 326.793 100.699C326.437 100.475 326.016 100.364 325.531 100.364C324.997 100.364 324.535 100.496 324.145 100.761C323.759 101.023 323.461 101.364 323.253 101.784C323.045 102.205 322.94 102.655 322.94 103.136V103.909C322.94 104.568 323.054 105.127 323.281 105.585C323.512 106.04 323.832 106.386 324.241 106.625C324.651 106.86 325.126 106.977 325.668 106.977C326.02 106.977 326.338 106.928 326.622 106.83C326.91 106.727 327.158 106.576 327.366 106.375C327.575 106.17 327.736 105.917 327.849 105.614L329.145 105.977C329.009 106.417 328.779 106.803 328.457 107.136C328.135 107.466 327.738 107.723 327.264 107.909C326.791 108.091 326.259 108.182 325.668 108.182ZM331.321 108V99.2727H332.616V100.591H332.707C332.866 100.159 333.154 99.8087 333.571 99.5398C333.988 99.2708 334.457 99.1364 334.98 99.1364C335.079 99.1364 335.202 99.1383 335.349 99.142C335.497 99.1458 335.609 99.1515 335.685 99.1591V100.523C335.639 100.511 335.535 100.494 335.372 100.472C335.213 100.445 335.045 100.432 334.866 100.432C334.442 100.432 334.063 100.521 333.73 100.699C333.401 100.873 333.139 101.116 332.946 101.426C332.757 101.733 332.662 102.083 332.662 102.477V108H331.321ZM342.774 104.432V99.2727H344.115V108H342.774V106.523H342.683C342.479 106.966 342.161 107.343 341.729 107.653C341.297 107.96 340.751 108.114 340.092 108.114C339.547 108.114 339.062 107.994 338.638 107.756C338.214 107.513 337.88 107.15 337.638 106.665C337.395 106.176 337.274 105.561 337.274 104.818V99.2727H338.615V104.727C338.615 105.364 338.793 105.871 339.149 106.25C339.509 106.629 339.967 106.818 340.524 106.818C340.857 106.818 341.196 106.733 341.541 106.562C341.89 106.392 342.181 106.131 342.416 105.778C342.655 105.426 342.774 104.977 342.774 104.432ZM347.912 102.75V108H346.571V99.2727H347.866V100.636H347.98C348.185 100.193 348.495 99.8371 348.912 99.5682C349.329 99.2955 349.866 99.1591 350.526 99.1591C351.116 99.1591 351.634 99.2803 352.077 99.5227C352.52 99.7614 352.865 100.125 353.111 100.614C353.357 101.098 353.48 101.712 353.48 102.455V108H352.139V102.545C352.139 101.86 351.961 101.326 351.605 100.943C351.249 100.557 350.76 100.364 350.139 100.364C349.711 100.364 349.329 100.456 348.991 100.642C348.658 100.828 348.395 101.098 348.202 101.455C348.009 101.811 347.912 102.242 347.912 102.75ZM359.726 99.2727V100.409H355.203V99.2727H359.726ZM356.521 97.1818H357.862V105.5C357.862 105.879 357.917 106.163 358.027 106.352C358.141 106.538 358.285 106.663 358.459 106.727C358.637 106.788 358.824 106.818 359.021 106.818C359.169 106.818 359.29 106.811 359.385 106.795C359.48 106.777 359.555 106.761 359.612 106.75L359.885 107.955C359.794 107.989 359.667 108.023 359.504 108.057C359.341 108.095 359.135 108.114 358.885 108.114C358.506 108.114 358.135 108.032 357.771 107.869C357.411 107.706 357.112 107.458 356.874 107.125C356.639 106.792 356.521 106.371 356.521 105.864V97.1818ZM370.129 99.2727V100.409H365.425V99.2727H370.129ZM366.834 108V98.0682C366.834 97.5682 366.951 97.1515 367.186 96.8182C367.421 96.4848 367.726 96.2348 368.101 96.0682C368.476 95.9015 368.872 95.8182 369.288 95.8182C369.618 95.8182 369.887 95.8447 370.095 95.8977C370.304 95.9508 370.459 96 370.561 96.0455L370.175 97.2045C370.107 97.1818 370.012 97.1534 369.891 97.1193C369.773 97.0852 369.618 97.0682 369.425 97.0682C368.982 97.0682 368.661 97.1799 368.464 97.4034C368.271 97.6269 368.175 97.9545 368.175 98.3864V108H366.834ZM377.509 104.432V99.2727H378.849V108H377.509V106.523H377.418C377.213 106.966 376.895 107.343 376.463 107.653C376.031 107.96 375.486 108.114 374.827 108.114C374.281 108.114 373.796 107.994 373.372 107.756C372.948 107.513 372.615 107.15 372.372 106.665C372.13 106.176 372.009 105.561 372.009 104.818V99.2727H373.349V104.727C373.349 105.364 373.527 105.871 373.884 106.25C374.243 106.629 374.702 106.818 375.259 106.818C375.592 106.818 375.931 106.733 376.276 106.562C376.624 106.392 376.916 106.131 377.151 105.778C377.389 105.426 377.509 104.977 377.509 104.432ZM384.828 111.455C384.18 111.455 383.624 111.371 383.158 111.205C382.692 111.042 382.304 110.826 381.993 110.557C381.686 110.292 381.442 110.008 381.26 109.705L382.328 108.955C382.449 109.114 382.603 109.295 382.788 109.5C382.974 109.708 383.228 109.888 383.55 110.04C383.875 110.195 384.302 110.273 384.828 110.273C385.533 110.273 386.114 110.102 386.572 109.761C387.031 109.42 387.26 108.886 387.26 108.159V106.386H387.146C387.048 106.545 386.908 106.742 386.726 106.977C386.548 107.208 386.29 107.415 385.953 107.597C385.62 107.775 385.169 107.864 384.601 107.864C383.896 107.864 383.264 107.697 382.703 107.364C382.146 107.03 381.705 106.545 381.379 105.909C381.057 105.273 380.896 104.5 380.896 103.591C380.896 102.697 381.054 101.919 381.368 101.256C381.682 100.589 382.12 100.074 382.68 99.7102C383.241 99.3428 383.889 99.1591 384.624 99.1591C385.192 99.1591 385.643 99.2538 385.976 99.4432C386.313 99.6288 386.571 99.8409 386.749 100.08C386.93 100.314 387.071 100.508 387.169 100.659H387.305V99.2727H388.601V108.25C388.601 109 388.43 109.61 388.089 110.08C387.752 110.553 387.298 110.9 386.726 111.119C386.158 111.343 385.525 111.455 384.828 111.455ZM384.783 106.659C385.321 106.659 385.775 106.536 386.146 106.29C386.518 106.044 386.8 105.689 386.993 105.227C387.186 104.765 387.283 104.212 387.283 103.568C387.283 102.939 387.188 102.384 386.999 101.903C386.809 101.422 386.529 101.045 386.158 100.773C385.786 100.5 385.328 100.364 384.783 100.364C384.214 100.364 383.741 100.508 383.362 100.795C382.987 101.083 382.705 101.47 382.516 101.955C382.33 102.439 382.237 102.977 382.237 103.568C382.237 104.174 382.332 104.71 382.521 105.176C382.714 105.638 382.999 106.002 383.374 106.267C383.752 106.528 384.222 106.659 384.783 106.659ZM391.055 108V99.2727H392.396V108H391.055ZM391.737 97.8182C391.476 97.8182 391.25 97.7292 391.061 97.5511C390.875 97.3731 390.783 97.1591 390.783 96.9091C390.783 96.6591 390.875 96.4451 391.061 96.267C391.25 96.089 391.476 96 391.737 96C391.999 96 392.222 96.089 392.408 96.267C392.597 96.4451 392.692 96.6591 392.692 96.9091C392.692 97.1591 392.597 97.3731 392.408 97.5511C392.222 97.7292 391.999 97.8182 391.737 97.8182ZM397.42 108.205C396.867 108.205 396.366 108.1 395.915 107.892C395.464 107.68 395.106 107.375 394.841 106.977C394.576 106.576 394.443 106.091 394.443 105.523C394.443 105.023 394.542 104.617 394.739 104.307C394.936 103.992 395.199 103.746 395.528 103.568C395.858 103.39 396.222 103.258 396.619 103.17C397.021 103.08 397.424 103.008 397.83 102.955C398.36 102.886 398.79 102.835 399.119 102.801C399.453 102.763 399.695 102.701 399.847 102.614C400.002 102.527 400.08 102.375 400.08 102.159V102.114C400.08 101.553 399.926 101.117 399.619 100.807C399.316 100.496 398.856 100.341 398.239 100.341C397.598 100.341 397.097 100.481 396.733 100.761C396.369 101.042 396.114 101.341 395.966 101.659L394.693 101.205C394.92 100.674 395.223 100.261 395.602 99.9659C395.985 99.6667 396.402 99.4583 396.852 99.3409C397.307 99.2197 397.754 99.1591 398.193 99.1591C398.473 99.1591 398.795 99.1932 399.159 99.2614C399.527 99.3258 399.881 99.4602 400.222 99.6648C400.566 99.8693 400.852 100.178 401.08 100.591C401.307 101.004 401.42 101.557 401.42 102.25V108H400.08V106.818H400.011C399.92 107.008 399.769 107.21 399.557 107.426C399.345 107.642 399.063 107.826 398.71 107.977C398.358 108.129 397.928 108.205 397.42 108.205ZM397.625 107C398.155 107 398.602 106.896 398.966 106.688C399.333 106.479 399.61 106.21 399.795 105.881C399.985 105.551 400.08 105.205 400.08 104.841V103.614C400.023 103.682 399.898 103.744 399.705 103.801C399.515 103.854 399.295 103.902 399.045 103.943C398.799 103.981 398.559 104.015 398.324 104.045C398.093 104.072 397.905 104.095 397.761 104.114C397.413 104.159 397.087 104.233 396.784 104.335C396.485 104.434 396.242 104.583 396.057 104.784C395.875 104.981 395.784 105.25 395.784 105.591C395.784 106.057 395.956 106.409 396.301 106.648C396.65 106.883 397.091 107 397.625 107ZM407.663 99.2727V100.409H403.141V99.2727H407.663ZM404.459 97.1818H405.8V105.5C405.8 105.879 405.855 106.163 405.964 106.352C406.078 106.538 406.222 106.663 406.396 106.727C406.574 106.788 406.762 106.818 406.959 106.818C407.107 106.818 407.228 106.811 407.322 106.795C407.417 106.777 407.493 106.761 407.55 106.75L407.822 107.955C407.732 107.989 407.605 108.023 407.442 108.057C407.279 108.095 407.072 108.114 406.822 108.114C406.444 108.114 406.072 108.032 405.709 107.869C405.349 107.706 405.05 107.458 404.811 107.125C404.576 106.792 404.459 106.371 404.459 105.864V97.1818ZM416.749 108.205C416.196 108.205 415.694 108.1 415.243 107.892C414.792 107.68 414.434 107.375 414.169 106.977C413.904 106.576 413.771 106.091 413.771 105.523C413.771 105.023 413.87 104.617 414.067 104.307C414.264 103.992 414.527 103.746 414.857 103.568C415.186 103.39 415.55 103.258 415.947 103.17C416.349 103.08 416.752 103.008 417.158 102.955C417.688 102.886 418.118 102.835 418.447 102.801C418.781 102.763 419.023 102.701 419.175 102.614C419.33 102.527 419.408 102.375 419.408 102.159V102.114C419.408 101.553 419.254 101.117 418.947 100.807C418.644 100.496 418.184 100.341 417.567 100.341C416.927 100.341 416.425 100.481 416.061 100.761C415.697 101.042 415.442 101.341 415.294 101.659L414.021 101.205C414.249 100.674 414.552 100.261 414.93 99.9659C415.313 99.6667 415.73 99.4583 416.18 99.3409C416.635 99.2197 417.082 99.1591 417.521 99.1591C417.802 99.1591 418.124 99.1932 418.487 99.2614C418.855 99.3258 419.209 99.4602 419.55 99.6648C419.894 99.8693 420.18 100.178 420.408 100.591C420.635 101.004 420.749 101.557 420.749 102.25V108H419.408V106.818H419.339C419.249 107.008 419.097 107.21 418.885 107.426C418.673 107.642 418.391 107.826 418.038 107.977C417.686 108.129 417.256 108.205 416.749 108.205ZM416.953 107C417.483 107 417.93 106.896 418.294 106.688C418.661 106.479 418.938 106.21 419.124 105.881C419.313 105.551 419.408 105.205 419.408 104.841V103.614C419.351 103.682 419.226 103.744 419.033 103.801C418.843 103.854 418.624 103.902 418.374 103.943C418.127 103.981 417.887 104.015 417.652 104.045C417.421 104.072 417.233 104.095 417.089 104.114C416.741 104.159 416.415 104.233 416.112 104.335C415.813 104.434 415.571 104.583 415.385 104.784C415.203 104.981 415.112 105.25 415.112 105.591C415.112 106.057 415.285 106.409 415.629 106.648C415.978 106.883 416.419 107 416.953 107ZM426.491 108.182C425.764 108.182 425.122 107.998 424.565 107.631C424.009 107.259 423.573 106.737 423.259 106.062C422.944 105.384 422.787 104.583 422.787 103.659C422.787 102.742 422.944 101.947 423.259 101.273C423.573 100.598 424.01 100.078 424.571 99.7102C425.132 99.3428 425.779 99.1591 426.514 99.1591C427.082 99.1591 427.531 99.2538 427.861 99.4432C428.194 99.6288 428.448 99.8409 428.622 100.08C428.8 100.314 428.938 100.508 429.037 100.659H429.151V96.3636H430.491V108H429.196V106.659H429.037C428.938 106.818 428.798 107.019 428.616 107.261C428.435 107.5 428.175 107.714 427.838 107.903C427.501 108.089 427.052 108.182 426.491 108.182ZM426.673 106.977C427.211 106.977 427.666 106.837 428.037 106.557C428.408 106.273 428.69 105.881 428.884 105.381C429.077 104.877 429.173 104.295 429.173 103.636C429.173 102.985 429.079 102.415 428.889 101.926C428.7 101.434 428.42 101.051 428.048 100.778C427.677 100.502 427.219 100.364 426.673 100.364C426.105 100.364 425.632 100.509 425.253 100.801C424.878 101.089 424.596 101.481 424.406 101.977C424.221 102.47 424.128 103.023 424.128 103.636C424.128 104.258 424.223 104.822 424.412 105.33C424.605 105.833 424.889 106.235 425.264 106.534C425.643 106.83 426.113 106.977 426.673 106.977ZM433.134 108V99.2727H434.474V108H433.134ZM433.815 97.8182C433.554 97.8182 433.329 97.7292 433.139 97.5511C432.954 97.3731 432.861 97.1591 432.861 96.9091C432.861 96.6591 432.954 96.4451 433.139 96.267C433.329 96.089 433.554 96 433.815 96C434.077 96 434.3 96.089 434.486 96.267C434.675 96.4451 434.77 96.6591 434.77 96.9091C434.77 97.1591 434.675 97.3731 434.486 97.5511C434.3 97.7292 434.077 97.8182 433.815 97.8182ZM436.93 111.273V99.2727H438.226V100.659H438.385C438.483 100.508 438.62 100.314 438.794 100.08C438.972 99.8409 439.226 99.6288 439.555 99.4432C439.889 99.2538 440.339 99.1591 440.908 99.1591C441.643 99.1591 442.29 99.3428 442.851 99.7102C443.411 100.078 443.849 100.598 444.163 101.273C444.478 101.947 444.635 102.742 444.635 103.659C444.635 104.583 444.478 105.384 444.163 106.062C443.849 106.737 443.413 107.259 442.857 107.631C442.3 107.998 441.658 108.182 440.93 108.182C440.37 108.182 439.921 108.089 439.584 107.903C439.247 107.714 438.987 107.5 438.805 107.261C438.624 107.019 438.483 106.818 438.385 106.659H438.271V111.273H436.93ZM438.249 103.636C438.249 104.295 438.345 104.877 438.538 105.381C438.732 105.881 439.014 106.273 439.385 106.557C439.756 106.837 440.211 106.977 440.749 106.977C441.309 106.977 441.777 106.83 442.152 106.534C442.531 106.235 442.815 105.833 443.004 105.33C443.197 104.822 443.294 104.258 443.294 103.636C443.294 103.023 443.199 102.47 443.01 101.977C442.824 101.481 442.542 101.089 442.163 100.801C441.788 100.509 441.317 100.364 440.749 100.364C440.203 100.364 439.745 100.502 439.374 100.778C439.002 101.051 438.722 101.434 438.533 101.926C438.343 102.415 438.249 102.985 438.249 103.636ZM446.68 108V99.2727H448.021V108H446.68ZM447.362 97.8182C447.101 97.8182 446.875 97.7292 446.686 97.5511C446.5 97.3731 446.408 97.1591 446.408 96.9091C446.408 96.6591 446.5 96.4451 446.686 96.267C446.875 96.089 447.101 96 447.362 96C447.624 96 447.847 96.089 448.033 96.267C448.222 96.4451 448.317 96.6591 448.317 96.9091C448.317 97.1591 448.222 97.3731 448.033 97.5511C447.847 97.7292 447.624 97.8182 447.362 97.8182ZM456.659 101.227L455.455 101.568C455.379 101.367 455.267 101.172 455.119 100.983C454.975 100.79 454.778 100.631 454.528 100.506C454.278 100.381 453.958 100.318 453.568 100.318C453.034 100.318 452.589 100.441 452.233 100.688C451.881 100.93 451.705 101.239 451.705 101.614C451.705 101.947 451.826 102.21 452.068 102.403C452.311 102.597 452.689 102.758 453.205 102.886L454.5 103.205C455.28 103.394 455.862 103.684 456.244 104.074C456.627 104.46 456.818 104.958 456.818 105.568C456.818 106.068 456.674 106.515 456.386 106.909C456.102 107.303 455.705 107.614 455.193 107.841C454.682 108.068 454.087 108.182 453.409 108.182C452.519 108.182 451.782 107.989 451.199 107.602C450.616 107.216 450.246 106.652 450.091 105.909L451.364 105.591C451.485 106.061 451.714 106.413 452.051 106.648C452.392 106.883 452.837 107 453.386 107C454.011 107 454.508 106.867 454.875 106.602C455.246 106.333 455.432 106.011 455.432 105.636C455.432 105.333 455.326 105.08 455.114 104.875C454.902 104.667 454.576 104.511 454.136 104.409L452.682 104.068C451.883 103.879 451.295 103.585 450.92 103.188C450.549 102.786 450.364 102.284 450.364 101.682C450.364 101.189 450.502 100.754 450.778 100.375C451.059 99.9962 451.439 99.6989 451.92 99.483C452.405 99.267 452.955 99.1591 453.568 99.1591C454.432 99.1591 455.11 99.3485 455.602 99.7273C456.098 100.106 456.451 100.606 456.659 101.227ZM458.837 108V99.2727H460.178V108H458.837ZM459.518 97.8182C459.257 97.8182 459.032 97.7292 458.842 97.5511C458.657 97.3731 458.564 97.1591 458.564 96.9091C458.564 96.6591 458.657 96.4451 458.842 96.267C459.032 96.089 459.257 96 459.518 96C459.78 96 460.003 96.089 460.189 96.267C460.378 96.4451 460.473 96.6591 460.473 96.9091C460.473 97.1591 460.378 97.3731 460.189 97.5511C460.003 97.7292 459.78 97.8182 459.518 97.8182ZM466.179 108.182C465.361 108.182 464.656 107.989 464.065 107.602C463.474 107.216 463.02 106.684 462.702 106.006C462.384 105.328 462.224 104.553 462.224 103.682C462.224 102.795 462.387 102.013 462.713 101.335C463.043 100.653 463.501 100.121 464.088 99.7386C464.679 99.3523 465.368 99.1591 466.156 99.1591C466.77 99.1591 467.323 99.2727 467.815 99.5C468.308 99.7273 468.711 100.045 469.026 100.455C469.34 100.864 469.535 101.341 469.611 101.886H468.27C468.168 101.489 467.94 101.136 467.588 100.83C467.24 100.519 466.77 100.364 466.179 100.364C465.656 100.364 465.198 100.5 464.804 100.773C464.414 101.042 464.109 101.422 463.889 101.915C463.673 102.403 463.565 102.977 463.565 103.636C463.565 104.311 463.671 104.898 463.884 105.398C464.099 105.898 464.402 106.286 464.793 106.562C465.187 106.839 465.649 106.977 466.179 106.977C466.527 106.977 466.844 106.917 467.128 106.795C467.412 106.674 467.652 106.5 467.849 106.273C468.046 106.045 468.187 105.773 468.27 105.455H469.611C469.535 105.97 469.348 106.434 469.048 106.847C468.753 107.256 468.361 107.581 467.872 107.824C467.387 108.062 466.823 108.182 466.179 108.182ZM471.571 108V99.2727H472.912V108H471.571ZM472.253 97.8182C471.991 97.8182 471.766 97.7292 471.577 97.5511C471.391 97.3731 471.298 97.1591 471.298 96.9091C471.298 96.6591 471.391 96.4451 471.577 96.267C471.766 96.089 471.991 96 472.253 96C472.514 96 472.738 96.089 472.923 96.267C473.113 96.4451 473.207 96.6591 473.207 96.9091C473.207 97.1591 473.113 97.3731 472.923 97.5511C472.738 97.7292 472.514 97.8182 472.253 97.8182ZM476.709 102.75V108H475.368V99.2727H476.663V100.636H476.777C476.982 100.193 477.292 99.8371 477.709 99.5682C478.125 99.2955 478.663 99.1591 479.322 99.1591C479.913 99.1591 480.43 99.2803 480.874 99.5227C481.317 99.7614 481.661 100.125 481.908 100.614C482.154 101.098 482.277 101.712 482.277 102.455V108H480.936V102.545C480.936 101.86 480.758 101.326 480.402 100.943C480.046 100.557 479.557 100.364 478.936 100.364C478.508 100.364 478.125 100.456 477.788 100.642C477.455 100.828 477.192 101.098 476.999 101.455C476.805 101.811 476.709 102.242 476.709 102.75ZM488.25 111.455C487.602 111.455 487.045 111.371 486.58 111.205C486.114 111.042 485.725 110.826 485.415 110.557C485.108 110.292 484.864 110.008 484.682 109.705L485.75 108.955C485.871 109.114 486.025 109.295 486.21 109.5C486.396 109.708 486.65 109.888 486.972 110.04C487.297 110.195 487.723 110.273 488.25 110.273C488.955 110.273 489.536 110.102 489.994 109.761C490.453 109.42 490.682 108.886 490.682 108.159V106.386H490.568C490.47 106.545 490.33 106.742 490.148 106.977C489.97 107.208 489.712 107.415 489.375 107.597C489.042 107.775 488.591 107.864 488.023 107.864C487.318 107.864 486.686 107.697 486.125 107.364C485.568 107.03 485.127 106.545 484.801 105.909C484.479 105.273 484.318 104.5 484.318 103.591C484.318 102.697 484.475 101.919 484.79 101.256C485.104 100.589 485.542 100.074 486.102 99.7102C486.663 99.3428 487.311 99.1591 488.045 99.1591C488.614 99.1591 489.064 99.2538 489.398 99.4432C489.735 99.6288 489.992 99.8409 490.17 100.08C490.352 100.314 490.492 100.508 490.591 100.659H490.727V99.2727H492.023V108.25C492.023 109 491.852 109.61 491.511 110.08C491.174 110.553 490.72 110.9 490.148 111.119C489.58 111.343 488.947 111.455 488.25 111.455ZM488.205 106.659C488.742 106.659 489.197 106.536 489.568 106.29C489.939 106.044 490.222 105.689 490.415 105.227C490.608 104.765 490.705 104.212 490.705 103.568C490.705 102.939 490.61 102.384 490.42 101.903C490.231 101.422 489.951 101.045 489.58 100.773C489.208 100.5 488.75 100.364 488.205 100.364C487.636 100.364 487.163 100.508 486.784 100.795C486.409 101.083 486.127 101.47 485.938 101.955C485.752 102.439 485.659 102.977 485.659 103.568C485.659 104.174 485.754 104.71 485.943 105.176C486.136 105.638 486.42 106.002 486.795 106.267C487.174 106.528 487.644 106.659 488.205 106.659ZM24.5227 135.182C23.7955 135.182 23.1534 134.998 22.5966 134.631C22.0398 134.259 21.6042 133.737 21.2898 133.062C20.9754 132.384 20.8182 131.583 20.8182 130.659C20.8182 129.742 20.9754 128.947 21.2898 128.273C21.6042 127.598 22.0417 127.078 22.6023 126.71C23.1629 126.343 23.8106 126.159 24.5455 126.159C25.1136 126.159 25.5625 126.254 25.892 126.443C26.2254 126.629 26.4792 126.841 26.6534 127.08C26.8314 127.314 26.9697 127.508 27.0682 127.659H27.1818V123.364H28.5227V135H27.2273V133.659H27.0682C26.9697 133.818 26.8295 134.019 26.6477 134.261C26.4659 134.5 26.2064 134.714 25.8693 134.903C25.5322 135.089 25.0833 135.182 24.5227 135.182ZM24.7045 133.977C25.2424 133.977 25.697 133.837 26.0682 133.557C26.4394 133.273 26.7216 132.881 26.9148 132.381C27.108 131.877 27.2045 131.295 27.2045 130.636C27.2045 129.985 27.1098 129.415 26.9205 128.926C26.7311 128.434 26.4508 128.051 26.0795 127.778C25.7083 127.502 25.25 127.364 24.7045 127.364C24.1364 127.364 23.6629 127.509 23.2841 127.801C22.9091 128.089 22.6269 128.481 22.4375 128.977C22.2519 129.47 22.1591 130.023 22.1591 130.636C22.1591 131.258 22.2538 131.822 22.4432 132.33C22.6364 132.833 22.9205 133.235 23.2955 133.534C23.6742 133.83 24.1439 133.977 24.7045 133.977ZM34.8239 135.182C33.983 135.182 33.2576 134.996 32.6477 134.625C32.0417 134.25 31.5739 133.727 31.2443 133.057C30.9186 132.383 30.7557 131.598 30.7557 130.705C30.7557 129.811 30.9186 129.023 31.2443 128.341C31.5739 127.655 32.0322 127.121 32.6193 126.739C33.2102 126.352 33.8996 126.159 34.6875 126.159C35.142 126.159 35.5909 126.235 36.0341 126.386C36.4773 126.538 36.8807 126.784 37.2443 127.125C37.608 127.462 37.8977 127.909 38.1136 128.466C38.3295 129.023 38.4375 129.708 38.4375 130.523V131.091H31.7102V129.932H37.0739C37.0739 129.439 36.9754 129 36.7784 128.614C36.5852 128.227 36.3087 127.922 35.9489 127.699C35.5928 127.475 35.1723 127.364 34.6875 127.364C34.1534 127.364 33.6913 127.496 33.3011 127.761C32.9148 128.023 32.6174 128.364 32.4091 128.784C32.2008 129.205 32.0966 129.655 32.0966 130.136V130.909C32.0966 131.568 32.2102 132.127 32.4375 132.585C32.6686 133.04 32.9886 133.386 33.3977 133.625C33.8068 133.86 34.2822 133.977 34.8239 133.977C35.1761 133.977 35.4943 133.928 35.7784 133.83C36.0663 133.727 36.3144 133.576 36.5227 133.375C36.7311 133.17 36.892 132.917 37.0057 132.614L38.3011 132.977C38.1648 133.417 37.9356 133.803 37.6136 134.136C37.2917 134.466 36.8939 134.723 36.4205 134.909C35.947 135.091 35.4148 135.182 34.8239 135.182ZM46.6591 128.227L45.4545 128.568C45.3788 128.367 45.267 128.172 45.1193 127.983C44.9754 127.79 44.7784 127.631 44.5284 127.506C44.2784 127.381 43.9583 127.318 43.5682 127.318C43.0341 127.318 42.589 127.441 42.233 127.688C41.8807 127.93 41.7045 128.239 41.7045 128.614C41.7045 128.947 41.8258 129.21 42.0682 129.403C42.3106 129.597 42.6894 129.758 43.2045 129.886L44.5 130.205C45.2803 130.394 45.8617 130.684 46.2443 131.074C46.6269 131.46 46.8182 131.958 46.8182 132.568C46.8182 133.068 46.6742 133.515 46.3864 133.909C46.1023 134.303 45.7045 134.614 45.1932 134.841C44.6818 135.068 44.0871 135.182 43.4091 135.182C42.5189 135.182 41.7822 134.989 41.1989 134.602C40.6155 134.216 40.2462 133.652 40.0909 132.909L41.3636 132.591C41.4848 133.061 41.714 133.413 42.0511 133.648C42.392 133.883 42.8371 134 43.3864 134C44.0114 134 44.5076 133.867 44.875 133.602C45.2462 133.333 45.4318 133.011 45.4318 132.636C45.4318 132.333 45.3258 132.08 45.1136 131.875C44.9015 131.667 44.5758 131.511 44.1364 131.409L42.6818 131.068C41.8826 130.879 41.2955 130.585 40.9205 130.188C40.5492 129.786 40.3636 129.284 40.3636 128.682C40.3636 128.189 40.5019 127.754 40.7784 127.375C41.0587 126.996 41.4394 126.699 41.9205 126.483C42.4053 126.267 42.9545 126.159 43.5682 126.159C44.4318 126.159 45.1098 126.348 45.6023 126.727C46.0985 127.106 46.4508 127.606 46.6591 128.227ZM52.4957 135.182C51.6548 135.182 50.9295 134.996 50.3196 134.625C49.7135 134.25 49.2457 133.727 48.9162 133.057C48.5904 132.383 48.4276 131.598 48.4276 130.705C48.4276 129.811 48.5904 129.023 48.9162 128.341C49.2457 127.655 49.7041 127.121 50.2912 126.739C50.8821 126.352 51.5715 126.159 52.3594 126.159C52.8139 126.159 53.2628 126.235 53.706 126.386C54.1491 126.538 54.5526 126.784 54.9162 127.125C55.2798 127.462 55.5696 127.909 55.7855 128.466C56.0014 129.023 56.1094 129.708 56.1094 130.523V131.091H49.3821V129.932H54.7457C54.7457 129.439 54.6473 129 54.4503 128.614C54.2571 128.227 53.9806 127.922 53.6207 127.699C53.2647 127.475 52.8442 127.364 52.3594 127.364C51.8253 127.364 51.3632 127.496 50.973 127.761C50.5866 128.023 50.2893 128.364 50.081 128.784C49.8726 129.205 49.7685 129.655 49.7685 130.136V130.909C49.7685 131.568 49.8821 132.127 50.1094 132.585C50.3404 133.04 50.6605 133.386 51.0696 133.625C51.4787 133.86 51.9541 133.977 52.4957 133.977C52.848 133.977 53.1662 133.928 53.4503 133.83C53.7382 133.727 53.9863 133.576 54.1946 133.375C54.4029 133.17 54.5639 132.917 54.6776 132.614L55.973 132.977C55.8366 133.417 55.6075 133.803 55.2855 134.136C54.9635 134.466 54.5658 134.723 54.0923 134.909C53.6188 135.091 53.0866 135.182 52.4957 135.182ZM58.1491 135V126.273H59.4446V127.591H59.5355C59.6946 127.159 59.9825 126.809 60.3991 126.54C60.8158 126.271 61.2855 126.136 61.8082 126.136C61.9067 126.136 62.0298 126.138 62.1776 126.142C62.3253 126.146 62.437 126.152 62.5128 126.159V127.523C62.4673 127.511 62.3632 127.494 62.2003 127.472C62.0412 127.445 61.8726 127.432 61.6946 127.432C61.2704 127.432 60.8916 127.521 60.5582 127.699C60.2287 127.873 59.9673 128.116 59.7741 128.426C59.5848 128.733 59.4901 129.083 59.4901 129.477V135H58.1491ZM69.6023 131.432V126.273H70.9432V135H69.6023V133.523H69.5114C69.3068 133.966 68.9886 134.343 68.5568 134.653C68.125 134.96 67.5795 135.114 66.9205 135.114C66.375 135.114 65.8902 134.994 65.4659 134.756C65.0417 134.513 64.7083 134.15 64.4659 133.665C64.2235 133.176 64.1023 132.561 64.1023 131.818V126.273H65.4432V131.727C65.4432 132.364 65.6212 132.871 65.9773 133.25C66.3371 133.629 66.7955 133.818 67.3523 133.818C67.6856 133.818 68.0246 133.733 68.3693 133.562C68.7178 133.392 69.0095 133.131 69.2443 132.778C69.483 132.426 69.6023 131.977 69.6023 131.432ZM74.7401 129.75V135H73.3991V126.273H74.6946V127.636H74.8082C75.0128 127.193 75.3234 126.837 75.7401 126.568C76.1567 126.295 76.6946 126.159 77.3537 126.159C77.9446 126.159 78.4616 126.28 78.9048 126.523C79.348 126.761 79.6927 127.125 79.9389 127.614C80.1851 128.098 80.3082 128.712 80.3082 129.455V135H78.9673V129.545C78.9673 128.86 78.7893 128.326 78.4332 127.943C78.0772 127.557 77.5885 127.364 76.9673 127.364C76.5393 127.364 76.1567 127.456 75.8196 127.642C75.4863 127.828 75.223 128.098 75.0298 128.455C74.8366 128.811 74.7401 129.242 74.7401 129.75ZM86.554 126.273V127.409H82.0312V126.273H86.554ZM83.3494 124.182H84.6903V132.5C84.6903 132.879 84.7453 133.163 84.8551 133.352C84.9688 133.538 85.1127 133.663 85.2869 133.727C85.465 133.788 85.6525 133.818 85.8494 133.818C85.9972 133.818 86.1184 133.811 86.2131 133.795C86.3078 133.777 86.3835 133.761 86.4403 133.75L86.7131 134.955C86.6222 134.989 86.4953 135.023 86.3324 135.057C86.1695 135.095 85.9631 135.114 85.7131 135.114C85.3343 135.114 84.9631 135.032 84.5994 134.869C84.2396 134.706 83.9403 134.458 83.7017 134.125C83.4669 133.792 83.3494 133.371 83.3494 132.864V124.182ZM93.071 135V126.273H94.3665V127.591H94.4574C94.6165 127.159 94.9044 126.809 95.321 126.54C95.7377 126.271 96.2074 126.136 96.7301 126.136C96.8286 126.136 96.9517 126.138 97.0994 126.142C97.2472 126.146 97.3589 126.152 97.4347 126.159V127.523C97.3892 127.511 97.285 127.494 97.1222 127.472C96.9631 127.445 96.7945 127.432 96.6165 127.432C96.1922 127.432 95.8134 127.521 95.4801 127.699C95.1506 127.873 94.8892 128.116 94.696 128.426C94.5066 128.733 94.4119 129.083 94.4119 129.477V135H93.071ZM102.418 135.182C101.577 135.182 100.851 134.996 100.241 134.625C99.6354 134.25 99.1676 133.727 98.8381 133.057C98.5123 132.383 98.3494 131.598 98.3494 130.705C98.3494 129.811 98.5123 129.023 98.8381 128.341C99.1676 127.655 99.6259 127.121 100.213 126.739C100.804 126.352 101.493 126.159 102.281 126.159C102.736 126.159 103.185 126.235 103.628 126.386C104.071 126.538 104.474 126.784 104.838 127.125C105.202 127.462 105.491 127.909 105.707 128.466C105.923 129.023 106.031 129.708 106.031 130.523V131.091H99.304V129.932H104.668C104.668 129.439 104.569 129 104.372 128.614C104.179 128.227 103.902 127.922 103.543 127.699C103.187 127.475 102.766 127.364 102.281 127.364C101.747 127.364 101.285 127.496 100.895 127.761C100.509 128.023 100.211 128.364 100.003 128.784C99.7945 129.205 99.6903 129.655 99.6903 130.136V130.909C99.6903 131.568 99.804 132.127 100.031 132.585C100.262 133.04 100.582 133.386 100.991 133.625C101.401 133.86 101.876 133.977 102.418 133.977C102.77 133.977 103.088 133.928 103.372 133.83C103.66 133.727 103.908 133.576 104.116 133.375C104.325 133.17 104.486 132.917 104.599 132.614L105.895 132.977C105.759 133.417 105.529 133.803 105.207 134.136C104.885 134.466 104.488 134.723 104.014 134.909C103.541 135.091 103.009 135.182 102.418 135.182ZM108.071 138.273V126.273H109.366V127.659H109.526C109.624 127.508 109.76 127.314 109.935 127.08C110.113 126.841 110.366 126.629 110.696 126.443C111.029 126.254 111.48 126.159 112.048 126.159C112.783 126.159 113.431 126.343 113.991 126.71C114.552 127.078 114.99 127.598 115.304 128.273C115.618 128.947 115.776 129.742 115.776 130.659C115.776 131.583 115.618 132.384 115.304 133.062C114.99 133.737 114.554 134.259 113.997 134.631C113.44 134.998 112.798 135.182 112.071 135.182C111.51 135.182 111.062 135.089 110.724 134.903C110.387 134.714 110.128 134.5 109.946 134.261C109.764 134.019 109.624 133.818 109.526 133.659H109.412V138.273H108.071ZM109.389 130.636C109.389 131.295 109.486 131.877 109.679 132.381C109.872 132.881 110.154 133.273 110.526 133.557C110.897 133.837 111.351 133.977 111.889 133.977C112.45 133.977 112.918 133.83 113.293 133.534C113.671 133.235 113.955 132.833 114.145 132.33C114.338 131.822 114.435 131.258 114.435 130.636C114.435 130.023 114.34 129.47 114.151 128.977C113.965 128.481 113.683 128.089 113.304 127.801C112.929 127.509 112.457 127.364 111.889 127.364C111.344 127.364 110.885 127.502 110.514 127.778C110.143 128.051 109.863 128.434 109.673 128.926C109.484 129.415 109.389 129.985 109.389 130.636ZM117.821 135V126.273H119.116V127.591H119.207C119.366 127.159 119.654 126.809 120.071 126.54C120.488 126.271 120.957 126.136 121.48 126.136C121.579 126.136 121.702 126.138 121.849 126.142C121.997 126.146 122.109 126.152 122.185 126.159V127.523C122.139 127.511 122.035 127.494 121.872 127.472C121.713 127.445 121.545 127.432 121.366 127.432C120.942 127.432 120.563 127.521 120.23 127.699C119.901 127.873 119.639 128.116 119.446 128.426C119.257 128.733 119.162 129.083 119.162 129.477V135H117.821ZM127.168 135.182C126.327 135.182 125.601 134.996 124.991 134.625C124.385 134.25 123.918 133.727 123.588 133.057C123.262 132.383 123.099 131.598 123.099 130.705C123.099 129.811 123.262 129.023 123.588 128.341C123.918 127.655 124.376 127.121 124.963 126.739C125.554 126.352 126.243 126.159 127.031 126.159C127.486 126.159 127.935 126.235 128.378 126.386C128.821 126.538 129.224 126.784 129.588 127.125C129.952 127.462 130.241 127.909 130.457 128.466C130.673 129.023 130.781 129.708 130.781 130.523V131.091H124.054V129.932H129.418C129.418 129.439 129.319 129 129.122 128.614C128.929 128.227 128.652 127.922 128.293 127.699C127.937 127.475 127.516 127.364 127.031 127.364C126.497 127.364 126.035 127.496 125.645 127.761C125.259 128.023 124.961 128.364 124.753 128.784C124.545 129.205 124.44 129.655 124.44 130.136V130.909C124.44 131.568 124.554 132.127 124.781 132.585C125.012 133.04 125.332 133.386 125.741 133.625C126.151 133.86 126.626 133.977 127.168 133.977C127.52 133.977 127.838 133.928 128.122 133.83C128.41 133.727 128.658 133.576 128.866 133.375C129.075 133.17 129.236 132.917 129.349 132.614L130.645 132.977C130.509 133.417 130.279 133.803 129.957 134.136C129.635 134.466 129.238 134.723 128.764 134.909C128.291 135.091 127.759 135.182 127.168 135.182ZM134.162 129.75V135H132.821V123.364H134.162V127.636H134.276C134.48 127.186 134.787 126.828 135.196 126.562C135.609 126.294 136.158 126.159 136.844 126.159C137.438 126.159 137.959 126.278 138.406 126.517C138.853 126.752 139.2 127.114 139.446 127.602C139.696 128.087 139.821 128.705 139.821 129.455V135H138.48V129.545C138.48 128.852 138.3 128.316 137.94 127.938C137.584 127.555 137.09 127.364 136.457 127.364C136.018 127.364 135.624 127.456 135.276 127.642C134.931 127.828 134.658 128.098 134.457 128.455C134.26 128.811 134.162 129.242 134.162 129.75ZM145.933 135.182C145.092 135.182 144.367 134.996 143.757 134.625C143.151 134.25 142.683 133.727 142.354 133.057C142.028 132.383 141.865 131.598 141.865 130.705C141.865 129.811 142.028 129.023 142.354 128.341C142.683 127.655 143.142 127.121 143.729 126.739C144.32 126.352 145.009 126.159 145.797 126.159C146.251 126.159 146.7 126.235 147.143 126.386C147.587 126.538 147.99 126.784 148.354 127.125C148.717 127.462 149.007 127.909 149.223 128.466C149.439 129.023 149.547 129.708 149.547 130.523V131.091H142.82V129.932H148.183C148.183 129.439 148.085 129 147.888 128.614C147.695 128.227 147.418 127.922 147.058 127.699C146.702 127.475 146.282 127.364 145.797 127.364C145.263 127.364 144.801 127.496 144.411 127.761C144.024 128.023 143.727 128.364 143.518 128.784C143.31 129.205 143.206 129.655 143.206 130.136V130.909C143.206 131.568 143.32 132.127 143.547 132.585C143.778 133.04 144.098 133.386 144.507 133.625C144.916 133.86 145.392 133.977 145.933 133.977C146.286 133.977 146.604 133.928 146.888 133.83C147.176 133.727 147.424 133.576 147.632 133.375C147.84 133.17 148.001 132.917 148.115 132.614L149.411 132.977C149.274 133.417 149.045 133.803 148.723 134.136C148.401 134.466 148.003 134.723 147.53 134.909C147.056 135.091 146.524 135.182 145.933 135.182ZM152.928 129.75V135H151.587V126.273H152.882V127.636H152.996C153.2 127.193 153.511 126.837 153.928 126.568C154.344 126.295 154.882 126.159 155.541 126.159C156.132 126.159 156.649 126.28 157.092 126.523C157.536 126.761 157.88 127.125 158.126 127.614C158.373 128.098 158.496 128.712 158.496 129.455V135H157.155V129.545C157.155 128.86 156.977 128.326 156.621 127.943C156.265 127.557 155.776 127.364 155.155 127.364C154.727 127.364 154.344 127.456 154.007 127.642C153.674 127.828 153.411 128.098 153.217 128.455C153.024 128.811 152.928 129.242 152.928 129.75ZM164.241 135.182C163.514 135.182 162.872 134.998 162.315 134.631C161.759 134.259 161.323 133.737 161.009 133.062C160.694 132.384 160.537 131.583 160.537 130.659C160.537 129.742 160.694 128.947 161.009 128.273C161.323 127.598 161.76 127.078 162.321 126.71C162.882 126.343 163.529 126.159 164.264 126.159C164.832 126.159 165.281 126.254 165.611 126.443C165.944 126.629 166.198 126.841 166.372 127.08C166.55 127.314 166.688 127.508 166.787 127.659H166.901V123.364H168.241V135H166.946V133.659H166.787C166.688 133.818 166.548 134.019 166.366 134.261C166.185 134.5 165.925 134.714 165.588 134.903C165.251 135.089 164.802 135.182 164.241 135.182ZM164.423 133.977C164.961 133.977 165.416 133.837 165.787 133.557C166.158 133.273 166.44 132.881 166.634 132.381C166.827 131.877 166.923 131.295 166.923 130.636C166.923 129.985 166.829 129.415 166.639 128.926C166.45 128.434 166.17 128.051 165.798 127.778C165.427 127.502 164.969 127.364 164.423 127.364C163.855 127.364 163.382 127.509 163.003 127.801C162.628 128.089 162.346 128.481 162.156 128.977C161.971 129.47 161.878 130.023 161.878 130.636C161.878 131.258 161.973 131.822 162.162 132.33C162.355 132.833 162.639 133.235 163.014 133.534C163.393 133.83 163.863 133.977 164.423 133.977ZM174.543 135.182C173.702 135.182 172.976 134.996 172.366 134.625C171.76 134.25 171.293 133.727 170.963 133.057C170.637 132.383 170.474 131.598 170.474 130.705C170.474 129.811 170.637 129.023 170.963 128.341C171.293 127.655 171.751 127.121 172.338 126.739C172.929 126.352 173.618 126.159 174.406 126.159C174.861 126.159 175.31 126.235 175.753 126.386C176.196 126.538 176.599 126.784 176.963 127.125C177.327 127.462 177.616 127.909 177.832 128.466C178.048 129.023 178.156 129.708 178.156 130.523V131.091H171.429V129.932H176.793C176.793 129.439 176.694 129 176.497 128.614C176.304 128.227 176.027 127.922 175.668 127.699C175.312 127.475 174.891 127.364 174.406 127.364C173.872 127.364 173.41 127.496 173.02 127.761C172.634 128.023 172.336 128.364 172.128 128.784C171.92 129.205 171.815 129.655 171.815 130.136V130.909C171.815 131.568 171.929 132.127 172.156 132.585C172.387 133.04 172.707 133.386 173.116 133.625C173.526 133.86 174.001 133.977 174.543 133.977C174.895 133.977 175.213 133.928 175.497 133.83C175.785 133.727 176.033 133.576 176.241 133.375C176.45 133.17 176.611 132.917 176.724 132.614L178.02 132.977C177.884 133.417 177.654 133.803 177.332 134.136C177.01 134.466 176.613 134.723 176.139 134.909C175.666 135.091 175.134 135.182 174.543 135.182ZM180.196 135V126.273H181.491V127.591H181.582C181.741 127.159 182.029 126.809 182.446 126.54C182.863 126.271 183.332 126.136 183.855 126.136C183.954 126.136 184.077 126.138 184.224 126.142C184.372 126.146 184.484 126.152 184.56 126.159V127.523C184.514 127.511 184.41 127.494 184.247 127.472C184.088 127.445 183.92 127.432 183.741 127.432C183.317 127.432 182.938 127.521 182.605 127.699C182.276 127.873 182.014 128.116 181.821 128.426C181.632 128.733 181.537 129.083 181.537 129.477V135H180.196ZM186.149 135V126.273H187.49V135H186.149ZM186.831 124.818C186.57 124.818 186.344 124.729 186.155 124.551C185.969 124.373 185.876 124.159 185.876 123.909C185.876 123.659 185.969 123.445 186.155 123.267C186.344 123.089 186.57 123 186.831 123C187.092 123 187.316 123.089 187.501 123.267C187.691 123.445 187.786 123.659 187.786 123.909C187.786 124.159 187.691 124.373 187.501 124.551C187.316 124.729 187.092 124.818 186.831 124.818ZM193.741 126.273V127.409H189.219V126.273H193.741ZM190.537 124.182H191.878V132.5C191.878 132.879 191.933 133.163 192.043 133.352C192.156 133.538 192.3 133.663 192.474 133.727C192.652 133.788 192.84 133.818 193.037 133.818C193.185 133.818 193.306 133.811 193.401 133.795C193.495 133.777 193.571 133.761 193.628 133.75L193.901 134.955C193.81 134.989 193.683 135.023 193.52 135.057C193.357 135.095 193.151 135.114 192.901 135.114C192.522 135.114 192.151 135.032 191.787 134.869C191.427 134.706 191.128 134.458 190.889 134.125C190.654 133.792 190.537 133.371 190.537 132.864V124.182ZM203.918 135.182C203.077 135.182 202.351 134.996 201.741 134.625C201.135 134.25 200.668 133.727 200.338 133.057C200.012 132.383 199.849 131.598 199.849 130.705C199.849 129.811 200.012 129.023 200.338 128.341C200.668 127.655 201.126 127.121 201.713 126.739C202.304 126.352 202.993 126.159 203.781 126.159C204.236 126.159 204.685 126.235 205.128 126.386C205.571 126.538 205.974 126.784 206.338 127.125C206.702 127.462 206.991 127.909 207.207 128.466C207.423 129.023 207.531 129.708 207.531 130.523V131.091H200.804V129.932H206.168C206.168 129.439 206.069 129 205.872 128.614C205.679 128.227 205.402 127.922 205.043 127.699C204.687 127.475 204.266 127.364 203.781 127.364C203.247 127.364 202.785 127.496 202.395 127.761C202.009 128.023 201.711 128.364 201.503 128.784C201.295 129.205 201.19 129.655 201.19 130.136V130.909C201.19 131.568 201.304 132.127 201.531 132.585C201.762 133.04 202.082 133.386 202.491 133.625C202.901 133.86 203.376 133.977 203.918 133.977C204.27 133.977 204.588 133.928 204.872 133.83C205.16 133.727 205.408 133.576 205.616 133.375C205.825 133.17 205.986 132.917 206.099 132.614L207.395 132.977C207.259 133.417 207.029 133.803 206.707 134.136C206.385 134.466 205.988 134.723 205.514 134.909C205.041 135.091 204.509 135.182 203.918 135.182ZM215.753 128.227L214.548 128.568C214.473 128.367 214.361 128.172 214.213 127.983C214.069 127.79 213.872 127.631 213.622 127.506C213.372 127.381 213.052 127.318 212.662 127.318C212.128 127.318 211.683 127.441 211.327 127.688C210.974 127.93 210.798 128.239 210.798 128.614C210.798 128.947 210.92 129.21 211.162 129.403C211.404 129.597 211.783 129.758 212.298 129.886L213.594 130.205C214.374 130.394 214.955 130.684 215.338 131.074C215.721 131.46 215.912 131.958 215.912 132.568C215.912 133.068 215.768 133.515 215.48 133.909C215.196 134.303 214.798 134.614 214.287 134.841C213.776 135.068 213.181 135.182 212.503 135.182C211.613 135.182 210.876 134.989 210.293 134.602C209.709 134.216 209.34 133.652 209.185 132.909L210.457 132.591C210.579 133.061 210.808 133.413 211.145 133.648C211.486 133.883 211.931 134 212.48 134C213.105 134 213.601 133.867 213.969 133.602C214.34 133.333 214.526 133.011 214.526 132.636C214.526 132.333 214.42 132.08 214.207 131.875C213.995 131.667 213.67 131.511 213.23 131.409L211.776 131.068C210.976 130.879 210.389 130.585 210.014 130.188C209.643 129.786 209.457 129.284 209.457 128.682C209.457 128.189 209.596 127.754 209.872 127.375C210.152 126.996 210.533 126.699 211.014 126.483C211.499 126.267 212.048 126.159 212.662 126.159C213.526 126.159 214.204 126.348 214.696 126.727C215.192 127.106 215.545 127.606 215.753 128.227ZM221.726 126.273V127.409H217.203V126.273H221.726ZM218.521 124.182H219.862V132.5C219.862 132.879 219.917 133.163 220.027 133.352C220.141 133.538 220.285 133.663 220.459 133.727C220.637 133.788 220.824 133.818 221.021 133.818C221.169 133.818 221.29 133.811 221.385 133.795C221.48 133.777 221.555 133.761 221.612 133.75L221.885 134.955C221.794 134.989 221.667 135.023 221.504 135.057C221.341 135.095 221.135 135.114 220.885 135.114C220.506 135.114 220.135 135.032 219.771 134.869C219.411 134.706 219.112 134.458 218.874 134.125C218.639 133.792 218.521 133.371 218.521 132.864V124.182ZM231.538 135.182C230.811 135.182 230.169 134.998 229.612 134.631C229.055 134.259 228.62 133.737 228.305 133.062C227.991 132.384 227.834 131.583 227.834 130.659C227.834 129.742 227.991 128.947 228.305 128.273C228.62 127.598 229.057 127.078 229.618 126.71C230.179 126.343 230.826 126.159 231.561 126.159C232.129 126.159 232.578 126.254 232.908 126.443C233.241 126.629 233.495 126.841 233.669 127.08C233.847 127.314 233.985 127.508 234.084 127.659H234.197V123.364H235.538V135H234.243V133.659H234.084C233.985 133.818 233.845 134.019 233.663 134.261C233.482 134.5 233.222 134.714 232.885 134.903C232.548 135.089 232.099 135.182 231.538 135.182ZM231.72 133.977C232.258 133.977 232.713 133.837 233.084 133.557C233.455 133.273 233.737 132.881 233.93 132.381C234.124 131.877 234.22 131.295 234.22 130.636C234.22 129.985 234.125 129.415 233.936 128.926C233.747 128.434 233.466 128.051 233.095 127.778C232.724 127.502 232.266 127.364 231.72 127.364C231.152 127.364 230.679 127.509 230.3 127.801C229.925 128.089 229.643 128.481 229.453 128.977C229.268 129.47 229.175 130.023 229.175 130.636C229.175 131.258 229.269 131.822 229.459 132.33C229.652 132.833 229.936 133.235 230.311 133.534C230.69 133.83 231.16 133.977 231.72 133.977ZM241.726 135.182C240.938 135.182 240.247 134.994 239.652 134.619C239.061 134.244 238.599 133.72 238.266 133.045C237.936 132.371 237.771 131.583 237.771 130.682C237.771 129.773 237.936 128.979 238.266 128.301C238.599 127.623 239.061 127.097 239.652 126.722C240.247 126.347 240.938 126.159 241.726 126.159C242.514 126.159 243.203 126.347 243.794 126.722C244.389 127.097 244.851 127.623 245.18 128.301C245.514 128.979 245.68 129.773 245.68 130.682C245.68 131.583 245.514 132.371 245.18 133.045C244.851 133.72 244.389 134.244 243.794 134.619C243.203 134.994 242.514 135.182 241.726 135.182ZM241.726 133.977C242.324 133.977 242.817 133.824 243.203 133.517C243.589 133.21 243.875 132.807 244.061 132.307C244.247 131.807 244.339 131.265 244.339 130.682C244.339 130.098 244.247 129.555 244.061 129.051C243.875 128.547 243.589 128.14 243.203 127.83C242.817 127.519 242.324 127.364 241.726 127.364C241.127 127.364 240.635 127.519 240.249 127.83C239.862 128.14 239.576 128.547 239.391 129.051C239.205 129.555 239.112 130.098 239.112 130.682C239.112 131.265 239.205 131.807 239.391 132.307C239.576 132.807 239.862 133.21 240.249 133.517C240.635 133.824 241.127 133.977 241.726 133.977ZM249.068 123.364V135H247.727V123.364H249.068ZM255.07 135.182C254.282 135.182 253.59 134.994 252.996 134.619C252.405 134.244 251.943 133.72 251.609 133.045C251.28 132.371 251.115 131.583 251.115 130.682C251.115 129.773 251.28 128.979 251.609 128.301C251.943 127.623 252.405 127.097 252.996 126.722C253.59 126.347 254.282 126.159 255.07 126.159C255.857 126.159 256.547 126.347 257.138 126.722C257.732 127.097 258.195 127.623 258.524 128.301C258.857 128.979 259.024 129.773 259.024 130.682C259.024 131.583 258.857 132.371 258.524 133.045C258.195 133.72 257.732 134.244 257.138 134.619C256.547 134.994 255.857 135.182 255.07 135.182ZM255.07 133.977C255.668 133.977 256.161 133.824 256.547 133.517C256.933 133.21 257.219 132.807 257.405 132.307C257.59 131.807 257.683 131.265 257.683 130.682C257.683 130.098 257.59 129.555 257.405 129.051C257.219 128.547 256.933 128.14 256.547 127.83C256.161 127.519 255.668 127.364 255.07 127.364C254.471 127.364 253.979 127.519 253.592 127.83C253.206 128.14 252.92 128.547 252.734 129.051C252.549 129.555 252.456 130.098 252.456 130.682C252.456 131.265 252.549 131.807 252.734 132.307C252.92 132.807 253.206 133.21 253.592 133.517C253.979 133.824 254.471 133.977 255.07 133.977ZM261.071 135V126.273H262.366V127.591H262.457C262.616 127.159 262.904 126.809 263.321 126.54C263.738 126.271 264.207 126.136 264.73 126.136C264.829 126.136 264.952 126.138 265.099 126.142C265.247 126.146 265.359 126.152 265.435 126.159V127.523C265.389 127.511 265.285 127.494 265.122 127.472C264.963 127.445 264.795 127.432 264.616 127.432C264.192 127.432 263.813 127.521 263.48 127.699C263.151 127.873 262.889 128.116 262.696 128.426C262.507 128.733 262.412 129.083 262.412 129.477V135H261.071ZM270.418 135.182C269.577 135.182 268.851 134.996 268.241 134.625C267.635 134.25 267.168 133.727 266.838 133.057C266.512 132.383 266.349 131.598 266.349 130.705C266.349 129.811 266.512 129.023 266.838 128.341C267.168 127.655 267.626 127.121 268.213 126.739C268.804 126.352 269.493 126.159 270.281 126.159C270.736 126.159 271.185 126.235 271.628 126.386C272.071 126.538 272.474 126.784 272.838 127.125C273.202 127.462 273.491 127.909 273.707 128.466C273.923 129.023 274.031 129.708 274.031 130.523V131.091H267.304V129.932H272.668C272.668 129.439 272.569 129 272.372 128.614C272.179 128.227 271.902 127.922 271.543 127.699C271.187 127.475 270.766 127.364 270.281 127.364C269.747 127.364 269.285 127.496 268.895 127.761C268.509 128.023 268.211 128.364 268.003 128.784C267.795 129.205 267.69 129.655 267.69 130.136V130.909C267.69 131.568 267.804 132.127 268.031 132.585C268.262 133.04 268.582 133.386 268.991 133.625C269.401 133.86 269.876 133.977 270.418 133.977C270.77 133.977 271.088 133.928 271.372 133.83C271.66 133.727 271.908 133.576 272.116 133.375C272.325 133.17 272.486 132.917 272.599 132.614L273.895 132.977C273.759 133.417 273.529 133.803 273.207 134.136C272.885 134.466 272.488 134.723 272.014 134.909C271.541 135.091 271.009 135.182 270.418 135.182ZM287.707 126.273L284.48 135H283.116L279.889 126.273H281.344L283.753 133.227H283.844L286.253 126.273H287.707ZM292.71 135.182C291.922 135.182 291.231 134.994 290.636 134.619C290.045 134.244 289.583 133.72 289.25 133.045C288.92 132.371 288.756 131.583 288.756 130.682C288.756 129.773 288.92 128.979 289.25 128.301C289.583 127.623 290.045 127.097 290.636 126.722C291.231 126.347 291.922 126.159 292.71 126.159C293.498 126.159 294.188 126.347 294.778 126.722C295.373 127.097 295.835 127.623 296.165 128.301C296.498 128.979 296.665 129.773 296.665 130.682C296.665 131.583 296.498 132.371 296.165 133.045C295.835 133.72 295.373 134.244 294.778 134.619C294.188 134.994 293.498 135.182 292.71 135.182ZM292.71 133.977C293.309 133.977 293.801 133.824 294.188 133.517C294.574 133.21 294.86 132.807 295.045 132.307C295.231 131.807 295.324 131.265 295.324 130.682C295.324 130.098 295.231 129.555 295.045 129.051C294.86 128.547 294.574 128.14 294.188 127.83C293.801 127.519 293.309 127.364 292.71 127.364C292.112 127.364 291.619 127.519 291.233 127.83C290.847 128.14 290.561 128.547 290.375 129.051C290.189 129.555 290.097 130.098 290.097 130.682C290.097 131.265 290.189 131.807 290.375 132.307C290.561 132.807 290.847 133.21 291.233 133.517C291.619 133.824 292.112 133.977 292.71 133.977ZM300.053 123.364V135H298.712V123.364H300.053ZM308.009 131.432V126.273H309.349V135H308.009V133.523H307.918C307.713 133.966 307.395 134.343 306.963 134.653C306.531 134.96 305.986 135.114 305.327 135.114C304.781 135.114 304.296 134.994 303.872 134.756C303.448 134.513 303.115 134.15 302.872 133.665C302.63 133.176 302.509 132.561 302.509 131.818V126.273H303.849V131.727C303.849 132.364 304.027 132.871 304.384 133.25C304.743 133.629 305.202 133.818 305.759 133.818C306.092 133.818 306.431 133.733 306.776 133.562C307.124 133.392 307.416 133.131 307.651 132.778C307.889 132.426 308.009 131.977 308.009 131.432ZM311.805 138.273V126.273H313.101V127.659H313.26C313.358 127.508 313.495 127.314 313.669 127.08C313.847 126.841 314.101 126.629 314.43 126.443C314.764 126.254 315.214 126.159 315.783 126.159C316.518 126.159 317.165 126.343 317.726 126.71C318.286 127.078 318.724 127.598 319.038 128.273C319.353 128.947 319.51 129.742 319.51 130.659C319.51 131.583 319.353 132.384 319.038 133.062C318.724 133.737 318.288 134.259 317.732 134.631C317.175 134.998 316.533 135.182 315.805 135.182C315.245 135.182 314.796 135.089 314.459 134.903C314.122 134.714 313.862 134.5 313.68 134.261C313.499 134.019 313.358 133.818 313.26 133.659H313.146V138.273H311.805ZM313.124 130.636C313.124 131.295 313.22 131.877 313.413 132.381C313.607 132.881 313.889 133.273 314.26 133.557C314.631 133.837 315.086 133.977 315.624 133.977C316.184 133.977 316.652 133.83 317.027 133.534C317.406 133.235 317.69 132.833 317.879 132.33C318.072 131.822 318.169 131.258 318.169 130.636C318.169 130.023 318.074 129.47 317.885 128.977C317.699 128.481 317.417 128.089 317.038 127.801C316.663 127.509 316.192 127.364 315.624 127.364C315.078 127.364 314.62 127.502 314.249 127.778C313.877 128.051 313.597 128.434 313.408 128.926C313.218 129.415 313.124 129.985 313.124 130.636ZM325.351 126.273V127.409H320.828V126.273H325.351ZM322.146 124.182H323.487V132.5C323.487 132.879 323.542 133.163 323.652 133.352C323.766 133.538 323.91 133.663 324.084 133.727C324.262 133.788 324.449 133.818 324.646 133.818C324.794 133.818 324.915 133.811 325.01 133.795C325.105 133.777 325.18 133.761 325.237 133.75L325.51 134.955C325.419 134.989 325.292 135.023 325.129 135.057C324.966 135.095 324.76 135.114 324.51 135.114C324.131 135.114 323.76 135.032 323.396 134.869C323.036 134.706 322.737 134.458 322.499 134.125C322.264 133.792 322.146 133.371 322.146 132.864V124.182ZM329.936 135.205C329.383 135.205 328.881 135.1 328.43 134.892C327.98 134.68 327.622 134.375 327.357 133.977C327.091 133.576 326.959 133.091 326.959 132.523C326.959 132.023 327.057 131.617 327.254 131.307C327.451 130.992 327.714 130.746 328.044 130.568C328.374 130.39 328.737 130.258 329.135 130.17C329.536 130.08 329.94 130.008 330.345 129.955C330.875 129.886 331.305 129.835 331.635 129.801C331.968 129.763 332.211 129.701 332.362 129.614C332.518 129.527 332.595 129.375 332.595 129.159V129.114C332.595 128.553 332.442 128.117 332.135 127.807C331.832 127.496 331.372 127.341 330.754 127.341C330.114 127.341 329.612 127.481 329.249 127.761C328.885 128.042 328.629 128.341 328.482 128.659L327.209 128.205C327.436 127.674 327.739 127.261 328.118 126.966C328.5 126.667 328.917 126.458 329.368 126.341C329.822 126.22 330.269 126.159 330.709 126.159C330.989 126.159 331.311 126.193 331.675 126.261C332.042 126.326 332.396 126.46 332.737 126.665C333.082 126.869 333.368 127.178 333.595 127.591C333.822 128.004 333.936 128.557 333.936 129.25V135H332.595V133.818H332.527C332.436 134.008 332.285 134.21 332.072 134.426C331.86 134.642 331.578 134.826 331.226 134.977C330.874 135.129 330.444 135.205 329.936 135.205ZM330.141 134C330.671 134 331.118 133.896 331.482 133.688C331.849 133.479 332.125 133.21 332.311 132.881C332.5 132.551 332.595 132.205 332.595 131.841V130.614C332.538 130.682 332.413 130.744 332.22 130.801C332.031 130.854 331.811 130.902 331.561 130.943C331.315 130.981 331.074 131.015 330.839 131.045C330.608 131.072 330.421 131.095 330.277 131.114C329.929 131.159 329.603 131.233 329.3 131.335C329 131.434 328.758 131.583 328.572 131.784C328.391 131.981 328.3 132.25 328.3 132.591C328.3 133.057 328.472 133.409 328.817 133.648C329.165 133.883 329.607 134 330.141 134ZM340.179 126.273V127.409H335.656V126.273H340.179ZM336.974 124.182H338.315V132.5C338.315 132.879 338.37 133.163 338.48 133.352C338.594 133.538 338.738 133.663 338.912 133.727C339.09 133.788 339.277 133.818 339.474 133.818C339.622 133.818 339.743 133.811 339.838 133.795C339.933 133.777 340.009 133.761 340.065 133.75L340.338 134.955C340.247 134.989 340.12 135.023 339.957 135.057C339.795 135.095 339.588 135.114 339.338 135.114C338.959 135.114 338.588 135.032 338.224 134.869C337.865 134.706 337.565 134.458 337.327 134.125C337.092 133.792 336.974 133.371 336.974 132.864V124.182ZM345.761 135.182C344.92 135.182 344.195 134.996 343.585 134.625C342.979 134.25 342.511 133.727 342.182 133.057C341.856 132.383 341.693 131.598 341.693 130.705C341.693 129.811 341.856 129.023 342.182 128.341C342.511 127.655 342.97 127.121 343.557 126.739C344.148 126.352 344.837 126.159 345.625 126.159C346.08 126.159 346.528 126.235 346.972 126.386C347.415 126.538 347.818 126.784 348.182 127.125C348.545 127.462 348.835 127.909 349.051 128.466C349.267 129.023 349.375 129.708 349.375 130.523V131.091H342.648V129.932H348.011C348.011 129.439 347.913 129 347.716 128.614C347.523 128.227 347.246 127.922 346.886 127.699C346.53 127.475 346.11 127.364 345.625 127.364C345.091 127.364 344.629 127.496 344.239 127.761C343.852 128.023 343.555 128.364 343.347 128.784C343.138 129.205 343.034 129.655 343.034 130.136V130.909C343.034 131.568 343.148 132.127 343.375 132.585C343.606 133.04 343.926 133.386 344.335 133.625C344.744 133.86 345.22 133.977 345.761 133.977C346.114 133.977 346.432 133.928 346.716 133.83C347.004 133.727 347.252 133.576 347.46 133.375C347.669 133.17 347.83 132.917 347.943 132.614L349.239 132.977C349.102 133.417 348.873 133.803 348.551 134.136C348.229 134.466 347.831 134.723 347.358 134.909C346.884 135.091 346.352 135.182 345.761 135.182ZM352.392 135.091C352.112 135.091 351.871 134.991 351.67 134.79C351.47 134.589 351.369 134.348 351.369 134.068C351.369 133.788 351.47 133.547 351.67 133.347C351.871 133.146 352.112 133.045 352.392 133.045C352.672 133.045 352.913 133.146 353.114 133.347C353.314 133.547 353.415 133.788 353.415 134.068C353.415 134.254 353.367 134.424 353.273 134.58C353.182 134.735 353.059 134.86 352.903 134.955C352.752 135.045 352.581 135.091 352.392 135.091Z" fill="white"/>
</svg>
