<svg width="198" height="50" viewBox="0 0 198 50" fill="none" xmlns="http://www.w3.org/2000/svg">
<rect width="120" height="50" rx="25" fill="#4BC1BD"/>
<path d="M35.0509 31V19.3636H39.5054C40.3463 19.3636 41.0452 19.4962 41.602 19.7614C42.1626 20.0227 42.5812 20.3807 42.8577 20.8352C43.138 21.2898 43.2781 21.8049 43.2781 22.3807C43.2781 22.8542 43.1872 23.2595 43.0054 23.5966C42.8236 23.9299 42.5793 24.2008 42.2724 24.4091C41.9656 24.6174 41.6228 24.767 41.244 24.858V24.9716C41.6569 24.9943 42.0527 25.1212 42.4315 25.3523C42.8141 25.5795 43.1266 25.9015 43.369 26.3182C43.6115 26.7348 43.7327 27.2386 43.7327 27.8295C43.7327 28.4318 43.5868 28.9735 43.2952 29.4545C43.0035 29.9318 42.5641 30.3087 41.977 30.5852C41.3899 30.8617 40.6512 31 39.7611 31H35.0509ZM37.1588 29.2386H39.4259C40.191 29.2386 40.7421 29.0928 41.0793 28.8011C41.4202 28.5057 41.5906 28.1269 41.5906 27.6648C41.5906 27.3201 41.5054 27.0095 41.3349 26.733C41.1645 26.4527 40.9221 26.233 40.6077 26.0739C40.2933 25.911 39.9183 25.8295 39.4827 25.8295H37.1588V29.2386ZM37.1588 24.3125H39.244C39.6077 24.3125 39.9353 24.2462 40.227 24.1136C40.5187 23.9773 40.7478 23.786 40.9145 23.5398C41.0849 23.2898 41.1702 22.9943 41.1702 22.6534C41.1702 22.2027 41.0111 21.8314 40.6929 21.5398C40.3785 21.2481 39.9107 21.1023 39.2895 21.1023H37.1588V24.3125ZM51.1981 27.3295V22.2727H53.2549V31H51.2606V29.4489H51.1697C50.9727 29.9375 50.6488 30.3371 50.1981 30.6477C49.7511 30.9583 49.2 31.1136 48.5447 31.1136C47.9727 31.1136 47.467 30.9867 47.0276 30.733C46.592 30.4754 46.2511 30.1023 46.0049 29.6136C45.7587 29.1212 45.6356 28.5265 45.6356 27.8295V22.2727H47.6924V27.5114C47.6924 28.0644 47.8439 28.5038 48.1469 28.8295C48.45 29.1553 48.8477 29.3182 49.3401 29.3182C49.6431 29.3182 49.9367 29.2443 50.2208 29.0966C50.5049 28.9489 50.7378 28.7292 50.9197 28.4375C51.1053 28.142 51.1981 27.7727 51.1981 27.3295ZM59.8879 22.2727V23.8636H54.8709V22.2727H59.8879ZM56.1095 20.1818H58.1663V28.375C58.1663 28.6515 58.208 28.8636 58.2913 29.0114C58.3784 29.1553 58.4921 29.2538 58.6322 29.3068C58.7724 29.3598 58.9277 29.3864 59.0981 29.3864C59.2269 29.3864 59.3443 29.3769 59.4504 29.358C59.5602 29.339 59.6436 29.322 59.7004 29.3068L60.047 30.9148C59.9371 30.9527 59.7799 30.9943 59.5754 31.0398C59.3746 31.0852 59.1284 31.1117 58.8368 31.1193C58.3216 31.1345 57.8576 31.0568 57.4447 30.8864C57.0318 30.7121 56.7042 30.4432 56.4618 30.0795C56.2231 29.7159 56.1057 29.2614 56.1095 28.7159V20.1818ZM66.126 22.2727V23.8636H61.109V22.2727H66.126ZM62.3476 20.1818H64.4044V28.375C64.4044 28.6515 64.4461 28.8636 64.5294 29.0114C64.6166 29.1553 64.7302 29.2538 64.8703 29.3068C65.0105 29.3598 65.1658 29.3864 65.3363 29.3864C65.465 29.3864 65.5825 29.3769 65.6885 29.358C65.7984 29.339 65.8817 29.322 65.9385 29.3068L66.2851 30.9148C66.1753 30.9527 66.0181 30.9943 65.8135 31.0398C65.6128 31.0852 65.3666 31.1117 65.0749 31.1193C64.5597 31.1345 64.0957 31.0568 63.6828 30.8864C63.27 30.7121 62.9423 30.4432 62.6999 30.0795C62.4613 29.7159 62.3438 29.2614 62.3476 28.7159V20.1818ZM71.7193 31.1705C70.867 31.1705 70.1284 30.983 69.5034 30.608C68.8784 30.233 68.3935 29.7083 68.0488 29.0341C67.7079 28.3598 67.5374 27.572 67.5374 26.6705C67.5374 25.7689 67.7079 24.9792 68.0488 24.3011C68.3935 23.6231 68.8784 23.0966 69.5034 22.7216C70.1284 22.3466 70.867 22.1591 71.7193 22.1591C72.5715 22.1591 73.3102 22.3466 73.9352 22.7216C74.5602 23.0966 75.0431 23.6231 75.384 24.3011C75.7287 24.9792 75.9011 25.7689 75.9011 26.6705C75.9011 27.572 75.7287 28.3598 75.384 29.0341C75.0431 29.7083 74.5602 30.233 73.9352 30.608C73.3102 30.983 72.5715 31.1705 71.7193 31.1705ZM71.7306 29.5227C72.1927 29.5227 72.5791 29.3958 72.8897 29.142C73.2003 28.8845 73.4314 28.5398 73.5829 28.108C73.7382 27.6761 73.8159 27.1951 73.8159 26.6648C73.8159 26.1307 73.7382 25.6477 73.5829 25.2159C73.4314 24.7803 73.2003 24.4337 72.8897 24.1761C72.5791 23.9186 72.1927 23.7898 71.7306 23.7898C71.2571 23.7898 70.8632 23.9186 70.5488 24.1761C70.2382 24.4337 70.0052 24.7803 69.8499 25.2159C69.6984 25.6477 69.6227 26.1307 69.6227 26.6648C69.6227 27.1951 69.6984 27.6761 69.8499 28.108C70.0052 28.5398 70.2382 28.8845 70.5488 29.142C70.8632 29.3958 71.2571 29.5227 71.7306 29.5227ZM79.8636 25.8864V31H77.8068V22.2727H79.7727V23.7557H79.875C80.0758 23.267 80.3958 22.8788 80.8352 22.5909C81.2784 22.303 81.8258 22.1591 82.4773 22.1591C83.0795 22.1591 83.6042 22.2879 84.0511 22.5455C84.5019 22.803 84.8504 23.1761 85.0966 23.6648C85.3466 24.1534 85.4697 24.7462 85.4659 25.4432V31H83.4091V25.7614C83.4091 25.178 83.2576 24.7216 82.9545 24.392C82.6553 24.0625 82.2405 23.8977 81.7102 23.8977C81.3504 23.8977 81.0303 23.9773 80.75 24.1364C80.4735 24.2917 80.2557 24.517 80.0966 24.8125C79.9413 25.108 79.8636 25.4659 79.8636 25.8864Z" fill="black"/>
<path d="M145 22L142 25M142 25L145 28M142 25H162M149 18L152 15M152 15L155 18M152 15V35M155 32L152 35M152 35L149 32M159 22L162 25M162 25L159 28" stroke="#4BC1BD" stroke-width="2" stroke-linecap="round" stroke-linejoin="round"/>
<path d="M186 26C186.552 26 187 25.5523 187 25C187 24.4477 186.552 24 186 24C185.448 24 185 24.4477 185 25C185 25.5523 185.448 26 186 26Z" stroke="#4BC1BD" stroke-width="2" stroke-linecap="round" stroke-linejoin="round"/>
<path d="M186 19C186.552 19 187 18.5523 187 18C187 17.4477 186.552 17 186 17C185.448 17 185 17.4477 185 18C185 18.5523 185.448 19 186 19Z" stroke="#4BC1BD" stroke-width="2" stroke-linecap="round" stroke-linejoin="round"/>
<path d="M186 33C186.552 33 187 32.5523 187 32C187 31.4477 186.552 31 186 31C185.448 31 185 31.4477 185 32C185 32.5523 185.448 33 186 33Z" stroke="#4BC1BD" stroke-width="2" stroke-linecap="round" stroke-linejoin="round"/>
</svg>
