<svg width="237" height="303" viewBox="0 0 237 303" fill="none" xmlns="http://www.w3.org/2000/svg">
<path d="M12 0.5H225C231.351 0.5 236.5 5.64873 236.5 12V291C236.5 297.351 231.351 302.5 225 302.5H12C5.64872 302.5 0.5 297.351 0.5 291V12C0.5 5.64872 5.64873 0.5 12 0.5Z" fill="black"/>
<path d="M12 0.5H225C231.351 0.5 236.5 5.64873 236.5 12V291C236.5 297.351 231.351 302.5 225 302.5H12C5.64872 302.5 0.5 297.351 0.5 291V12C0.5 5.64872 5.64873 0.5 12 0.5Z" stroke="#2C2C2C"/>
<mask id="path-2-inside-1_9327_38613" fill="white">
<path d="M0 0H237V50H0V0Z"/>
</mask>
<path d="M237 49H0V51H237V49Z" fill="#2C2C2C" mask="url(#path-2-inside-1_9327_38613)"/>
<rect x="6" y="6" width="225" height="38" rx="5" fill="black"/>
<rect x="6" y="6" width="225" height="38" rx="5" stroke="#2C2C2C" stroke-width="2"/>
<path d="M30 26C30.4295 26.5741 30.9774 27.0491 31.6066 27.3929C32.2358 27.7367 32.9315 27.9411 33.6467 27.9923C34.3618 28.0435 35.0796 27.9403 35.7514 27.6897C36.4231 27.4392 37.0331 27.047 37.54 26.54L40.54 23.54C41.4508 22.597 41.9548 21.3339 41.9434 20.023C41.932 18.712 41.4062 17.4579 40.4791 16.5309C39.5521 15.6038 38.298 15.078 36.987 15.0666C35.676 15.0552 34.413 15.5592 33.47 16.47L31.75 18.18M34 24C33.5706 23.4258 33.0227 22.9508 32.3935 22.607C31.7643 22.2633 31.0685 22.0588 30.3534 22.0076C29.6382 21.9564 28.9204 22.0596 28.2487 22.3102C27.5769 22.5608 26.9669 22.9529 26.46 23.46L23.46 26.46C22.5492 27.403 22.0453 28.666 22.0566 29.977C22.068 31.288 22.5939 32.542 23.5209 33.4691C24.448 34.3961 25.702 34.9219 27.013 34.9333C28.324 34.9447 29.587 34.4408 30.53 33.53L32.24 31.82" stroke="#4BC1BD" stroke-width="2" stroke-linecap="round" stroke-linejoin="round"/>
<path d="M55.4091 31V19.3636H56.8182V29.75H62.2273V31H55.4091ZM64.3873 31V22.2727H65.7282V31H64.3873ZM65.0691 20.8182C64.8077 20.8182 64.5823 20.7292 64.393 20.5511C64.2073 20.3731 64.1145 20.1591 64.1145 19.9091C64.1145 19.6591 64.2073 19.4451 64.393 19.267C64.5823 19.089 64.8077 19 65.0691 19C65.3305 19 65.5539 19.089 65.7395 19.267C65.9289 19.4451 66.0236 19.6591 66.0236 19.9091C66.0236 20.1591 65.9289 20.3731 65.7395 20.5511C65.5539 20.7292 65.3305 20.8182 65.0691 20.8182ZM69.6851 25.75V31H68.3441V22.2727H69.6396V23.6364H69.7532C69.9578 23.1932 70.2684 22.8371 70.6851 22.5682C71.1017 22.2955 71.6396 22.1591 72.2987 22.1591C72.8896 22.1591 73.4066 22.2803 73.8498 22.5227C74.293 22.7614 74.6377 23.125 74.8839 23.6136C75.1301 24.0985 75.2532 24.7121 75.2532 25.4545V31H73.9123V25.5455C73.9123 24.8598 73.7343 24.3258 73.3782 23.9432C73.0222 23.5568 72.5335 23.3636 71.9123 23.3636C71.4843 23.3636 71.1017 23.4564 70.7646 23.642C70.4313 23.8277 70.168 24.0985 69.9748 24.4545C69.7816 24.8106 69.6851 25.2424 69.6851 25.75ZM79.1135 27.8182L79.0908 26.1591H79.3635L83.1817 22.2727H84.8408L80.7726 26.3864H80.659L79.1135 27.8182ZM77.8635 31V19.3636H79.2044V31H77.8635ZM83.409 31L79.9999 26.6818L80.9544 25.75L85.1135 31H83.409Z" fill="#454444"/>
<mask id="path-7-inside-2_9327_38613" fill="white">
<path d="M0 50H237V100H0V50Z"/>
</mask>
<path d="M237 99H0V101H237V99Z" fill="#2C2C2C" mask="url(#path-7-inside-2_9327_38613)"/>
<path d="M17 55.5H220C226.351 55.5 231.5 60.6487 231.5 67V83C231.5 89.3513 226.351 94.5 220 94.5H17C10.6487 94.5 5.5 89.3513 5.5 83V67C5.5 60.6487 10.6487 55.5 17 55.5Z" stroke="#2C2C2C"/>
<path d="M51.75 69H33.75M45.75 75H33.75M47.75 81H33.75" stroke="#4BC1BD" stroke-width="2" stroke-linecap="round" stroke-linejoin="round"/>
<path d="M93 55.5H144.667C151.018 55.5 156.167 60.6487 156.167 67V83C156.167 89.3513 151.018 94.5 144.667 94.5H93C86.6487 94.5 81.5 89.3513 81.5 83V67C81.5 60.6487 86.6487 55.5 93 55.5Z" fill="#4BC1BD"/>
<path d="M93 55.5H144.667C151.018 55.5 156.167 60.6487 156.167 67V83C156.167 89.3513 151.018 94.5 144.667 94.5H93C86.6487 94.5 81.5 89.3513 81.5 83V67C81.5 60.6487 86.6487 55.5 93 55.5Z" stroke="#4BC1BD"/>
<path d="M127.75 69H109.75M123.75 75H113.75M125.75 81H111.75" stroke="black" stroke-width="2" stroke-linecap="round" stroke-linejoin="round"/>
<path d="M202.75 69H184.75M202.75 75H190.75M202.75 81H188.75" stroke="#4BC1BD" stroke-width="2" stroke-linecap="round" stroke-linejoin="round"/>
<mask id="path-17-inside-3_9327_38613" fill="white">
<path d="M0 100H237V150H0V100Z"/>
</mask>
<path d="M237 149H0V151H237V149Z" fill="#2C2C2C" mask="url(#path-17-inside-3_9327_38613)"/>
<path d="M17 105.5H220C226.351 105.5 231.5 110.649 231.5 117V133C231.5 139.351 226.351 144.5 220 144.5H17C10.6487 144.5 5.5 139.351 5.5 133V117C5.5 110.649 10.6487 105.5 17 105.5Z" stroke="#2C2C2C"/>
<path d="M175.733 116V134M168.733 116H182.733C183.838 116 184.733 116.895 184.733 118V132C184.733 133.105 183.838 134 182.733 134H168.733C167.628 134 166.733 133.105 166.733 132V118C166.733 116.895 167.628 116 168.733 116Z" stroke="#4BC1BD" stroke-width="2" stroke-linecap="round" stroke-linejoin="round"/>
<path d="M17 105.5H106.5C112.851 105.5 118 110.649 118 117V133C118 139.351 112.851 144.5 106.5 144.5H17C10.6487 144.5 5.5 139.351 5.5 133V117C5.5 110.649 10.6487 105.5 17 105.5Z" fill="#4BC1BD"/>
<path d="M17 105.5H106.5C112.851 105.5 118 110.649 118 117V133C118 139.351 112.851 144.5 106.5 144.5H17C10.6487 144.5 5.5 139.351 5.5 133V117C5.5 110.649 10.6487 105.5 17 105.5Z" stroke="#4BC1BD"/>
<path d="M68.75 116H54.75C53.6454 116 52.75 116.895 52.75 118V132C52.75 133.105 53.6454 134 54.75 134H68.75C69.8546 134 70.75 133.105 70.75 132V118C70.75 116.895 69.8546 116 68.75 116Z" stroke="black" stroke-width="2" stroke-linecap="round" stroke-linejoin="round"/>
<rect y="200" width="237" height="1" fill="#2C2C2C"/>
<path d="M38 179L32 173L26 179" stroke="#4BC1BD" stroke-width="2" stroke-linecap="round" stroke-linejoin="round"/>
<path d="M55.1477 170.364H57.7273L61.1818 178.795H61.3182L64.7727 170.364H67.3523V182H65.3295V174.006H65.2216L62.0057 181.966H60.4943L57.2784 173.989H57.1705V182H55.1477V170.364ZM73.3636 182.17C72.5114 182.17 71.7727 181.983 71.1477 181.608C70.5227 181.233 70.0379 180.708 69.6932 180.034C69.3523 179.36 69.1818 178.572 69.1818 177.67C69.1818 176.769 69.3523 175.979 69.6932 175.301C70.0379 174.623 70.5227 174.097 71.1477 173.722C71.7727 173.347 72.5114 173.159 73.3636 173.159C74.2159 173.159 74.9545 173.347 75.5795 173.722C76.2045 174.097 76.6875 174.623 77.0284 175.301C77.3731 175.979 77.5455 176.769 77.5455 177.67C77.5455 178.572 77.3731 179.36 77.0284 180.034C76.6875 180.708 76.2045 181.233 75.5795 181.608C74.9545 181.983 74.2159 182.17 73.3636 182.17ZM73.375 180.523C73.8371 180.523 74.2235 180.396 74.5341 180.142C74.8447 179.884 75.0758 179.54 75.2273 179.108C75.3826 178.676 75.4602 178.195 75.4602 177.665C75.4602 177.131 75.3826 176.648 75.2273 176.216C75.0758 175.78 74.8447 175.434 74.5341 175.176C74.2235 174.919 73.8371 174.79 73.375 174.79C72.9015 174.79 72.5076 174.919 72.1932 175.176C71.8826 175.434 71.6496 175.78 71.4943 176.216C71.3428 176.648 71.267 177.131 71.267 177.665C71.267 178.195 71.3428 178.676 71.4943 179.108C71.6496 179.54 71.8826 179.884 72.1932 180.142C72.5076 180.396 72.9015 180.523 73.375 180.523ZM86.7898 173.273L83.6818 182H81.4091L78.3011 173.273H80.4943L82.5 179.756H82.5909L84.6023 173.273H86.7898ZM91.7798 182.17C90.9048 182.17 90.1491 181.989 89.5128 181.625C88.8802 181.258 88.3935 180.739 88.0526 180.068C87.7116 179.394 87.5412 178.6 87.5412 177.688C87.5412 176.79 87.7116 176.002 88.0526 175.324C88.3973 174.642 88.8783 174.112 89.4957 173.733C90.1132 173.35 90.8385 173.159 91.6719 173.159C92.2098 173.159 92.7173 173.246 93.1946 173.42C93.6757 173.591 94.0999 173.856 94.4673 174.216C94.8385 174.576 95.1302 175.034 95.3423 175.591C95.5545 176.144 95.6605 176.803 95.6605 177.568V178.199H88.5071V176.812H93.6889C93.6851 176.419 93.5999 176.068 93.4332 175.761C93.2666 175.451 93.0336 175.206 92.7344 175.028C92.4389 174.85 92.0942 174.761 91.7003 174.761C91.2798 174.761 90.9105 174.864 90.5923 175.068C90.2741 175.269 90.026 175.534 89.848 175.864C89.6738 176.189 89.5848 176.547 89.581 176.938V178.148C89.581 178.655 89.6738 179.091 89.8594 179.455C90.045 179.814 90.3045 180.091 90.6378 180.284C90.9711 180.473 91.3613 180.568 91.8082 180.568C92.1075 180.568 92.3783 180.527 92.6207 180.443C92.8632 180.356 93.0734 180.229 93.2514 180.062C93.4295 179.896 93.5639 179.689 93.6548 179.443L95.5753 179.659C95.4541 180.167 95.223 180.61 94.8821 180.989C94.545 181.364 94.1132 181.655 93.5866 181.864C93.0601 182.068 92.4579 182.17 91.7798 182.17ZM106.932 178.33V173.273H108.989V182H106.994V180.449H106.903C106.706 180.937 106.383 181.337 105.932 181.648C105.485 181.958 104.934 182.114 104.278 182.114C103.706 182.114 103.201 181.987 102.761 181.733C102.326 181.475 101.985 181.102 101.739 180.614C101.492 180.121 101.369 179.527 101.369 178.83V173.273H103.426V178.511C103.426 179.064 103.578 179.504 103.881 179.83C104.184 180.155 104.581 180.318 105.074 180.318C105.377 180.318 105.67 180.244 105.955 180.097C106.239 179.949 106.472 179.729 106.653 179.438C106.839 179.142 106.932 178.773 106.932 178.33ZM111.104 185.273V173.273H113.126V174.716H113.246C113.352 174.504 113.501 174.278 113.695 174.04C113.888 173.797 114.149 173.591 114.479 173.42C114.808 173.246 115.229 173.159 115.74 173.159C116.414 173.159 117.022 173.331 117.564 173.676C118.109 174.017 118.541 174.523 118.859 175.193C119.181 175.86 119.342 176.678 119.342 177.648C119.342 178.606 119.185 179.42 118.871 180.091C118.556 180.761 118.128 181.273 117.587 181.625C117.045 181.977 116.431 182.153 115.746 182.153C115.246 182.153 114.831 182.07 114.501 181.903C114.172 181.737 113.907 181.536 113.706 181.301C113.509 181.062 113.356 180.837 113.246 180.625H113.161V185.273H111.104ZM113.121 177.636C113.121 178.201 113.2 178.695 113.359 179.119C113.522 179.544 113.755 179.875 114.058 180.114C114.365 180.348 114.736 180.466 115.172 180.466C115.626 180.466 116.007 180.345 116.314 180.102C116.621 179.856 116.852 179.521 117.007 179.097C117.166 178.669 117.246 178.182 117.246 177.636C117.246 177.095 117.168 176.614 117.013 176.193C116.857 175.773 116.626 175.443 116.32 175.205C116.013 174.966 115.63 174.847 115.172 174.847C114.732 174.847 114.359 174.962 114.053 175.193C113.746 175.424 113.513 175.748 113.354 176.165C113.198 176.581 113.121 177.072 113.121 177.636Z" fill="#4BC1BD"/>
<rect y="251" width="237" height="1" fill="#2C2C2C"/>
<path d="M26 224L32 230L38 224" stroke="#4BC1BD" stroke-width="2" stroke-linecap="round" stroke-linejoin="round"/>
<path d="M55.1477 221.364H57.7273L61.1818 229.795H61.3182L64.7727 221.364H67.3523V233H65.3295V225.006H65.2216L62.0057 232.966H60.4943L57.2784 224.989H57.1705V233H55.1477V221.364ZM73.3636 233.17C72.5114 233.17 71.7727 232.983 71.1477 232.608C70.5227 232.233 70.0379 231.708 69.6932 231.034C69.3523 230.36 69.1818 229.572 69.1818 228.67C69.1818 227.769 69.3523 226.979 69.6932 226.301C70.0379 225.623 70.5227 225.097 71.1477 224.722C71.7727 224.347 72.5114 224.159 73.3636 224.159C74.2159 224.159 74.9545 224.347 75.5795 224.722C76.2045 225.097 76.6875 225.623 77.0284 226.301C77.3731 226.979 77.5455 227.769 77.5455 228.67C77.5455 229.572 77.3731 230.36 77.0284 231.034C76.6875 231.708 76.2045 232.233 75.5795 232.608C74.9545 232.983 74.2159 233.17 73.3636 233.17ZM73.375 231.523C73.8371 231.523 74.2235 231.396 74.5341 231.142C74.8447 230.884 75.0758 230.54 75.2273 230.108C75.3826 229.676 75.4602 229.195 75.4602 228.665C75.4602 228.131 75.3826 227.648 75.2273 227.216C75.0758 226.78 74.8447 226.434 74.5341 226.176C74.2235 225.919 73.8371 225.79 73.375 225.79C72.9015 225.79 72.5076 225.919 72.1932 226.176C71.8826 226.434 71.6496 226.78 71.4943 227.216C71.3428 227.648 71.267 228.131 71.267 228.665C71.267 229.195 71.3428 229.676 71.4943 230.108C71.6496 230.54 71.8826 230.884 72.1932 231.142C72.5076 231.396 72.9015 231.523 73.375 231.523ZM86.7898 224.273L83.6818 233H81.4091L78.3011 224.273H80.4943L82.5 230.756H82.5909L84.6023 224.273H86.7898ZM91.7798 233.17C90.9048 233.17 90.1491 232.989 89.5128 232.625C88.8802 232.258 88.3935 231.739 88.0526 231.068C87.7116 230.394 87.5412 229.6 87.5412 228.688C87.5412 227.79 87.7116 227.002 88.0526 226.324C88.3973 225.642 88.8783 225.112 89.4957 224.733C90.1132 224.35 90.8385 224.159 91.6719 224.159C92.2098 224.159 92.7173 224.246 93.1946 224.42C93.6757 224.591 94.0999 224.856 94.4673 225.216C94.8385 225.576 95.1302 226.034 95.3423 226.591C95.5545 227.144 95.6605 227.803 95.6605 228.568V229.199H88.5071V227.812H93.6889C93.6851 227.419 93.5999 227.068 93.4332 226.761C93.2666 226.451 93.0336 226.206 92.7344 226.028C92.4389 225.85 92.0942 225.761 91.7003 225.761C91.2798 225.761 90.9105 225.864 90.5923 226.068C90.2741 226.269 90.026 226.534 89.848 226.864C89.6738 227.189 89.5848 227.547 89.581 227.938V229.148C89.581 229.655 89.6738 230.091 89.8594 230.455C90.045 230.814 90.3045 231.091 90.6378 231.284C90.9711 231.473 91.3613 231.568 91.8082 231.568C92.1075 231.568 92.3783 231.527 92.6207 231.443C92.8632 231.356 93.0734 231.229 93.2514 231.062C93.4295 230.896 93.5639 230.689 93.6548 230.443L95.5753 230.659C95.4541 231.167 95.223 231.61 94.8821 231.989C94.545 232.364 94.1132 232.655 93.5866 232.864C93.0601 233.068 92.4579 233.17 91.7798 233.17ZM104.608 233.153C103.922 233.153 103.309 232.977 102.767 232.625C102.225 232.273 101.797 231.761 101.483 231.091C101.169 230.42 101.011 229.606 101.011 228.648C101.011 227.678 101.17 226.86 101.489 226.193C101.811 225.523 102.244 225.017 102.79 224.676C103.335 224.331 103.943 224.159 104.614 224.159C105.125 224.159 105.545 224.246 105.875 224.42C106.205 224.591 106.466 224.797 106.659 225.04C106.852 225.278 107.002 225.504 107.108 225.716H107.193V221.364H109.256V233H107.233V231.625H107.108C107.002 231.837 106.848 232.062 106.648 232.301C106.447 232.536 106.182 232.737 105.852 232.903C105.523 233.07 105.108 233.153 104.608 233.153ZM105.182 231.466C105.617 231.466 105.989 231.348 106.295 231.114C106.602 230.875 106.835 230.544 106.994 230.119C107.153 229.695 107.233 229.201 107.233 228.636C107.233 228.072 107.153 227.581 106.994 227.165C106.839 226.748 106.608 226.424 106.301 226.193C105.998 225.962 105.625 225.847 105.182 225.847C104.723 225.847 104.341 225.966 104.034 226.205C103.727 226.443 103.496 226.773 103.341 227.193C103.186 227.614 103.108 228.095 103.108 228.636C103.108 229.182 103.186 229.669 103.341 230.097C103.5 230.521 103.733 230.856 104.04 231.102C104.35 231.345 104.731 231.466 105.182 231.466ZM115.254 233.17C114.402 233.17 113.663 232.983 113.038 232.608C112.413 232.233 111.929 231.708 111.584 231.034C111.243 230.36 111.072 229.572 111.072 228.67C111.072 227.769 111.243 226.979 111.584 226.301C111.929 225.623 112.413 225.097 113.038 224.722C113.663 224.347 114.402 224.159 115.254 224.159C116.107 224.159 116.845 224.347 117.47 224.722C118.095 225.097 118.578 225.623 118.919 226.301C119.264 226.979 119.436 227.769 119.436 228.67C119.436 229.572 119.264 230.36 118.919 231.034C118.578 231.708 118.095 232.233 117.47 232.608C116.845 232.983 116.107 233.17 115.254 233.17ZM115.266 231.523C115.728 231.523 116.114 231.396 116.425 231.142C116.735 230.884 116.966 230.54 117.118 230.108C117.273 229.676 117.351 229.195 117.351 228.665C117.351 228.131 117.273 227.648 117.118 227.216C116.966 226.78 116.735 226.434 116.425 226.176C116.114 225.919 115.728 225.79 115.266 225.79C114.792 225.79 114.398 225.919 114.084 226.176C113.773 226.434 113.54 226.78 113.385 227.216C113.233 227.648 113.158 228.131 113.158 228.665C113.158 229.195 113.233 229.676 113.385 230.108C113.54 230.54 113.773 230.884 114.084 231.142C114.398 231.396 114.792 231.523 115.266 231.523ZM122.733 233L120.267 224.273H122.364L123.898 230.409H123.977L125.545 224.273H127.619L129.188 230.375H129.273L130.784 224.273H132.886L130.415 233H128.273L126.636 227.102H126.517L124.881 233H122.733ZM136.379 227.886V233H134.322V224.273H136.288V225.756H136.391C136.591 225.267 136.911 224.879 137.351 224.591C137.794 224.303 138.341 224.159 138.993 224.159C139.595 224.159 140.12 224.288 140.567 224.545C141.018 224.803 141.366 225.176 141.612 225.665C141.862 226.153 141.985 226.746 141.982 227.443V233H139.925V227.761C139.925 227.178 139.773 226.722 139.47 226.392C139.171 226.062 138.756 225.898 138.226 225.898C137.866 225.898 137.546 225.977 137.266 226.136C136.989 226.292 136.771 226.517 136.612 226.812C136.457 227.108 136.379 227.466 136.379 227.886Z" fill="#4BC1BD"/>
<path d="M23 272H41M39 272V286C39 287 38 288 37 288H27C26 288 25 287 25 286V272M28 272V270C28 269 29 268 30 268H34C35 268 36 269 36 270V272M30 277V283M34 277V283" stroke="#4BC1BD" stroke-width="2" stroke-linecap="round" stroke-linejoin="round"/>
<path d="M59.0909 284H55.1477V272.364H59.1705C60.3258 272.364 61.3182 272.597 62.1477 273.062C62.9811 273.525 63.6212 274.189 64.0682 275.057C64.5152 275.924 64.7386 276.962 64.7386 278.17C64.7386 279.383 64.5133 280.424 64.0625 281.295C63.6155 282.167 62.9697 282.835 62.125 283.301C61.2841 283.767 60.2727 284 59.0909 284ZM57.2557 282.176H58.9886C59.7992 282.176 60.4754 282.028 61.017 281.733C61.5587 281.434 61.9659 280.989 62.2386 280.398C62.5114 279.803 62.6477 279.061 62.6477 278.17C62.6477 277.28 62.5114 276.542 62.2386 275.955C61.9659 275.364 61.5625 274.922 61.0284 274.631C60.4981 274.335 59.839 274.188 59.0511 274.188H57.2557V282.176ZM70.5142 284.17C69.6392 284.17 68.8835 283.989 68.2472 283.625C67.6146 283.258 67.1278 282.739 66.7869 282.068C66.446 281.394 66.2756 280.6 66.2756 279.688C66.2756 278.79 66.446 278.002 66.7869 277.324C67.1316 276.642 67.6127 276.112 68.2301 275.733C68.8475 275.35 69.5729 275.159 70.4062 275.159C70.9441 275.159 71.4517 275.246 71.929 275.42C72.41 275.591 72.8343 275.856 73.2017 276.216C73.5729 276.576 73.8646 277.034 74.0767 277.591C74.2888 278.144 74.3949 278.803 74.3949 279.568V280.199H67.2415V278.812H72.4233C72.4195 278.419 72.3343 278.068 72.1676 277.761C72.0009 277.451 71.768 277.206 71.4688 277.028C71.1733 276.85 70.8286 276.761 70.4347 276.761C70.0142 276.761 69.6449 276.864 69.3267 277.068C69.0085 277.269 68.7604 277.534 68.5824 277.864C68.4081 278.189 68.3191 278.547 68.3153 278.938V280.148C68.3153 280.655 68.4081 281.091 68.5938 281.455C68.7794 281.814 69.0388 282.091 69.3722 282.284C69.7055 282.473 70.0956 282.568 70.5426 282.568C70.8419 282.568 71.1127 282.527 71.3551 282.443C71.5975 282.356 71.8078 282.229 71.9858 282.062C72.1638 281.896 72.2983 281.689 72.3892 281.443L74.3097 281.659C74.1884 282.167 73.9574 282.61 73.6165 282.989C73.2794 283.364 72.8475 283.655 72.321 283.864C71.7945 284.068 71.1922 284.17 70.5142 284.17ZM78.1918 272.364V284H76.1349V272.364H78.1918ZM84.1705 284.17C83.2955 284.17 82.5398 283.989 81.9034 283.625C81.2708 283.258 80.7841 282.739 80.4432 282.068C80.1023 281.394 79.9318 280.6 79.9318 279.688C79.9318 278.79 80.1023 278.002 80.4432 277.324C80.7879 276.642 81.2689 276.112 81.8864 275.733C82.5038 275.35 83.2292 275.159 84.0625 275.159C84.6004 275.159 85.108 275.246 85.5852 275.42C86.0663 275.591 86.4905 275.856 86.858 276.216C87.2292 276.576 87.5208 277.034 87.733 277.591C87.9451 278.144 88.0511 278.803 88.0511 279.568V280.199H80.8977V278.812H86.0795C86.0758 278.419 85.9905 278.068 85.8239 277.761C85.6572 277.451 85.4242 277.206 85.125 277.028C84.8295 276.85 84.4848 276.761 84.0909 276.761C83.6705 276.761 83.3011 276.864 82.983 277.068C82.6648 277.269 82.4167 277.534 82.2386 277.864C82.0644 278.189 81.9754 278.547 81.9716 278.938V280.148C81.9716 280.655 82.0644 281.091 82.25 281.455C82.4356 281.814 82.6951 282.091 83.0284 282.284C83.3617 282.473 83.7519 282.568 84.1989 282.568C84.4981 282.568 84.7689 282.527 85.0114 282.443C85.2538 282.356 85.464 282.229 85.642 282.062C85.8201 281.896 85.9545 281.689 86.0455 281.443L87.9659 281.659C87.8447 282.167 87.6136 282.61 87.2727 282.989C86.9356 283.364 86.5038 283.655 85.9773 283.864C85.4508 284.068 84.8485 284.17 84.1705 284.17ZM94.1491 275.273V276.864H89.1321V275.273H94.1491ZM90.3707 273.182H92.4276V281.375C92.4276 281.652 92.4692 281.864 92.5526 282.011C92.6397 282.155 92.7533 282.254 92.8935 282.307C93.0336 282.36 93.1889 282.386 93.3594 282.386C93.4882 282.386 93.6056 282.377 93.7116 282.358C93.8215 282.339 93.9048 282.322 93.9616 282.307L94.3082 283.915C94.1984 283.953 94.0412 283.994 93.8366 284.04C93.6359 284.085 93.3897 284.112 93.098 284.119C92.5829 284.134 92.1188 284.057 91.706 283.886C91.2931 283.712 90.9654 283.443 90.723 283.08C90.4844 282.716 90.367 282.261 90.3707 281.716V273.182ZM99.6392 284.17C98.7642 284.17 98.0085 283.989 97.3722 283.625C96.7396 283.258 96.2528 282.739 95.9119 282.068C95.571 281.394 95.4006 280.6 95.4006 279.688C95.4006 278.79 95.571 278.002 95.9119 277.324C96.2566 276.642 96.7377 276.112 97.3551 275.733C97.9725 275.35 98.6979 275.159 99.5312 275.159C100.069 275.159 100.577 275.246 101.054 275.42C101.535 275.591 101.959 275.856 102.327 276.216C102.698 276.576 102.99 277.034 103.202 277.591C103.414 278.144 103.52 278.803 103.52 279.568V280.199H96.3665V278.812H101.548C101.545 278.419 101.459 278.068 101.293 277.761C101.126 277.451 100.893 277.206 100.594 277.028C100.298 276.85 99.9536 276.761 99.5597 276.761C99.1392 276.761 98.7699 276.864 98.4517 277.068C98.1335 277.269 97.8854 277.534 97.7074 277.864C97.5331 278.189 97.4441 278.547 97.4403 278.938V280.148C97.4403 280.655 97.5331 281.091 97.7188 281.455C97.9044 281.814 98.1638 282.091 98.4972 282.284C98.8305 282.473 99.2206 282.568 99.6676 282.568C99.9669 282.568 100.238 282.527 100.48 282.443C100.723 282.356 100.933 282.229 101.111 282.062C101.289 281.896 101.423 281.689 101.514 281.443L103.435 281.659C103.313 282.167 103.082 282.61 102.741 282.989C102.404 283.364 101.973 283.655 101.446 283.864C100.92 284.068 100.317 284.17 99.6392 284.17Z" fill="#4BC1BD"/>
</svg>
