<svg width="580" height="544" viewBox="0 0 580 544" fill="none" xmlns="http://www.w3.org/2000/svg">
<path d="M12 0.5H568C574.351 0.5 579.5 5.64873 579.5 12V532C579.5 538.351 574.351 543.5 568 543.5H12C5.64873 543.5 0.5 538.351 0.5 532V12C0.5 5.64874 5.64873 0.5 12 0.5Z" fill="black"/>
<path d="M12 0.5H568C574.351 0.5 579.5 5.64873 579.5 12V532C579.5 538.351 574.351 543.5 568 543.5H12C5.64873 543.5 0.5 538.351 0.5 532V12C0.5 5.64874 5.64873 0.5 12 0.5Z" stroke="#2C2C2C"/>
<path d="M507 32L504 35M504 35L507 38M504 35H524M511 28L514 25M514 25L517 28M514 25V45M517 42L514 45M514 45L511 42M521 32L524 35M524 35L521 38" stroke="#4BC1BD" stroke-width="2" stroke-linecap="round" stroke-linejoin="round"/>
<path d="M548 36C548.552 36 549 35.5523 549 35C549 34.4477 548.552 34 548 34C547.448 34 547 34.4477 547 35C547 35.5523 547.448 36 548 36Z" stroke="#4BC1BD" stroke-width="2" stroke-linecap="round" stroke-linejoin="round"/>
<path d="M548 29C548.552 29 549 28.5523 549 28C549 27.4477 548.552 27 548 27C547.448 27 547 27.4477 547 28C547 28.5523 547.448 29 548 29Z" stroke="#4BC1BD" stroke-width="2" stroke-linecap="round" stroke-linejoin="round"/>
<path d="M548 43C548.552 43 549 42.5523 549 42C549 41.4477 548.552 41 548 41C547.448 41 547 41.4477 547 42C547 42.5523 547.448 43 548 43Z" stroke="#4BC1BD" stroke-width="2" stroke-linecap="round" stroke-linejoin="round"/>
<path d="M67.542 41.252C66.546 41.252 65.622 41.096 64.77 40.784C63.93 40.46 63.198 40.004 62.574 39.416C61.962 38.828 61.482 38.138 61.134 37.346C60.786 36.542 60.612 35.66 60.612 34.7C60.612 33.74 60.786 32.864 61.134 32.072C61.482 31.268 61.962 30.572 62.574 29.984C63.198 29.396 63.93 28.946 64.77 28.634C65.622 28.31 66.546 28.148 67.542 28.148C68.706 28.148 69.744 28.352 70.656 28.76C71.58 29.168 72.348 29.756 72.96 30.524L70.692 32.576C70.284 32.096 69.834 31.73 69.342 31.478C68.862 31.226 68.322 31.1 67.722 31.1C67.206 31.1 66.732 31.184 66.3 31.352C65.868 31.52 65.496 31.766 65.184 32.09C64.884 32.402 64.644 32.78 64.464 33.224C64.296 33.668 64.212 34.16 64.212 34.7C64.212 35.24 64.296 35.732 64.464 36.176C64.644 36.62 64.884 37.004 65.184 37.328C65.496 37.64 65.868 37.88 66.3 38.048C66.732 38.216 67.206 38.3 67.722 38.3C68.322 38.3 68.862 38.174 69.342 37.922C69.834 37.67 70.284 37.304 70.692 36.824L72.96 38.876C72.348 39.632 71.58 40.22 70.656 40.64C69.744 41.048 68.706 41.252 67.542 41.252ZM78.9842 41.162C77.9162 41.162 76.9682 40.946 76.1402 40.514C75.3122 40.082 74.6582 39.488 74.1782 38.732C73.7102 37.964 73.4762 37.088 73.4762 36.104C73.4762 35.12 73.7102 34.25 74.1782 33.494C74.6582 32.738 75.3122 32.15 76.1402 31.73C76.9682 31.298 77.9162 31.082 78.9842 31.082C80.0522 31.082 81.0002 31.298 81.8282 31.73C82.6682 32.15 83.3222 32.738 83.7902 33.494C84.2582 34.25 84.4922 35.12 84.4922 36.104C84.4922 37.088 84.2582 37.964 83.7902 38.732C83.3222 39.488 82.6682 40.082 81.8282 40.514C81.0002 40.946 80.0522 41.162 78.9842 41.162ZM78.9842 38.444C79.3802 38.444 79.7282 38.354 80.0282 38.174C80.3402 37.994 80.5862 37.73 80.7662 37.382C80.9462 37.022 81.0362 36.596 81.0362 36.104C81.0362 35.612 80.9462 35.198 80.7662 34.862C80.5862 34.514 80.3402 34.25 80.0282 34.07C79.7282 33.89 79.3802 33.8 78.9842 33.8C78.6002 33.8 78.2522 33.89 77.9402 34.07C77.6402 34.25 77.3942 34.514 77.2022 34.862C77.0222 35.198 76.9322 35.612 76.9322 36.104C76.9322 36.596 77.0222 37.022 77.2022 37.382C77.3942 37.73 77.6402 37.994 77.9402 38.174C78.2522 38.354 78.6002 38.444 78.9842 38.444ZM92.4305 31.082C93.1865 31.082 93.8705 31.238 94.4825 31.55C95.0945 31.85 95.5745 32.318 95.9225 32.954C96.2825 33.59 96.4625 34.412 96.4625 35.42V41H93.0425V35.978C93.0425 35.282 92.8985 34.778 92.6105 34.466C92.3345 34.142 91.9445 33.98 91.4405 33.98C91.0805 33.98 90.7505 34.064 90.4505 34.232C90.1505 34.388 89.9165 34.634 89.7485 34.97C89.5805 35.306 89.4965 35.744 89.4965 36.284V41H86.0765V31.244H89.3345V34.016L88.7045 33.206C89.0765 32.498 89.5865 31.97 90.2345 31.622C90.8825 31.262 91.6145 31.082 92.4305 31.082ZM102.966 41.162C101.718 41.162 100.746 40.856 100.05 40.244C99.3537 39.62 99.0057 38.684 99.0057 37.436V29.066H102.426V37.4C102.426 37.748 102.522 38.024 102.714 38.228C102.906 38.42 103.152 38.516 103.452 38.516C103.86 38.516 104.208 38.414 104.496 38.21L105.342 40.604C105.054 40.796 104.7 40.934 104.28 41.018C103.86 41.114 103.422 41.162 102.966 41.162ZM97.5837 34.16V31.604H104.658V34.16H97.5837ZM112.619 41V39.182L112.385 38.732V35.384C112.385 34.844 112.217 34.43 111.881 34.142C111.557 33.842 111.035 33.692 110.314 33.692C109.847 33.692 109.373 33.77 108.893 33.926C108.413 34.07 108.005 34.274 107.669 34.538L106.517 32.216C107.069 31.856 107.729 31.58 108.497 31.388C109.277 31.184 110.051 31.082 110.819 31.082C112.403 31.082 113.627 31.448 114.491 32.18C115.367 32.9 115.805 34.034 115.805 35.582V41H112.619ZM109.739 41.162C108.959 41.162 108.299 41.03 107.759 40.766C107.219 40.502 106.805 40.142 106.517 39.686C106.241 39.23 106.103 38.72 106.103 38.156C106.103 37.556 106.253 37.04 106.553 36.608C106.865 36.164 107.339 35.828 107.975 35.6C108.611 35.36 109.433 35.24 110.441 35.24H112.745V37.022H110.909C110.357 37.022 109.967 37.112 109.739 37.292C109.523 37.472 109.415 37.712 109.415 38.012C109.415 38.312 109.529 38.552 109.757 38.732C109.985 38.912 110.297 39.002 110.693 39.002C111.065 39.002 111.401 38.912 111.701 38.732C112.013 38.54 112.241 38.252 112.385 37.868L112.853 39.128C112.673 39.8 112.319 40.31 111.791 40.658C111.275 40.994 110.591 41.162 109.739 41.162ZM123.072 41.162C121.992 41.162 121.026 40.946 120.174 40.514C119.334 40.082 118.674 39.488 118.194 38.732C117.714 37.964 117.474 37.088 117.474 36.104C117.474 35.12 117.714 34.25 118.194 33.494C118.674 32.738 119.334 32.15 120.174 31.73C121.026 31.298 121.992 31.082 123.072 31.082C124.176 31.082 125.13 31.316 125.934 31.784C126.738 32.252 127.308 32.912 127.644 33.764L124.998 35.114C124.77 34.658 124.488 34.328 124.152 34.124C123.816 33.908 123.45 33.8 123.054 33.8C122.658 33.8 122.298 33.89 121.974 34.07C121.65 34.25 121.392 34.514 121.2 34.862C121.02 35.198 120.93 35.612 120.93 36.104C120.93 36.608 121.02 37.034 121.2 37.382C121.392 37.73 121.65 37.994 121.974 38.174C122.298 38.354 122.658 38.444 123.054 38.444C123.45 38.444 123.816 38.342 124.152 38.138C124.488 37.922 124.77 37.586 124.998 37.13L127.644 38.48C127.308 39.332 126.738 39.992 125.934 40.46C125.13 40.928 124.176 41.162 123.072 41.162ZM133.446 41.162C132.198 41.162 131.226 40.856 130.53 40.244C129.834 39.62 129.486 38.684 129.486 37.436V29.066H132.906V37.4C132.906 37.748 133.002 38.024 133.194 38.228C133.386 38.42 133.632 38.516 133.932 38.516C134.34 38.516 134.688 38.414 134.976 38.21L135.822 40.604C135.534 40.796 135.18 40.934 134.76 41.018C134.34 41.114 133.902 41.162 133.446 41.162ZM128.064 34.16V31.604H135.138V34.16H128.064ZM142.541 41V28.4H148.301C149.453 28.4 150.443 28.586 151.271 28.958C152.111 29.33 152.759 29.87 153.215 30.578C153.671 31.274 153.899 32.102 153.899 33.062C153.899 34.01 153.671 34.832 153.215 35.528C152.759 36.224 152.111 36.764 151.271 37.148C150.443 37.52 149.453 37.706 148.301 37.706H144.521L146.105 36.158V41H142.541ZM146.105 36.536L144.521 34.898H148.085C148.829 34.898 149.381 34.736 149.741 34.412C150.113 34.088 150.299 33.638 150.299 33.062C150.299 32.474 150.113 32.018 149.741 31.694C149.381 31.37 148.829 31.208 148.085 31.208H144.521L146.105 29.57V36.536ZM160.569 41.162C159.417 41.162 158.409 40.946 157.545 40.514C156.693 40.07 156.027 39.47 155.547 38.714C155.079 37.946 154.845 37.076 154.845 36.104C154.845 35.132 155.073 34.268 155.529 33.512C155.997 32.744 156.639 32.15 157.455 31.73C158.271 31.298 159.189 31.082 160.209 31.082C161.169 31.082 162.045 31.28 162.837 31.676C163.629 32.06 164.259 32.63 164.727 33.386C165.195 34.142 165.429 35.06 165.429 36.14C165.429 36.26 165.423 36.398 165.411 36.554C165.399 36.71 165.387 36.854 165.375 36.986H157.653V35.186H163.557L162.261 35.69C162.273 35.246 162.189 34.862 162.009 34.538C161.841 34.214 161.601 33.962 161.289 33.782C160.989 33.602 160.635 33.512 160.227 33.512C159.819 33.512 159.459 33.602 159.147 33.782C158.847 33.962 158.613 34.22 158.445 34.556C158.277 34.88 158.193 35.264 158.193 35.708V36.23C158.193 36.71 158.289 37.124 158.481 37.472C158.685 37.82 158.973 38.09 159.345 38.282C159.717 38.462 160.161 38.552 160.677 38.552C161.157 38.552 161.565 38.486 161.901 38.354C162.249 38.21 162.591 37.994 162.927 37.706L164.727 39.578C164.259 40.094 163.683 40.49 162.999 40.766C162.315 41.03 161.505 41.162 160.569 41.162ZM167.006 41V31.244H170.264V34.088L169.778 33.278C170.066 32.546 170.534 32 171.182 31.64C171.83 31.268 172.616 31.082 173.54 31.082V34.16C173.384 34.136 173.246 34.124 173.126 34.124C173.018 34.112 172.898 34.106 172.766 34.106C172.07 34.106 171.506 34.298 171.074 34.682C170.642 35.054 170.426 35.666 170.426 36.518V41H167.006ZM178.533 41.162C177.705 41.162 176.895 41.066 176.103 40.874C175.323 40.682 174.693 40.442 174.213 40.154L175.239 37.814C175.695 38.09 176.229 38.312 176.841 38.48C177.453 38.636 178.053 38.714 178.641 38.714C179.217 38.714 179.613 38.654 179.829 38.534C180.057 38.414 180.171 38.252 180.171 38.048C180.171 37.856 180.063 37.718 179.847 37.634C179.643 37.538 179.367 37.466 179.019 37.418C178.683 37.37 178.311 37.316 177.903 37.256C177.495 37.196 177.081 37.118 176.661 37.022C176.253 36.914 175.875 36.758 175.527 36.554C175.191 36.338 174.921 36.05 174.717 35.69C174.513 35.33 174.411 34.874 174.411 34.322C174.411 33.698 174.591 33.146 174.951 32.666C175.323 32.174 175.863 31.79 176.571 31.514C177.279 31.226 178.143 31.082 179.163 31.082C179.847 31.082 180.537 31.154 181.233 31.298C181.941 31.43 182.535 31.634 183.015 31.91L181.989 34.232C181.509 33.956 181.029 33.77 180.549 33.674C180.069 33.566 179.613 33.512 179.181 33.512C178.605 33.512 178.197 33.578 177.957 33.71C177.729 33.842 177.615 34.004 177.615 34.196C177.615 34.388 177.717 34.538 177.921 34.646C178.125 34.742 178.395 34.82 178.731 34.88C179.079 34.928 179.457 34.982 179.865 35.042C180.273 35.09 180.681 35.168 181.089 35.276C181.509 35.384 181.887 35.546 182.223 35.762C182.571 35.966 182.847 36.248 183.051 36.608C183.255 36.956 183.357 37.406 183.357 37.958C183.357 38.558 183.171 39.098 182.799 39.578C182.439 40.058 181.899 40.442 181.179 40.73C180.471 41.018 179.589 41.162 178.533 41.162ZM189.726 41.162C188.658 41.162 187.71 40.946 186.882 40.514C186.054 40.082 185.4 39.488 184.92 38.732C184.452 37.964 184.218 37.088 184.218 36.104C184.218 35.12 184.452 34.25 184.92 33.494C185.4 32.738 186.054 32.15 186.882 31.73C187.71 31.298 188.658 31.082 189.726 31.082C190.794 31.082 191.742 31.298 192.57 31.73C193.41 32.15 194.064 32.738 194.532 33.494C195 34.25 195.234 35.12 195.234 36.104C195.234 37.088 195 37.964 194.532 38.732C194.064 39.488 193.41 40.082 192.57 40.514C191.742 40.946 190.794 41.162 189.726 41.162ZM189.726 38.444C190.122 38.444 190.47 38.354 190.77 38.174C191.082 37.994 191.328 37.73 191.508 37.382C191.688 37.022 191.778 36.596 191.778 36.104C191.778 35.612 191.688 35.198 191.508 34.862C191.328 34.514 191.082 34.25 190.77 34.07C190.47 33.89 190.122 33.8 189.726 33.8C189.342 33.8 188.994 33.89 188.682 34.07C188.382 34.25 188.136 34.514 187.944 34.862C187.764 35.198 187.674 35.612 187.674 36.104C187.674 36.596 187.764 37.022 187.944 37.382C188.136 37.73 188.382 37.994 188.682 38.174C188.994 38.354 189.342 38.444 189.726 38.444ZM203.173 31.082C203.929 31.082 204.613 31.238 205.225 31.55C205.837 31.85 206.317 32.318 206.665 32.954C207.025 33.59 207.205 34.412 207.205 35.42V41H203.785V35.978C203.785 35.282 203.641 34.778 203.353 34.466C203.077 34.142 202.687 33.98 202.183 33.98C201.823 33.98 201.493 34.064 201.193 34.232C200.893 34.388 200.659 34.634 200.491 34.97C200.323 35.306 200.239 35.744 200.239 36.284V41H196.819V31.244H200.077V34.016L199.447 33.206C199.819 32.498 200.329 31.97 200.977 31.622C201.625 31.262 202.357 31.082 203.173 31.082Z" fill="white"/>
<path d="M36 25V27M37.915 45C37.915 43.4087 37.2829 41.8826 36.1576 40.7574C35.0324 39.6321 33.5063 39 31.915 39C30.3237 39 28.7976 39.6321 27.6724 40.7574C26.5471 41.8826 25.915 43.4087 25.915 45M28 25V27M36 35C36 37.2091 34.2091 39 32 39C29.7909 39 28 37.2091 28 35C28 32.7909 29.7909 31 32 31C34.2091 31 36 32.7909 36 35ZM25 27H39C40.1046 27 41 27.8954 41 29V43C41 44.1046 40.1046 45 39 45H25C23.8954 45 23 44.1046 23 43V29C23 27.8954 23.8954 27 25 27Z" stroke="#4BC1BD" stroke-width="2" stroke-linecap="round" stroke-linejoin="round"/>
<mask id="path-6-inside-1_9327_48988" fill="white">
<path d="M20 69H560V524H20V69Z"/>
</mask>
<path d="M20 70H560V68H20V70Z" fill="#2C2C2C" mask="url(#path-6-inside-1_9327_48988)"/>
<path d="M32 434.5H548C554.351 434.5 559.5 439.649 559.5 446V512C559.5 518.351 554.351 523.5 548 523.5H32C25.6487 523.5 20.5 518.351 20.5 512V446C20.5 439.649 25.6487 434.5 32 434.5Z" fill="black"/>
<path d="M32 434.5H548C554.351 434.5 559.5 439.649 559.5 446V512C559.5 518.351 554.351 523.5 548 523.5H32C25.6487 523.5 20.5 518.351 20.5 512V446C20.5 439.649 25.6487 434.5 32 434.5Z" stroke="#2C2C2C"/>
<rect x="68" y="455" width="194" height="48" rx="24" stroke="#4BC1BD" stroke-width="2"/>
<path d="M120.5 483.92V486.92C120.501 487.199 120.444 487.474 120.332 487.729C120.221 487.985 120.057 488.214 119.852 488.402C119.647 488.59 119.405 488.734 119.141 488.823C118.877 488.912 118.597 488.945 118.32 488.92C115.243 488.586 112.287 487.534 109.69 485.85C107.274 484.315 105.225 482.266 103.69 479.85C102 477.241 100.948 474.271 100.62 471.18C100.595 470.904 100.628 470.625 100.716 470.362C100.805 470.099 100.948 469.857 101.135 469.652C101.322 469.447 101.55 469.283 101.804 469.171C102.058 469.058 102.332 469 102.61 469H105.61C106.095 468.995 106.566 469.167 106.934 469.484C107.302 469.8 107.542 470.24 107.61 470.72C107.737 471.68 107.971 472.623 108.31 473.53C108.444 473.888 108.474 474.277 108.394 474.651C108.314 475.025 108.129 475.368 107.86 475.64L106.59 476.91C108.013 479.414 110.086 481.487 112.59 482.91L113.86 481.64C114.132 481.371 114.475 481.186 114.849 481.106C115.223 481.026 115.612 481.056 115.97 481.19C116.877 481.529 117.82 481.763 118.78 481.89C119.266 481.959 119.709 482.203 120.026 482.578C120.344 482.952 120.512 483.43 120.5 483.92Z" stroke="#4BC1BD" stroke-width="2" stroke-linecap="round" stroke-linejoin="round"/>
<path d="M137.938 485.222C137.003 485.222 136.2 484.985 135.529 484.511C134.863 484.034 134.349 483.347 133.989 482.449C133.633 481.547 133.455 480.462 133.455 479.193C133.459 477.924 133.639 476.845 133.995 475.955C134.355 475.061 134.868 474.379 135.535 473.909C136.205 473.439 137.007 473.205 137.938 473.205C138.87 473.205 139.671 473.439 140.342 473.909C141.012 474.379 141.525 475.061 141.882 475.955C142.241 476.848 142.421 477.928 142.421 479.193C142.421 480.466 142.241 481.553 141.882 482.455C141.525 483.352 141.012 484.038 140.342 484.511C139.675 484.985 138.874 485.222 137.938 485.222ZM137.938 483.443C138.666 483.443 139.239 483.085 139.66 482.369C140.084 481.65 140.296 480.591 140.296 479.193C140.296 478.269 140.2 477.492 140.007 476.864C139.813 476.235 139.541 475.761 139.188 475.443C138.836 475.121 138.419 474.96 137.938 474.96C137.215 474.96 136.643 475.32 136.222 476.04C135.802 476.756 135.59 477.807 135.586 479.193C135.582 480.121 135.675 480.902 135.864 481.534C136.058 482.167 136.33 482.644 136.683 482.966C137.035 483.284 137.454 483.443 137.938 483.443ZM149.202 473.364V485H147.094V475.415H147.026L144.304 477.153V475.222L147.196 473.364H149.202ZM156.445 485V483.477L160.485 479.517C160.871 479.127 161.193 478.78 161.451 478.477C161.709 478.174 161.902 477.881 162.031 477.597C162.159 477.312 162.224 477.009 162.224 476.688C162.224 476.32 162.14 476.006 161.974 475.744C161.807 475.479 161.578 475.275 161.286 475.131C160.995 474.987 160.663 474.915 160.292 474.915C159.909 474.915 159.574 474.994 159.286 475.153C158.998 475.309 158.775 475.53 158.616 475.818C158.46 476.106 158.383 476.449 158.383 476.847H156.377C156.377 476.108 156.546 475.466 156.883 474.92C157.22 474.375 157.684 473.953 158.275 473.653C158.87 473.354 159.551 473.205 160.32 473.205C161.101 473.205 161.786 473.35 162.377 473.642C162.968 473.934 163.426 474.333 163.752 474.841C164.082 475.348 164.246 475.928 164.246 476.58C164.246 477.015 164.163 477.443 163.996 477.864C163.83 478.284 163.536 478.75 163.116 479.261C162.699 479.773 162.114 480.392 161.36 481.119L159.354 483.159V483.239H164.423V485H156.445ZM170.719 485.159C169.901 485.159 169.174 485.019 168.537 484.739C167.905 484.458 167.405 484.068 167.037 483.568C166.67 483.068 166.475 482.491 166.452 481.835H168.588C168.607 482.15 168.711 482.424 168.901 482.659C169.09 482.89 169.342 483.07 169.656 483.199C169.971 483.328 170.323 483.392 170.713 483.392C171.13 483.392 171.499 483.32 171.821 483.176C172.143 483.028 172.395 482.824 172.577 482.562C172.759 482.301 172.848 482 172.844 481.659C172.848 481.307 172.757 480.996 172.571 480.727C172.386 480.458 172.117 480.248 171.764 480.097C171.416 479.945 170.995 479.869 170.503 479.869H169.475V478.244H170.503C170.908 478.244 171.263 478.174 171.566 478.034C171.872 477.894 172.113 477.697 172.287 477.443C172.461 477.186 172.547 476.888 172.543 476.551C172.547 476.222 172.473 475.936 172.321 475.693C172.174 475.447 171.963 475.256 171.691 475.119C171.422 474.983 171.105 474.915 170.742 474.915C170.386 474.915 170.056 474.979 169.753 475.108C169.45 475.237 169.206 475.42 169.02 475.659C168.835 475.894 168.736 476.174 168.725 476.5H166.696C166.711 475.848 166.899 475.277 167.259 474.784C167.622 474.288 168.107 473.902 168.713 473.625C169.319 473.345 169.999 473.205 170.753 473.205C171.53 473.205 172.204 473.35 172.776 473.642C173.352 473.93 173.797 474.318 174.111 474.807C174.425 475.295 174.583 475.835 174.583 476.426C174.586 477.081 174.393 477.631 174.003 478.074C173.617 478.517 173.109 478.807 172.48 478.943V479.034C173.299 479.148 173.925 479.451 174.361 479.943C174.8 480.432 175.018 481.04 175.014 481.767C175.014 482.419 174.829 483.002 174.458 483.517C174.09 484.028 173.583 484.43 172.935 484.722C172.291 485.013 171.552 485.159 170.719 485.159ZM176.914 482.841V481.165L181.852 473.364H183.25V475.75H182.397L179.074 481.017V481.108H185.966V482.841H176.914ZM182.466 485V482.33L182.488 481.58V473.364H184.477V485H182.466ZM196.115 485.159C195.358 485.159 194.68 485.017 194.081 484.733C193.483 484.445 193.007 484.051 192.655 483.551C192.306 483.051 192.121 482.479 192.098 481.835H194.144C194.181 482.312 194.388 482.703 194.763 483.006C195.138 483.305 195.589 483.455 196.115 483.455C196.528 483.455 196.895 483.36 197.217 483.17C197.539 482.981 197.793 482.718 197.979 482.381C198.164 482.044 198.255 481.659 198.252 481.227C198.255 480.788 198.163 480.398 197.973 480.057C197.784 479.716 197.524 479.449 197.195 479.256C196.865 479.059 196.486 478.96 196.058 478.96C195.71 478.956 195.367 479.021 195.03 479.153C194.693 479.286 194.426 479.46 194.229 479.676L192.325 479.364L192.933 473.364H199.683V475.125H194.678L194.342 478.21H194.411C194.627 477.956 194.931 477.746 195.325 477.58C195.719 477.409 196.151 477.324 196.621 477.324C197.325 477.324 197.954 477.491 198.507 477.824C199.06 478.153 199.496 478.608 199.814 479.188C200.132 479.767 200.291 480.43 200.291 481.176C200.291 481.945 200.113 482.631 199.757 483.233C199.405 483.831 198.914 484.303 198.286 484.648C197.661 484.989 196.937 485.159 196.115 485.159ZM206.616 485.159C206.059 485.155 205.516 485.059 204.985 484.869C204.455 484.676 203.978 484.364 203.554 483.932C203.129 483.496 202.792 482.919 202.542 482.199C202.292 481.475 202.169 480.58 202.173 479.511C202.173 478.515 202.279 477.627 202.491 476.847C202.703 476.066 203.008 475.407 203.406 474.869C203.804 474.328 204.283 473.915 204.843 473.631C205.408 473.347 206.038 473.205 206.735 473.205C207.466 473.205 208.114 473.348 208.679 473.636C209.247 473.924 209.705 474.318 210.054 474.818C210.402 475.314 210.618 475.875 210.701 476.5H208.627C208.521 476.053 208.304 475.697 207.974 475.432C207.648 475.163 207.235 475.028 206.735 475.028C205.929 475.028 205.307 475.379 204.872 476.08C204.44 476.78 204.222 477.742 204.218 478.966H204.298C204.484 478.633 204.724 478.347 205.019 478.108C205.315 477.869 205.648 477.686 206.019 477.557C206.394 477.424 206.79 477.358 207.207 477.358C207.889 477.358 208.501 477.521 209.042 477.847C209.588 478.172 210.019 478.621 210.338 479.193C210.656 479.761 210.813 480.413 210.809 481.148C210.813 481.913 210.639 482.6 210.287 483.21C209.934 483.816 209.444 484.294 208.815 484.642C208.186 484.991 207.453 485.163 206.616 485.159ZM206.605 483.455C207.018 483.455 207.387 483.354 207.713 483.153C208.038 482.953 208.296 482.682 208.485 482.341C208.675 482 208.768 481.617 208.764 481.193C208.768 480.777 208.677 480.4 208.491 480.062C208.309 479.725 208.057 479.458 207.735 479.261C207.413 479.064 207.046 478.966 206.633 478.966C206.326 478.966 206.04 479.025 205.775 479.142C205.51 479.259 205.279 479.422 205.082 479.631C204.885 479.835 204.73 480.074 204.616 480.347C204.506 480.616 204.449 480.903 204.446 481.21C204.449 481.616 204.544 481.989 204.73 482.33C204.915 482.67 205.171 482.943 205.497 483.148C205.823 483.352 206.192 483.455 206.605 483.455ZM213.316 485L218.265 475.205V475.125H212.52V473.364H220.447V475.165L215.503 485H213.316ZM226.342 485.159C225.498 485.159 224.748 485.017 224.092 484.733C223.441 484.449 222.929 484.061 222.558 483.568C222.191 483.072 222.009 482.509 222.013 481.881C222.009 481.392 222.115 480.943 222.331 480.534C222.547 480.125 222.839 479.784 223.206 479.511C223.577 479.235 223.99 479.059 224.445 478.983V478.903C223.846 478.771 223.361 478.466 222.99 477.989C222.623 477.508 222.441 476.953 222.445 476.324C222.441 475.725 222.607 475.191 222.945 474.722C223.282 474.252 223.744 473.883 224.331 473.614C224.918 473.341 225.589 473.205 226.342 473.205C227.089 473.205 227.753 473.341 228.337 473.614C228.924 473.883 229.386 474.252 229.723 474.722C230.064 475.191 230.234 475.725 230.234 476.324C230.234 476.953 230.047 477.508 229.672 477.989C229.301 478.466 228.821 478.771 228.234 478.903V478.983C228.689 479.059 229.098 479.235 229.462 479.511C229.829 479.784 230.121 480.125 230.337 480.534C230.556 480.943 230.666 481.392 230.666 481.881C230.666 482.509 230.481 483.072 230.109 483.568C229.738 484.061 229.227 484.449 228.575 484.733C227.928 485.017 227.183 485.159 226.342 485.159ZM226.342 483.534C226.778 483.534 227.157 483.46 227.479 483.312C227.801 483.161 228.051 482.949 228.229 482.676C228.407 482.403 228.498 482.089 228.501 481.733C228.498 481.362 228.401 481.034 228.212 480.75C228.026 480.462 227.77 480.237 227.445 480.074C227.123 479.911 226.755 479.83 226.342 479.83C225.926 479.83 225.554 479.911 225.229 480.074C224.903 480.237 224.645 480.462 224.456 480.75C224.27 481.034 224.179 481.362 224.183 481.733C224.179 482.089 224.267 482.403 224.445 482.676C224.623 482.945 224.873 483.155 225.195 483.307C225.52 483.458 225.903 483.534 226.342 483.534ZM226.342 478.233C226.698 478.233 227.013 478.161 227.286 478.017C227.562 477.873 227.78 477.672 227.939 477.415C228.098 477.157 228.179 476.86 228.183 476.523C228.179 476.189 228.1 475.898 227.945 475.648C227.789 475.394 227.573 475.199 227.297 475.062C227.02 474.922 226.702 474.852 226.342 474.852C225.975 474.852 225.651 474.922 225.371 475.062C225.094 475.199 224.878 475.394 224.723 475.648C224.571 475.898 224.498 476.189 224.501 476.523C224.498 476.86 224.573 477.157 224.729 477.415C224.888 477.669 225.106 477.869 225.382 478.017C225.662 478.161 225.982 478.233 226.342 478.233Z" fill="#4BC1BD"/>
<rect x="284" y="455" width="228" height="48" rx="24" stroke="#4BC1BD" stroke-width="2"/>
<path d="M332.5 474L323.53 479.7C323.221 479.893 322.864 479.996 322.5 479.996C322.136 479.996 321.779 479.893 321.47 479.7L312.5 474M314.5 471H330.5C331.605 471 332.5 471.895 332.5 473V485C332.5 486.105 331.605 487 330.5 487H314.5C313.395 487 312.5 486.105 312.5 485V473C312.5 471.895 313.395 471 314.5 471Z" stroke="#4BC1BD" stroke-width="2" stroke-linecap="round" stroke-linejoin="round"/>
<path d="M348.424 479.886V485H346.367V476.273H348.333V477.756H348.436C348.636 477.267 348.956 476.879 349.396 476.591C349.839 476.303 350.386 476.159 351.038 476.159C351.64 476.159 352.165 476.288 352.612 476.545C353.063 476.803 353.411 477.176 353.657 477.665C353.907 478.153 354.03 478.746 354.027 479.443V485H351.97V479.761C351.97 479.178 351.818 478.722 351.515 478.392C351.216 478.062 350.801 477.898 350.271 477.898C349.911 477.898 349.591 477.977 349.311 478.136C349.034 478.292 348.816 478.517 348.657 478.812C348.502 479.108 348.424 479.466 348.424 479.886ZM358.789 485.176C358.236 485.176 357.738 485.078 357.294 484.881C356.855 484.68 356.507 484.384 356.249 483.994C355.995 483.604 355.868 483.123 355.868 482.551C355.868 482.059 355.959 481.652 356.141 481.33C356.323 481.008 356.571 480.75 356.885 480.557C357.2 480.364 357.554 480.218 357.948 480.119C358.346 480.017 358.757 479.943 359.181 479.898C359.692 479.845 360.107 479.797 360.425 479.756C360.743 479.71 360.974 479.642 361.118 479.551C361.266 479.456 361.34 479.311 361.34 479.114V479.08C361.34 478.652 361.213 478.32 360.959 478.085C360.705 477.85 360.34 477.733 359.863 477.733C359.359 477.733 358.959 477.843 358.664 478.062C358.372 478.282 358.175 478.542 358.073 478.841L356.152 478.568C356.304 478.038 356.554 477.595 356.902 477.239C357.251 476.879 357.677 476.61 358.181 476.432C358.685 476.25 359.241 476.159 359.851 476.159C360.272 476.159 360.69 476.208 361.107 476.307C361.524 476.405 361.904 476.568 362.249 476.795C362.594 477.019 362.87 477.324 363.079 477.71C363.291 478.097 363.397 478.58 363.397 479.159V485H361.419V483.801H361.351C361.226 484.044 361.05 484.271 360.823 484.483C360.599 484.691 360.317 484.86 359.976 484.989C359.639 485.114 359.243 485.176 358.789 485.176ZM359.323 483.665C359.736 483.665 360.094 483.583 360.397 483.42C360.7 483.254 360.933 483.034 361.096 482.761C361.262 482.489 361.346 482.191 361.346 481.869V480.841C361.281 480.894 361.171 480.943 361.016 480.989C360.865 481.034 360.694 481.074 360.505 481.108C360.315 481.142 360.128 481.172 359.942 481.199C359.757 481.225 359.596 481.248 359.459 481.267C359.152 481.309 358.878 481.377 358.635 481.472C358.393 481.566 358.202 481.699 358.062 481.869C357.921 482.036 357.851 482.252 357.851 482.517C357.851 482.896 357.99 483.182 358.266 483.375C358.543 483.568 358.895 483.665 359.323 483.665ZM365.625 485V476.273H367.591V477.756H367.693C367.875 477.256 368.176 476.866 368.597 476.585C369.017 476.301 369.519 476.159 370.102 476.159C370.693 476.159 371.191 476.303 371.597 476.591C372.006 476.875 372.294 477.263 372.46 477.756H372.551C372.744 477.271 373.07 476.884 373.528 476.597C373.99 476.305 374.538 476.159 375.17 476.159C375.973 476.159 376.629 476.413 377.136 476.92C377.644 477.428 377.898 478.169 377.898 479.142V485H375.835V479.46C375.835 478.919 375.691 478.523 375.403 478.273C375.115 478.019 374.763 477.892 374.347 477.892C373.85 477.892 373.462 478.047 373.182 478.358C372.905 478.665 372.767 479.064 372.767 479.557V485H370.75V479.375C370.75 478.924 370.614 478.564 370.341 478.295C370.072 478.027 369.72 477.892 369.284 477.892C368.989 477.892 368.72 477.968 368.477 478.119C368.235 478.267 368.042 478.477 367.898 478.75C367.754 479.019 367.682 479.333 367.682 479.693V485H365.625ZM384.008 485.17C383.133 485.17 382.377 484.989 381.741 484.625C381.108 484.258 380.622 483.739 380.281 483.068C379.94 482.394 379.769 481.6 379.769 480.688C379.769 479.79 379.94 479.002 380.281 478.324C380.625 477.642 381.106 477.112 381.724 476.733C382.341 476.35 383.067 476.159 383.9 476.159C384.438 476.159 384.945 476.246 385.423 476.42C385.904 476.591 386.328 476.856 386.695 477.216C387.067 477.576 387.358 478.034 387.57 478.591C387.783 479.144 387.889 479.803 387.889 480.568V481.199H380.735V479.812H385.917C385.913 479.419 385.828 479.068 385.661 478.761C385.495 478.451 385.262 478.206 384.962 478.028C384.667 477.85 384.322 477.761 383.928 477.761C383.508 477.761 383.139 477.864 382.82 478.068C382.502 478.269 382.254 478.534 382.076 478.864C381.902 479.189 381.813 479.547 381.809 479.938V481.148C381.809 481.655 381.902 482.091 382.087 482.455C382.273 482.814 382.533 483.091 382.866 483.284C383.199 483.473 383.589 483.568 384.036 483.568C384.336 483.568 384.606 483.527 384.849 483.443C385.091 483.356 385.302 483.229 385.48 483.062C385.658 482.896 385.792 482.689 385.883 482.443L387.803 482.659C387.682 483.167 387.451 483.61 387.11 483.989C386.773 484.364 386.341 484.655 385.815 484.864C385.288 485.068 384.686 485.17 384.008 485.17ZM397.101 488.261C395.908 488.261 394.847 488.098 393.919 487.773C392.995 487.451 392.215 486.975 391.578 486.347C390.942 485.722 390.459 484.958 390.13 484.057C389.8 483.155 389.633 482.125 389.63 480.966C389.633 479.833 389.802 478.812 390.135 477.903C390.469 476.991 390.955 476.21 391.596 475.562C392.236 474.911 393.018 474.411 393.942 474.062C394.866 473.714 395.917 473.54 397.096 473.54C398.205 473.54 399.188 473.708 400.044 474.045C400.904 474.383 401.63 474.852 402.221 475.455C402.815 476.053 403.264 476.754 403.567 477.557C403.874 478.356 404.027 479.223 404.027 480.159C404.027 480.807 403.978 481.42 403.88 482C403.781 482.576 403.613 483.087 403.374 483.534C403.139 483.981 402.819 484.337 402.414 484.602C402.008 484.864 401.501 485.006 400.891 485.028C400.508 485.047 400.173 485.011 399.885 484.92C399.597 484.83 399.364 484.688 399.186 484.494C399.012 484.297 398.902 484.057 398.857 483.773H398.789C398.702 484 398.537 484.208 398.294 484.398C398.056 484.583 397.76 484.729 397.408 484.835C397.056 484.937 396.664 484.979 396.232 484.96C395.77 484.937 395.342 484.831 394.948 484.642C394.558 484.449 394.217 484.18 393.925 483.835C393.637 483.487 393.414 483.066 393.255 482.574C393.096 482.081 393.016 481.523 393.016 480.898C393.016 480.288 393.103 479.75 393.277 479.284C393.452 478.818 393.685 478.42 393.976 478.091C394.272 477.761 394.605 477.504 394.976 477.318C395.347 477.129 395.73 477.008 396.124 476.955C396.533 476.898 396.917 476.903 397.277 476.972C397.637 477.04 397.936 477.144 398.175 477.284C398.417 477.424 398.569 477.578 398.63 477.744H398.709V477.108H400.294V482.517C400.298 482.801 400.366 483.03 400.499 483.205C400.635 483.379 400.825 483.466 401.067 483.466C401.37 483.466 401.614 483.347 401.8 483.108C401.989 482.866 402.126 482.494 402.209 481.994C402.296 481.491 402.338 480.847 402.334 480.062C402.338 479.419 402.253 478.835 402.078 478.312C401.908 477.786 401.666 477.324 401.351 476.926C401.037 476.528 400.66 476.197 400.221 475.932C399.785 475.663 399.3 475.46 398.766 475.324C398.232 475.187 397.662 475.119 397.056 475.119C396.128 475.119 395.311 475.261 394.607 475.545C393.902 475.826 393.311 476.225 392.834 476.744C392.361 477.263 392.003 477.879 391.76 478.591C391.522 479.299 391.402 480.083 391.402 480.943C391.402 481.864 391.527 482.68 391.777 483.392C392.031 484.1 392.402 484.697 392.891 485.182C393.38 485.667 393.984 486.034 394.703 486.284C395.427 486.534 396.258 486.659 397.198 486.659C397.63 486.659 398.052 486.625 398.465 486.557C398.878 486.489 399.249 486.409 399.578 486.318C399.908 486.227 400.162 486.148 400.34 486.08L400.823 487.523C400.588 487.644 400.27 487.761 399.868 487.875C399.471 487.989 399.031 488.081 398.55 488.153C398.073 488.225 397.59 488.261 397.101 488.261ZM396.703 483.33C397.185 483.33 397.569 483.237 397.857 483.051C398.145 482.862 398.351 482.581 398.476 482.21C398.601 481.839 398.662 481.377 398.658 480.824C398.658 480.309 398.594 479.886 398.465 479.557C398.336 479.227 398.13 478.983 397.846 478.824C397.561 478.665 397.185 478.585 396.715 478.585C396.291 478.585 395.929 478.682 395.63 478.875C395.334 479.068 395.107 479.335 394.948 479.676C394.792 480.013 394.715 480.398 394.715 480.83C394.715 481.261 394.777 481.669 394.902 482.051C395.031 482.43 395.239 482.739 395.527 482.977C395.819 483.212 396.211 483.33 396.703 483.33ZM409.797 485.17C408.922 485.17 408.166 484.989 407.53 484.625C406.897 484.258 406.41 483.739 406.069 483.068C405.729 482.394 405.558 481.6 405.558 480.688C405.558 479.79 405.729 479.002 406.069 478.324C406.414 477.642 406.895 477.112 407.513 476.733C408.13 476.35 408.855 476.159 409.689 476.159C410.227 476.159 410.734 476.246 411.211 476.42C411.693 476.591 412.117 476.856 412.484 477.216C412.855 477.576 413.147 478.034 413.359 478.591C413.571 479.144 413.677 479.803 413.677 480.568V481.199H406.524V479.812H411.706C411.702 479.419 411.617 479.068 411.45 478.761C411.283 478.451 411.05 478.206 410.751 478.028C410.456 477.85 410.111 477.761 409.717 477.761C409.297 477.761 408.927 477.864 408.609 478.068C408.291 478.269 408.043 478.534 407.865 478.864C407.691 479.189 407.602 479.547 407.598 479.938V481.148C407.598 481.655 407.691 482.091 407.876 482.455C408.062 482.814 408.321 483.091 408.655 483.284C408.988 483.473 409.378 483.568 409.825 483.568C410.124 483.568 410.395 483.527 410.638 483.443C410.88 483.356 411.09 483.229 411.268 483.062C411.446 482.896 411.581 482.689 411.672 482.443L413.592 482.659C413.471 483.167 413.24 483.61 412.899 483.989C412.562 484.364 412.13 484.655 411.604 484.864C411.077 485.068 410.475 485.17 409.797 485.17ZM415.577 485V476.273H417.543V477.756H417.646C417.827 477.256 418.129 476.866 418.549 476.585C418.969 476.301 419.471 476.159 420.055 476.159C420.646 476.159 421.144 476.303 421.549 476.591C421.958 476.875 422.246 477.263 422.413 477.756H422.504C422.697 477.271 423.023 476.884 423.481 476.597C423.943 476.305 424.49 476.159 425.123 476.159C425.926 476.159 426.581 476.413 427.089 476.92C427.596 477.428 427.85 478.169 427.85 479.142V485H425.788V479.46C425.788 478.919 425.644 478.523 425.356 478.273C425.068 478.019 424.716 477.892 424.299 477.892C423.803 477.892 423.415 478.047 423.134 478.358C422.858 478.665 422.719 479.064 422.719 479.557V485H420.702V479.375C420.702 478.924 420.566 478.564 420.293 478.295C420.024 478.027 419.672 477.892 419.237 477.892C418.941 477.892 418.672 477.968 418.43 478.119C418.187 478.267 417.994 478.477 417.85 478.75C417.706 479.019 417.634 479.333 417.634 479.693V485H415.577ZM432.608 485.176C432.055 485.176 431.557 485.078 431.114 484.881C430.674 484.68 430.326 484.384 430.068 483.994C429.815 483.604 429.688 483.123 429.688 482.551C429.688 482.059 429.779 481.652 429.96 481.33C430.142 481.008 430.39 480.75 430.705 480.557C431.019 480.364 431.373 480.218 431.767 480.119C432.165 480.017 432.576 479.943 433 479.898C433.512 479.845 433.926 479.797 434.245 479.756C434.563 479.71 434.794 479.642 434.938 479.551C435.085 479.456 435.159 479.311 435.159 479.114V479.08C435.159 478.652 435.032 478.32 434.779 478.085C434.525 477.85 434.159 477.733 433.682 477.733C433.178 477.733 432.779 477.843 432.483 478.062C432.192 478.282 431.995 478.542 431.892 478.841L429.972 478.568C430.123 478.038 430.373 477.595 430.722 477.239C431.07 476.879 431.496 476.61 432 476.432C432.504 476.25 433.061 476.159 433.671 476.159C434.091 476.159 434.51 476.208 434.926 476.307C435.343 476.405 435.724 476.568 436.068 476.795C436.413 477.019 436.69 477.324 436.898 477.71C437.11 478.097 437.216 478.58 437.216 479.159V485H435.239V483.801H435.171C435.046 484.044 434.87 484.271 434.642 484.483C434.419 484.691 434.137 484.86 433.796 484.989C433.459 485.114 433.063 485.176 432.608 485.176ZM433.142 483.665C433.555 483.665 433.913 483.583 434.216 483.42C434.519 483.254 434.752 483.034 434.915 482.761C435.082 482.489 435.165 482.191 435.165 481.869V480.841C435.101 480.894 434.991 480.943 434.835 480.989C434.684 481.034 434.513 481.074 434.324 481.108C434.135 481.142 433.947 481.172 433.762 481.199C433.576 481.225 433.415 481.248 433.279 481.267C432.972 481.309 432.697 481.377 432.455 481.472C432.212 481.566 432.021 481.699 431.881 481.869C431.741 482.036 431.671 482.252 431.671 482.517C431.671 482.896 431.809 483.182 432.085 483.375C432.362 483.568 432.714 483.665 433.142 483.665ZM439.444 485V476.273H441.501V485H439.444ZM440.478 475.034C440.153 475.034 439.872 474.926 439.637 474.71C439.403 474.491 439.285 474.227 439.285 473.92C439.285 473.61 439.403 473.347 439.637 473.131C439.872 472.911 440.153 472.801 440.478 472.801C440.808 472.801 441.088 472.911 441.319 473.131C441.554 473.347 441.672 473.61 441.672 473.92C441.672 474.227 441.554 474.491 441.319 474.71C441.088 474.926 440.808 475.034 440.478 475.034ZM445.833 473.364V485H443.776V473.364H445.833ZM449.375 485.125C449.03 485.125 448.735 485.004 448.489 484.761C448.243 484.519 448.121 484.223 448.125 483.875C448.121 483.534 448.243 483.242 448.489 483C448.735 482.758 449.03 482.636 449.375 482.636C449.708 482.636 449.998 482.758 450.244 483C450.494 483.242 450.621 483.534 450.625 483.875C450.621 484.106 450.561 484.316 450.443 484.506C450.33 484.695 450.178 484.847 449.989 484.96C449.803 485.07 449.599 485.125 449.375 485.125ZM456.716 485.17C455.844 485.17 455.096 484.979 454.471 484.597C453.85 484.214 453.371 483.686 453.034 483.011C452.7 482.333 452.534 481.553 452.534 480.67C452.534 479.784 452.704 479.002 453.045 478.324C453.386 477.642 453.867 477.112 454.488 476.733C455.113 476.35 455.852 476.159 456.704 476.159C457.412 476.159 458.039 476.29 458.585 476.551C459.134 476.809 459.572 477.174 459.897 477.648C460.223 478.117 460.409 478.667 460.454 479.295H458.488C458.409 478.875 458.219 478.525 457.92 478.244C457.625 477.96 457.229 477.818 456.733 477.818C456.312 477.818 455.943 477.932 455.625 478.159C455.306 478.383 455.058 478.705 454.88 479.125C454.706 479.545 454.619 480.049 454.619 480.636C454.619 481.231 454.706 481.742 454.88 482.17C455.055 482.595 455.299 482.922 455.613 483.153C455.931 483.381 456.305 483.494 456.733 483.494C457.036 483.494 457.306 483.437 457.545 483.324C457.787 483.206 457.99 483.038 458.153 482.818C458.316 482.598 458.428 482.331 458.488 482.017H460.454C460.405 482.634 460.223 483.182 459.909 483.659C459.594 484.133 459.166 484.504 458.625 484.773C458.083 485.038 457.447 485.17 456.716 485.17ZM466.11 485.17C465.258 485.17 464.519 484.983 463.894 484.608C463.269 484.233 462.784 483.708 462.439 483.034C462.099 482.36 461.928 481.572 461.928 480.67C461.928 479.769 462.099 478.979 462.439 478.301C462.784 477.623 463.269 477.097 463.894 476.722C464.519 476.347 465.258 476.159 466.11 476.159C466.962 476.159 467.701 476.347 468.326 476.722C468.951 477.097 469.434 477.623 469.775 478.301C470.119 478.979 470.292 479.769 470.292 480.67C470.292 481.572 470.119 482.36 469.775 483.034C469.434 483.708 468.951 484.233 468.326 484.608C467.701 484.983 466.962 485.17 466.11 485.17ZM466.121 483.523C466.583 483.523 466.97 483.396 467.28 483.142C467.591 482.884 467.822 482.54 467.974 482.108C468.129 481.676 468.206 481.195 468.206 480.665C468.206 480.131 468.129 479.648 467.974 479.216C467.822 478.78 467.591 478.434 467.28 478.176C466.97 477.919 466.583 477.79 466.121 477.79C465.648 477.79 465.254 477.919 464.939 478.176C464.629 478.434 464.396 478.78 464.241 479.216C464.089 479.648 464.013 480.131 464.013 480.665C464.013 481.195 464.089 481.676 464.241 482.108C464.396 482.54 464.629 482.884 464.939 483.142C465.254 483.396 465.648 483.523 466.121 483.523ZM472.197 485V476.273H474.163V477.756H474.266C474.447 477.256 474.749 476.866 475.169 476.585C475.589 476.301 476.091 476.159 476.675 476.159C477.266 476.159 477.764 476.303 478.169 476.591C478.578 476.875 478.866 477.263 479.033 477.756H479.124C479.317 477.271 479.643 476.884 480.101 476.597C480.563 476.305 481.11 476.159 481.743 476.159C482.546 476.159 483.201 476.413 483.709 476.92C484.216 477.428 484.47 478.169 484.47 479.142V485H482.408V479.46C482.408 478.919 482.264 478.523 481.976 478.273C481.688 478.019 481.336 477.892 480.919 477.892C480.423 477.892 480.035 478.047 479.754 478.358C479.478 478.665 479.339 479.064 479.339 479.557V485H477.322V479.375C477.322 478.924 477.186 478.564 476.913 478.295C476.644 478.027 476.292 477.892 475.857 477.892C475.561 477.892 475.292 477.968 475.05 478.119C474.807 478.267 474.614 478.477 474.47 478.75C474.326 479.019 474.254 479.333 474.254 479.693V485H472.197Z" fill="#4BC1BD"/>
<path d="M32 89.5H548C554.351 89.5 559.5 94.6487 559.5 101V402C559.5 408.351 554.351 413.5 548 413.5H32C25.6487 413.5 20.5 408.351 20.5 402V101C20.5 94.6487 25.6487 89.5 32 89.5Z" fill="black"/>
<path d="M32 89.5H548C554.351 89.5 559.5 94.6487 559.5 101V402C559.5 408.351 554.351 413.5 548 413.5H32C25.6487 413.5 20.5 408.351 20.5 402V101C20.5 94.6487 25.6487 89.5 32 89.5Z" stroke="#2C2C2C"/>
<rect x="231" y="161.636" width="118" height="118" rx="59" fill="black" stroke="#06B6D4" stroke-width="2" stroke-dasharray="3 0"/>
<path d="M290 221.636V229.636M290 221.636L286 225.636M290 221.636L294 225.636M282 223.535C281.257 222.776 280.697 221.858 280.361 220.85C280.026 219.842 279.924 218.771 280.063 217.718C280.203 216.665 280.58 215.658 281.167 214.773C281.754 213.887 282.534 213.147 283.449 212.608C284.364 212.068 285.39 211.745 286.449 211.661C287.508 211.577 288.572 211.735 289.561 212.123C290.549 212.511 291.437 213.119 292.156 213.901C292.875 214.683 293.406 215.618 293.71 216.636H295.5C296.466 216.636 297.405 216.946 298.181 217.521C298.957 218.097 299.527 218.906 299.807 219.83C300.087 220.754 300.063 221.743 299.737 222.652C299.412 223.561 298.803 224.342 298 224.878" stroke="#06B6D4" stroke-width="2" stroke-linecap="round" stroke-linejoin="round"/>
<path d="M278.143 298V309.636H276.018L270.955 302.312H270.87V309.636H268.41V298H270.569L275.592 305.318H275.694V298H278.143ZM282.619 309.801C282.062 309.801 281.566 309.704 281.13 309.511C280.694 309.314 280.35 309.024 280.096 308.642C279.846 308.256 279.721 307.774 279.721 307.199C279.721 306.714 279.81 306.307 279.988 305.977C280.166 305.648 280.408 305.382 280.715 305.182C281.022 304.981 281.371 304.829 281.761 304.727C282.155 304.625 282.567 304.553 282.999 304.511C283.507 304.458 283.916 304.409 284.227 304.364C284.537 304.314 284.763 304.242 284.903 304.148C285.043 304.053 285.113 303.913 285.113 303.727V303.693C285.113 303.333 284.999 303.055 284.772 302.858C284.549 302.661 284.23 302.562 283.817 302.562C283.382 302.562 283.035 302.659 282.778 302.852C282.52 303.042 282.35 303.28 282.266 303.568L280.028 303.386C280.141 302.856 280.365 302.398 280.698 302.011C281.031 301.621 281.461 301.322 281.988 301.114C282.518 300.901 283.132 300.795 283.829 300.795C284.314 300.795 284.778 300.852 285.221 300.966C285.668 301.079 286.064 301.256 286.408 301.494C286.757 301.733 287.031 302.04 287.232 302.415C287.433 302.786 287.533 303.231 287.533 303.75V309.636H285.238V308.426H285.17C285.03 308.699 284.842 308.939 284.607 309.148C284.372 309.352 284.09 309.513 283.761 309.631C283.431 309.744 283.05 309.801 282.619 309.801ZM283.312 308.131C283.668 308.131 283.982 308.06 284.255 307.92C284.528 307.776 284.742 307.583 284.897 307.341C285.052 307.098 285.13 306.824 285.13 306.517V305.591C285.054 305.64 284.95 305.685 284.817 305.727C284.689 305.765 284.543 305.801 284.38 305.835C284.217 305.865 284.054 305.894 283.891 305.92C283.728 305.943 283.581 305.964 283.448 305.983C283.164 306.024 282.916 306.091 282.704 306.182C282.492 306.273 282.327 306.396 282.21 306.551C282.092 306.703 282.033 306.892 282.033 307.119C282.033 307.449 282.153 307.701 282.391 307.875C282.634 308.045 282.941 308.131 283.312 308.131ZM289.411 309.636V300.909H291.718V302.449H291.82C292.002 301.937 292.305 301.534 292.729 301.239C293.154 300.943 293.661 300.795 294.252 300.795C294.851 300.795 295.36 300.945 295.781 301.244C296.201 301.54 296.481 301.941 296.621 302.449H296.712C296.89 301.949 297.212 301.549 297.678 301.25C298.148 300.947 298.703 300.795 299.343 300.795C300.157 300.795 300.818 301.055 301.326 301.574C301.837 302.089 302.093 302.82 302.093 303.767V309.636H299.678V304.244C299.678 303.759 299.549 303.396 299.292 303.153C299.034 302.911 298.712 302.79 298.326 302.79C297.887 302.79 297.544 302.93 297.298 303.21C297.051 303.487 296.928 303.852 296.928 304.307V309.636H294.582V304.193C294.582 303.765 294.459 303.424 294.212 303.17C293.97 302.917 293.65 302.79 293.252 302.79C292.983 302.79 292.741 302.858 292.525 302.994C292.313 303.127 292.144 303.314 292.019 303.557C291.894 303.795 291.832 304.076 291.832 304.398V309.636H289.411ZM307.982 309.807C307.085 309.807 306.312 309.625 305.664 309.261C305.02 308.894 304.524 308.375 304.175 307.704C303.827 307.03 303.653 306.233 303.653 305.312C303.653 304.415 303.827 303.627 304.175 302.949C304.524 302.271 305.014 301.742 305.647 301.364C306.283 300.985 307.03 300.795 307.886 300.795C308.461 300.795 308.997 300.888 309.494 301.074C309.994 301.256 310.429 301.53 310.8 301.898C311.175 302.265 311.467 302.727 311.675 303.284C311.884 303.837 311.988 304.485 311.988 305.227V305.892H304.619V304.392H309.71C309.71 304.043 309.634 303.735 309.482 303.466C309.331 303.197 309.121 302.987 308.852 302.835C308.586 302.68 308.278 302.602 307.925 302.602C307.558 302.602 307.232 302.687 306.948 302.858C306.668 303.024 306.448 303.25 306.289 303.534C306.13 303.814 306.049 304.127 306.045 304.471V305.898C306.045 306.329 306.124 306.703 306.283 307.017C306.446 307.331 306.675 307.574 306.971 307.744C307.266 307.915 307.617 308 308.022 308C308.291 308 308.537 307.962 308.761 307.886C308.984 307.81 309.175 307.697 309.335 307.545C309.494 307.394 309.615 307.208 309.698 306.989L311.937 307.136C311.823 307.674 311.59 308.144 311.238 308.545C310.889 308.943 310.439 309.254 309.886 309.477C309.336 309.697 308.702 309.807 307.982 309.807Z" fill="white"/>
<path d="M274.187 331.341V330.091H282.914V331.341H279.255V341.727H277.846V331.341H274.187ZM284.907 341.727V333H286.248V341.727H284.907ZM285.589 331.545C285.327 331.545 285.102 331.456 284.913 331.278C284.727 331.1 284.634 330.886 284.634 330.636C284.634 330.386 284.727 330.172 284.913 329.994C285.102 329.816 285.327 329.727 285.589 329.727C285.85 329.727 286.074 329.816 286.259 329.994C286.449 330.172 286.543 330.386 286.543 330.636C286.543 330.886 286.449 331.1 286.259 331.278C286.074 331.456 285.85 331.545 285.589 331.545ZM292.499 333V334.136H287.977V333H292.499ZM289.295 330.909H290.636V339.227C290.636 339.606 290.691 339.89 290.8 340.079C290.914 340.265 291.058 340.39 291.232 340.454C291.41 340.515 291.598 340.545 291.795 340.545C291.942 340.545 292.064 340.538 292.158 340.523C292.253 340.504 292.329 340.488 292.386 340.477L292.658 341.682C292.567 341.716 292.441 341.75 292.278 341.784C292.115 341.822 291.908 341.841 291.658 341.841C291.28 341.841 290.908 341.759 290.545 341.596C290.185 341.433 289.886 341.185 289.647 340.852C289.412 340.519 289.295 340.098 289.295 339.591V330.909ZM296.045 330.091V341.727H294.704V330.091H296.045ZM302.16 341.909C301.319 341.909 300.594 341.723 299.984 341.352C299.378 340.977 298.91 340.454 298.58 339.784C298.254 339.11 298.092 338.326 298.092 337.432C298.092 336.538 298.254 335.75 298.58 335.068C298.91 334.382 299.368 333.848 299.955 333.466C300.546 333.079 301.236 332.886 302.023 332.886C302.478 332.886 302.927 332.962 303.37 333.113C303.813 333.265 304.217 333.511 304.58 333.852C304.944 334.189 305.234 334.636 305.45 335.193C305.665 335.75 305.773 336.435 305.773 337.25V337.818H299.046V336.659H304.41C304.41 336.166 304.311 335.727 304.114 335.341C303.921 334.954 303.645 334.649 303.285 334.426C302.929 334.202 302.508 334.091 302.023 334.091C301.489 334.091 301.027 334.223 300.637 334.488C300.251 334.75 299.953 335.091 299.745 335.511C299.537 335.932 299.433 336.382 299.433 336.863V337.636C299.433 338.295 299.546 338.854 299.773 339.312C300.004 339.767 300.325 340.113 300.734 340.352C301.143 340.587 301.618 340.704 302.16 340.704C302.512 340.704 302.83 340.655 303.114 340.557C303.402 340.454 303.65 340.303 303.859 340.102C304.067 339.898 304.228 339.644 304.342 339.341L305.637 339.704C305.501 340.144 305.272 340.53 304.95 340.863C304.628 341.193 304.23 341.451 303.756 341.636C303.283 341.818 302.751 341.909 302.16 341.909Z" fill="#808080"/>
</svg>
