<svg width="500" height="551" viewBox="0 0 500 551" fill="none" xmlns="http://www.w3.org/2000/svg">
<path d="M12 0.5H488C494.351 0.5 499.5 5.64873 499.5 12V539C499.5 545.351 494.351 550.5 488 550.5H12C5.64872 550.5 0.5 545.351 0.5 539V12C0.5 5.64873 5.64873 0.5 12 0.5Z" fill="black" stroke="#2C2C2C"/>
<path d="M32 85.5H468C474.351 85.5 479.5 90.6487 479.5 97V177C479.5 183.351 474.351 188.5 468 188.5H32C25.6487 188.5 20.5 183.351 20.5 177V97C20.5 90.6487 25.6487 85.5 32 85.5Z" fill="black" stroke="#2C2C2C"/>
<circle cx="72" cy="137" r="31" stroke="#2C2C2C" stroke-width="2"/>
<path d="M76 138L81.223 141.482C81.2983 141.532 81.3858 141.561 81.4761 141.565C81.5664 141.569 81.6563 141.549 81.736 141.507C81.8157 141.464 81.8824 141.4 81.9289 141.323C81.9754 141.245 82 141.156 82 141.066V132.87C82 132.782 81.9768 132.696 81.9328 132.619C81.8887 132.543 81.8253 132.48 81.7491 132.436C81.6728 132.392 81.5863 132.37 81.4983 132.37C81.4103 132.37 81.324 132.394 81.248 132.438L76 135.5M64 131H74C75.1046 131 76 131.895 76 133V141C76 142.105 75.1046 143 74 143H64C62.8954 143 62 142.105 62 141V133C62 131.895 62.8954 131 64 131Z" stroke="#4BC1BD" stroke-width="2" stroke-linecap="round" stroke-linejoin="round"/>
<path d="M119.886 129V127.54L125.693 119.392H119.875V117.364H128.784V118.824L122.972 126.972H128.795V129H119.886ZM136.234 125.284V120.273H138.655V129H136.331V127.415H136.24C136.043 127.926 135.715 128.337 135.257 128.648C134.803 128.958 134.248 129.114 133.592 129.114C133.009 129.114 132.496 128.981 132.053 128.716C131.609 128.451 131.263 128.074 131.013 127.585C130.767 127.097 130.642 126.511 130.638 125.83V120.273H133.058V125.398C133.062 125.913 133.2 126.32 133.473 126.619C133.746 126.919 134.111 127.068 134.57 127.068C134.861 127.068 135.134 127.002 135.388 126.869C135.642 126.733 135.846 126.532 136.001 126.267C136.161 126.002 136.238 125.674 136.234 125.284ZM132.928 119.08C132.602 119.08 132.321 118.966 132.087 118.739C131.852 118.508 131.734 118.235 131.734 117.92C131.734 117.598 131.852 117.326 132.087 117.102C132.321 116.879 132.602 116.767 132.928 116.767C133.257 116.767 133.536 116.879 133.763 117.102C133.994 117.326 134.109 117.598 134.109 117.92C134.109 118.235 133.994 118.508 133.763 118.739C133.536 118.966 133.257 119.08 132.928 119.08ZM136.405 119.08C136.079 119.08 135.799 118.966 135.564 118.739C135.329 118.508 135.212 118.235 135.212 117.92C135.212 117.598 135.329 117.326 135.564 117.102C135.799 116.879 136.079 116.767 136.405 116.767C136.734 116.767 137.013 116.879 137.24 117.102C137.471 117.326 137.587 117.598 137.587 117.92C137.587 118.235 137.471 118.508 137.24 118.739C137.013 118.966 136.734 119.08 136.405 119.08ZM140.591 129V120.273H142.938V121.795H143.028C143.188 121.254 143.455 120.845 143.83 120.568C144.205 120.288 144.636 120.148 145.125 120.148C145.246 120.148 145.377 120.155 145.517 120.17C145.657 120.186 145.78 120.206 145.886 120.233V122.381C145.773 122.347 145.616 122.316 145.415 122.29C145.214 122.263 145.03 122.25 144.864 122.25C144.508 122.25 144.189 122.328 143.909 122.483C143.633 122.634 143.413 122.847 143.25 123.119C143.091 123.392 143.011 123.706 143.011 124.062V129H140.591ZM147.138 129V120.273H149.558V129H147.138ZM148.354 119.148C147.994 119.148 147.685 119.028 147.428 118.79C147.174 118.547 147.047 118.258 147.047 117.92C147.047 117.587 147.174 117.301 147.428 117.062C147.685 116.82 147.994 116.699 148.354 116.699C148.714 116.699 149.02 116.82 149.274 117.062C149.532 117.301 149.661 117.587 149.661 117.92C149.661 118.258 149.532 118.547 149.274 118.79C149.02 119.028 148.714 119.148 148.354 119.148ZM155.44 129.17C154.546 129.17 153.777 128.981 153.134 128.602C152.493 128.22 152.001 127.689 151.656 127.011C151.315 126.333 151.145 125.553 151.145 124.67C151.145 123.777 151.317 122.992 151.662 122.318C152.01 121.64 152.505 121.112 153.145 120.733C153.785 120.35 154.546 120.159 155.429 120.159C156.19 120.159 156.857 120.297 157.429 120.574C158.001 120.85 158.454 121.239 158.787 121.739C159.12 122.239 159.304 122.826 159.338 123.5H157.054C156.99 123.064 156.819 122.714 156.543 122.449C156.27 122.18 155.912 122.045 155.469 122.045C155.094 122.045 154.766 122.148 154.486 122.352C154.209 122.553 153.993 122.847 153.838 123.233C153.683 123.619 153.605 124.087 153.605 124.636C153.605 125.193 153.681 125.667 153.832 126.057C153.988 126.447 154.205 126.744 154.486 126.949C154.766 127.153 155.094 127.256 155.469 127.256C155.745 127.256 155.993 127.199 156.213 127.085C156.437 126.972 156.62 126.807 156.764 126.591C156.912 126.371 157.009 126.108 157.054 125.801H159.338C159.3 126.468 159.118 127.055 158.793 127.562C158.471 128.066 158.026 128.46 157.457 128.744C156.889 129.028 156.217 129.17 155.44 129.17ZM163.308 123.955V129H160.888V117.364H163.24V121.812H163.342C163.539 121.297 163.857 120.894 164.297 120.602C164.736 120.307 165.287 120.159 165.95 120.159C166.556 120.159 167.085 120.292 167.536 120.557C167.99 120.818 168.342 121.195 168.592 121.688C168.846 122.176 168.971 122.761 168.967 123.443V129H166.547V123.875C166.551 123.337 166.414 122.919 166.138 122.619C165.865 122.32 165.482 122.17 164.99 122.17C164.661 122.17 164.369 122.241 164.115 122.381C163.865 122.521 163.668 122.725 163.524 122.994C163.384 123.259 163.312 123.58 163.308 123.955ZM176.723 117.364L179.536 126.205H179.643L182.462 117.364H185.189L181.178 129H178.007L173.99 117.364H176.723ZM186.544 129V120.273H188.964V129H186.544ZM187.76 119.148C187.4 119.148 187.091 119.028 186.834 118.79C186.58 118.547 186.453 118.258 186.453 117.92C186.453 117.587 186.58 117.301 186.834 117.062C187.091 116.82 187.4 116.699 187.76 116.699C188.12 116.699 188.427 116.82 188.68 117.062C188.938 117.301 189.067 117.587 189.067 117.92C189.067 118.258 188.938 118.547 188.68 118.79C188.427 119.028 188.12 119.148 187.76 119.148ZM194.119 129.142C193.456 129.142 192.856 128.972 192.318 128.631C191.784 128.286 191.36 127.78 191.045 127.114C190.735 126.443 190.58 125.621 190.58 124.648C190.58 123.648 190.741 122.816 191.062 122.153C191.384 121.487 191.813 120.989 192.347 120.659C192.884 120.326 193.473 120.159 194.114 120.159C194.602 120.159 195.009 120.242 195.335 120.409C195.665 120.572 195.93 120.777 196.131 121.023C196.335 121.265 196.491 121.504 196.597 121.739H196.67V117.364H199.085V129H196.699V127.602H196.597C196.483 127.845 196.322 128.085 196.114 128.324C195.909 128.559 195.642 128.754 195.312 128.909C194.987 129.064 194.589 129.142 194.119 129.142ZM194.886 127.216C195.277 127.216 195.606 127.11 195.875 126.898C196.148 126.682 196.356 126.381 196.5 125.994C196.648 125.608 196.722 125.155 196.722 124.636C196.722 124.117 196.65 123.667 196.506 123.284C196.362 122.902 196.153 122.606 195.881 122.398C195.608 122.189 195.277 122.085 194.886 122.085C194.489 122.085 194.153 122.193 193.881 122.409C193.608 122.625 193.402 122.924 193.261 123.307C193.121 123.689 193.051 124.133 193.051 124.636C193.051 125.144 193.121 125.593 193.261 125.983C193.405 126.369 193.612 126.672 193.881 126.892C194.153 127.108 194.489 127.216 194.886 127.216ZM205.053 129.17C204.155 129.17 203.382 128.989 202.734 128.625C202.09 128.258 201.594 127.739 201.246 127.068C200.897 126.394 200.723 125.597 200.723 124.676C200.723 123.778 200.897 122.991 201.246 122.312C201.594 121.634 202.085 121.106 202.717 120.727C203.354 120.348 204.1 120.159 204.956 120.159C205.532 120.159 206.068 120.252 206.564 120.438C207.064 120.619 207.5 120.894 207.871 121.261C208.246 121.629 208.537 122.091 208.746 122.648C208.954 123.201 209.058 123.848 209.058 124.591V125.256H201.689V123.756H206.78C206.78 123.407 206.704 123.098 206.553 122.83C206.401 122.561 206.191 122.35 205.922 122.199C205.657 122.044 205.348 121.966 204.996 121.966C204.628 121.966 204.303 122.051 204.018 122.222C203.738 122.388 203.518 122.614 203.359 122.898C203.2 123.178 203.119 123.491 203.115 123.835V125.261C203.115 125.693 203.195 126.066 203.354 126.381C203.517 126.695 203.746 126.938 204.041 127.108C204.337 127.278 204.687 127.364 205.092 127.364C205.361 127.364 205.607 127.326 205.831 127.25C206.054 127.174 206.246 127.061 206.405 126.909C206.564 126.758 206.685 126.572 206.768 126.352L209.007 126.5C208.893 127.038 208.661 127.508 208.308 127.909C207.96 128.307 207.509 128.617 206.956 128.841C206.407 129.061 205.772 129.17 205.053 129.17ZM214.581 129.17C213.698 129.17 212.935 128.983 212.291 128.608C211.651 128.229 211.157 127.703 210.808 127.028C210.46 126.35 210.286 125.564 210.286 124.67C210.286 123.769 210.46 122.981 210.808 122.307C211.157 121.629 211.651 121.102 212.291 120.727C212.935 120.348 213.698 120.159 214.581 120.159C215.464 120.159 216.225 120.348 216.865 120.727C217.509 121.102 218.005 121.629 218.354 122.307C218.702 122.981 218.876 123.769 218.876 124.67C218.876 125.564 218.702 126.35 218.354 127.028C218.005 127.703 217.509 128.229 216.865 128.608C216.225 128.983 215.464 129.17 214.581 129.17ZM214.592 127.295C214.994 127.295 215.329 127.182 215.598 126.955C215.867 126.723 216.07 126.409 216.206 126.011C216.346 125.614 216.416 125.161 216.416 124.653C216.416 124.146 216.346 123.693 216.206 123.295C216.07 122.898 215.867 122.583 215.598 122.352C215.329 122.121 214.994 122.006 214.592 122.006C214.187 122.006 213.846 122.121 213.57 122.352C213.297 122.583 213.09 122.898 212.95 123.295C212.814 123.693 212.746 124.146 212.746 124.653C212.746 125.161 212.814 125.614 212.95 126.011C213.09 126.409 213.297 126.723 213.57 126.955C213.846 127.182 214.187 127.295 214.592 127.295Z" fill="#4BC1BD"/>
<path d="M124.295 144.364V156H122.886V145.841H122.818L119.977 147.727V146.295L122.886 144.364H124.295ZM128.006 156L133.21 145.705V145.614H127.21V144.364H134.665V145.682L129.483 156H128.006ZM136.783 156V154.977L140.624 150.773C141.074 150.28 141.446 149.852 141.737 149.489C142.029 149.121 142.245 148.777 142.385 148.455C142.529 148.129 142.601 147.788 142.601 147.432C142.601 147.023 142.502 146.669 142.305 146.369C142.112 146.07 141.847 145.839 141.51 145.676C141.173 145.513 140.794 145.432 140.374 145.432C139.927 145.432 139.536 145.525 139.203 145.71C138.874 145.892 138.618 146.148 138.436 146.477C138.258 146.807 138.169 147.193 138.169 147.636H136.828C136.828 146.955 136.985 146.356 137.3 145.841C137.614 145.326 138.042 144.924 138.584 144.636C139.129 144.348 139.741 144.205 140.419 144.205C141.101 144.205 141.705 144.348 142.232 144.636C142.758 144.924 143.171 145.312 143.47 145.801C143.769 146.29 143.919 146.833 143.919 147.432C143.919 147.86 143.841 148.278 143.686 148.688C143.535 149.093 143.269 149.545 142.891 150.045C142.516 150.542 141.995 151.148 141.328 151.864L138.714 154.659V154.75H144.124V156H136.783ZM146.47 156V154.977L150.311 150.773C150.762 150.28 151.133 149.852 151.425 149.489C151.716 149.121 151.932 148.777 152.072 148.455C152.216 148.129 152.288 147.788 152.288 147.432C152.288 147.023 152.19 146.669 151.993 146.369C151.8 146.07 151.535 145.839 151.197 145.676C150.86 145.513 150.482 145.432 150.061 145.432C149.614 145.432 149.224 145.525 148.891 145.71C148.561 145.892 148.305 146.148 148.124 146.477C147.946 146.807 147.857 147.193 147.857 147.636H146.516C146.516 146.955 146.673 146.356 146.987 145.841C147.302 145.326 147.73 144.924 148.271 144.636C148.817 144.348 149.429 144.205 150.107 144.205C150.788 144.205 151.393 144.348 151.919 144.636C152.446 144.924 152.858 145.312 153.158 145.801C153.457 146.29 153.607 146.833 153.607 147.432C153.607 147.86 153.529 148.278 153.374 148.688C153.222 149.093 152.957 149.545 152.578 150.045C152.203 150.542 151.682 151.148 151.016 151.864L148.402 154.659V154.75H153.811V156H146.47ZM156.158 156V154.977L159.999 150.773C160.449 150.28 160.821 149.852 161.112 149.489C161.404 149.121 161.62 148.777 161.76 148.455C161.904 148.129 161.976 147.788 161.976 147.432C161.976 147.023 161.877 146.669 161.68 146.369C161.487 146.07 161.222 145.839 160.885 145.676C160.548 145.513 160.169 145.432 159.749 145.432C159.302 145.432 158.911 145.525 158.578 145.71C158.249 145.892 157.993 146.148 157.811 146.477C157.633 146.807 157.544 147.193 157.544 147.636H156.203C156.203 146.955 156.36 146.356 156.675 145.841C156.989 145.326 157.417 144.924 157.959 144.636C158.504 144.348 159.116 144.205 159.794 144.205C160.476 144.205 161.08 144.348 161.607 144.636C162.133 144.924 162.546 145.312 162.845 145.801C163.144 146.29 163.294 146.833 163.294 147.432C163.294 147.86 163.216 148.278 163.061 148.688C162.91 149.093 162.644 149.545 162.266 150.045C161.891 150.542 161.37 151.148 160.703 151.864L158.089 154.659V154.75H163.499V156H156.158ZM169.55 144.205C170.027 144.208 170.504 144.299 170.982 144.477C171.459 144.655 171.894 144.951 172.288 145.364C172.682 145.773 172.999 146.331 173.237 147.04C173.476 147.748 173.595 148.636 173.595 149.705C173.595 150.739 173.497 151.657 173.3 152.46C173.107 153.259 172.826 153.934 172.459 154.483C172.095 155.032 171.652 155.449 171.129 155.733C170.61 156.017 170.023 156.159 169.368 156.159C168.716 156.159 168.135 156.03 167.624 155.773C167.116 155.511 166.699 155.15 166.374 154.688C166.052 154.222 165.845 153.682 165.754 153.068H167.141C167.266 153.602 167.514 154.044 167.885 154.392C168.26 154.737 168.754 154.909 169.368 154.909C170.266 154.909 170.974 154.517 171.493 153.733C172.016 152.949 172.277 151.841 172.277 150.409H172.186C171.974 150.727 171.722 151.002 171.43 151.233C171.139 151.464 170.815 151.642 170.459 151.767C170.103 151.892 169.724 151.955 169.322 151.955C168.656 151.955 168.044 151.79 167.487 151.46C166.934 151.127 166.491 150.67 166.158 150.091C165.828 149.508 165.663 148.841 165.663 148.091C165.663 147.379 165.822 146.727 166.141 146.136C166.463 145.542 166.913 145.068 167.493 144.716C168.076 144.364 168.762 144.193 169.55 144.205ZM169.55 145.455C169.072 145.455 168.643 145.574 168.26 145.812C167.881 146.047 167.58 146.366 167.357 146.767C167.137 147.165 167.027 147.606 167.027 148.091C167.027 148.576 167.133 149.017 167.345 149.415C167.561 149.809 167.855 150.123 168.226 150.358C168.601 150.589 169.027 150.705 169.504 150.705C169.864 150.705 170.199 150.634 170.51 150.494C170.821 150.35 171.091 150.155 171.322 149.909C171.557 149.659 171.741 149.377 171.874 149.062C172.006 148.744 172.072 148.413 172.072 148.068C172.072 147.614 171.963 147.187 171.743 146.79C171.527 146.392 171.228 146.07 170.845 145.824C170.466 145.578 170.035 145.455 169.55 145.455ZM179.534 144.205C180.011 144.208 180.489 144.299 180.966 144.477C181.443 144.655 181.879 144.951 182.273 145.364C182.667 145.773 182.983 146.331 183.222 147.04C183.46 147.748 183.58 148.636 183.58 149.705C183.58 150.739 183.481 151.657 183.284 152.46C183.091 153.259 182.811 153.934 182.443 154.483C182.08 155.032 181.636 155.449 181.114 155.733C180.595 156.017 180.008 156.159 179.352 156.159C178.701 156.159 178.119 156.03 177.608 155.773C177.1 155.511 176.684 155.15 176.358 154.688C176.036 154.222 175.83 153.682 175.739 153.068H177.125C177.25 153.602 177.498 154.044 177.869 154.392C178.244 154.737 178.739 154.909 179.352 154.909C180.25 154.909 180.958 154.517 181.477 153.733C182 152.949 182.261 151.841 182.261 150.409H182.17C181.958 150.727 181.706 151.002 181.415 151.233C181.123 151.464 180.799 151.642 180.443 151.767C180.087 151.892 179.708 151.955 179.307 151.955C178.64 151.955 178.028 151.79 177.472 151.46C176.919 151.127 176.475 150.67 176.142 150.091C175.812 149.508 175.648 148.841 175.648 148.091C175.648 147.379 175.807 146.727 176.125 146.136C176.447 145.542 176.898 145.068 177.477 144.716C178.061 144.364 178.746 144.193 179.534 144.205ZM179.534 145.455C179.057 145.455 178.627 145.574 178.244 145.812C177.866 146.047 177.564 146.366 177.341 146.767C177.121 147.165 177.011 147.606 177.011 148.091C177.011 148.576 177.117 149.017 177.33 149.415C177.545 149.809 177.839 150.123 178.21 150.358C178.585 150.589 179.011 150.705 179.489 150.705C179.848 150.705 180.184 150.634 180.494 150.494C180.805 150.35 181.076 150.155 181.307 149.909C181.542 149.659 181.725 149.377 181.858 149.062C181.991 148.744 182.057 148.413 182.057 148.068C182.057 147.614 181.947 147.187 181.727 146.79C181.511 146.392 181.212 146.07 180.83 145.824C180.451 145.578 180.019 145.455 179.534 145.455ZM189.905 144.364V156H188.496V145.841H188.428L185.587 147.727V146.295L188.496 144.364H189.905ZM196.956 144.205C197.433 144.208 197.911 144.299 198.388 144.477C198.865 144.655 199.301 144.951 199.695 145.364C200.089 145.773 200.405 146.331 200.643 147.04C200.882 147.748 201.001 148.636 201.001 149.705C201.001 150.739 200.903 151.657 200.706 152.46C200.513 153.259 200.232 153.934 199.865 154.483C199.501 155.032 199.058 155.449 198.536 155.733C198.017 156.017 197.429 156.159 196.774 156.159C196.123 156.159 195.541 156.03 195.03 155.773C194.522 155.511 194.106 155.15 193.78 154.688C193.458 154.222 193.251 153.682 193.161 153.068H194.547C194.672 153.602 194.92 154.044 195.291 154.392C195.666 154.737 196.161 154.909 196.774 154.909C197.672 154.909 198.38 154.517 198.899 153.733C199.422 152.949 199.683 151.841 199.683 150.409H199.592C199.38 150.727 199.128 151.002 198.837 151.233C198.545 151.464 198.221 151.642 197.865 151.767C197.509 151.892 197.13 151.955 196.729 151.955C196.062 151.955 195.45 151.79 194.893 151.46C194.34 151.127 193.897 150.67 193.564 150.091C193.234 149.508 193.07 148.841 193.07 148.091C193.07 147.379 193.229 146.727 193.547 146.136C193.869 145.542 194.32 145.068 194.899 144.716C195.482 144.364 196.168 144.193 196.956 144.205ZM196.956 145.455C196.479 145.455 196.049 145.574 195.666 145.812C195.287 146.047 194.986 146.366 194.763 146.767C194.543 147.165 194.433 147.606 194.433 148.091C194.433 148.576 194.539 149.017 194.751 149.415C194.967 149.809 195.261 150.123 195.632 150.358C196.007 150.589 196.433 150.705 196.911 150.705C197.27 150.705 197.606 150.634 197.916 150.494C198.227 150.35 198.498 150.155 198.729 149.909C198.964 149.659 199.147 149.377 199.28 149.062C199.412 148.744 199.479 148.413 199.479 148.068C199.479 147.614 199.369 147.187 199.149 146.79C198.933 146.392 198.634 146.07 198.251 145.824C197.873 145.578 197.441 145.455 196.956 145.455ZM203.236 156V154.977L207.077 150.773C207.527 150.28 207.899 149.852 208.19 149.489C208.482 149.121 208.698 148.777 208.838 148.455C208.982 148.129 209.054 147.788 209.054 147.432C209.054 147.023 208.955 146.669 208.759 146.369C208.565 146.07 208.3 145.839 207.963 145.676C207.626 145.513 207.247 145.432 206.827 145.432C206.38 145.432 205.99 145.525 205.656 145.71C205.327 145.892 205.071 146.148 204.889 146.477C204.711 146.807 204.622 147.193 204.622 147.636H203.281C203.281 146.955 203.438 146.356 203.753 145.841C204.067 145.326 204.495 144.924 205.037 144.636C205.582 144.348 206.194 144.205 206.872 144.205C207.554 144.205 208.158 144.348 208.685 144.636C209.211 144.924 209.624 145.312 209.923 145.801C210.223 146.29 210.372 146.833 210.372 147.432C210.372 147.86 210.295 148.278 210.139 148.688C209.988 149.093 209.723 149.545 209.344 150.045C208.969 150.542 208.448 151.148 207.781 151.864L205.168 154.659V154.75H210.577V156H203.236ZM217.014 144.364V156H215.605V145.841H215.537L212.696 147.727V146.295L215.605 144.364H217.014ZM223.997 156.159C223.33 156.159 222.73 156.027 222.196 155.761C221.662 155.496 221.234 155.133 220.912 154.67C220.59 154.208 220.414 153.682 220.384 153.091H221.747C221.8 153.617 222.039 154.053 222.463 154.398C222.891 154.739 223.402 154.909 223.997 154.909C224.474 154.909 224.899 154.797 225.27 154.574C225.645 154.35 225.938 154.044 226.151 153.653C226.366 153.259 226.474 152.814 226.474 152.318C226.474 151.811 226.363 151.358 226.139 150.96C225.92 150.559 225.616 150.242 225.23 150.011C224.844 149.78 224.402 149.663 223.906 149.659C223.55 149.655 223.185 149.71 222.81 149.824C222.435 149.934 222.126 150.076 221.884 150.25L220.565 150.091L221.27 144.364H227.315V145.614H222.452L222.043 149.045H222.111C222.349 148.856 222.649 148.699 223.009 148.574C223.368 148.449 223.743 148.386 224.134 148.386C224.846 148.386 225.48 148.557 226.037 148.898C226.598 149.235 227.037 149.697 227.355 150.284C227.677 150.871 227.838 151.542 227.838 152.295C227.838 153.038 227.671 153.701 227.338 154.284C227.009 154.864 226.554 155.322 225.974 155.659C225.395 155.992 224.736 156.159 223.997 156.159ZM229.822 153.614V152.455L234.936 144.364H235.777V146.159H235.209L231.345 152.273V152.364H238.232V153.614H229.822ZM235.3 156V153.261V152.722V144.364H236.641V156H235.3Z" fill="#454444"/>
<path d="M439 131H457M455 131V145C455 146 454 147 453 147H443C442 147 441 146 441 145V131M444 131V129C444 128 445 127 446 127H450C451 127 452 128 452 129V131M446 136V142M450 136V142" stroke="#4BC1BD" stroke-width="2" stroke-linecap="round" stroke-linejoin="round"/>
<path d="M32 199.5H468C474.351 199.5 479.5 204.649 479.5 211V291C479.5 297.351 474.351 302.5 468 302.5H32C25.6487 302.5 20.5 297.351 20.5 291V211C20.5 204.649 25.6487 199.5 32 199.5Z" fill="black" stroke="#2C2C2C"/>
<circle cx="72" cy="251" r="31" stroke="#2C2C2C" stroke-width="2"/>
<path d="M76 241V243M77.915 261C77.915 259.409 77.2829 257.883 76.1576 256.757C75.0324 255.632 73.5063 255 71.915 255C70.3237 255 68.7976 255.632 67.6724 256.757C66.5471 257.883 65.915 259.409 65.915 261M68 241V243M76 251C76 253.209 74.2091 255 72 255C69.7909 255 68 253.209 68 251C68 248.791 69.7909 247 72 247C74.2091 247 76 248.791 76 251ZM65 243H79C80.1046 243 81 243.895 81 245V259C81 260.105 80.1046 261 79 261H65C63.8954 261 63 260.105 63 259V245C63 243.895 63.8954 243 65 243Z" stroke="#4BC1BD" stroke-width="2" stroke-linecap="round" stroke-linejoin="round"/>
<path d="M120.011 243V231.364H122.472V240.972H127.46V243H120.011ZM134.641 239.284V234.273H137.061V243H134.737V241.415H134.646C134.449 241.926 134.122 242.337 133.663 242.648C133.209 242.958 132.654 243.114 131.999 243.114C131.415 243.114 130.902 242.981 130.459 242.716C130.016 242.451 129.669 242.074 129.419 241.585C129.173 241.097 129.048 240.511 129.044 239.83V234.273H131.464V239.398C131.468 239.913 131.607 240.32 131.879 240.619C132.152 240.919 132.518 241.068 132.976 241.068C133.268 241.068 133.54 241.002 133.794 240.869C134.048 240.733 134.252 240.532 134.408 240.267C134.567 240.002 134.644 239.674 134.641 239.284ZM141.486 243.165C140.929 243.165 140.433 243.068 139.997 242.875C139.562 242.678 139.217 242.388 138.963 242.006C138.713 241.619 138.588 241.138 138.588 240.562C138.588 240.078 138.677 239.67 138.855 239.341C139.033 239.011 139.276 238.746 139.582 238.545C139.889 238.345 140.238 238.193 140.628 238.091C141.022 237.989 141.435 237.917 141.866 237.875C142.374 237.822 142.783 237.773 143.094 237.727C143.404 237.678 143.63 237.606 143.77 237.511C143.91 237.417 143.98 237.277 143.98 237.091V237.057C143.98 236.697 143.866 236.419 143.639 236.222C143.416 236.025 143.098 235.926 142.685 235.926C142.249 235.926 141.902 236.023 141.645 236.216C141.387 236.405 141.217 236.644 141.134 236.932L138.895 236.75C139.009 236.22 139.232 235.761 139.565 235.375C139.899 234.985 140.329 234.686 140.855 234.477C141.385 234.265 141.999 234.159 142.696 234.159C143.181 234.159 143.645 234.216 144.088 234.33C144.535 234.443 144.931 234.619 145.276 234.858C145.624 235.097 145.899 235.403 146.099 235.778C146.3 236.15 146.401 236.595 146.401 237.114V243H144.105V241.79H144.037C143.897 242.062 143.709 242.303 143.474 242.511C143.24 242.716 142.957 242.877 142.628 242.994C142.298 243.108 141.918 243.165 141.486 243.165ZM142.179 241.494C142.535 241.494 142.849 241.424 143.122 241.284C143.395 241.14 143.609 240.947 143.764 240.705C143.92 240.462 143.997 240.187 143.997 239.881V238.955C143.921 239.004 143.817 239.049 143.685 239.091C143.556 239.129 143.41 239.165 143.247 239.199C143.084 239.229 142.921 239.258 142.759 239.284C142.596 239.307 142.448 239.328 142.315 239.347C142.031 239.388 141.783 239.455 141.571 239.545C141.359 239.636 141.194 239.759 141.077 239.915C140.959 240.066 140.901 240.256 140.901 240.483C140.901 240.812 141.02 241.064 141.259 241.239C141.501 241.409 141.808 241.494 142.179 241.494ZM150.699 237.955V243H148.278V234.273H150.585V235.812H150.688C150.881 235.305 151.205 234.903 151.659 234.608C152.114 234.309 152.665 234.159 153.312 234.159C153.919 234.159 154.447 234.292 154.898 234.557C155.348 234.822 155.699 235.201 155.949 235.693C156.199 236.182 156.324 236.765 156.324 237.443V243H153.903V237.875C153.907 237.341 153.771 236.924 153.494 236.625C153.218 236.322 152.837 236.17 152.352 236.17C152.027 236.17 151.739 236.241 151.489 236.381C151.242 236.521 151.049 236.725 150.909 236.994C150.773 237.259 150.703 237.58 150.699 237.955ZM169.696 235.125C169.616 234.848 169.505 234.604 169.361 234.392C169.217 234.176 169.041 233.994 168.832 233.847C168.628 233.695 168.393 233.58 168.128 233.5C167.866 233.42 167.577 233.381 167.259 233.381C166.664 233.381 166.141 233.528 165.69 233.824C165.243 234.119 164.895 234.549 164.645 235.114C164.395 235.674 164.27 236.36 164.27 237.17C164.27 237.981 164.393 238.67 164.639 239.239C164.885 239.807 165.234 240.241 165.685 240.54C166.135 240.835 166.668 240.983 167.281 240.983C167.838 240.983 168.313 240.884 168.707 240.688C169.105 240.487 169.408 240.205 169.616 239.841C169.829 239.477 169.935 239.047 169.935 238.551L170.435 238.625H167.435V236.773H172.304V238.239C172.304 239.261 172.088 240.14 171.656 240.875C171.224 241.606 170.63 242.17 169.872 242.568C169.115 242.962 168.247 243.159 167.27 243.159C166.179 243.159 165.221 242.919 164.395 242.438C163.569 241.953 162.925 241.265 162.463 240.375C162.005 239.481 161.776 238.42 161.776 237.193C161.776 236.25 161.912 235.409 162.185 234.67C162.461 233.928 162.848 233.299 163.344 232.784C163.84 232.269 164.418 231.877 165.077 231.608C165.736 231.339 166.45 231.205 167.219 231.205C167.878 231.205 168.491 231.301 169.06 231.494C169.628 231.684 170.132 231.953 170.571 232.301C171.014 232.65 171.376 233.064 171.656 233.545C171.937 234.023 172.116 234.549 172.196 235.125H169.696ZM174.653 234.273H177.074V243.432C177.074 244.106 176.941 244.652 176.676 245.068C176.411 245.485 176.03 245.79 175.534 245.983C175.042 246.176 174.453 246.273 173.767 246.273C173.684 246.273 173.604 246.271 173.528 246.267C173.449 246.267 173.366 246.265 173.278 246.261V244.369C173.343 244.373 173.4 244.375 173.449 244.375C173.494 244.379 173.544 244.381 173.597 244.381C173.987 244.381 174.259 244.297 174.415 244.131C174.574 243.968 174.653 243.722 174.653 243.392V234.273ZM175.858 233.148C175.502 233.148 175.195 233.028 174.938 232.79C174.68 232.547 174.551 232.258 174.551 231.92C174.551 231.587 174.68 231.301 174.938 231.062C175.195 230.82 175.502 230.699 175.858 230.699C176.222 230.699 176.53 230.82 176.784 231.062C177.042 231.301 177.17 231.587 177.17 231.92C177.17 232.258 177.042 232.547 176.784 232.79C176.53 233.028 176.222 233.148 175.858 233.148ZM182.956 243.17C182.073 243.17 181.31 242.983 180.666 242.608C180.026 242.229 179.532 241.703 179.183 241.028C178.835 240.35 178.661 239.564 178.661 238.67C178.661 237.769 178.835 236.981 179.183 236.307C179.532 235.629 180.026 235.102 180.666 234.727C181.31 234.348 182.073 234.159 182.956 234.159C183.839 234.159 184.6 234.348 185.24 234.727C185.884 235.102 186.38 235.629 186.729 236.307C187.077 236.981 187.251 237.769 187.251 238.67C187.251 239.564 187.077 240.35 186.729 241.028C186.38 241.703 185.884 242.229 185.24 242.608C184.6 242.983 183.839 243.17 182.956 243.17ZM182.967 241.295C183.369 241.295 183.704 241.182 183.973 240.955C184.242 240.723 184.445 240.409 184.581 240.011C184.721 239.614 184.791 239.161 184.791 238.653C184.791 238.146 184.721 237.693 184.581 237.295C184.445 236.898 184.242 236.583 183.973 236.352C183.704 236.121 183.369 236.006 182.967 236.006C182.562 236.006 182.221 236.121 181.945 236.352C181.672 236.583 181.465 236.898 181.325 237.295C181.189 237.693 181.121 238.146 181.121 238.653C181.121 239.161 181.189 239.614 181.325 240.011C181.465 240.409 181.672 240.723 181.945 240.955C182.221 241.182 182.562 241.295 182.967 241.295ZM191.018 240.489L191.024 237.585H191.376L194.172 234.273H196.95L193.195 238.659H192.621L191.018 240.489ZM188.825 243V231.364H191.246V243H188.825ZM194.28 243L191.712 239.199L193.325 237.489L197.115 243H194.28ZM200.626 243.165C200.07 243.165 199.573 243.068 199.138 242.875C198.702 242.678 198.357 242.388 198.104 242.006C197.854 241.619 197.729 241.138 197.729 240.562C197.729 240.078 197.818 239.67 197.996 239.341C198.174 239.011 198.416 238.746 198.723 238.545C199.03 238.345 199.378 238.193 199.768 238.091C200.162 237.989 200.575 237.917 201.007 237.875C201.515 237.822 201.924 237.773 202.234 237.727C202.545 237.678 202.77 237.606 202.911 237.511C203.051 237.417 203.121 237.277 203.121 237.091V237.057C203.121 236.697 203.007 236.419 202.78 236.222C202.556 236.025 202.238 235.926 201.825 235.926C201.39 235.926 201.043 236.023 200.786 236.216C200.528 236.405 200.357 236.644 200.274 236.932L198.036 236.75C198.149 236.22 198.373 235.761 198.706 235.375C199.039 234.985 199.469 234.686 199.996 234.477C200.526 234.265 201.14 234.159 201.837 234.159C202.321 234.159 202.786 234.216 203.229 234.33C203.676 234.443 204.071 234.619 204.416 234.858C204.765 235.097 205.039 235.403 205.24 235.778C205.441 236.15 205.541 236.595 205.541 237.114V243H203.246V241.79H203.178C203.037 242.062 202.85 242.303 202.615 242.511C202.38 242.716 202.098 242.877 201.768 242.994C201.439 243.108 201.058 243.165 200.626 243.165ZM201.32 241.494C201.676 241.494 201.99 241.424 202.263 241.284C202.536 241.14 202.75 240.947 202.905 240.705C203.06 240.462 203.138 240.187 203.138 239.881V238.955C203.062 239.004 202.958 239.049 202.825 239.091C202.696 239.129 202.551 239.165 202.388 239.199C202.225 239.229 202.062 239.258 201.899 239.284C201.736 239.307 201.589 239.328 201.456 239.347C201.172 239.388 200.924 239.455 200.712 239.545C200.5 239.636 200.335 239.759 200.217 239.915C200.1 240.066 200.041 240.256 200.041 240.483C200.041 240.812 200.161 241.064 200.399 241.239C200.642 241.409 200.948 241.494 201.32 241.494ZM207.419 234.273H209.839V243.432C209.839 244.106 209.707 244.652 209.442 245.068C209.177 245.485 208.796 245.79 208.3 245.983C207.807 246.176 207.218 246.273 206.533 246.273C206.449 246.273 206.37 246.271 206.294 246.267C206.214 246.267 206.131 246.265 206.044 246.261V244.369C206.108 244.373 206.165 244.375 206.214 244.375C206.26 244.379 206.309 244.381 206.362 244.381C206.752 244.381 207.025 244.297 207.18 244.131C207.339 243.968 207.419 243.722 207.419 243.392V234.273ZM208.624 233.148C208.268 233.148 207.961 233.028 207.703 232.79C207.446 232.547 207.317 232.258 207.317 231.92C207.317 231.587 207.446 231.301 207.703 231.062C207.961 230.82 208.268 230.699 208.624 230.699C208.987 230.699 209.296 230.82 209.55 231.062C209.807 231.301 209.936 231.587 209.936 231.92C209.936 232.258 209.807 232.547 209.55 232.79C209.296 233.028 208.987 233.148 208.624 233.148Z" fill="#4BC1BD"/>
<path d="M124.295 258.364V270H122.886V259.841H122.818L119.977 261.727V260.295L122.886 258.364H124.295ZM128.006 270L133.21 259.705V259.614H127.21V258.364H134.665V259.682L129.483 270H128.006ZM136.783 270V268.977L140.624 264.773C141.074 264.28 141.446 263.852 141.737 263.489C142.029 263.121 142.245 262.777 142.385 262.455C142.529 262.129 142.601 261.788 142.601 261.432C142.601 261.023 142.502 260.669 142.305 260.369C142.112 260.07 141.847 259.839 141.51 259.676C141.173 259.513 140.794 259.432 140.374 259.432C139.927 259.432 139.536 259.525 139.203 259.71C138.874 259.892 138.618 260.148 138.436 260.477C138.258 260.807 138.169 261.193 138.169 261.636H136.828C136.828 260.955 136.985 260.356 137.3 259.841C137.614 259.326 138.042 258.924 138.584 258.636C139.129 258.348 139.741 258.205 140.419 258.205C141.101 258.205 141.705 258.348 142.232 258.636C142.758 258.924 143.171 259.312 143.47 259.801C143.769 260.29 143.919 260.833 143.919 261.432C143.919 261.86 143.841 262.278 143.686 262.688C143.535 263.093 143.269 263.545 142.891 264.045C142.516 264.542 141.995 265.148 141.328 265.864L138.714 268.659V268.75H144.124V270H136.783ZM146.47 270V268.977L150.311 264.773C150.762 264.28 151.133 263.852 151.425 263.489C151.716 263.121 151.932 262.777 152.072 262.455C152.216 262.129 152.288 261.788 152.288 261.432C152.288 261.023 152.19 260.669 151.993 260.369C151.8 260.07 151.535 259.839 151.197 259.676C150.86 259.513 150.482 259.432 150.061 259.432C149.614 259.432 149.224 259.525 148.891 259.71C148.561 259.892 148.305 260.148 148.124 260.477C147.946 260.807 147.857 261.193 147.857 261.636H146.516C146.516 260.955 146.673 260.356 146.987 259.841C147.302 259.326 147.73 258.924 148.271 258.636C148.817 258.348 149.429 258.205 150.107 258.205C150.788 258.205 151.393 258.348 151.919 258.636C152.446 258.924 152.858 259.312 153.158 259.801C153.457 260.29 153.607 260.833 153.607 261.432C153.607 261.86 153.529 262.278 153.374 262.688C153.222 263.093 152.957 263.545 152.578 264.045C152.203 264.542 151.682 265.148 151.016 265.864L148.402 268.659V268.75H153.811V270H146.47ZM156.158 270V268.977L159.999 264.773C160.449 264.28 160.821 263.852 161.112 263.489C161.404 263.121 161.62 262.777 161.76 262.455C161.904 262.129 161.976 261.788 161.976 261.432C161.976 261.023 161.877 260.669 161.68 260.369C161.487 260.07 161.222 259.839 160.885 259.676C160.548 259.513 160.169 259.432 159.749 259.432C159.302 259.432 158.911 259.525 158.578 259.71C158.249 259.892 157.993 260.148 157.811 260.477C157.633 260.807 157.544 261.193 157.544 261.636H156.203C156.203 260.955 156.36 260.356 156.675 259.841C156.989 259.326 157.417 258.924 157.959 258.636C158.504 258.348 159.116 258.205 159.794 258.205C160.476 258.205 161.08 258.348 161.607 258.636C162.133 258.924 162.546 259.312 162.845 259.801C163.144 260.29 163.294 260.833 163.294 261.432C163.294 261.86 163.216 262.278 163.061 262.688C162.91 263.093 162.644 263.545 162.266 264.045C161.891 264.542 161.37 265.148 160.703 265.864L158.089 268.659V268.75H163.499V270H156.158ZM169.55 258.205C170.027 258.208 170.504 258.299 170.982 258.477C171.459 258.655 171.894 258.951 172.288 259.364C172.682 259.773 172.999 260.331 173.237 261.04C173.476 261.748 173.595 262.636 173.595 263.705C173.595 264.739 173.497 265.657 173.3 266.46C173.107 267.259 172.826 267.934 172.459 268.483C172.095 269.032 171.652 269.449 171.129 269.733C170.61 270.017 170.023 270.159 169.368 270.159C168.716 270.159 168.135 270.03 167.624 269.773C167.116 269.511 166.699 269.15 166.374 268.688C166.052 268.222 165.845 267.682 165.754 267.068H167.141C167.266 267.602 167.514 268.044 167.885 268.392C168.26 268.737 168.754 268.909 169.368 268.909C170.266 268.909 170.974 268.517 171.493 267.733C172.016 266.949 172.277 265.841 172.277 264.409H172.186C171.974 264.727 171.722 265.002 171.43 265.233C171.139 265.464 170.815 265.642 170.459 265.767C170.103 265.892 169.724 265.955 169.322 265.955C168.656 265.955 168.044 265.79 167.487 265.46C166.934 265.127 166.491 264.67 166.158 264.091C165.828 263.508 165.663 262.841 165.663 262.091C165.663 261.379 165.822 260.727 166.141 260.136C166.463 259.542 166.913 259.068 167.493 258.716C168.076 258.364 168.762 258.193 169.55 258.205ZM169.55 259.455C169.072 259.455 168.643 259.574 168.26 259.812C167.881 260.047 167.58 260.366 167.357 260.767C167.137 261.165 167.027 261.606 167.027 262.091C167.027 262.576 167.133 263.017 167.345 263.415C167.561 263.809 167.855 264.123 168.226 264.358C168.601 264.589 169.027 264.705 169.504 264.705C169.864 264.705 170.199 264.634 170.51 264.494C170.821 264.35 171.091 264.155 171.322 263.909C171.557 263.659 171.741 263.377 171.874 263.062C172.006 262.744 172.072 262.413 172.072 262.068C172.072 261.614 171.963 261.187 171.743 260.79C171.527 260.392 171.228 260.07 170.845 259.824C170.466 259.578 170.035 259.455 169.55 259.455ZM179.534 258.205C180.011 258.208 180.489 258.299 180.966 258.477C181.443 258.655 181.879 258.951 182.273 259.364C182.667 259.773 182.983 260.331 183.222 261.04C183.46 261.748 183.58 262.636 183.58 263.705C183.58 264.739 183.481 265.657 183.284 266.46C183.091 267.259 182.811 267.934 182.443 268.483C182.08 269.032 181.636 269.449 181.114 269.733C180.595 270.017 180.008 270.159 179.352 270.159C178.701 270.159 178.119 270.03 177.608 269.773C177.1 269.511 176.684 269.15 176.358 268.688C176.036 268.222 175.83 267.682 175.739 267.068H177.125C177.25 267.602 177.498 268.044 177.869 268.392C178.244 268.737 178.739 268.909 179.352 268.909C180.25 268.909 180.958 268.517 181.477 267.733C182 266.949 182.261 265.841 182.261 264.409H182.17C181.958 264.727 181.706 265.002 181.415 265.233C181.123 265.464 180.799 265.642 180.443 265.767C180.087 265.892 179.708 265.955 179.307 265.955C178.64 265.955 178.028 265.79 177.472 265.46C176.919 265.127 176.475 264.67 176.142 264.091C175.812 263.508 175.648 262.841 175.648 262.091C175.648 261.379 175.807 260.727 176.125 260.136C176.447 259.542 176.898 259.068 177.477 258.716C178.061 258.364 178.746 258.193 179.534 258.205ZM179.534 259.455C179.057 259.455 178.627 259.574 178.244 259.812C177.866 260.047 177.564 260.366 177.341 260.767C177.121 261.165 177.011 261.606 177.011 262.091C177.011 262.576 177.117 263.017 177.33 263.415C177.545 263.809 177.839 264.123 178.21 264.358C178.585 264.589 179.011 264.705 179.489 264.705C179.848 264.705 180.184 264.634 180.494 264.494C180.805 264.35 181.076 264.155 181.307 263.909C181.542 263.659 181.725 263.377 181.858 263.062C181.991 262.744 182.057 262.413 182.057 262.068C182.057 261.614 181.947 261.187 181.727 260.79C181.511 260.392 181.212 260.07 180.83 259.824C180.451 259.578 180.019 259.455 179.534 259.455ZM189.678 270.159C189.2 270.152 188.723 270.061 188.246 269.886C187.768 269.712 187.333 269.419 186.939 269.006C186.545 268.589 186.229 268.027 185.99 267.318C185.751 266.606 185.632 265.712 185.632 264.636C185.632 263.606 185.729 262.693 185.922 261.898C186.115 261.098 186.395 260.426 186.763 259.881C187.13 259.331 187.573 258.915 188.092 258.631C188.615 258.347 189.204 258.205 189.859 258.205C190.511 258.205 191.09 258.335 191.598 258.597C192.109 258.854 192.526 259.214 192.848 259.676C193.17 260.138 193.378 260.67 193.473 261.273H192.087C191.958 260.75 191.708 260.316 191.337 259.972C190.965 259.627 190.473 259.455 189.859 259.455C188.958 259.455 188.248 259.847 187.729 260.631C187.214 261.415 186.954 262.515 186.95 263.932H187.041C187.253 263.61 187.505 263.335 187.797 263.108C188.092 262.877 188.418 262.699 188.774 262.574C189.13 262.449 189.507 262.386 189.905 262.386C190.571 262.386 191.181 262.553 191.734 262.886C192.287 263.216 192.731 263.672 193.064 264.256C193.397 264.835 193.564 265.5 193.564 266.25C193.564 266.97 193.403 267.629 193.081 268.227C192.759 268.822 192.306 269.295 191.723 269.648C191.143 269.996 190.462 270.167 189.678 270.159ZM189.678 268.909C190.155 268.909 190.583 268.79 190.962 268.551C191.344 268.312 191.645 267.992 191.865 267.591C192.089 267.189 192.2 266.742 192.2 266.25C192.2 265.769 192.092 265.331 191.876 264.938C191.664 264.54 191.371 264.223 190.996 263.989C190.625 263.754 190.2 263.636 189.723 263.636C189.363 263.636 189.028 263.708 188.717 263.852C188.407 263.992 188.134 264.186 187.899 264.432C187.668 264.678 187.486 264.96 187.354 265.278C187.221 265.593 187.155 265.924 187.155 266.273C187.155 266.735 187.263 267.167 187.479 267.568C187.698 267.97 187.998 268.294 188.376 268.54C188.759 268.786 189.193 268.909 189.678 268.909ZM199.889 258.364V270H198.48V259.841H198.412L195.571 261.727V260.295L198.48 258.364H199.889ZM207.099 270.159C206.622 270.152 206.145 270.061 205.668 269.886C205.19 269.712 204.755 269.419 204.361 269.006C203.967 268.589 203.651 268.027 203.412 267.318C203.173 266.606 203.054 265.712 203.054 264.636C203.054 263.606 203.151 262.693 203.344 261.898C203.537 261.098 203.817 260.426 204.185 259.881C204.552 259.331 204.995 258.915 205.514 258.631C206.037 258.347 206.626 258.205 207.281 258.205C207.933 258.205 208.512 258.335 209.02 258.597C209.531 258.854 209.948 259.214 210.27 259.676C210.592 260.138 210.8 260.67 210.895 261.273H209.509C209.38 260.75 209.13 260.316 208.759 259.972C208.387 259.627 207.895 259.455 207.281 259.455C206.38 259.455 205.67 259.847 205.151 260.631C204.635 261.415 204.376 262.515 204.372 263.932H204.463C204.675 263.61 204.927 263.335 205.219 263.108C205.514 262.877 205.84 262.699 206.196 262.574C206.552 262.449 206.929 262.386 207.327 262.386C207.993 262.386 208.603 262.553 209.156 262.886C209.709 263.216 210.152 263.672 210.486 264.256C210.819 264.835 210.986 265.5 210.986 266.25C210.986 266.97 210.825 267.629 210.503 268.227C210.181 268.822 209.728 269.295 209.145 269.648C208.565 269.996 207.884 270.167 207.099 270.159ZM207.099 268.909C207.577 268.909 208.005 268.79 208.384 268.551C208.766 268.312 209.067 267.992 209.287 267.591C209.51 267.189 209.622 266.742 209.622 266.25C209.622 265.769 209.514 265.331 209.298 264.938C209.086 264.54 208.793 264.223 208.418 263.989C208.046 263.754 207.622 263.636 207.145 263.636C206.785 263.636 206.45 263.708 206.139 263.852C205.829 263.992 205.556 264.186 205.321 264.432C205.09 264.678 204.908 264.96 204.776 265.278C204.643 265.593 204.577 265.924 204.577 266.273C204.577 266.735 204.685 267.167 204.901 267.568C205.12 267.97 205.42 268.294 205.798 268.54C206.181 268.786 206.615 268.909 207.099 268.909ZM216.857 270.159C216.19 270.159 215.589 270.027 215.055 269.761C214.521 269.496 214.093 269.133 213.771 268.67C213.449 268.208 213.273 267.682 213.243 267.091H214.607C214.66 267.617 214.898 268.053 215.322 268.398C215.75 268.739 216.262 268.909 216.857 268.909C217.334 268.909 217.758 268.797 218.129 268.574C218.504 268.35 218.798 268.044 219.01 267.653C219.226 267.259 219.334 266.814 219.334 266.318C219.334 265.811 219.222 265.358 218.999 264.96C218.779 264.559 218.476 264.242 218.089 264.011C217.703 263.78 217.262 263.663 216.766 263.659C216.41 263.655 216.044 263.71 215.669 263.824C215.294 263.934 214.985 264.076 214.743 264.25L213.425 264.091L214.129 258.364H220.175V259.614H215.311L214.902 263.045H214.97C215.209 262.856 215.508 262.699 215.868 262.574C216.228 262.449 216.603 262.386 216.993 262.386C217.705 262.386 218.339 262.557 218.896 262.898C219.457 263.235 219.896 263.697 220.214 264.284C220.536 264.871 220.697 265.542 220.697 266.295C220.697 267.038 220.531 267.701 220.197 268.284C219.868 268.864 219.413 269.322 218.834 269.659C218.254 269.992 217.595 270.159 216.857 270.159ZM226.659 258.205C227.136 258.208 227.614 258.299 228.091 258.477C228.568 258.655 229.004 258.951 229.398 259.364C229.792 259.773 230.108 260.331 230.347 261.04C230.585 261.748 230.705 262.636 230.705 263.705C230.705 264.739 230.606 265.657 230.409 266.46C230.216 267.259 229.936 267.934 229.568 268.483C229.205 269.032 228.761 269.449 228.239 269.733C227.72 270.017 227.133 270.159 226.477 270.159C225.826 270.159 225.244 270.03 224.733 269.773C224.225 269.511 223.809 269.15 223.483 268.688C223.161 268.222 222.955 267.682 222.864 267.068H224.25C224.375 267.602 224.623 268.044 224.994 268.392C225.369 268.737 225.864 268.909 226.477 268.909C227.375 268.909 228.083 268.517 228.602 267.733C229.125 266.949 229.386 265.841 229.386 264.409H229.295C229.083 264.727 228.831 265.002 228.54 265.233C228.248 265.464 227.924 265.642 227.568 265.767C227.212 265.892 226.833 265.955 226.432 265.955C225.765 265.955 225.153 265.79 224.597 265.46C224.044 265.127 223.6 264.67 223.267 264.091C222.938 263.508 222.773 262.841 222.773 262.091C222.773 261.379 222.932 260.727 223.25 260.136C223.572 259.542 224.023 259.068 224.602 258.716C225.186 258.364 225.871 258.193 226.659 258.205ZM226.659 259.455C226.182 259.455 225.752 259.574 225.369 259.812C224.991 260.047 224.689 260.366 224.466 260.767C224.246 261.165 224.136 261.606 224.136 262.091C224.136 262.576 224.242 263.017 224.455 263.415C224.67 263.809 224.964 264.123 225.335 264.358C225.71 264.589 226.136 264.705 226.614 264.705C226.973 264.705 227.309 264.634 227.619 264.494C227.93 264.35 228.201 264.155 228.432 263.909C228.667 263.659 228.85 263.377 228.983 263.062C229.116 262.744 229.182 262.413 229.182 262.068C229.182 261.614 229.072 261.187 228.852 260.79C228.636 260.392 228.337 260.07 227.955 259.824C227.576 259.578 227.144 259.455 226.659 259.455ZM237.03 258.364V270H235.621V259.841H235.553L232.712 261.727V260.295L235.621 258.364H237.03Z" fill="#454444"/>
<path d="M439 245H457M455 245V259C455 260 454 261 453 261H443C442 261 441 260 441 259V245M444 245V243C444 242 445 241 446 241H450C451 241 452 242 452 243V245M446 250V256M450 250V256" stroke="#4BC1BD" stroke-width="2" stroke-linecap="round" stroke-linejoin="round"/>
<path d="M32 313.5H468C474.351 313.5 479.5 318.649 479.5 325V405C479.5 411.351 474.351 416.5 468 416.5H32C25.6487 416.5 20.5 411.351 20.5 405V325C20.5 318.649 25.6487 313.5 32 313.5Z" fill="black" stroke="#2C2C2C"/>
<circle cx="72" cy="365" r="31" stroke="#2C2C2C" stroke-width="2"/>
<path d="M81 368L77.914 364.914C77.5389 364.539 77.0303 364.328 76.5 364.328C75.9697 364.328 75.4611 364.539 75.086 364.914L66 374M65 356H79C80.1046 356 81 356.895 81 358V372C81 373.105 80.1046 374 79 374H65C63.8954 374 63 373.105 63 372V358C63 356.895 63.8954 356 65 356ZM71 362C71 363.105 70.1046 364 69 364C67.8954 364 67 363.105 67 362C67 360.895 67.8954 360 69 360C70.1046 360 71 360.895 71 362Z" stroke="#4BC1BD" stroke-width="2" stroke-linecap="round" stroke-linejoin="round"/>
<path d="M127.727 349.125C127.648 348.848 127.536 348.604 127.392 348.392C127.248 348.176 127.072 347.994 126.864 347.847C126.659 347.695 126.424 347.58 126.159 347.5C125.898 347.42 125.608 347.381 125.29 347.381C124.695 347.381 124.172 347.528 123.722 347.824C123.275 348.119 122.926 348.549 122.676 349.114C122.426 349.674 122.301 350.36 122.301 351.17C122.301 351.981 122.424 352.67 122.67 353.239C122.917 353.807 123.265 354.241 123.716 354.54C124.167 354.835 124.699 354.983 125.312 354.983C125.869 354.983 126.345 354.884 126.739 354.688C127.136 354.487 127.439 354.205 127.648 353.841C127.86 353.477 127.966 353.047 127.966 352.551L128.466 352.625H125.466V350.773H130.335V352.239C130.335 353.261 130.119 354.14 129.688 354.875C129.256 355.606 128.661 356.17 127.903 356.568C127.146 356.962 126.278 357.159 125.301 357.159C124.21 357.159 123.252 356.919 122.426 356.438C121.6 355.953 120.956 355.265 120.494 354.375C120.036 353.481 119.807 352.42 119.807 351.193C119.807 350.25 119.943 349.409 120.216 348.67C120.492 347.928 120.879 347.299 121.375 346.784C121.871 346.269 122.449 345.877 123.108 345.608C123.767 345.339 124.481 345.205 125.25 345.205C125.909 345.205 126.523 345.301 127.091 345.494C127.659 345.684 128.163 345.953 128.602 346.301C129.045 346.65 129.407 347.064 129.688 347.545C129.968 348.023 130.148 348.549 130.227 349.125H127.727ZM134.626 357.165C134.07 357.165 133.573 357.068 133.138 356.875C132.702 356.678 132.357 356.388 132.104 356.006C131.854 355.619 131.729 355.138 131.729 354.562C131.729 354.078 131.818 353.67 131.996 353.341C132.174 353.011 132.416 352.746 132.723 352.545C133.03 352.345 133.378 352.193 133.768 352.091C134.162 351.989 134.575 351.917 135.007 351.875C135.515 351.822 135.924 351.773 136.234 351.727C136.545 351.678 136.77 351.606 136.911 351.511C137.051 351.417 137.121 351.277 137.121 351.091V351.057C137.121 350.697 137.007 350.419 136.78 350.222C136.556 350.025 136.238 349.926 135.825 349.926C135.39 349.926 135.043 350.023 134.786 350.216C134.528 350.405 134.357 350.644 134.274 350.932L132.036 350.75C132.149 350.22 132.373 349.761 132.706 349.375C133.039 348.985 133.469 348.686 133.996 348.477C134.526 348.265 135.14 348.159 135.837 348.159C136.321 348.159 136.786 348.216 137.229 348.33C137.676 348.443 138.071 348.619 138.416 348.858C138.765 349.097 139.039 349.403 139.24 349.778C139.441 350.15 139.541 350.595 139.541 351.114V357H137.246V355.79H137.178C137.037 356.062 136.85 356.303 136.615 356.511C136.38 356.716 136.098 356.877 135.768 356.994C135.439 357.108 135.058 357.165 134.626 357.165ZM135.32 355.494C135.676 355.494 135.99 355.424 136.263 355.284C136.536 355.14 136.75 354.947 136.905 354.705C137.06 354.462 137.138 354.187 137.138 353.881V352.955C137.062 353.004 136.958 353.049 136.825 353.091C136.696 353.129 136.551 353.165 136.388 353.199C136.225 353.229 136.062 353.258 135.899 353.284C135.736 353.307 135.589 353.328 135.456 353.347C135.172 353.388 134.924 353.455 134.712 353.545C134.5 353.636 134.335 353.759 134.217 353.915C134.1 354.066 134.041 354.256 134.041 354.483C134.041 354.812 134.161 355.064 134.399 355.239C134.642 355.409 134.948 355.494 135.32 355.494ZM143.839 345.364V357H141.419V345.364H143.839ZM148.199 345.364V357H145.778V345.364H148.199ZM154.115 357.17C153.217 357.17 152.445 356.989 151.797 356.625C151.153 356.258 150.657 355.739 150.308 355.068C149.96 354.394 149.786 353.597 149.786 352.676C149.786 351.778 149.96 350.991 150.308 350.312C150.657 349.634 151.147 349.106 151.78 348.727C152.416 348.348 153.162 348.159 154.018 348.159C154.594 348.159 155.13 348.252 155.626 348.438C156.126 348.619 156.562 348.894 156.933 349.261C157.308 349.629 157.6 350.091 157.808 350.648C158.017 351.201 158.121 351.848 158.121 352.591V353.256H150.751V351.756H155.842C155.842 351.407 155.767 351.098 155.615 350.83C155.464 350.561 155.253 350.35 154.984 350.199C154.719 350.044 154.411 349.966 154.058 349.966C153.691 349.966 153.365 350.051 153.081 350.222C152.801 350.388 152.581 350.614 152.422 350.898C152.263 351.178 152.181 351.491 152.178 351.835V353.261C152.178 353.693 152.257 354.066 152.416 354.381C152.579 354.695 152.808 354.938 153.104 355.108C153.399 355.278 153.75 355.364 154.155 355.364C154.424 355.364 154.67 355.326 154.893 355.25C155.117 355.174 155.308 355.061 155.467 354.909C155.626 354.758 155.748 354.572 155.831 354.352L158.07 354.5C157.956 355.038 157.723 355.508 157.371 355.909C157.022 356.307 156.571 356.617 156.018 356.841C155.469 357.061 154.835 357.17 154.115 357.17ZM159.7 357V348.273H162.047V349.795H162.138C162.297 349.254 162.564 348.845 162.939 348.568C163.314 348.288 163.746 348.148 164.234 348.148C164.356 348.148 164.486 348.155 164.626 348.17C164.767 348.186 164.89 348.206 164.996 348.233V350.381C164.882 350.347 164.725 350.316 164.524 350.29C164.323 350.263 164.14 350.25 163.973 350.25C163.617 350.25 163.299 350.328 163.018 350.483C162.742 350.634 162.522 350.847 162.359 351.119C162.2 351.392 162.121 351.706 162.121 352.062V357H159.7ZM168.007 360.273C167.7 360.273 167.412 360.248 167.143 360.199C166.878 360.153 166.659 360.095 166.484 360.023L167.03 358.216C167.314 358.303 167.57 358.35 167.797 358.358C168.028 358.366 168.227 358.313 168.393 358.199C168.564 358.085 168.702 357.892 168.808 357.619L168.95 357.25L165.82 348.273H168.365L170.172 354.682H170.263L172.087 348.273H174.649L171.257 357.943C171.094 358.413 170.873 358.822 170.592 359.17C170.316 359.523 169.965 359.794 169.541 359.983C169.117 360.176 168.606 360.273 168.007 360.273Z" fill="#4BC1BD"/>
<path d="M124.295 372.364V384H122.886V373.841H122.818L119.977 375.727V374.295L122.886 372.364H124.295ZM128.006 384L133.21 373.705V373.614H127.21V372.364H134.665V373.682L129.483 384H128.006ZM136.783 384V382.977L140.624 378.773C141.074 378.28 141.446 377.852 141.737 377.489C142.029 377.121 142.245 376.777 142.385 376.455C142.529 376.129 142.601 375.788 142.601 375.432C142.601 375.023 142.502 374.669 142.305 374.369C142.112 374.07 141.847 373.839 141.51 373.676C141.173 373.513 140.794 373.432 140.374 373.432C139.927 373.432 139.536 373.525 139.203 373.71C138.874 373.892 138.618 374.148 138.436 374.477C138.258 374.807 138.169 375.193 138.169 375.636H136.828C136.828 374.955 136.985 374.356 137.3 373.841C137.614 373.326 138.042 372.924 138.584 372.636C139.129 372.348 139.741 372.205 140.419 372.205C141.101 372.205 141.705 372.348 142.232 372.636C142.758 372.924 143.171 373.312 143.47 373.801C143.769 374.29 143.919 374.833 143.919 375.432C143.919 375.86 143.841 376.278 143.686 376.688C143.535 377.093 143.269 377.545 142.891 378.045C142.516 378.542 141.995 379.148 141.328 379.864L138.714 382.659V382.75H144.124V384H136.783ZM146.47 384V382.977L150.311 378.773C150.762 378.28 151.133 377.852 151.425 377.489C151.716 377.121 151.932 376.777 152.072 376.455C152.216 376.129 152.288 375.788 152.288 375.432C152.288 375.023 152.19 374.669 151.993 374.369C151.8 374.07 151.535 373.839 151.197 373.676C150.86 373.513 150.482 373.432 150.061 373.432C149.614 373.432 149.224 373.525 148.891 373.71C148.561 373.892 148.305 374.148 148.124 374.477C147.946 374.807 147.857 375.193 147.857 375.636H146.516C146.516 374.955 146.673 374.356 146.987 373.841C147.302 373.326 147.73 372.924 148.271 372.636C148.817 372.348 149.429 372.205 150.107 372.205C150.788 372.205 151.393 372.348 151.919 372.636C152.446 372.924 152.858 373.312 153.158 373.801C153.457 374.29 153.607 374.833 153.607 375.432C153.607 375.86 153.529 376.278 153.374 376.688C153.222 377.093 152.957 377.545 152.578 378.045C152.203 378.542 151.682 379.148 151.016 379.864L148.402 382.659V382.75H153.811V384H146.47ZM160.021 384.159C159.544 384.152 159.067 384.061 158.589 383.886C158.112 383.712 157.677 383.419 157.283 383.006C156.889 382.589 156.572 382.027 156.334 381.318C156.095 380.606 155.976 379.712 155.976 378.636C155.976 377.606 156.072 376.693 156.266 375.898C156.459 375.098 156.739 374.426 157.107 373.881C157.474 373.331 157.917 372.915 158.436 372.631C158.959 372.347 159.548 372.205 160.203 372.205C160.855 372.205 161.434 372.335 161.942 372.597C162.453 372.854 162.87 373.214 163.192 373.676C163.514 374.138 163.722 374.67 163.817 375.273H162.43C162.302 374.75 162.052 374.316 161.68 373.972C161.309 373.627 160.817 373.455 160.203 373.455C159.302 373.455 158.591 373.847 158.072 374.631C157.557 375.415 157.298 376.515 157.294 377.932H157.385C157.597 377.61 157.849 377.335 158.141 377.108C158.436 376.877 158.762 376.699 159.118 376.574C159.474 376.449 159.851 376.386 160.249 376.386C160.915 376.386 161.525 376.553 162.078 376.886C162.631 377.216 163.074 377.672 163.408 378.256C163.741 378.835 163.908 379.5 163.908 380.25C163.908 380.97 163.747 381.629 163.425 382.227C163.103 382.822 162.65 383.295 162.067 383.648C161.487 383.996 160.805 384.167 160.021 384.159ZM160.021 382.909C160.499 382.909 160.927 382.79 161.305 382.551C161.688 382.312 161.989 381.992 162.209 381.591C162.432 381.189 162.544 380.742 162.544 380.25C162.544 379.769 162.436 379.331 162.22 378.938C162.008 378.54 161.714 378.223 161.339 377.989C160.968 377.754 160.544 377.636 160.067 377.636C159.707 377.636 159.372 377.708 159.061 377.852C158.75 377.992 158.478 378.186 158.243 378.432C158.012 378.678 157.83 378.96 157.697 379.278C157.565 379.593 157.499 379.924 157.499 380.273C157.499 380.735 157.607 381.167 157.822 381.568C158.042 381.97 158.341 382.294 158.72 382.54C159.103 382.786 159.536 382.909 160.021 382.909ZM166.506 384L171.71 373.705V373.614H165.71V372.364H173.165V373.682L167.983 384H166.506ZM178.763 384.159C178.096 384.159 177.496 384.027 176.962 383.761C176.428 383.496 176 383.133 175.678 382.67C175.356 382.208 175.179 381.682 175.149 381.091H176.513C176.566 381.617 176.804 382.053 177.229 382.398C177.657 382.739 178.168 382.909 178.763 382.909C179.24 382.909 179.664 382.797 180.036 382.574C180.411 382.35 180.704 382.044 180.916 381.653C181.132 381.259 181.24 380.814 181.24 380.318C181.24 379.811 181.128 379.358 180.905 378.96C180.685 378.559 180.382 378.242 179.996 378.011C179.609 377.78 179.168 377.663 178.672 377.659C178.316 377.655 177.95 377.71 177.575 377.824C177.2 377.934 176.892 378.076 176.649 378.25L175.331 378.091L176.036 372.364H182.081V373.614H177.217L176.808 377.045H176.876C177.115 376.856 177.414 376.699 177.774 376.574C178.134 376.449 178.509 376.386 178.899 376.386C179.611 376.386 180.246 376.557 180.803 376.898C181.363 377.235 181.803 377.697 182.121 378.284C182.443 378.871 182.604 379.542 182.604 380.295C182.604 381.038 182.437 381.701 182.104 382.284C181.774 382.864 181.32 383.322 180.74 383.659C180.161 383.992 179.501 384.159 178.763 384.159ZM188.588 384.159C187.808 384.159 187.118 384.021 186.52 383.744C185.925 383.464 185.461 383.08 185.128 382.591C184.795 382.098 184.63 381.538 184.634 380.909C184.63 380.417 184.726 379.962 184.923 379.545C185.12 379.125 185.389 378.775 185.73 378.494C186.075 378.21 186.459 378.03 186.884 377.955V377.886C186.327 377.742 185.884 377.43 185.554 376.949C185.224 376.464 185.062 375.913 185.065 375.295C185.062 374.705 185.211 374.176 185.514 373.71C185.817 373.244 186.234 372.877 186.764 372.608C187.298 372.339 187.906 372.205 188.588 372.205C189.262 372.205 189.865 372.339 190.395 372.608C190.925 372.877 191.342 373.244 191.645 373.71C191.952 374.176 192.107 374.705 192.111 375.295C192.107 375.913 191.938 376.464 191.605 376.949C191.276 377.43 190.838 377.742 190.293 377.886V377.955C190.713 378.03 191.092 378.21 191.429 378.494C191.766 378.775 192.035 379.125 192.236 379.545C192.437 379.962 192.539 380.417 192.543 380.909C192.539 381.538 192.368 382.098 192.031 382.591C191.698 383.08 191.234 383.464 190.639 383.744C190.048 384.021 189.365 384.159 188.588 384.159ZM188.588 382.909C189.115 382.909 189.569 382.824 189.952 382.653C190.334 382.483 190.63 382.242 190.838 381.932C191.046 381.621 191.152 381.258 191.156 380.841C191.152 380.402 191.039 380.013 190.815 379.676C190.592 379.339 190.287 379.074 189.901 378.881C189.518 378.687 189.08 378.591 188.588 378.591C188.092 378.591 187.649 378.687 187.259 378.881C186.872 379.074 186.567 379.339 186.344 379.676C186.124 380.013 186.016 380.402 186.02 380.841C186.016 381.258 186.116 381.621 186.321 381.932C186.529 382.242 186.827 382.483 187.213 382.653C187.599 382.824 188.058 382.909 188.588 382.909ZM188.588 377.386C189.005 377.386 189.374 377.303 189.696 377.136C190.022 376.97 190.277 376.737 190.463 376.438C190.649 376.138 190.743 375.788 190.747 375.386C190.743 374.992 190.651 374.65 190.469 374.358C190.287 374.062 190.035 373.835 189.713 373.676C189.391 373.513 189.016 373.432 188.588 373.432C188.152 373.432 187.772 373.513 187.446 373.676C187.12 373.835 186.868 374.062 186.69 374.358C186.512 374.65 186.425 374.992 186.429 375.386C186.425 375.788 186.514 376.138 186.696 376.438C186.882 376.737 187.137 376.97 187.463 377.136C187.789 377.303 188.164 377.386 188.588 377.386ZM198.516 384.159C197.66 384.159 196.93 383.926 196.328 383.46C195.726 382.991 195.266 382.311 194.947 381.42C194.629 380.527 194.47 379.447 194.47 378.182C194.47 376.924 194.629 375.85 194.947 374.96C195.269 374.066 195.732 373.384 196.334 372.915C196.94 372.441 197.667 372.205 198.516 372.205C199.364 372.205 200.089 372.441 200.692 372.915C201.298 373.384 201.76 374.066 202.078 374.96C202.4 375.85 202.561 376.924 202.561 378.182C202.561 379.447 202.402 380.527 202.084 381.42C201.766 382.311 201.305 382.991 200.703 383.46C200.101 383.926 199.372 384.159 198.516 384.159ZM198.516 382.909C199.364 382.909 200.023 382.5 200.493 381.682C200.963 380.864 201.197 379.697 201.197 378.182C201.197 377.174 201.089 376.316 200.874 375.608C200.661 374.9 200.355 374.36 199.953 373.989C199.555 373.617 199.076 373.432 198.516 373.432C197.675 373.432 197.018 373.847 196.544 374.676C196.071 375.502 195.834 376.67 195.834 378.182C195.834 379.189 195.94 380.045 196.152 380.75C196.364 381.455 196.669 381.991 197.067 382.358C197.468 382.725 197.951 382.909 198.516 382.909ZM208.425 372.205C208.902 372.208 209.379 372.299 209.857 372.477C210.334 372.655 210.769 372.951 211.163 373.364C211.557 373.773 211.874 374.331 212.112 375.04C212.351 375.748 212.47 376.636 212.47 377.705C212.47 378.739 212.372 379.657 212.175 380.46C211.982 381.259 211.701 381.934 211.334 382.483C210.97 383.032 210.527 383.449 210.004 383.733C209.485 384.017 208.898 384.159 208.243 384.159C207.591 384.159 207.01 384.03 206.499 383.773C205.991 383.511 205.574 383.15 205.249 382.688C204.927 382.222 204.72 381.682 204.629 381.068H206.016C206.141 381.602 206.389 382.044 206.76 382.392C207.135 382.737 207.629 382.909 208.243 382.909C209.141 382.909 209.849 382.517 210.368 381.733C210.891 380.949 211.152 379.841 211.152 378.409H211.061C210.849 378.727 210.597 379.002 210.305 379.233C210.014 379.464 209.69 379.642 209.334 379.767C208.978 379.892 208.599 379.955 208.197 379.955C207.531 379.955 206.919 379.79 206.362 379.46C205.809 379.127 205.366 378.67 205.033 378.091C204.703 377.508 204.538 376.841 204.538 376.091C204.538 375.379 204.697 374.727 205.016 374.136C205.338 373.542 205.788 373.068 206.368 372.716C206.951 372.364 207.637 372.193 208.425 372.205ZM208.425 373.455C207.947 373.455 207.518 373.574 207.135 373.812C206.756 374.047 206.455 374.366 206.232 374.767C206.012 375.165 205.902 375.606 205.902 376.091C205.902 376.576 206.008 377.017 206.22 377.415C206.436 377.809 206.73 378.123 207.101 378.358C207.476 378.589 207.902 378.705 208.379 378.705C208.739 378.705 209.074 378.634 209.385 378.494C209.696 378.35 209.966 378.155 210.197 377.909C210.432 377.659 210.616 377.377 210.749 377.062C210.881 376.744 210.947 376.413 210.947 376.068C210.947 375.614 210.838 375.187 210.618 374.79C210.402 374.392 210.103 374.07 209.72 373.824C209.341 373.578 208.91 373.455 208.425 373.455ZM214.756 384L219.96 373.705V373.614H213.96V372.364H221.415V373.682L216.233 384H214.756ZM224.209 384L229.413 373.705V373.614H223.413V372.364H230.868V373.682L225.686 384H224.209ZM232.986 384V382.977L236.827 378.773C237.277 378.28 237.649 377.852 237.94 377.489C238.232 377.121 238.448 376.777 238.588 376.455C238.732 376.129 238.804 375.788 238.804 375.432C238.804 375.023 238.705 374.669 238.509 374.369C238.315 374.07 238.05 373.839 237.713 373.676C237.376 373.513 236.997 373.432 236.577 373.432C236.13 373.432 235.74 373.525 235.406 373.71C235.077 373.892 234.821 374.148 234.639 374.477C234.461 374.807 234.372 375.193 234.372 375.636H233.031C233.031 374.955 233.188 374.356 233.503 373.841C233.817 373.326 234.245 372.924 234.787 372.636C235.332 372.348 235.944 372.205 236.622 372.205C237.304 372.205 237.908 372.348 238.435 372.636C238.961 372.924 239.374 373.312 239.673 373.801C239.973 374.29 240.122 374.833 240.122 375.432C240.122 375.86 240.045 376.278 239.889 376.688C239.738 377.093 239.473 377.545 239.094 378.045C238.719 378.542 238.198 379.148 237.531 379.864L234.918 382.659V382.75H240.327V384H232.986Z" fill="#454444"/>
<path d="M439 359H457M455 359V373C455 374 454 375 453 375H443C442 375 441 374 441 373V359M444 359V357C444 356 445 355 446 355H450C451 355 452 356 452 357V359M446 364V370M450 364V370" stroke="#4BC1BD" stroke-width="2" stroke-linecap="round" stroke-linejoin="round"/>
<path d="M32 427.5H468C474.351 427.5 479.5 432.649 479.5 439V519C479.5 525.351 474.351 530.5 468 530.5H32C25.6487 530.5 20.5 525.351 20.5 519V439C20.5 432.649 25.6487 427.5 32 427.5Z" fill="black" stroke="#2C2C2C"/>
<circle cx="72" cy="479" r="31" stroke="#2C2C2C" stroke-width="2"/>
<path d="M77 473.1H63M81 479.1H63M75.1 485H63" stroke="#4BC1BD" stroke-width="2" stroke-linecap="round" stroke-linejoin="round"/>
<path d="M122.017 471H119.381L123.398 459.364H126.568L130.58 471H127.943L125.028 462.023H124.938L122.017 471ZM121.852 466.426H128.08V468.347H121.852V466.426ZM131.98 471V459.364H134.401V463.739H134.474C134.58 463.504 134.734 463.265 134.935 463.023C135.139 462.777 135.404 462.572 135.73 462.409C136.06 462.242 136.469 462.159 136.957 462.159C137.594 462.159 138.181 462.326 138.719 462.659C139.257 462.989 139.687 463.487 140.009 464.153C140.33 464.816 140.491 465.648 140.491 466.648C140.491 467.621 140.334 468.443 140.02 469.114C139.709 469.78 139.285 470.286 138.747 470.631C138.213 470.972 137.615 471.142 136.952 471.142C136.482 471.142 136.082 471.064 135.753 470.909C135.427 470.754 135.16 470.559 134.952 470.324C134.743 470.085 134.584 469.845 134.474 469.602H134.366V471H131.98ZM134.349 466.636C134.349 467.155 134.421 467.608 134.565 467.994C134.709 468.381 134.918 468.682 135.19 468.898C135.463 469.11 135.795 469.216 136.185 469.216C136.579 469.216 136.912 469.108 137.185 468.892C137.457 468.672 137.664 468.369 137.804 467.983C137.948 467.593 138.02 467.144 138.02 466.636C138.02 466.133 137.95 465.689 137.81 465.307C137.67 464.924 137.463 464.625 137.19 464.409C136.918 464.193 136.582 464.085 136.185 464.085C135.791 464.085 135.457 464.189 135.185 464.398C134.916 464.606 134.709 464.902 134.565 465.284C134.421 465.667 134.349 466.117 134.349 466.636ZM146.05 471.17C145.167 471.17 144.404 470.983 143.76 470.608C143.12 470.229 142.625 469.703 142.277 469.028C141.929 468.35 141.754 467.564 141.754 466.67C141.754 465.769 141.929 464.981 142.277 464.307C142.625 463.629 143.12 463.102 143.76 462.727C144.404 462.348 145.167 462.159 146.05 462.159C146.932 462.159 147.694 462.348 148.334 462.727C148.978 463.102 149.474 463.629 149.822 464.307C150.171 464.981 150.345 465.769 150.345 466.67C150.345 467.564 150.171 468.35 149.822 469.028C149.474 469.703 148.978 470.229 148.334 470.608C147.694 470.983 146.932 471.17 146.05 471.17ZM146.061 469.295C146.463 469.295 146.798 469.182 147.067 468.955C147.336 468.723 147.538 468.409 147.675 468.011C147.815 467.614 147.885 467.161 147.885 466.653C147.885 466.146 147.815 465.693 147.675 465.295C147.538 464.898 147.336 464.583 147.067 464.352C146.798 464.121 146.463 464.006 146.061 464.006C145.656 464.006 145.315 464.121 145.038 464.352C144.766 464.583 144.559 464.898 144.419 465.295C144.283 465.693 144.214 466.146 144.214 466.653C144.214 467.161 144.283 467.614 144.419 468.011C144.559 468.409 144.766 468.723 145.038 468.955C145.315 469.182 145.656 469.295 146.061 469.295ZM157.516 467.284V462.273H159.936V471H157.612V469.415H157.521C157.324 469.926 156.997 470.337 156.538 470.648C156.084 470.958 155.529 471.114 154.874 471.114C154.29 471.114 153.777 470.981 153.334 470.716C152.891 470.451 152.544 470.074 152.294 469.585C152.048 469.097 151.923 468.511 151.919 467.83V462.273H154.339V467.398C154.343 467.913 154.482 468.32 154.754 468.619C155.027 468.919 155.393 469.068 155.851 469.068C156.143 469.068 156.415 469.002 156.669 468.869C156.923 468.733 157.127 468.532 157.283 468.267C157.442 468.002 157.519 467.674 157.516 467.284ZM169.134 464.761L166.918 464.898C166.88 464.708 166.798 464.538 166.673 464.386C166.548 464.231 166.384 464.108 166.179 464.017C165.978 463.922 165.738 463.875 165.457 463.875C165.082 463.875 164.766 463.955 164.509 464.114C164.251 464.269 164.122 464.477 164.122 464.739C164.122 464.947 164.205 465.123 164.372 465.267C164.539 465.411 164.825 465.527 165.23 465.614L166.81 465.932C167.658 466.106 168.291 466.386 168.707 466.773C169.124 467.159 169.332 467.667 169.332 468.295C169.332 468.867 169.164 469.369 168.827 469.801C168.493 470.233 168.035 470.57 167.452 470.812C166.872 471.051 166.204 471.17 165.446 471.17C164.291 471.17 163.37 470.93 162.685 470.449C162.003 469.964 161.603 469.305 161.486 468.472L163.866 468.347C163.938 468.699 164.113 468.968 164.389 469.153C164.666 469.335 165.02 469.426 165.452 469.426C165.876 469.426 166.217 469.345 166.474 469.182C166.736 469.015 166.868 468.801 166.872 468.54C166.868 468.32 166.776 468.14 166.594 468C166.412 467.856 166.132 467.746 165.753 467.67L164.241 467.369C163.389 467.199 162.755 466.903 162.338 466.483C161.925 466.062 161.719 465.527 161.719 464.875C161.719 464.314 161.87 463.831 162.173 463.426C162.48 463.021 162.91 462.708 163.463 462.489C164.02 462.269 164.671 462.159 165.418 462.159C166.52 462.159 167.387 462.392 168.02 462.858C168.656 463.324 169.027 463.958 169.134 464.761ZM181.793 459.364H184.253V466.92C184.253 467.769 184.05 468.511 183.645 469.148C183.243 469.784 182.681 470.28 181.957 470.636C181.234 470.989 180.391 471.165 179.429 471.165C178.463 471.165 177.618 470.989 176.895 470.636C176.171 470.28 175.609 469.784 175.207 469.148C174.806 468.511 174.605 467.769 174.605 466.92V459.364H177.065V466.71C177.065 467.153 177.162 467.547 177.355 467.892C177.552 468.237 177.829 468.508 178.185 468.705C178.541 468.902 178.955 469 179.429 469C179.906 469 180.321 468.902 180.673 468.705C181.029 468.508 181.304 468.237 181.497 467.892C181.694 467.547 181.793 467.153 181.793 466.71V459.364ZM193.493 464.761L191.277 464.898C191.239 464.708 191.158 464.538 191.033 464.386C190.908 464.231 190.743 464.108 190.538 464.017C190.338 463.922 190.097 463.875 189.817 463.875C189.442 463.875 189.125 463.955 188.868 464.114C188.61 464.269 188.482 464.477 188.482 464.739C188.482 464.947 188.565 465.123 188.732 465.267C188.898 465.411 189.184 465.527 189.589 465.614L191.169 465.932C192.018 466.106 192.65 466.386 193.067 466.773C193.483 467.159 193.692 467.667 193.692 468.295C193.692 468.867 193.523 469.369 193.186 469.801C192.853 470.233 192.394 470.57 191.811 470.812C191.232 471.051 190.563 471.17 189.805 471.17C188.65 471.17 187.73 470.93 187.044 470.449C186.362 469.964 185.963 469.305 185.845 468.472L188.226 468.347C188.298 468.699 188.472 468.968 188.749 469.153C189.025 469.335 189.379 469.426 189.811 469.426C190.235 469.426 190.576 469.345 190.834 469.182C191.095 469.015 191.228 468.801 191.232 468.54C191.228 468.32 191.135 468.14 190.953 468C190.771 467.856 190.491 467.746 190.112 467.67L188.601 467.369C187.749 467.199 187.114 466.903 186.697 466.483C186.285 466.062 186.078 465.527 186.078 464.875C186.078 464.314 186.23 463.831 186.533 463.426C186.839 463.021 187.269 462.708 187.822 462.489C188.379 462.269 189.031 462.159 189.777 462.159C190.879 462.159 191.747 462.392 192.379 462.858C193.016 463.324 193.387 463.958 193.493 464.761Z" fill="#4BC1BD"/>
<path d="M124.295 486.364V498H122.886V487.841H122.818L119.977 489.727V488.295L122.886 486.364H124.295ZM128.006 498L133.21 487.705V487.614H127.21V486.364H134.665V487.682L129.483 498H128.006ZM136.783 498V496.977L140.624 492.773C141.074 492.28 141.446 491.852 141.737 491.489C142.029 491.121 142.245 490.777 142.385 490.455C142.529 490.129 142.601 489.788 142.601 489.432C142.601 489.023 142.502 488.669 142.305 488.369C142.112 488.07 141.847 487.839 141.51 487.676C141.173 487.513 140.794 487.432 140.374 487.432C139.927 487.432 139.536 487.525 139.203 487.71C138.874 487.892 138.618 488.148 138.436 488.477C138.258 488.807 138.169 489.193 138.169 489.636H136.828C136.828 488.955 136.985 488.356 137.3 487.841C137.614 487.326 138.042 486.924 138.584 486.636C139.129 486.348 139.741 486.205 140.419 486.205C141.101 486.205 141.705 486.348 142.232 486.636C142.758 486.924 143.171 487.312 143.47 487.801C143.769 488.29 143.919 488.833 143.919 489.432C143.919 489.86 143.841 490.278 143.686 490.688C143.535 491.093 143.269 491.545 142.891 492.045C142.516 492.542 141.995 493.148 141.328 493.864L138.714 496.659V496.75H144.124V498H136.783ZM145.947 495.614V494.455L151.061 486.364H151.902V488.159H151.334L147.47 494.273V494.364H154.357V495.614H145.947ZM151.425 498V495.261V494.722V486.364H152.766V498H151.425ZM160.281 498.159C159.425 498.159 158.696 497.926 158.094 497.46C157.491 496.991 157.031 496.311 156.713 495.42C156.395 494.527 156.236 493.447 156.236 492.182C156.236 490.924 156.395 489.85 156.713 488.96C157.035 488.066 157.497 487.384 158.099 486.915C158.705 486.441 159.433 486.205 160.281 486.205C161.13 486.205 161.855 486.441 162.457 486.915C163.063 487.384 163.526 488.066 163.844 488.96C164.166 489.85 164.327 490.924 164.327 492.182C164.327 493.447 164.168 494.527 163.849 495.42C163.531 496.311 163.071 496.991 162.469 497.46C161.866 497.926 161.137 498.159 160.281 498.159ZM160.281 496.909C161.13 496.909 161.789 496.5 162.259 495.682C162.728 494.864 162.963 493.697 162.963 492.182C162.963 491.174 162.855 490.316 162.639 489.608C162.427 488.9 162.12 488.36 161.719 487.989C161.321 487.617 160.842 487.432 160.281 487.432C159.44 487.432 158.783 487.847 158.31 488.676C157.836 489.502 157.599 490.67 157.599 492.182C157.599 493.189 157.705 494.045 157.918 494.75C158.13 495.455 158.435 495.991 158.832 496.358C159.234 496.725 159.717 496.909 160.281 496.909ZM166.537 498L171.741 487.705V487.614H165.741V486.364H173.196V487.682L168.014 498H166.537ZM179.405 486.364V498H177.996V487.841H177.928L175.087 489.727V488.295L177.996 486.364H179.405ZM186.388 498.159C185.721 498.159 185.121 498.027 184.587 497.761C184.053 497.496 183.625 497.133 183.303 496.67C182.981 496.208 182.804 495.682 182.774 495.091H184.138C184.191 495.617 184.429 496.053 184.854 496.398C185.282 496.739 185.793 496.909 186.388 496.909C186.865 496.909 187.289 496.797 187.661 496.574C188.036 496.35 188.329 496.044 188.541 495.653C188.757 495.259 188.865 494.814 188.865 494.318C188.865 493.811 188.753 493.358 188.53 492.96C188.31 492.559 188.007 492.242 187.621 492.011C187.234 491.78 186.793 491.663 186.297 491.659C185.941 491.655 185.575 491.71 185.2 491.824C184.825 491.934 184.517 492.076 184.274 492.25L182.956 492.091L183.661 486.364H189.706V487.614H184.842L184.433 491.045H184.501C184.74 490.856 185.039 490.699 185.399 490.574C185.759 490.449 186.134 490.386 186.524 490.386C187.236 490.386 187.871 490.557 188.428 490.898C188.988 491.235 189.428 491.697 189.746 492.284C190.068 492.871 190.229 493.542 190.229 494.295C190.229 495.038 190.062 495.701 189.729 496.284C189.399 496.864 188.945 497.322 188.365 497.659C187.786 497.992 187.126 498.159 186.388 498.159ZM196.349 498.159C195.872 498.152 195.395 498.061 194.918 497.886C194.44 497.712 194.005 497.419 193.611 497.006C193.217 496.589 192.901 496.027 192.662 495.318C192.423 494.606 192.304 493.712 192.304 492.636C192.304 491.606 192.401 490.693 192.594 489.898C192.787 489.098 193.067 488.426 193.435 487.881C193.802 487.331 194.245 486.915 194.764 486.631C195.287 486.347 195.876 486.205 196.531 486.205C197.183 486.205 197.762 486.335 198.27 486.597C198.781 486.854 199.198 487.214 199.52 487.676C199.842 488.138 200.05 488.67 200.145 489.273H198.759C198.63 488.75 198.38 488.316 198.009 487.972C197.637 487.627 197.145 487.455 196.531 487.455C195.63 487.455 194.92 487.847 194.401 488.631C193.885 489.415 193.626 490.515 193.622 491.932H193.713C193.925 491.61 194.177 491.335 194.469 491.108C194.764 490.877 195.09 490.699 195.446 490.574C195.802 490.449 196.179 490.386 196.577 490.386C197.243 490.386 197.853 490.553 198.406 490.886C198.959 491.216 199.402 491.672 199.736 492.256C200.069 492.835 200.236 493.5 200.236 494.25C200.236 494.97 200.075 495.629 199.753 496.227C199.431 496.822 198.978 497.295 198.395 497.648C197.815 497.996 197.134 498.167 196.349 498.159ZM196.349 496.909C196.827 496.909 197.255 496.79 197.634 496.551C198.016 496.312 198.317 495.992 198.537 495.591C198.76 495.189 198.872 494.742 198.872 494.25C198.872 493.769 198.764 493.331 198.548 492.938C198.336 492.54 198.043 492.223 197.668 491.989C197.296 491.754 196.872 491.636 196.395 491.636C196.035 491.636 195.7 491.708 195.389 491.852C195.079 491.992 194.806 492.186 194.571 492.432C194.34 492.678 194.158 492.96 194.026 493.278C193.893 493.593 193.827 493.924 193.827 494.273C193.827 494.735 193.935 495.167 194.151 495.568C194.37 495.97 194.67 496.294 195.048 496.54C195.431 496.786 195.865 496.909 196.349 496.909ZM206.561 486.364V498H205.152V487.841H205.084L202.243 489.727V488.295L205.152 486.364H206.561ZM209.908 498V496.977L213.749 492.773C214.199 492.28 214.571 491.852 214.862 491.489C215.154 491.121 215.37 490.777 215.51 490.455C215.654 490.129 215.726 489.788 215.726 489.432C215.726 489.023 215.627 488.669 215.43 488.369C215.237 488.07 214.972 487.839 214.635 487.676C214.298 487.513 213.919 487.432 213.499 487.432C213.052 487.432 212.661 487.525 212.328 487.71C211.999 487.892 211.743 488.148 211.561 488.477C211.383 488.807 211.294 489.193 211.294 489.636H209.953C209.953 488.955 210.11 488.356 210.425 487.841C210.739 487.326 211.167 486.924 211.709 486.636C212.254 486.348 212.866 486.205 213.544 486.205C214.226 486.205 214.83 486.348 215.357 486.636C215.883 486.924 216.296 487.312 216.595 487.801C216.894 488.29 217.044 488.833 217.044 489.432C217.044 489.86 216.966 490.278 216.811 490.688C216.66 491.093 216.394 491.545 216.016 492.045C215.641 492.542 215.12 493.148 214.453 493.864L211.839 496.659V496.75H217.249V498H209.908ZM223.527 498.159C222.777 498.159 222.108 498.03 221.521 497.773C220.938 497.515 220.474 497.157 220.129 496.699C219.788 496.237 219.603 495.701 219.572 495.091H221.004C221.035 495.466 221.163 495.79 221.391 496.062C221.618 496.331 221.915 496.54 222.283 496.688C222.65 496.835 223.057 496.909 223.504 496.909C224.004 496.909 224.447 496.822 224.834 496.648C225.22 496.473 225.523 496.231 225.743 495.92C225.963 495.61 226.072 495.25 226.072 494.841C226.072 494.413 225.966 494.036 225.754 493.71C225.542 493.381 225.232 493.123 224.822 492.938C224.413 492.752 223.913 492.659 223.322 492.659H222.391V491.409H223.322C223.785 491.409 224.19 491.326 224.538 491.159C224.891 490.992 225.165 490.758 225.362 490.455C225.563 490.152 225.663 489.795 225.663 489.386C225.663 488.992 225.576 488.65 225.402 488.358C225.228 488.066 224.982 487.839 224.663 487.676C224.349 487.513 223.978 487.432 223.55 487.432C223.148 487.432 222.769 487.506 222.413 487.653C222.061 487.797 221.773 488.008 221.55 488.284C221.326 488.557 221.205 488.886 221.186 489.273H219.822C219.845 488.663 220.029 488.129 220.374 487.67C220.718 487.208 221.169 486.848 221.726 486.591C222.286 486.333 222.902 486.205 223.572 486.205C224.292 486.205 224.91 486.35 225.425 486.642C225.94 486.93 226.336 487.311 226.612 487.784C226.889 488.258 227.027 488.769 227.027 489.318C227.027 489.973 226.855 490.532 226.51 490.994C226.169 491.456 225.705 491.777 225.118 491.955V492.045C225.853 492.167 226.427 492.479 226.839 492.983C227.252 493.483 227.459 494.102 227.459 494.841C227.459 495.473 227.286 496.042 226.942 496.545C226.601 497.045 226.135 497.439 225.544 497.727C224.953 498.015 224.281 498.159 223.527 498.159ZM233.487 486.205C233.964 486.208 234.442 486.299 234.919 486.477C235.396 486.655 235.832 486.951 236.226 487.364C236.62 487.773 236.936 488.331 237.175 489.04C237.413 489.748 237.533 490.636 237.533 491.705C237.533 492.739 237.434 493.657 237.237 494.46C237.044 495.259 236.764 495.934 236.396 496.483C236.033 497.032 235.589 497.449 235.067 497.733C234.548 498.017 233.961 498.159 233.305 498.159C232.654 498.159 232.072 498.03 231.561 497.773C231.054 497.511 230.637 497.15 230.311 496.688C229.989 496.222 229.783 495.682 229.692 495.068H231.078C231.203 495.602 231.451 496.044 231.822 496.392C232.197 496.737 232.692 496.909 233.305 496.909C234.203 496.909 234.911 496.517 235.43 495.733C235.953 494.949 236.214 493.841 236.214 492.409H236.124C235.911 492.727 235.66 493.002 235.368 493.233C235.076 493.464 234.752 493.642 234.396 493.767C234.04 493.892 233.661 493.955 233.26 493.955C232.593 493.955 231.982 493.79 231.425 493.46C230.872 493.127 230.429 492.67 230.095 492.091C229.766 491.508 229.601 490.841 229.601 490.091C229.601 489.379 229.76 488.727 230.078 488.136C230.4 487.542 230.851 487.068 231.43 486.716C232.014 486.364 232.699 486.193 233.487 486.205ZM233.487 487.455C233.01 487.455 232.58 487.574 232.197 487.812C231.819 488.047 231.518 488.366 231.294 488.767C231.074 489.165 230.964 489.606 230.964 490.091C230.964 490.576 231.071 491.017 231.283 491.415C231.499 491.809 231.792 492.123 232.163 492.358C232.538 492.589 232.964 492.705 233.442 492.705C233.802 492.705 234.137 492.634 234.447 492.494C234.758 492.35 235.029 492.155 235.26 491.909C235.495 491.659 235.679 491.377 235.811 491.062C235.944 490.744 236.01 490.413 236.01 490.068C236.01 489.614 235.9 489.187 235.68 488.79C235.464 488.392 235.165 488.07 234.783 487.824C234.404 487.578 233.972 487.455 233.487 487.455Z" fill="#454444"/>
<path d="M439 473H457M455 473V487C455 488 454 489 453 489H443C442 489 441 488 441 487V473M444 473V471C444 470 445 469 446 469H450C451 469 452 470 452 471V473M446 478V484M450 478V484" stroke="#4BC1BD" stroke-width="2" stroke-linecap="round" stroke-linejoin="round"/>
<rect x="20" y="64" width="460" height="1" fill="#2C2C2C"/>
<path d="M21.26 40V27.4H24.824V40H21.26ZM33.5516 30.082C34.3076 30.082 34.9916 30.238 35.6036 30.55C36.2156 30.85 36.6956 31.318 37.0436 31.954C37.4036 32.59 37.5836 33.412 37.5836 34.42V40H34.1636V34.978C34.1636 34.282 34.0196 33.778 33.7316 33.466C33.4556 33.142 33.0656 32.98 32.5616 32.98C32.2016 32.98 31.8716 33.064 31.5716 33.232C31.2716 33.388 31.0376 33.634 30.8696 33.97C30.7016 34.306 30.6176 34.744 30.6176 35.284V40H27.1976V30.244H30.4556V33.016L29.8256 32.206C30.1976 31.498 30.7076 30.97 31.3556 30.622C32.0036 30.262 32.7356 30.082 33.5516 30.082ZM43.2768 40.162C42.4488 40.162 41.6388 40.066 40.8468 39.874C40.0668 39.682 39.4368 39.442 38.9568 39.154L39.9828 36.814C40.4388 37.09 40.9728 37.312 41.5848 37.48C42.1968 37.636 42.7968 37.714 43.3848 37.714C43.9608 37.714 44.3568 37.654 44.5728 37.534C44.8008 37.414 44.9148 37.252 44.9148 37.048C44.9148 36.856 44.8068 36.718 44.5908 36.634C44.3868 36.538 44.1108 36.466 43.7628 36.418C43.4268 36.37 43.0548 36.316 42.6468 36.256C42.2388 36.196 41.8248 36.118 41.4048 36.022C40.9968 35.914 40.6188 35.758 40.2708 35.554C39.9348 35.338 39.6648 35.05 39.4608 34.69C39.2568 34.33 39.1548 33.874 39.1548 33.322C39.1548 32.698 39.3348 32.146 39.6948 31.666C40.0668 31.174 40.6068 30.79 41.3148 30.514C42.0228 30.226 42.8868 30.082 43.9068 30.082C44.5908 30.082 45.2808 30.154 45.9768 30.298C46.6848 30.43 47.2788 30.634 47.7588 30.91L46.7328 33.232C46.2528 32.956 45.7728 32.77 45.2928 32.674C44.8128 32.566 44.3568 32.512 43.9248 32.512C43.3488 32.512 42.9408 32.578 42.7008 32.71C42.4728 32.842 42.3588 33.004 42.3588 33.196C42.3588 33.388 42.4608 33.538 42.6648 33.646C42.8688 33.742 43.1388 33.82 43.4748 33.88C43.8228 33.928 44.2008 33.982 44.6088 34.042C45.0168 34.09 45.4248 34.168 45.8328 34.276C46.2528 34.384 46.6308 34.546 46.9668 34.762C47.3148 34.966 47.5908 35.248 47.7948 35.608C47.9988 35.956 48.1008 36.406 48.1008 36.958C48.1008 37.558 47.9148 38.098 47.5428 38.578C47.1828 39.058 46.6428 39.442 45.9228 39.73C45.2148 40.018 44.3328 40.162 43.2768 40.162ZM54.6866 40.162C53.5346 40.162 52.5266 39.946 51.6626 39.514C50.8106 39.07 50.1446 38.47 49.6646 37.714C49.1966 36.946 48.9626 36.076 48.9626 35.104C48.9626 34.132 49.1906 33.268 49.6466 32.512C50.1146 31.744 50.7566 31.15 51.5726 30.73C52.3886 30.298 53.3066 30.082 54.3266 30.082C55.2866 30.082 56.1626 30.28 56.9546 30.676C57.7466 31.06 58.3766 31.63 58.8446 32.386C59.3126 33.142 59.5466 34.06 59.5466 35.14C59.5466 35.26 59.5406 35.398 59.5286 35.554C59.5166 35.71 59.5046 35.854 59.4926 35.986H51.7706V34.186H57.6746L56.3786 34.69C56.3906 34.246 56.3066 33.862 56.1266 33.538C55.9586 33.214 55.7186 32.962 55.4066 32.782C55.1066 32.602 54.7526 32.512 54.3446 32.512C53.9366 32.512 53.5766 32.602 53.2646 32.782C52.9646 32.962 52.7306 33.22 52.5626 33.556C52.3946 33.88 52.3106 34.264 52.3106 34.708V35.23C52.3106 35.71 52.4066 36.124 52.5986 36.472C52.8026 36.82 53.0906 37.09 53.4626 37.282C53.8346 37.462 54.2786 37.552 54.7946 37.552C55.2746 37.552 55.6826 37.486 56.0186 37.354C56.3666 37.21 56.7086 36.994 57.0446 36.706L58.8446 38.578C58.3766 39.094 57.8006 39.49 57.1166 39.766C56.4326 40.03 55.6226 40.162 54.6866 40.162ZM61.1234 40V30.244H64.3814V33.088L63.8954 32.278C64.1834 31.546 64.6514 31 65.2994 30.64C65.9474 30.268 66.7334 30.082 67.6574 30.082V33.16C67.5014 33.136 67.3634 33.124 67.2434 33.124C67.1354 33.112 67.0154 33.106 66.8834 33.106C66.1874 33.106 65.6234 33.298 65.1914 33.682C64.7594 34.054 64.5434 34.666 64.5434 35.518V40H61.1234ZM73.7235 40.162C72.4755 40.162 71.5035 39.856 70.8075 39.244C70.1115 38.62 69.7635 37.684 69.7635 36.436V28.066H73.1835V36.4C73.1835 36.748 73.2795 37.024 73.4715 37.228C73.6635 37.42 73.9095 37.516 74.2095 37.516C74.6175 37.516 74.9655 37.414 75.2535 37.21L76.0995 39.604C75.8115 39.796 75.4575 39.934 75.0375 40.018C74.6175 40.114 74.1795 40.162 73.7235 40.162ZM68.3415 33.16V30.604H75.4155V33.16H68.3415ZM82.8186 40V27.4H88.5786C89.7306 27.4 90.7206 27.586 91.5486 27.958C92.3886 28.33 93.0366 28.87 93.4926 29.578C93.9486 30.274 94.1766 31.102 94.1766 32.062C94.1766 33.01 93.9486 33.832 93.4926 34.528C93.0366 35.212 92.3886 35.74 91.5486 36.112C90.7206 36.472 89.7306 36.652 88.5786 36.652H84.7986L86.3826 35.158V40H82.8186ZM90.6126 40L87.4806 35.41H91.2786L94.4286 40H90.6126ZM86.3826 35.536L84.7986 33.898H88.3626C89.1066 33.898 89.6586 33.736 90.0186 33.412C90.3906 33.088 90.5766 32.638 90.5766 32.062C90.5766 31.474 90.3906 31.018 90.0186 30.694C89.6586 30.37 89.1066 30.208 88.3626 30.208H84.7986L86.3826 28.57V35.536ZM101.093 40.162C99.9408 40.162 98.9328 39.946 98.0688 39.514C97.2168 39.07 96.5508 38.47 96.0708 37.714C95.6028 36.946 95.3688 36.076 95.3688 35.104C95.3688 34.132 95.5968 33.268 96.0528 32.512C96.5208 31.744 97.1628 31.15 97.9788 30.73C98.7948 30.298 99.7128 30.082 100.733 30.082C101.693 30.082 102.569 30.28 103.361 30.676C104.153 31.06 104.783 31.63 105.251 32.386C105.719 33.142 105.953 34.06 105.953 35.14C105.953 35.26 105.947 35.398 105.935 35.554C105.923 35.71 105.911 35.854 105.899 35.986H98.1768V34.186H104.081L102.785 34.69C102.797 34.246 102.713 33.862 102.533 33.538C102.365 33.214 102.125 32.962 101.813 32.782C101.513 32.602 101.159 32.512 100.751 32.512C100.343 32.512 99.9828 32.602 99.6708 32.782C99.3708 32.962 99.1368 33.22 98.9688 33.556C98.8008 33.88 98.7168 34.264 98.7168 34.708V35.23C98.7168 35.71 98.8128 36.124 99.0048 36.472C99.2088 36.82 99.4968 37.09 99.8688 37.282C100.241 37.462 100.685 37.552 101.201 37.552C101.681 37.552 102.089 37.486 102.425 37.354C102.773 37.21 103.115 36.994 103.451 36.706L105.251 38.578C104.783 39.094 104.207 39.49 103.523 39.766C102.839 40.03 102.029 40.162 101.093 40.162ZM111.634 40.162C110.842 40.162 110.128 40.006 109.492 39.694C108.868 39.382 108.376 38.896 108.016 38.236C107.668 37.564 107.494 36.718 107.494 35.698V30.244H110.914V35.14C110.914 35.896 111.052 36.436 111.328 36.76C111.616 37.084 112.018 37.246 112.534 37.246C112.87 37.246 113.176 37.168 113.452 37.012C113.728 36.856 113.95 36.61 114.118 36.274C114.286 35.926 114.37 35.482 114.37 34.942V30.244H117.79V40H114.532V37.246L115.162 38.02C114.826 38.74 114.34 39.28 113.704 39.64C113.068 39.988 112.378 40.162 111.634 40.162ZM123.539 40.162C122.711 40.162 121.901 40.066 121.109 39.874C120.329 39.682 119.699 39.442 119.219 39.154L120.245 36.814C120.701 37.09 121.235 37.312 121.847 37.48C122.459 37.636 123.059 37.714 123.647 37.714C124.223 37.714 124.619 37.654 124.835 37.534C125.063 37.414 125.177 37.252 125.177 37.048C125.177 36.856 125.069 36.718 124.853 36.634C124.649 36.538 124.373 36.466 124.025 36.418C123.689 36.37 123.317 36.316 122.909 36.256C122.501 36.196 122.087 36.118 121.667 36.022C121.259 35.914 120.881 35.758 120.533 35.554C120.197 35.338 119.927 35.05 119.723 34.69C119.519 34.33 119.417 33.874 119.417 33.322C119.417 32.698 119.597 32.146 119.957 31.666C120.329 31.174 120.869 30.79 121.577 30.514C122.285 30.226 123.149 30.082 124.169 30.082C124.853 30.082 125.543 30.154 126.239 30.298C126.947 30.43 127.541 30.634 128.021 30.91L126.995 33.232C126.515 32.956 126.035 32.77 125.555 32.674C125.075 32.566 124.619 32.512 124.187 32.512C123.611 32.512 123.203 32.578 122.963 32.71C122.735 32.842 122.621 33.004 122.621 33.196C122.621 33.388 122.723 33.538 122.927 33.646C123.131 33.742 123.401 33.82 123.737 33.88C124.085 33.928 124.463 33.982 124.871 34.042C125.279 34.09 125.687 34.168 126.095 34.276C126.515 34.384 126.893 34.546 127.229 34.762C127.577 34.966 127.853 35.248 128.057 35.608C128.261 35.956 128.363 36.406 128.363 36.958C128.363 37.558 128.177 38.098 127.805 38.578C127.445 39.058 126.905 39.442 126.185 39.73C125.477 40.018 124.595 40.162 123.539 40.162ZM135.794 40V38.182L135.56 37.732V34.384C135.56 33.844 135.392 33.43 135.056 33.142C134.732 32.842 134.21 32.692 133.49 32.692C133.022 32.692 132.548 32.77 132.068 32.926C131.588 33.07 131.18 33.274 130.844 33.538L129.692 31.216C130.244 30.856 130.904 30.58 131.672 30.388C132.452 30.184 133.226 30.082 133.994 30.082C135.578 30.082 136.802 30.448 137.666 31.18C138.542 31.9 138.98 33.034 138.98 34.582V40H135.794ZM132.914 40.162C132.134 40.162 131.474 40.03 130.934 39.766C130.394 39.502 129.98 39.142 129.692 38.686C129.416 38.23 129.278 37.72 129.278 37.156C129.278 36.556 129.428 36.04 129.728 35.608C130.04 35.164 130.514 34.828 131.15 34.6C131.786 34.36 132.608 34.24 133.616 34.24H135.92V36.022H134.084C133.532 36.022 133.142 36.112 132.914 36.292C132.698 36.472 132.59 36.712 132.59 37.012C132.59 37.312 132.704 37.552 132.932 37.732C133.16 37.912 133.472 38.002 133.868 38.002C134.24 38.002 134.576 37.912 134.876 37.732C135.188 37.54 135.416 37.252 135.56 36.868L136.028 38.128C135.848 38.8 135.494 39.31 134.966 39.658C134.45 39.994 133.766 40.162 132.914 40.162ZM147.277 40.162C146.401 40.162 145.669 39.982 145.081 39.622C144.505 39.262 144.073 38.71 143.785 37.966C143.497 37.222 143.353 36.268 143.353 35.104C143.353 33.964 143.503 33.022 143.803 32.278C144.115 31.534 144.565 30.982 145.153 30.622C145.741 30.262 146.449 30.082 147.277 30.082C148.165 30.082 148.969 30.286 149.689 30.694C150.421 31.102 150.997 31.684 151.417 32.44C151.849 33.184 152.065 34.072 152.065 35.104C152.065 36.148 151.849 37.048 151.417 37.804C150.997 38.548 150.421 39.13 149.689 39.55C148.969 39.958 148.165 40.162 147.277 40.162ZM141.139 40V26.644H144.559V31.882L144.379 35.104L144.397 38.326V40H141.139ZM146.557 37.444C146.941 37.444 147.283 37.354 147.583 37.174C147.895 36.994 148.141 36.73 148.321 36.382C148.513 36.022 148.609 35.596 148.609 35.104C148.609 34.612 148.513 34.198 148.321 33.862C148.141 33.514 147.895 33.25 147.583 33.07C147.283 32.89 146.941 32.8 146.557 32.8C146.173 32.8 145.825 32.89 145.513 33.07C145.213 33.25 144.967 33.514 144.775 33.862C144.595 34.198 144.505 34.612 144.505 35.104C144.505 35.596 144.595 36.022 144.775 36.382C144.967 36.73 145.213 36.994 145.513 37.174C145.825 37.354 146.173 37.444 146.557 37.444ZM153.655 40V26.644H157.075V40H153.655ZM164.409 40.162C163.257 40.162 162.249 39.946 161.385 39.514C160.533 39.07 159.867 38.47 159.387 37.714C158.919 36.946 158.685 36.076 158.685 35.104C158.685 34.132 158.913 33.268 159.369 32.512C159.837 31.744 160.479 31.15 161.295 30.73C162.111 30.298 163.029 30.082 164.049 30.082C165.009 30.082 165.885 30.28 166.677 30.676C167.469 31.06 168.099 31.63 168.567 32.386C169.035 33.142 169.269 34.06 169.269 35.14C169.269 35.26 169.263 35.398 169.251 35.554C169.239 35.71 169.227 35.854 169.215 35.986H161.493V34.186H167.397L166.101 34.69C166.113 34.246 166.029 33.862 165.849 33.538C165.681 33.214 165.441 32.962 165.129 32.782C164.829 32.602 164.475 32.512 164.067 32.512C163.659 32.512 163.299 32.602 162.987 32.782C162.687 32.962 162.453 33.22 162.285 33.556C162.117 33.88 162.033 34.264 162.033 34.708V35.23C162.033 35.71 162.129 36.124 162.321 36.472C162.525 36.82 162.813 37.09 163.185 37.282C163.557 37.462 164.001 37.552 164.517 37.552C164.997 37.552 165.405 37.486 165.741 37.354C166.089 37.21 166.431 36.994 166.767 36.706L168.567 38.578C168.099 39.094 167.523 39.49 166.839 39.766C166.155 40.03 165.345 40.162 164.409 40.162ZM176.246 40V27.4H182.69C184.346 27.4 185.582 27.706 186.398 28.318C187.214 28.918 187.622 29.71 187.622 30.694C187.622 31.342 187.448 31.912 187.1 32.404C186.764 32.884 186.284 33.268 185.66 33.556C185.048 33.832 184.316 33.97 183.464 33.97L183.824 33.106C184.712 33.106 185.486 33.244 186.146 33.52C186.806 33.784 187.316 34.174 187.676 34.69C188.048 35.194 188.234 35.812 188.234 36.544C188.234 37.636 187.79 38.488 186.902 39.1C186.026 39.7 184.742 40 183.05 40H176.246ZM179.774 37.426H182.762C183.374 37.426 183.836 37.324 184.148 37.12C184.472 36.904 184.634 36.58 184.634 36.148C184.634 35.716 184.472 35.398 184.148 35.194C183.836 34.978 183.374 34.87 182.762 34.87H179.522V32.404H182.222C182.822 32.404 183.272 32.302 183.572 32.098C183.872 31.894 184.022 31.588 184.022 31.18C184.022 30.772 183.872 30.472 183.572 30.28C183.272 30.076 182.822 29.974 182.222 29.974H179.774V37.426ZM189.918 40V26.644H193.338V40H189.918ZM200.457 40.162C199.389 40.162 198.441 39.946 197.613 39.514C196.785 39.082 196.131 38.488 195.651 37.732C195.183 36.964 194.949 36.088 194.949 35.104C194.949 34.12 195.183 33.25 195.651 32.494C196.131 31.738 196.785 31.15 197.613 30.73C198.441 30.298 199.389 30.082 200.457 30.082C201.525 30.082 202.473 30.298 203.301 30.73C204.141 31.15 204.795 31.738 205.263 32.494C205.731 33.25 205.965 34.12 205.965 35.104C205.965 36.088 205.731 36.964 205.263 37.732C204.795 38.488 204.141 39.082 203.301 39.514C202.473 39.946 201.525 40.162 200.457 40.162ZM200.457 37.444C200.853 37.444 201.201 37.354 201.501 37.174C201.813 36.994 202.059 36.73 202.239 36.382C202.419 36.022 202.509 35.596 202.509 35.104C202.509 34.612 202.419 34.198 202.239 33.862C202.059 33.514 201.813 33.25 201.501 33.07C201.201 32.89 200.853 32.8 200.457 32.8C200.073 32.8 199.725 32.89 199.413 33.07C199.113 33.25 198.867 33.514 198.675 33.862C198.495 34.198 198.405 34.612 198.405 35.104C198.405 35.596 198.495 36.022 198.675 36.382C198.867 36.73 199.113 36.994 199.413 37.174C199.725 37.354 200.073 37.444 200.457 37.444ZM212.535 40.162C211.455 40.162 210.489 39.946 209.637 39.514C208.797 39.082 208.137 38.488 207.657 37.732C207.177 36.964 206.937 36.088 206.937 35.104C206.937 34.12 207.177 33.25 207.657 32.494C208.137 31.738 208.797 31.15 209.637 30.73C210.489 30.298 211.455 30.082 212.535 30.082C213.639 30.082 214.593 30.316 215.397 30.784C216.201 31.252 216.771 31.912 217.107 32.764L214.461 34.114C214.233 33.658 213.951 33.328 213.615 33.124C213.279 32.908 212.913 32.8 212.517 32.8C212.121 32.8 211.761 32.89 211.437 33.07C211.113 33.25 210.855 33.514 210.663 33.862C210.483 34.198 210.393 34.612 210.393 35.104C210.393 35.608 210.483 36.034 210.663 36.382C210.855 36.73 211.113 36.994 211.437 37.174C211.761 37.354 212.121 37.444 212.517 37.444C212.913 37.444 213.279 37.342 213.615 37.138C213.951 36.922 214.233 36.586 214.461 36.13L217.107 37.48C216.771 38.332 216.201 38.992 215.397 39.46C214.593 39.928 213.639 40.162 212.535 40.162ZM221.204 38.2L221.294 34.114L225.272 30.244H229.322L224.912 34.798L223.166 36.202L221.204 38.2ZM218.36 40V26.644H221.78V40H218.36ZM225.524 40L222.536 36.256L224.66 33.628L229.664 40H225.524Z" fill="white"/>
<path d="M474 26L462 38M462 26L474 38" stroke="#4BC1BD" stroke-width="2" stroke-linecap="round" stroke-linejoin="round"/>
</svg>
