<svg width="1200" height="346" viewBox="0 0 1200 346" fill="none" xmlns="http://www.w3.org/2000/svg">
<path d="M12 0.5H1188C1194.35 0.5 1199.5 5.64872 1199.5 12V334C1199.5 340.351 1194.35 345.5 1188 345.5H12C5.64871 345.5 0.5 340.351 0.5 334V12C0.5 5.64873 5.64873 0.5 12 0.5Z" fill="black"/>
<path d="M12 0.5H1188C1194.35 0.5 1199.5 5.64872 1199.5 12V334C1199.5 340.351 1194.35 345.5 1188 345.5H12C5.64871 345.5 0.5 340.351 0.5 334V12C0.5 5.64873 5.64873 0.5 12 0.5Z" stroke="#2C2C2C"/>
<path d="M1127 32L1124 35M1124 35L1127 38M1124 35H1144M1131 28L1134 25M1134 25L1137 28M1134 25V45M1137 42L1134 45M1134 45L1131 42M1141 32L1144 35M1144 35L1141 38" stroke="#4BC1BD" stroke-width="2" stroke-linecap="round" stroke-linejoin="round"/>
<path d="M1168 36C1168.55 36 1169 35.5523 1169 35C1169 34.4477 1168.55 34 1168 34C1167.45 34 1167 34.4477 1167 35C1167 35.5523 1167.45 36 1168 36Z" stroke="#4BC1BD" stroke-width="2" stroke-linecap="round" stroke-linejoin="round"/>
<path d="M1168 29C1168.55 29 1169 28.5523 1169 28C1169 27.4477 1168.55 27 1168 27C1167.45 27 1167 27.4477 1167 28C1167 28.5523 1167.45 29 1168 29Z" stroke="#4BC1BD" stroke-width="2" stroke-linecap="round" stroke-linejoin="round"/>
<path d="M1168 43C1168.55 43 1169 42.5523 1169 42C1169 41.4477 1168.55 41 1168 41C1167.45 41 1167 41.4477 1167 42C1167 42.5523 1167.45 43 1168 43Z" stroke="#4BC1BD" stroke-width="2" stroke-linecap="round" stroke-linejoin="round"/>
<path d="M61.26 41V28.4H67.704C69.36 28.4 70.596 28.706 71.412 29.318C72.228 29.918 72.636 30.71 72.636 31.694C72.636 32.342 72.462 32.912 72.114 33.404C71.778 33.884 71.298 34.268 70.674 34.556C70.062 34.832 69.33 34.97 68.478 34.97L68.838 34.106C69.726 34.106 70.5 34.244 71.16 34.52C71.82 34.784 72.33 35.174 72.69 35.69C73.062 36.194 73.248 36.812 73.248 37.544C73.248 38.636 72.804 39.488 71.916 40.1C71.04 40.7 69.756 41 68.064 41H61.26ZM64.788 38.426H67.776C68.388 38.426 68.85 38.324 69.162 38.12C69.486 37.904 69.648 37.58 69.648 37.148C69.648 36.716 69.486 36.398 69.162 36.194C68.85 35.978 68.388 35.87 67.776 35.87H64.536V33.404H67.236C67.836 33.404 68.286 33.302 68.586 33.098C68.886 32.894 69.036 32.588 69.036 32.18C69.036 31.772 68.886 31.472 68.586 31.28C68.286 31.076 67.836 30.974 67.236 30.974H64.788V38.426ZM80.044 41.162C78.892 41.162 77.884 40.946 77.02 40.514C76.168 40.07 75.502 39.47 75.022 38.714C74.554 37.946 74.32 37.076 74.32 36.104C74.32 35.132 74.548 34.268 75.004 33.512C75.472 32.744 76.114 32.15 76.93 31.73C77.746 31.298 78.664 31.082 79.684 31.082C80.644 31.082 81.52 31.28 82.312 31.676C83.104 32.06 83.734 32.63 84.202 33.386C84.67 34.142 84.904 35.06 84.904 36.14C84.904 36.26 84.898 36.398 84.886 36.554C84.874 36.71 84.862 36.854 84.85 36.986H77.128V35.186H83.032L81.736 35.69C81.748 35.246 81.664 34.862 81.484 34.538C81.316 34.214 81.076 33.962 80.764 33.782C80.464 33.602 80.11 33.512 79.702 33.512C79.294 33.512 78.934 33.602 78.622 33.782C78.322 33.962 78.088 34.22 77.92 34.556C77.752 34.88 77.668 35.264 77.668 35.708V36.23C77.668 36.71 77.764 37.124 77.956 37.472C78.16 37.82 78.448 38.09 78.82 38.282C79.192 38.462 79.636 38.552 80.152 38.552C80.632 38.552 81.04 38.486 81.376 38.354C81.724 38.21 82.066 37.994 82.402 37.706L84.202 39.578C83.734 40.094 83.158 40.49 82.474 40.766C81.79 41.03 80.98 41.162 80.044 41.162ZM92.8348 31.082C93.5908 31.082 94.2748 31.238 94.8868 31.55C95.4988 31.85 95.9788 32.318 96.3268 32.954C96.6868 33.59 96.8668 34.412 96.8668 35.42V41H93.4468V35.978C93.4468 35.282 93.3028 34.778 93.0148 34.466C92.7388 34.142 92.3488 33.98 91.8448 33.98C91.4848 33.98 91.1548 34.064 90.8548 34.232C90.5548 34.388 90.3208 34.634 90.1528 34.97C89.9848 35.306 89.9008 35.744 89.9008 36.284V41H86.4808V31.244H89.7388V34.016L89.1088 33.206C89.4808 32.498 89.9908 31.97 90.6388 31.622C91.2868 31.262 92.0188 31.082 92.8348 31.082ZM104.249 41.162C103.097 41.162 102.089 40.946 101.225 40.514C100.373 40.07 99.7071 39.47 99.2271 38.714C98.7591 37.946 98.5251 37.076 98.5251 36.104C98.5251 35.132 98.7531 34.268 99.2091 33.512C99.6771 32.744 100.319 32.15 101.135 31.73C101.951 31.298 102.869 31.082 103.889 31.082C104.849 31.082 105.725 31.28 106.517 31.676C107.309 32.06 107.939 32.63 108.407 33.386C108.875 34.142 109.109 35.06 109.109 36.14C109.109 36.26 109.103 36.398 109.091 36.554C109.079 36.71 109.067 36.854 109.055 36.986H101.333V35.186H107.237L105.941 35.69C105.953 35.246 105.869 34.862 105.689 34.538C105.521 34.214 105.281 33.962 104.969 33.782C104.669 33.602 104.315 33.512 103.907 33.512C103.499 33.512 103.139 33.602 102.827 33.782C102.527 33.962 102.293 34.22 102.125 34.556C101.957 34.88 101.873 35.264 101.873 35.708V36.23C101.873 36.71 101.969 37.124 102.161 37.472C102.365 37.82 102.653 38.09 103.025 38.282C103.397 38.462 103.841 38.552 104.357 38.552C104.837 38.552 105.245 38.486 105.581 38.354C105.929 38.21 106.271 37.994 106.607 37.706L108.407 39.578C107.939 40.094 107.363 40.49 106.679 40.766C105.995 41.03 105.185 41.162 104.249 41.162ZM111.082 41V31.352C111.082 30.176 111.43 29.24 112.126 28.544C112.834 27.836 113.842 27.482 115.15 27.482C115.57 27.482 115.984 27.524 116.392 27.608C116.8 27.692 117.142 27.818 117.418 27.986L116.572 30.398C116.428 30.314 116.266 30.248 116.086 30.2C115.906 30.14 115.726 30.11 115.546 30.11C115.186 30.11 114.904 30.218 114.7 30.434C114.508 30.638 114.412 30.956 114.412 31.388V32.09L114.502 33.512V41H111.082ZM109.66 34.16V31.604H116.734V34.16H109.66ZM118.3 41V31.244H121.72V41H118.3ZM120.01 30.164C119.386 30.164 118.882 29.99 118.498 29.642C118.114 29.294 117.922 28.862 117.922 28.346C117.922 27.83 118.114 27.398 118.498 27.05C118.882 26.702 119.386 26.528 120.01 26.528C120.634 26.528 121.138 26.696 121.522 27.032C121.906 27.356 122.098 27.776 122.098 28.292C122.098 28.832 121.906 29.282 121.522 29.642C121.15 29.99 120.646 30.164 120.01 30.164ZM128.296 41.162C127.048 41.162 126.076 40.856 125.38 40.244C124.684 39.62 124.336 38.684 124.336 37.436V29.066H127.756V37.4C127.756 37.748 127.852 38.024 128.044 38.228C128.236 38.42 128.482 38.516 128.782 38.516C129.19 38.516 129.538 38.414 129.826 38.21L130.672 40.604C130.384 40.796 130.03 40.934 129.61 41.018C129.19 41.114 128.752 41.162 128.296 41.162ZM122.914 34.16V31.604H129.988V34.16H122.914ZM135.537 41.162C134.709 41.162 133.899 41.066 133.107 40.874C132.327 40.682 131.697 40.442 131.217 40.154L132.243 37.814C132.699 38.09 133.233 38.312 133.845 38.48C134.457 38.636 135.057 38.714 135.645 38.714C136.221 38.714 136.617 38.654 136.833 38.534C137.061 38.414 137.175 38.252 137.175 38.048C137.175 37.856 137.067 37.718 136.851 37.634C136.647 37.538 136.371 37.466 136.023 37.418C135.687 37.37 135.315 37.316 134.907 37.256C134.499 37.196 134.085 37.118 133.665 37.022C133.257 36.914 132.879 36.758 132.531 36.554C132.195 36.338 131.925 36.05 131.721 35.69C131.517 35.33 131.415 34.874 131.415 34.322C131.415 33.698 131.595 33.146 131.955 32.666C132.327 32.174 132.867 31.79 133.575 31.514C134.283 31.226 135.147 31.082 136.167 31.082C136.851 31.082 137.541 31.154 138.237 31.298C138.945 31.43 139.539 31.634 140.019 31.91L138.993 34.232C138.513 33.956 138.033 33.77 137.553 33.674C137.073 33.566 136.617 33.512 136.185 33.512C135.609 33.512 135.201 33.578 134.961 33.71C134.733 33.842 134.619 34.004 134.619 34.196C134.619 34.388 134.721 34.538 134.925 34.646C135.129 34.742 135.399 34.82 135.735 34.88C136.083 34.928 136.461 34.982 136.869 35.042C137.277 35.09 137.685 35.168 138.093 35.276C138.513 35.384 138.891 35.546 139.227 35.762C139.575 35.966 139.851 36.248 140.055 36.608C140.259 36.956 140.361 37.406 140.361 37.958C140.361 38.558 140.175 39.098 139.803 39.578C139.443 40.058 138.903 40.442 138.183 40.73C137.475 41.018 136.593 41.162 135.537 41.162Z" fill="white"/>
<path d="M39.9999 26V30M41.9999 28H37.9999M23.9999 40V42M24.9999 41H22.9999M29.9369 38.5C29.8477 38.1539 29.6673 37.8381 29.4146 37.5854C29.1618 37.3327 28.846 37.1523 28.4999 37.063L22.3649 35.481C22.2603 35.4513 22.1681 35.3883 22.1026 35.3014C22.037 35.2146 22.0015 35.1088 22.0015 35C22.0015 34.8912 22.037 34.7854 22.1026 34.6986C22.1681 34.6118 22.2603 34.5487 22.3649 34.519L28.4999 32.936C28.8459 32.8468 29.1616 32.6666 29.4143 32.414C29.6671 32.1615 29.8475 31.8459 29.9369 31.5L31.5189 25.365C31.5483 25.2599 31.6113 25.1673 31.6983 25.1014C31.7852 25.0355 31.8913 24.9998 32.0004 24.9998C32.1096 24.9998 32.2157 25.0355 32.3026 25.1014C32.3896 25.1673 32.4525 25.2599 32.4819 25.365L34.0629 31.5C34.1522 31.8461 34.3326 32.1619 34.5853 32.4146C34.838 32.6673 35.1539 32.8477 35.4999 32.937L41.6349 34.518C41.7404 34.5471 41.8335 34.61 41.8998 34.6971C41.9661 34.7841 42.002 34.8906 42.002 35C42.002 35.1094 41.9661 35.2159 41.8998 35.3029C41.8335 35.39 41.7404 35.4529 41.6349 35.482L35.4999 37.063C35.1539 37.1523 34.838 37.3327 34.5853 37.5854C34.3326 37.8381 34.1522 38.1539 34.0629 38.5L32.4809 44.635C32.4515 44.7401 32.3886 44.8327 32.3016 44.8986C32.2147 44.9646 32.1086 45.0003 31.9994 45.0003C31.8903 45.0003 31.7842 44.9646 31.6973 44.8986C31.6103 44.8327 31.5473 44.7401 31.5179 44.635L29.9369 38.5Z" stroke="#4BC1BD" stroke-width="2" stroke-linecap="round" stroke-linejoin="round"/>
<mask id="path-6-inside-1_9327_43818" fill="white">
<path d="M20 69H1180V326H20V69Z"/>
</mask>
<path d="M20 70H1180V68H20V70Z" fill="#2C2C2C" mask="url(#path-6-inside-1_9327_43818)"/>
<path d="M32 236.5H1168C1174.35 236.5 1179.5 241.649 1179.5 248V314C1179.5 320.351 1174.35 325.5 1168 325.5H32C25.6487 325.5 20.5 320.351 20.5 314V248C20.5 241.649 25.6487 236.5 32 236.5Z" fill="black"/>
<path d="M32 236.5H1168C1174.35 236.5 1179.5 241.649 1179.5 248V314C1179.5 320.351 1174.35 325.5 1168 325.5H32C25.6487 325.5 20.5 320.351 20.5 314V248C20.5 241.649 25.6487 236.5 32 236.5Z" stroke="#2C2C2C"/>
<rect x="528" y="257" width="144" height="48" rx="24" stroke="#4BC1BD" stroke-width="2"/>
<path d="M556.589 287H554.339L558.436 275.364H561.038L565.14 287H562.89L559.782 277.75H559.691L556.589 287ZM556.663 282.438H562.799V284.131H556.663V282.438ZM569.715 287.153C569.029 287.153 568.416 286.977 567.874 286.625C567.332 286.273 566.904 285.761 566.59 285.091C566.275 284.42 566.118 283.606 566.118 282.648C566.118 281.678 566.277 280.86 566.596 280.193C566.917 279.523 567.351 279.017 567.897 278.676C568.442 278.331 569.05 278.159 569.721 278.159C570.232 278.159 570.652 278.246 570.982 278.42C571.311 278.591 571.573 278.797 571.766 279.04C571.959 279.278 572.109 279.504 572.215 279.716H572.3V275.364H574.363V287H572.34V285.625H572.215C572.109 285.837 571.955 286.062 571.755 286.301C571.554 286.536 571.289 286.737 570.959 286.903C570.63 287.07 570.215 287.153 569.715 287.153ZM570.289 285.466C570.724 285.466 571.096 285.348 571.402 285.114C571.709 284.875 571.942 284.544 572.101 284.119C572.26 283.695 572.34 283.201 572.34 282.636C572.34 282.072 572.26 281.581 572.101 281.165C571.946 280.748 571.715 280.424 571.408 280.193C571.105 279.962 570.732 279.847 570.289 279.847C569.83 279.847 569.448 279.966 569.141 280.205C568.834 280.443 568.603 280.773 568.448 281.193C568.292 281.614 568.215 282.095 568.215 282.636C568.215 283.182 568.292 283.669 568.448 284.097C568.607 284.521 568.84 284.856 569.147 285.102C569.457 285.345 569.838 285.466 570.289 285.466ZM579.953 287.153C579.267 287.153 578.654 286.977 578.112 286.625C577.57 286.273 577.142 285.761 576.828 285.091C576.514 284.42 576.356 283.606 576.356 282.648C576.356 281.678 576.515 280.86 576.834 280.193C577.156 279.523 577.589 279.017 578.135 278.676C578.68 278.331 579.288 278.159 579.959 278.159C580.47 278.159 580.89 278.246 581.22 278.42C581.55 278.591 581.811 278.797 582.004 279.04C582.197 279.278 582.347 279.504 582.453 279.716H582.538V275.364H584.601V287H582.578V285.625H582.453C582.347 285.837 582.193 286.062 581.993 286.301C581.792 286.536 581.527 286.737 581.197 286.903C580.868 287.07 580.453 287.153 579.953 287.153ZM580.527 285.466C580.962 285.466 581.334 285.348 581.64 285.114C581.947 284.875 582.18 284.544 582.339 284.119C582.498 283.695 582.578 283.201 582.578 282.636C582.578 282.072 582.498 281.581 582.339 281.165C582.184 280.748 581.953 280.424 581.646 280.193C581.343 279.962 580.97 279.847 580.527 279.847C580.068 279.847 579.686 279.966 579.379 280.205C579.072 280.443 578.841 280.773 578.686 281.193C578.531 281.614 578.453 282.095 578.453 282.636C578.453 283.182 578.531 283.669 578.686 284.097C578.845 284.521 579.078 284.856 579.385 285.102C579.695 285.345 580.076 285.466 580.527 285.466ZM591.172 287V275.364H595.627C596.468 275.364 597.166 275.496 597.723 275.761C598.284 276.023 598.702 276.381 598.979 276.835C599.259 277.29 599.399 277.805 599.399 278.381C599.399 278.854 599.308 279.259 599.127 279.597C598.945 279.93 598.701 280.201 598.394 280.409C598.087 280.617 597.744 280.767 597.365 280.858V280.972C597.778 280.994 598.174 281.121 598.553 281.352C598.935 281.58 599.248 281.902 599.49 282.318C599.733 282.735 599.854 283.239 599.854 283.83C599.854 284.432 599.708 284.973 599.416 285.455C599.125 285.932 598.685 286.309 598.098 286.585C597.511 286.862 596.772 287 595.882 287H591.172ZM593.28 285.239H595.547C596.312 285.239 596.863 285.093 597.201 284.801C597.541 284.506 597.712 284.127 597.712 283.665C597.712 283.32 597.627 283.009 597.456 282.733C597.286 282.453 597.043 282.233 596.729 282.074C596.415 281.911 596.04 281.83 595.604 281.83H593.28V285.239ZM593.28 280.312H595.365C595.729 280.312 596.057 280.246 596.348 280.114C596.64 279.977 596.869 279.786 597.036 279.54C597.206 279.29 597.291 278.994 597.291 278.653C597.291 278.203 597.132 277.831 596.814 277.54C596.5 277.248 596.032 277.102 595.411 277.102H593.28V280.312ZM605.62 287.17C604.745 287.17 603.99 286.989 603.353 286.625C602.721 286.258 602.234 285.739 601.893 285.068C601.552 284.394 601.382 283.6 601.382 282.688C601.382 281.79 601.552 281.002 601.893 280.324C602.238 279.642 602.719 279.112 603.336 278.733C603.954 278.35 604.679 278.159 605.513 278.159C606.05 278.159 606.558 278.246 607.035 278.42C607.516 278.591 607.941 278.856 608.308 279.216C608.679 279.576 608.971 280.034 609.183 280.591C609.395 281.144 609.501 281.803 609.501 282.568V283.199H602.348V281.812H607.53C607.526 281.419 607.441 281.068 607.274 280.761C607.107 280.451 606.874 280.206 606.575 280.028C606.28 279.85 605.935 279.761 605.541 279.761C605.12 279.761 604.751 279.864 604.433 280.068C604.115 280.269 603.867 280.534 603.689 280.864C603.514 281.189 603.425 281.547 603.422 281.938V283.148C603.422 283.655 603.514 284.091 603.7 284.455C603.886 284.814 604.145 285.091 604.478 285.284C604.812 285.473 605.202 285.568 605.649 285.568C605.948 285.568 606.219 285.527 606.461 285.443C606.704 285.356 606.914 285.229 607.092 285.062C607.27 284.896 607.405 284.689 607.495 284.443L609.416 284.659C609.295 285.167 609.064 285.61 608.723 285.989C608.386 286.364 607.954 286.655 607.427 286.864C606.901 287.068 606.298 287.17 605.62 287.17ZM613.458 281.886V287H611.401V278.273H613.367V279.756H613.469C613.67 279.267 613.99 278.879 614.43 278.591C614.873 278.303 615.42 278.159 616.072 278.159C616.674 278.159 617.199 278.288 617.646 278.545C618.096 278.803 618.445 279.176 618.691 279.665C618.941 280.153 619.064 280.746 619.06 281.443V287H617.003V281.761C617.003 281.178 616.852 280.722 616.549 280.392C616.25 280.062 615.835 279.898 615.305 279.898C614.945 279.898 614.625 279.977 614.344 280.136C614.068 280.292 613.85 280.517 613.691 280.812C613.536 281.108 613.458 281.466 613.458 281.886ZM625.175 287.17C624.3 287.17 623.544 286.989 622.908 286.625C622.275 286.258 621.788 285.739 621.448 285.068C621.107 284.394 620.936 283.6 620.936 282.688C620.936 281.79 621.107 281.002 621.448 280.324C621.792 279.642 622.273 279.112 622.891 278.733C623.508 278.35 624.234 278.159 625.067 278.159C625.605 278.159 626.112 278.246 626.59 278.42C627.071 278.591 627.495 278.856 627.862 279.216C628.234 279.576 628.525 280.034 628.737 280.591C628.949 281.144 629.056 281.803 629.056 282.568V283.199H621.902V281.812H627.084C627.08 281.419 626.995 281.068 626.828 280.761C626.662 280.451 626.429 280.206 626.129 280.028C625.834 279.85 625.489 279.761 625.095 279.761C624.675 279.761 624.306 279.864 623.987 280.068C623.669 280.269 623.421 280.534 623.243 280.864C623.069 281.189 622.98 281.547 622.976 281.938V283.148C622.976 283.655 623.069 284.091 623.254 284.455C623.44 284.814 623.699 285.091 624.033 285.284C624.366 285.473 624.756 285.568 625.203 285.568C625.502 285.568 625.773 285.527 626.016 285.443C626.258 285.356 626.468 285.229 626.646 285.062C626.824 284.896 626.959 284.689 627.05 284.443L628.97 284.659C628.849 285.167 628.618 285.61 628.277 285.989C627.94 286.364 627.508 286.655 626.982 286.864C626.455 287.068 625.853 287.17 625.175 287.17ZM635.376 278.273V279.864H630.217V278.273H635.376ZM631.507 287V277.449C631.507 276.862 631.628 276.373 631.87 275.983C632.117 275.593 632.446 275.301 632.859 275.108C633.272 274.915 633.73 274.818 634.234 274.818C634.59 274.818 634.906 274.847 635.183 274.903C635.459 274.96 635.664 275.011 635.796 275.057L635.387 276.648C635.3 276.621 635.19 276.595 635.058 276.568C634.925 276.538 634.778 276.523 634.615 276.523C634.232 276.523 633.961 276.616 633.802 276.801C633.647 276.983 633.569 277.244 633.569 277.585V287H631.507ZM637.147 287V278.273H639.204V287H637.147ZM638.181 277.034C637.855 277.034 637.575 276.926 637.34 276.71C637.105 276.491 636.988 276.227 636.988 275.92C636.988 275.61 637.105 275.347 637.34 275.131C637.575 274.911 637.855 274.801 638.181 274.801C638.51 274.801 638.791 274.911 639.022 275.131C639.257 275.347 639.374 275.61 639.374 275.92C639.374 276.227 639.257 276.491 639.022 276.71C638.791 276.926 638.51 277.034 638.181 277.034ZM645.837 278.273V279.864H640.82V278.273H645.837ZM642.058 276.182H644.115V284.375C644.115 284.652 644.157 284.864 644.24 285.011C644.327 285.155 644.441 285.254 644.581 285.307C644.721 285.36 644.876 285.386 645.047 285.386C645.176 285.386 645.293 285.377 645.399 285.358C645.509 285.339 645.592 285.322 645.649 285.307L645.996 286.915C645.886 286.953 645.729 286.994 645.524 287.04C645.323 287.085 645.077 287.112 644.786 287.119C644.27 287.134 643.806 287.057 643.393 286.886C642.981 286.712 642.653 286.443 642.411 286.08C642.172 285.716 642.054 285.261 642.058 284.716V276.182Z" fill="#4BC1BD"/>
<path d="M32 90.5H381.333C387.685 90.5 392.833 95.6487 392.833 102V203.727C392.833 210.079 387.685 215.227 381.333 215.227H32C25.6487 215.227 20.5 210.079 20.5 203.727V102C20.5 95.6487 25.6487 90.5 32 90.5Z" fill="black"/>
<path d="M32 90.5H381.333C387.685 90.5 392.833 95.6487 392.833 102V203.727C392.833 210.079 387.685 215.227 381.333 215.227H32C25.6487 215.227 20.5 210.079 20.5 203.727V102C20.5 95.6487 25.6487 90.5 32 90.5Z" stroke="#2C2C2C"/>
<path d="M204.604 125.5C204.514 125.154 204.334 124.838 204.081 124.585C203.829 124.333 203.513 124.152 203.167 124.063L197.032 122.481C196.927 122.451 196.835 122.388 196.769 122.301C196.704 122.215 196.668 122.109 196.668 122C196.668 121.891 196.704 121.785 196.769 121.699C196.835 121.612 196.927 121.549 197.032 121.519L203.167 119.936C203.513 119.847 203.828 119.667 204.081 119.414C204.334 119.162 204.514 118.846 204.604 118.5L206.186 112.365C206.215 112.26 206.278 112.167 206.365 112.101C206.452 112.035 206.558 112 206.667 112C206.776 112 206.882 112.035 206.969 112.101C207.056 112.167 207.119 112.26 207.149 112.365L208.73 118.5C208.819 118.846 208.999 119.162 209.252 119.415C209.505 119.667 209.821 119.848 210.167 119.937L216.302 121.518C216.407 121.547 216.5 121.61 216.566 121.697C216.633 121.784 216.669 121.891 216.669 122C216.669 122.109 216.633 122.216 216.566 122.303C216.5 122.39 216.407 122.453 216.302 122.482L210.167 124.063C209.821 124.152 209.505 124.333 209.252 124.585C208.999 124.838 208.819 125.154 208.73 125.5L207.148 131.635C207.118 131.74 207.055 131.833 206.968 131.899C206.881 131.965 206.775 132 206.666 132C206.557 132 206.451 131.965 206.364 131.899C206.277 131.833 206.214 131.74 206.185 131.635L204.604 125.5Z" stroke="#4BC1BD" stroke-width="2" stroke-linecap="round" stroke-linejoin="round"/>
<path d="M189.547 153.392V151.364H199.104V153.392H195.542V163H193.11V153.392H189.547ZM200.633 163V154.273H203.053V163H200.633ZM201.849 153.148C201.489 153.148 201.18 153.028 200.922 152.79C200.669 152.547 200.542 152.258 200.542 151.92C200.542 151.587 200.669 151.301 200.922 151.062C201.18 150.82 201.489 150.699 201.849 150.699C202.208 150.699 202.515 150.82 202.769 151.062C203.027 151.301 203.155 151.587 203.155 151.92C203.155 152.258 203.027 152.547 202.769 152.79C202.515 153.028 202.208 153.148 201.849 153.148ZM209.634 154.273V156.091H204.378V154.273H209.634ZM205.572 152.182H207.992V160.318C207.992 160.542 208.026 160.716 208.094 160.841C208.162 160.962 208.257 161.047 208.378 161.097C208.503 161.146 208.647 161.17 208.81 161.17C208.924 161.17 209.037 161.161 209.151 161.142C209.265 161.119 209.352 161.102 209.412 161.091L209.793 162.892C209.672 162.93 209.501 162.973 209.282 163.023C209.062 163.076 208.795 163.108 208.481 163.119C207.897 163.142 207.386 163.064 206.947 162.886C206.511 162.708 206.172 162.432 205.929 162.057C205.687 161.682 205.568 161.208 205.572 160.636V152.182ZM213.819 151.364V163H211.398V151.364H213.819ZM219.735 163.17C218.837 163.17 218.064 162.989 217.417 162.625C216.773 162.258 216.277 161.739 215.928 161.068C215.58 160.394 215.405 159.597 215.405 158.676C215.405 157.778 215.58 156.991 215.928 156.312C216.277 155.634 216.767 155.106 217.4 154.727C218.036 154.348 218.782 154.159 219.638 154.159C220.214 154.159 220.75 154.252 221.246 154.438C221.746 154.619 222.182 154.894 222.553 155.261C222.928 155.629 223.22 156.091 223.428 156.648C223.636 157.201 223.741 157.848 223.741 158.591V159.256H216.371V157.756H221.462C221.462 157.407 221.386 157.098 221.235 156.83C221.083 156.561 220.873 156.35 220.604 156.199C220.339 156.044 220.03 155.966 219.678 155.966C219.311 155.966 218.985 156.051 218.701 156.222C218.42 156.388 218.201 156.614 218.042 156.898C217.883 157.178 217.801 157.491 217.797 157.835V159.261C217.797 159.693 217.877 160.066 218.036 160.381C218.199 160.695 218.428 160.938 218.724 161.108C219.019 161.278 219.369 161.364 219.775 161.364C220.044 161.364 220.29 161.326 220.513 161.25C220.737 161.174 220.928 161.061 221.087 160.909C221.246 160.758 221.367 160.572 221.451 160.352L223.689 160.5C223.576 161.038 223.343 161.508 222.991 161.909C222.642 162.307 222.191 162.617 221.638 162.841C221.089 163.061 220.455 163.17 219.735 163.17Z" fill="white"/>
<path d="M187.064 187.091H185.655C185.572 186.686 185.426 186.329 185.218 186.023C185.013 185.716 184.763 185.458 184.468 185.25C184.176 185.038 183.852 184.879 183.496 184.773C183.14 184.667 182.769 184.614 182.383 184.614C181.678 184.614 181.04 184.792 180.468 185.148C179.9 185.504 179.447 186.028 179.11 186.722C178.777 187.415 178.61 188.265 178.61 189.273C178.61 190.28 178.777 191.131 179.11 191.824C179.447 192.517 179.9 193.042 180.468 193.398C181.04 193.754 181.678 193.932 182.383 193.932C182.769 193.932 183.14 193.879 183.496 193.773C183.852 193.667 184.176 193.509 184.468 193.301C184.763 193.089 185.013 192.829 185.218 192.523C185.426 192.212 185.572 191.856 185.655 191.454H187.064C186.958 192.049 186.765 192.581 186.485 193.051C186.205 193.521 185.856 193.92 185.439 194.25C185.023 194.576 184.555 194.824 184.036 194.994C183.521 195.165 182.97 195.25 182.383 195.25C181.39 195.25 180.508 195.007 179.735 194.523C178.962 194.038 178.354 193.348 177.911 192.454C177.468 191.561 177.246 190.5 177.246 189.273C177.246 188.045 177.468 186.985 177.911 186.091C178.354 185.197 178.962 184.507 179.735 184.023C180.508 183.538 181.39 183.295 182.383 183.295C182.97 183.295 183.521 183.381 184.036 183.551C184.555 183.722 185.023 183.972 185.439 184.301C185.856 184.627 186.205 185.025 186.485 185.494C186.765 185.96 186.958 186.492 187.064 187.091ZM192.705 195.273C191.917 195.273 191.226 195.085 190.631 194.71C190.04 194.335 189.578 193.811 189.245 193.136C188.915 192.462 188.75 191.674 188.75 190.773C188.75 189.864 188.915 189.07 189.245 188.392C189.578 187.714 190.04 187.187 190.631 186.812C191.226 186.437 191.917 186.25 192.705 186.25C193.493 186.25 194.182 186.437 194.773 186.812C195.368 187.187 195.83 187.714 196.16 188.392C196.493 189.07 196.66 189.864 196.66 190.773C196.66 191.674 196.493 192.462 196.16 193.136C195.83 193.811 195.368 194.335 194.773 194.71C194.182 195.085 193.493 195.273 192.705 195.273ZM192.705 194.068C193.304 194.068 193.796 193.915 194.182 193.608C194.569 193.301 194.855 192.898 195.04 192.398C195.226 191.898 195.319 191.356 195.319 190.773C195.319 190.189 195.226 189.646 195.04 189.142C194.855 188.638 194.569 188.231 194.182 187.92C193.796 187.61 193.304 187.454 192.705 187.454C192.107 187.454 191.614 187.61 191.228 187.92C190.841 188.231 190.555 188.638 190.37 189.142C190.184 189.646 190.091 190.189 190.091 190.773C190.091 191.356 190.184 191.898 190.37 192.398C190.555 192.898 190.841 193.301 191.228 193.608C191.614 193.915 192.107 194.068 192.705 194.068ZM200.047 189.841V195.091H198.706V186.364H200.002V187.727H200.116C200.32 187.284 200.631 186.928 201.047 186.659C201.464 186.386 202.002 186.25 202.661 186.25C203.252 186.25 203.769 186.371 204.212 186.614C204.655 186.852 205 187.216 205.246 187.704C205.492 188.189 205.616 188.803 205.616 189.545V195.091H204.275V189.636C204.275 188.951 204.097 188.417 203.741 188.034C203.384 187.648 202.896 187.454 202.275 187.454C201.847 187.454 201.464 187.547 201.127 187.733C200.794 187.918 200.53 188.189 200.337 188.545C200.144 188.901 200.047 189.333 200.047 189.841ZM211.861 186.364V187.5H207.339V186.364H211.861ZM208.657 184.273H209.998V192.591C209.998 192.97 210.053 193.254 210.162 193.443C210.276 193.629 210.42 193.754 210.594 193.818C210.772 193.879 210.96 193.909 211.157 193.909C211.304 193.909 211.426 193.901 211.52 193.886C211.615 193.867 211.691 193.852 211.748 193.841L212.02 195.045C211.929 195.079 211.803 195.114 211.64 195.148C211.477 195.186 211.27 195.204 211.02 195.204C210.642 195.204 210.27 195.123 209.907 194.96C209.547 194.797 209.248 194.549 209.009 194.216C208.774 193.882 208.657 193.462 208.657 192.954V184.273ZM217.444 195.273C216.603 195.273 215.877 195.087 215.268 194.716C214.661 194.341 214.194 193.818 213.864 193.148C213.538 192.473 213.375 191.689 213.375 190.795C213.375 189.901 213.538 189.114 213.864 188.432C214.194 187.746 214.652 187.212 215.239 186.829C215.83 186.443 216.519 186.25 217.307 186.25C217.762 186.25 218.211 186.326 218.654 186.477C219.097 186.629 219.5 186.875 219.864 187.216C220.228 187.553 220.518 188 220.733 188.557C220.949 189.114 221.057 189.799 221.057 190.614V191.182H214.33V190.023H219.694C219.694 189.53 219.595 189.091 219.398 188.704C219.205 188.318 218.929 188.013 218.569 187.79C218.213 187.566 217.792 187.454 217.307 187.454C216.773 187.454 216.311 187.587 215.921 187.852C215.535 188.114 215.237 188.454 215.029 188.875C214.821 189.295 214.716 189.746 214.716 190.227V191C214.716 191.659 214.83 192.218 215.057 192.676C215.288 193.131 215.608 193.477 216.018 193.716C216.427 193.951 216.902 194.068 217.444 194.068C217.796 194.068 218.114 194.019 218.398 193.92C218.686 193.818 218.934 193.667 219.143 193.466C219.351 193.261 219.512 193.007 219.625 192.704L220.921 193.068C220.785 193.507 220.555 193.894 220.233 194.227C219.911 194.557 219.514 194.814 219.04 195C218.567 195.182 218.035 195.273 217.444 195.273ZM224.438 189.841V195.091H223.097V186.364H224.393V187.727H224.506C224.711 187.284 225.021 186.928 225.438 186.659C225.855 186.386 226.393 186.25 227.052 186.25C227.643 186.25 228.16 186.371 228.603 186.614C229.046 186.852 229.391 187.216 229.637 187.704C229.883 188.189 230.006 188.803 230.006 189.545V195.091H228.665V189.636C228.665 188.951 228.487 188.417 228.131 188.034C227.775 187.648 227.286 187.454 226.665 187.454C226.237 187.454 225.855 187.547 225.518 187.733C225.184 187.918 224.921 188.189 224.728 188.545C224.535 188.901 224.438 189.333 224.438 189.841ZM236.252 186.364V187.5H231.729V186.364H236.252ZM233.047 184.273H234.388V192.591C234.388 192.97 234.443 193.254 234.553 193.443C234.667 193.629 234.811 193.754 234.985 193.818C235.163 193.879 235.35 193.909 235.547 193.909C235.695 193.909 235.816 193.901 235.911 193.886C236.006 193.867 236.081 193.852 236.138 193.841L236.411 195.045C236.32 195.079 236.193 195.114 236.03 195.148C235.867 195.186 235.661 195.204 235.411 195.204C235.032 195.204 234.661 195.123 234.297 194.96C233.938 194.797 233.638 194.549 233.4 194.216C233.165 193.882 233.047 193.462 233.047 192.954V184.273Z" fill="#808080"/>
<path d="M425.333 90.5H774.667C781.018 90.5 786.167 95.6487 786.167 102V203.727C786.167 210.079 781.018 215.227 774.667 215.227H425.333C418.982 215.227 413.833 210.079 413.833 203.727V102C413.833 95.6487 418.982 90.5 425.333 90.5Z" fill="black"/>
<path d="M425.333 90.5H774.667C781.018 90.5 786.167 95.6487 786.167 102V203.727C786.167 210.079 781.018 215.227 774.667 215.227H425.333C418.982 215.227 413.833 210.079 413.833 203.727V102C413.833 95.6487 418.982 90.5 425.333 90.5Z" stroke="#2C2C2C"/>
<path d="M597.937 125.5C597.848 125.154 597.667 124.838 597.415 124.585C597.162 124.333 596.846 124.152 596.5 124.063L590.365 122.481C590.26 122.451 590.168 122.388 590.103 122.301C590.037 122.215 590.001 122.109 590.001 122C590.001 121.891 590.037 121.785 590.103 121.699C590.168 121.612 590.26 121.549 590.365 121.519L596.5 119.936C596.846 119.847 597.162 119.667 597.414 119.414C597.667 119.162 597.848 118.846 597.937 118.5L599.519 112.365C599.548 112.26 599.611 112.167 599.698 112.101C599.785 112.035 599.891 112 600 112C600.11 112 600.216 112.035 600.303 112.101C600.39 112.167 600.453 112.26 600.482 112.365L602.063 118.5C602.152 118.846 602.333 119.162 602.585 119.415C602.838 119.667 603.154 119.848 603.5 119.937L609.635 121.518C609.74 121.547 609.833 121.61 609.9 121.697C609.966 121.784 610.002 121.891 610.002 122C610.002 122.109 609.966 122.216 609.9 122.303C609.833 122.39 609.74 122.453 609.635 122.482L603.5 124.063C603.154 124.152 602.838 124.333 602.585 124.585C602.333 124.838 602.152 125.154 602.063 125.5L600.481 131.635C600.452 131.74 600.389 131.833 600.302 131.899C600.215 131.965 600.109 132 599.999 132C599.89 132 599.784 131.965 599.697 131.899C599.61 131.833 599.547 131.74 599.518 131.635L597.937 125.5Z" stroke="#4BC1BD" stroke-width="2" stroke-linecap="round" stroke-linejoin="round"/>
<path d="M582.881 153.392V151.364H592.438V153.392H588.875V163H586.443V153.392H582.881ZM593.966 163V154.273H596.386V163H593.966ZM595.182 153.148C594.822 153.148 594.513 153.028 594.256 152.79C594.002 152.547 593.875 152.258 593.875 151.92C593.875 151.587 594.002 151.301 594.256 151.062C594.513 150.82 594.822 150.699 595.182 150.699C595.542 150.699 595.848 150.82 596.102 151.062C596.36 151.301 596.489 151.587 596.489 151.92C596.489 152.258 596.36 152.547 596.102 152.79C595.848 153.028 595.542 153.148 595.182 153.148ZM602.967 154.273V156.091H597.712V154.273H602.967ZM598.905 152.182H601.325V160.318C601.325 160.542 601.359 160.716 601.428 160.841C601.496 160.962 601.59 161.047 601.712 161.097C601.837 161.146 601.981 161.17 602.143 161.17C602.257 161.17 602.371 161.161 602.484 161.142C602.598 161.119 602.685 161.102 602.746 161.091L603.126 162.892C603.005 162.93 602.835 162.973 602.615 163.023C602.395 163.076 602.128 163.108 601.814 163.119C601.231 163.142 600.719 163.064 600.28 162.886C599.844 162.708 599.505 162.432 599.263 162.057C599.02 161.682 598.901 161.208 598.905 160.636V152.182ZM607.152 151.364V163H604.732V151.364H607.152ZM613.068 163.17C612.17 163.17 611.398 162.989 610.75 162.625C610.106 162.258 609.61 161.739 609.261 161.068C608.913 160.394 608.739 159.597 608.739 158.676C608.739 157.778 608.913 156.991 609.261 156.312C609.61 155.634 610.1 155.106 610.733 154.727C611.369 154.348 612.116 154.159 612.972 154.159C613.547 154.159 614.083 154.252 614.58 154.438C615.08 154.619 615.515 154.894 615.886 155.261C616.261 155.629 616.553 156.091 616.761 156.648C616.97 157.201 617.074 157.848 617.074 158.591V159.256H609.705V157.756H614.795C614.795 157.407 614.72 157.098 614.568 156.83C614.417 156.561 614.206 156.35 613.938 156.199C613.672 156.044 613.364 155.966 613.011 155.966C612.644 155.966 612.318 156.051 612.034 156.222C611.754 156.388 611.534 156.614 611.375 156.898C611.216 157.178 611.134 157.491 611.131 157.835V159.261C611.131 159.693 611.21 160.066 611.369 160.381C611.532 160.695 611.761 160.938 612.057 161.108C612.352 161.278 612.703 161.364 613.108 161.364C613.377 161.364 613.623 161.326 613.847 161.25C614.07 161.174 614.261 161.061 614.42 160.909C614.58 160.758 614.701 160.572 614.784 160.352L617.023 160.5C616.909 161.038 616.676 161.508 616.324 161.909C615.975 162.307 615.525 162.617 614.972 162.841C614.422 163.061 613.788 163.17 613.068 163.17Z" fill="white"/>
<path d="M580.398 187.091H578.989C578.905 186.686 578.759 186.329 578.551 186.023C578.347 185.716 578.097 185.458 577.801 185.25C577.509 185.038 577.186 184.879 576.83 184.773C576.473 184.667 576.102 184.614 575.716 184.614C575.011 184.614 574.373 184.792 573.801 185.148C573.233 185.504 572.78 186.028 572.443 186.722C572.11 187.415 571.943 188.265 571.943 189.273C571.943 190.28 572.11 191.131 572.443 191.824C572.78 192.517 573.233 193.042 573.801 193.398C574.373 193.754 575.011 193.932 575.716 193.932C576.102 193.932 576.473 193.879 576.83 193.773C577.186 193.667 577.509 193.509 577.801 193.301C578.097 193.089 578.347 192.829 578.551 192.523C578.759 192.212 578.905 191.856 578.989 191.454H580.398C580.292 192.049 580.098 192.581 579.818 193.051C579.538 193.521 579.189 193.92 578.773 194.25C578.356 194.576 577.888 194.824 577.369 194.994C576.854 195.165 576.303 195.25 575.716 195.25C574.723 195.25 573.841 195.007 573.068 194.523C572.295 194.038 571.688 193.348 571.244 192.454C570.801 191.561 570.58 190.5 570.58 189.273C570.58 188.045 570.801 186.985 571.244 186.091C571.688 185.197 572.295 184.507 573.068 184.023C573.841 183.538 574.723 183.295 575.716 183.295C576.303 183.295 576.854 183.381 577.369 183.551C577.888 183.722 578.356 183.972 578.773 184.301C579.189 184.627 579.538 185.025 579.818 185.494C580.098 185.96 580.292 186.492 580.398 187.091ZM586.038 195.273C585.25 195.273 584.559 195.085 583.964 194.71C583.374 194.335 582.911 193.811 582.578 193.136C582.249 192.462 582.084 191.674 582.084 190.773C582.084 189.864 582.249 189.07 582.578 188.392C582.911 187.714 583.374 187.187 583.964 186.812C584.559 186.437 585.25 186.25 586.038 186.25C586.826 186.25 587.516 186.437 588.107 186.812C588.701 187.187 589.163 187.714 589.493 188.392C589.826 189.07 589.993 189.864 589.993 190.773C589.993 191.674 589.826 192.462 589.493 193.136C589.163 193.811 588.701 194.335 588.107 194.71C587.516 195.085 586.826 195.273 586.038 195.273ZM586.038 194.068C586.637 194.068 587.129 193.915 587.516 193.608C587.902 193.301 588.188 192.898 588.374 192.398C588.559 191.898 588.652 191.356 588.652 190.773C588.652 190.189 588.559 189.646 588.374 189.142C588.188 188.638 587.902 188.231 587.516 187.92C587.129 187.61 586.637 187.454 586.038 187.454C585.44 187.454 584.947 187.61 584.561 187.92C584.175 188.231 583.889 188.638 583.703 189.142C583.518 189.646 583.425 190.189 583.425 190.773C583.425 191.356 583.518 191.898 583.703 192.398C583.889 192.898 584.175 193.301 584.561 193.608C584.947 193.915 585.44 194.068 586.038 194.068ZM593.381 189.841V195.091H592.04V186.364H593.335V187.727H593.449C593.653 187.284 593.964 186.928 594.381 186.659C594.797 186.386 595.335 186.25 595.994 186.25C596.585 186.25 597.102 186.371 597.545 186.614C597.989 186.852 598.333 187.216 598.58 187.704C598.826 188.189 598.949 188.803 598.949 189.545V195.091H597.608V189.636C597.608 188.951 597.43 188.417 597.074 188.034C596.718 187.648 596.229 187.454 595.608 187.454C595.18 187.454 594.797 187.547 594.46 187.733C594.127 187.918 593.864 188.189 593.67 188.545C593.477 188.901 593.381 189.333 593.381 189.841ZM605.195 186.364V187.5H600.672V186.364H605.195ZM601.99 184.273H603.331V192.591C603.331 192.97 603.386 193.254 603.496 193.443C603.609 193.629 603.753 193.754 603.928 193.818C604.106 193.879 604.293 193.909 604.49 193.909C604.638 193.909 604.759 193.901 604.854 193.886C604.948 193.867 605.024 193.852 605.081 193.841L605.354 195.045C605.263 195.079 605.136 195.114 604.973 195.148C604.81 195.186 604.604 195.204 604.354 195.204C603.975 195.204 603.604 195.123 603.24 194.96C602.88 194.797 602.581 194.549 602.342 194.216C602.107 193.882 601.99 193.462 601.99 192.954V184.273ZM610.777 195.273C609.936 195.273 609.211 195.087 608.601 194.716C607.995 194.341 607.527 193.818 607.197 193.148C606.872 192.473 606.709 191.689 606.709 190.795C606.709 189.901 606.872 189.114 607.197 188.432C607.527 187.746 607.985 187.212 608.572 186.829C609.163 186.443 609.853 186.25 610.641 186.25C611.095 186.25 611.544 186.326 611.987 186.477C612.43 186.629 612.834 186.875 613.197 187.216C613.561 187.553 613.851 188 614.067 188.557C614.283 189.114 614.391 189.799 614.391 190.614V191.182H607.663V190.023H613.027C613.027 189.53 612.929 189.091 612.732 188.704C612.538 188.318 612.262 188.013 611.902 187.79C611.546 187.566 611.125 187.454 610.641 187.454C610.107 187.454 609.644 187.587 609.254 187.852C608.868 188.114 608.571 188.454 608.362 188.875C608.154 189.295 608.05 189.746 608.05 190.227V191C608.05 191.659 608.163 192.218 608.391 192.676C608.622 193.131 608.942 193.477 609.351 193.716C609.76 193.951 610.235 194.068 610.777 194.068C611.129 194.068 611.447 194.019 611.732 193.92C612.019 193.818 612.268 193.667 612.476 193.466C612.684 193.261 612.845 193.007 612.959 192.704L614.254 193.068C614.118 193.507 613.889 193.894 613.567 194.227C613.245 194.557 612.847 194.814 612.374 195C611.9 195.182 611.368 195.273 610.777 195.273ZM617.771 189.841V195.091H616.43V186.364H617.726V187.727H617.839C618.044 187.284 618.355 186.928 618.771 186.659C619.188 186.386 619.726 186.25 620.385 186.25C620.976 186.25 621.493 186.371 621.936 186.614C622.379 186.852 622.724 187.216 622.97 187.704C623.216 188.189 623.339 188.803 623.339 189.545V195.091H621.999V189.636C621.999 188.951 621.821 188.417 621.464 188.034C621.108 187.648 620.62 187.454 619.999 187.454C619.571 187.454 619.188 187.547 618.851 187.733C618.518 187.918 618.254 188.189 618.061 188.545C617.868 188.901 617.771 189.333 617.771 189.841ZM629.585 186.364V187.5H625.062V186.364H629.585ZM626.381 184.273H627.722V192.591C627.722 192.97 627.777 193.254 627.886 193.443C628 193.629 628.144 193.754 628.318 193.818C628.496 193.879 628.684 193.909 628.881 193.909C629.028 193.909 629.15 193.901 629.244 193.886C629.339 193.867 629.415 193.852 629.472 193.841L629.744 195.045C629.653 195.079 629.527 195.114 629.364 195.148C629.201 195.186 628.994 195.204 628.744 195.204C628.366 195.204 627.994 195.123 627.631 194.96C627.271 194.797 626.972 194.549 626.733 194.216C626.498 193.882 626.381 193.462 626.381 192.954V184.273Z" fill="#808080"/>
<path d="M818.667 90.5H1168C1174.35 90.5 1179.5 95.6487 1179.5 102V203.727C1179.5 210.079 1174.35 215.227 1168 215.227H818.667C812.315 215.227 807.167 210.079 807.167 203.727V102C807.167 95.6487 812.315 90.5 818.667 90.5Z" fill="black"/>
<path d="M818.667 90.5H1168C1174.35 90.5 1179.5 95.6487 1179.5 102V203.727C1179.5 210.079 1174.35 215.227 1168 215.227H818.667C812.315 215.227 807.167 210.079 807.167 203.727V102C807.167 95.6487 812.315 90.5 818.667 90.5Z" stroke="#2C2C2C"/>
<path d="M991.27 125.5C991.181 125.154 991.001 124.838 990.748 124.585C990.495 124.333 990.179 124.152 989.833 124.063L983.698 122.481C983.594 122.451 983.501 122.388 983.436 122.301C983.37 122.215 983.335 122.109 983.335 122C983.335 121.891 983.37 121.785 983.436 121.699C983.501 121.612 983.594 121.549 983.698 121.519L989.833 119.936C990.179 119.847 990.495 119.667 990.748 119.414C991 119.162 991.181 118.846 991.27 118.5L992.852 112.365C992.882 112.26 992.945 112.167 993.032 112.101C993.118 112.035 993.225 112 993.334 112C993.443 112 993.549 112.035 993.636 112.101C993.723 112.167 993.786 112.26 993.815 112.365L995.396 118.5C995.485 118.846 995.666 119.162 995.919 119.415C996.171 119.667 996.487 119.848 996.833 119.937L1002.97 121.518C1003.07 121.547 1003.17 121.61 1003.23 121.697C1003.3 121.784 1003.34 121.891 1003.34 122C1003.34 122.109 1003.3 122.216 1003.23 122.303C1003.17 122.39 1003.07 122.453 1002.97 122.482L996.833 124.063C996.487 124.152 996.171 124.333 995.919 124.585C995.666 124.838 995.485 125.154 995.396 125.5L993.814 131.635C993.785 131.74 993.722 131.833 993.635 131.899C993.548 131.965 993.442 132 993.333 132C993.224 132 993.117 131.965 993.031 131.899C992.944 131.833 992.881 131.74 992.851 131.635L991.27 125.5Z" stroke="#4BC1BD" stroke-width="2" stroke-linecap="round" stroke-linejoin="round"/>
<path d="M976.214 153.392V151.364H985.771V153.392H982.208V163H979.776V153.392H976.214ZM987.299 163V154.273H989.72V163H987.299ZM988.515 153.148C988.155 153.148 987.847 153.028 987.589 152.79C987.335 152.547 987.208 152.258 987.208 151.92C987.208 151.587 987.335 151.301 987.589 151.062C987.847 150.82 988.155 150.699 988.515 150.699C988.875 150.699 989.182 150.82 989.436 151.062C989.693 151.301 989.822 151.587 989.822 151.92C989.822 152.258 989.693 152.547 989.436 152.79C989.182 153.028 988.875 153.148 988.515 153.148ZM996.301 154.273V156.091H991.045V154.273H996.301ZM992.238 152.182H994.659V160.318C994.659 160.542 994.693 160.716 994.761 160.841C994.829 160.962 994.924 161.047 995.045 161.097C995.17 161.146 995.314 161.17 995.477 161.17C995.59 161.17 995.704 161.161 995.818 161.142C995.931 161.119 996.018 161.102 996.079 161.091L996.46 162.892C996.338 162.93 996.168 162.973 995.948 163.023C995.729 163.076 995.462 163.108 995.147 163.119C994.564 163.142 994.052 163.064 993.613 162.886C993.177 162.708 992.838 162.432 992.596 162.057C992.354 161.682 992.234 161.208 992.238 160.636V152.182ZM1000.49 151.364V163H998.065V151.364H1000.49ZM1006.4 163.17C1005.5 163.17 1004.73 162.989 1004.08 162.625C1003.44 162.258 1002.94 161.739 1002.59 161.068C1002.25 160.394 1002.07 159.597 1002.07 158.676C1002.07 157.778 1002.25 156.991 1002.59 156.312C1002.94 155.634 1003.43 155.106 1004.07 154.727C1004.7 154.348 1005.45 154.159 1006.3 154.159C1006.88 154.159 1007.42 154.252 1007.91 154.438C1008.41 154.619 1008.85 154.894 1009.22 155.261C1009.59 155.629 1009.89 156.091 1010.09 156.648C1010.3 157.201 1010.41 157.848 1010.41 158.591V159.256H1003.04V157.756H1008.13C1008.13 157.407 1008.05 157.098 1007.9 156.83C1007.75 156.561 1007.54 156.35 1007.27 156.199C1007.01 156.044 1006.7 155.966 1006.34 155.966C1005.98 155.966 1005.65 156.051 1005.37 156.222C1005.09 156.388 1004.87 156.614 1004.71 156.898C1004.55 157.178 1004.47 157.491 1004.46 157.835V159.261C1004.46 159.693 1004.54 160.066 1004.7 160.381C1004.87 160.695 1005.09 160.938 1005.39 161.108C1005.69 161.278 1006.04 161.364 1006.44 161.364C1006.71 161.364 1006.96 161.326 1007.18 161.25C1007.4 161.174 1007.59 161.061 1007.75 160.909C1007.91 160.758 1008.03 160.572 1008.12 160.352L1010.36 160.5C1010.24 161.038 1010.01 161.508 1009.66 161.909C1009.31 162.307 1008.86 162.617 1008.3 162.841C1007.76 163.061 1007.12 163.17 1006.4 163.17Z" fill="white"/>
<path d="M973.731 187.091H972.322C972.239 186.686 972.093 186.329 971.884 186.023C971.68 185.716 971.43 185.458 971.134 185.25C970.843 185.038 970.519 184.879 970.163 184.773C969.807 184.667 969.436 184.614 969.049 184.614C968.345 184.614 967.706 184.792 967.134 185.148C966.566 185.504 966.114 186.028 965.776 186.722C965.443 187.415 965.276 188.265 965.276 189.273C965.276 190.28 965.443 191.131 965.776 191.824C966.114 192.517 966.566 193.042 967.134 193.398C967.706 193.754 968.345 193.932 969.049 193.932C969.436 193.932 969.807 193.879 970.163 193.773C970.519 193.667 970.843 193.509 971.134 193.301C971.43 193.089 971.68 192.829 971.884 192.523C972.093 192.212 972.239 191.856 972.322 191.454H973.731C973.625 192.049 973.432 192.581 973.151 193.051C972.871 193.521 972.523 193.92 972.106 194.25C971.689 194.576 971.222 194.824 970.703 194.994C970.187 195.165 969.636 195.25 969.049 195.25C968.057 195.25 967.174 195.007 966.401 194.523C965.629 194.038 965.021 193.348 964.578 192.454C964.134 191.561 963.913 190.5 963.913 189.273C963.913 188.045 964.134 186.985 964.578 186.091C965.021 185.197 965.629 184.507 966.401 184.023C967.174 183.538 968.057 183.295 969.049 183.295C969.636 183.295 970.187 183.381 970.703 183.551C971.222 183.722 971.689 183.972 972.106 184.301C972.523 184.627 972.871 185.025 973.151 185.494C973.432 185.96 973.625 186.492 973.731 187.091ZM979.372 195.273C978.584 195.273 977.892 195.085 977.298 194.71C976.707 194.335 976.245 193.811 975.911 193.136C975.582 192.462 975.417 191.674 975.417 190.773C975.417 189.864 975.582 189.07 975.911 188.392C976.245 187.714 976.707 187.187 977.298 186.812C977.892 186.437 978.584 186.25 979.372 186.25C980.159 186.25 980.849 186.437 981.44 186.812C982.034 187.187 982.497 187.714 982.826 188.392C983.159 189.07 983.326 189.864 983.326 190.773C983.326 191.674 983.159 192.462 982.826 193.136C982.497 193.811 982.034 194.335 981.44 194.71C980.849 195.085 980.159 195.273 979.372 195.273ZM979.372 194.068C979.97 194.068 980.463 193.915 980.849 193.608C981.235 193.301 981.521 192.898 981.707 192.398C981.892 191.898 981.985 191.356 981.985 190.773C981.985 190.189 981.892 189.646 981.707 189.142C981.521 188.638 981.235 188.231 980.849 187.92C980.463 187.61 979.97 187.454 979.372 187.454C978.773 187.454 978.281 187.61 977.894 187.92C977.508 188.231 977.222 188.638 977.036 189.142C976.851 189.646 976.758 190.189 976.758 190.773C976.758 191.356 976.851 191.898 977.036 192.398C977.222 192.898 977.508 193.301 977.894 193.608C978.281 193.915 978.773 194.068 979.372 194.068ZM986.714 189.841V195.091H985.373V186.364H986.668V187.727H986.782C986.987 187.284 987.297 186.928 987.714 186.659C988.131 186.386 988.668 186.25 989.328 186.25C989.918 186.25 990.436 186.371 990.879 186.614C991.322 186.852 991.667 187.216 991.913 187.704C992.159 188.189 992.282 188.803 992.282 189.545V195.091H990.941V189.636C990.941 188.951 990.763 188.417 990.407 188.034C990.051 187.648 989.562 187.454 988.941 187.454C988.513 187.454 988.131 187.547 987.793 187.733C987.46 187.918 987.197 188.189 987.004 188.545C986.811 188.901 986.714 189.333 986.714 189.841ZM998.528 186.364V187.5H994.005V186.364H998.528ZM995.323 184.273H996.664V192.591C996.664 192.97 996.719 193.254 996.829 193.443C996.943 193.629 997.087 193.754 997.261 193.818C997.439 193.879 997.626 193.909 997.823 193.909C997.971 193.909 998.092 193.901 998.187 193.886C998.282 193.867 998.357 193.852 998.414 193.841L998.687 195.045C998.596 195.079 998.469 195.114 998.306 195.148C998.143 195.186 997.937 195.204 997.687 195.204C997.308 195.204 996.937 195.123 996.573 194.96C996.213 194.797 995.914 194.549 995.676 194.216C995.441 193.882 995.323 193.462 995.323 192.954V184.273ZM1004.11 195.273C1003.27 195.273 1002.54 195.087 1001.93 194.716C1001.33 194.341 1000.86 193.818 1000.53 193.148C1000.2 192.473 1000.04 191.689 1000.04 190.795C1000.04 189.901 1000.2 189.114 1000.53 188.432C1000.86 187.746 1001.32 187.212 1001.91 186.829C1002.5 186.443 1003.19 186.25 1003.97 186.25C1004.43 186.25 1004.88 186.326 1005.32 186.477C1005.76 186.629 1006.17 186.875 1006.53 187.216C1006.89 187.553 1007.18 188 1007.4 188.557C1007.62 189.114 1007.72 189.799 1007.72 190.614V191.182H1001V190.023H1006.36C1006.36 189.53 1006.26 189.091 1006.06 188.704C1005.87 188.318 1005.6 188.013 1005.24 187.79C1004.88 187.566 1004.46 187.454 1003.97 187.454C1003.44 187.454 1002.98 187.587 1002.59 187.852C1002.2 188.114 1001.9 188.454 1001.7 188.875C1001.49 189.295 1001.38 189.746 1001.38 190.227V191C1001.38 191.659 1001.5 192.218 1001.72 192.676C1001.95 193.131 1002.28 193.477 1002.68 193.716C1003.09 193.951 1003.57 194.068 1004.11 194.068C1004.46 194.068 1004.78 194.019 1005.06 193.92C1005.35 193.818 1005.6 193.667 1005.81 193.466C1006.02 193.261 1006.18 193.007 1006.29 192.704L1007.59 193.068C1007.45 193.507 1007.22 193.894 1006.9 194.227C1006.58 194.557 1006.18 194.814 1005.71 195C1005.23 195.182 1004.7 195.273 1004.11 195.273ZM1011.1 189.841V195.091H1009.76V186.364H1011.06V187.727H1011.17C1011.38 187.284 1011.69 186.928 1012.1 186.659C1012.52 186.386 1013.06 186.25 1013.72 186.25C1014.31 186.25 1014.83 186.371 1015.27 186.614C1015.71 186.852 1016.06 187.216 1016.3 187.704C1016.55 188.189 1016.67 188.803 1016.67 189.545V195.091H1015.33V189.636C1015.33 188.951 1015.15 188.417 1014.8 188.034C1014.44 187.648 1013.95 187.454 1013.33 187.454C1012.9 187.454 1012.52 187.547 1012.18 187.733C1011.85 187.918 1011.59 188.189 1011.39 188.545C1011.2 188.901 1011.1 189.333 1011.1 189.841ZM1022.92 186.364V187.5H1018.4V186.364H1022.92ZM1019.71 184.273H1021.05V192.591C1021.05 192.97 1021.11 193.254 1021.22 193.443C1021.33 193.629 1021.48 193.754 1021.65 193.818C1021.83 193.879 1022.02 193.909 1022.21 193.909C1022.36 193.909 1022.48 193.901 1022.58 193.886C1022.67 193.867 1022.75 193.852 1022.8 193.841L1023.08 195.045C1022.99 195.079 1022.86 195.114 1022.7 195.148C1022.53 195.186 1022.33 195.204 1022.08 195.204C1021.7 195.204 1021.33 195.123 1020.96 194.96C1020.6 194.797 1020.3 194.549 1020.07 194.216C1019.83 193.882 1019.71 193.462 1019.71 192.954V184.273Z" fill="#808080"/>
</svg>
