<svg width="237" height="286" viewBox="0 0 237 286" fill="none" xmlns="http://www.w3.org/2000/svg">
<path d="M12 0.5H225C231.351 0.5 236.5 5.64873 236.5 12V274C236.5 280.351 231.351 285.5 225 285.5H12C5.64872 285.5 0.5 280.351 0.5 274V12C0.5 5.64872 5.64873 0.5 12 0.5Z" fill="black"/>
<path d="M12 0.5H225C231.351 0.5 236.5 5.64873 236.5 12V274C236.5 280.351 231.351 285.5 225 285.5H12C5.64872 285.5 0.5 280.351 0.5 274V12C0.5 5.64872 5.64873 0.5 12 0.5Z" stroke="#2C2C2C"/>
<mask id="path-2-inside-1_9328_49095" fill="white">
<path d="M0 0H237V50H0V0Z"/>
</mask>
<path d="M237 49H0V51H237V49Z" fill="#2C2C2C" mask="url(#path-2-inside-1_9328_49095)"/>
<path d="M17 5.5H220C226.351 5.5 231.5 10.6487 231.5 17V33C231.5 39.3513 226.351 44.5 220 44.5H17C10.6487 44.5 5.5 39.3513 5.5 33V17C5.5 10.6487 10.6487 5.5 17 5.5Z" stroke="#2C2C2C"/>
<path d="M175.733 16V34M168.733 16H182.733C183.838 16 184.733 16.8954 184.733 18V32C184.733 33.1046 183.838 34 182.733 34H168.733C167.628 34 166.733 33.1046 166.733 32V18C166.733 16.8954 167.628 16 168.733 16Z" stroke="#4BC1BD" stroke-width="2" stroke-linecap="round" stroke-linejoin="round"/>
<path d="M17 5.5H106.5C112.851 5.5 118 10.6487 118 17V33C118 39.3513 112.851 44.5 106.5 44.5H17C10.6487 44.5 5.5 39.3513 5.5 33V17C5.5 10.6487 10.6487 5.5 17 5.5Z" fill="#4BC1BD"/>
<path d="M17 5.5H106.5C112.851 5.5 118 10.6487 118 17V33C118 39.3513 112.851 44.5 106.5 44.5H17C10.6487 44.5 5.5 39.3513 5.5 33V17C5.5 10.6487 10.6487 5.5 17 5.5Z" stroke="#4BC1BD"/>
<path d="M68.75 16H54.75C53.6454 16 52.75 16.8954 52.75 18V32C52.75 33.1046 53.6454 34 54.75 34H68.75C69.8546 34 70.75 33.1046 70.75 32V18C70.75 16.8954 69.8546 16 68.75 16Z" stroke="black" stroke-width="2" stroke-linecap="round" stroke-linejoin="round"/>
<mask id="path-10-inside-2_9328_49095" fill="white">
<path d="M0 50H237V82H0V50Z"/>
</mask>
<path d="M237 81H0V83H237V81Z" fill="#2C2C2C" mask="url(#path-10-inside-2_9328_49095)"/>
<rect x="6" y="62" width="225" height="8" rx="4" fill="black" stroke="#2C2C2C" stroke-width="2"/>
<circle cx="119" cy="66" r="11" fill="#4BC1BD"/>
<rect y="132" width="237" height="1" fill="#2C2C2C"/>
<path d="M38 111L32 105L26 111" stroke="#4BC1BD" stroke-width="2" stroke-linecap="round" stroke-linejoin="round"/>
<path d="M55.1477 102.364H57.7273L61.1818 110.795H61.3182L64.7727 102.364H67.3523V114H65.3295V106.006H65.2216L62.0057 113.966H60.4943L57.2784 105.989H57.1705V114H55.1477V102.364ZM73.3636 114.17C72.5114 114.17 71.7727 113.983 71.1477 113.608C70.5227 113.233 70.0379 112.708 69.6932 112.034C69.3523 111.36 69.1818 110.572 69.1818 109.67C69.1818 108.769 69.3523 107.979 69.6932 107.301C70.0379 106.623 70.5227 106.097 71.1477 105.722C71.7727 105.347 72.5114 105.159 73.3636 105.159C74.2159 105.159 74.9545 105.347 75.5795 105.722C76.2045 106.097 76.6875 106.623 77.0284 107.301C77.3731 107.979 77.5455 108.769 77.5455 109.67C77.5455 110.572 77.3731 111.36 77.0284 112.034C76.6875 112.708 76.2045 113.233 75.5795 113.608C74.9545 113.983 74.2159 114.17 73.3636 114.17ZM73.375 112.523C73.8371 112.523 74.2235 112.396 74.5341 112.142C74.8447 111.884 75.0758 111.54 75.2273 111.108C75.3826 110.676 75.4602 110.195 75.4602 109.665C75.4602 109.131 75.3826 108.648 75.2273 108.216C75.0758 107.78 74.8447 107.434 74.5341 107.176C74.2235 106.919 73.8371 106.79 73.375 106.79C72.9015 106.79 72.5076 106.919 72.1932 107.176C71.8826 107.434 71.6496 107.78 71.4943 108.216C71.3428 108.648 71.267 109.131 71.267 109.665C71.267 110.195 71.3428 110.676 71.4943 111.108C71.6496 111.54 71.8826 111.884 72.1932 112.142C72.5076 112.396 72.9015 112.523 73.375 112.523ZM86.7898 105.273L83.6818 114H81.4091L78.3011 105.273H80.4943L82.5 111.756H82.5909L84.6023 105.273H86.7898ZM91.7798 114.17C90.9048 114.17 90.1491 113.989 89.5128 113.625C88.8802 113.258 88.3935 112.739 88.0526 112.068C87.7116 111.394 87.5412 110.6 87.5412 109.688C87.5412 108.79 87.7116 108.002 88.0526 107.324C88.3973 106.642 88.8783 106.112 89.4957 105.733C90.1132 105.35 90.8385 105.159 91.6719 105.159C92.2098 105.159 92.7173 105.246 93.1946 105.42C93.6757 105.591 94.0999 105.856 94.4673 106.216C94.8385 106.576 95.1302 107.034 95.3423 107.591C95.5545 108.144 95.6605 108.803 95.6605 109.568V110.199H88.5071V108.812H93.6889C93.6851 108.419 93.5999 108.068 93.4332 107.761C93.2666 107.451 93.0336 107.206 92.7344 107.028C92.4389 106.85 92.0942 106.761 91.7003 106.761C91.2798 106.761 90.9105 106.864 90.5923 107.068C90.2741 107.269 90.026 107.534 89.848 107.864C89.6738 108.189 89.5848 108.547 89.581 108.938V110.148C89.581 110.655 89.6738 111.091 89.8594 111.455C90.045 111.814 90.3045 112.091 90.6378 112.284C90.9711 112.473 91.3613 112.568 91.8082 112.568C92.1075 112.568 92.3783 112.527 92.6207 112.443C92.8632 112.356 93.0734 112.229 93.2514 112.062C93.4295 111.896 93.5639 111.689 93.6548 111.443L95.5753 111.659C95.4541 112.167 95.223 112.61 94.8821 112.989C94.545 113.364 94.1132 113.655 93.5866 113.864C93.0601 114.068 92.4579 114.17 91.7798 114.17ZM106.932 110.33V105.273H108.989V114H106.994V112.449H106.903C106.706 112.937 106.383 113.337 105.932 113.648C105.485 113.958 104.934 114.114 104.278 114.114C103.706 114.114 103.201 113.987 102.761 113.733C102.326 113.475 101.985 113.102 101.739 112.614C101.492 112.121 101.369 111.527 101.369 110.83V105.273H103.426V110.511C103.426 111.064 103.578 111.504 103.881 111.83C104.184 112.155 104.581 112.318 105.074 112.318C105.377 112.318 105.67 112.244 105.955 112.097C106.239 111.949 106.472 111.729 106.653 111.438C106.839 111.142 106.932 110.773 106.932 110.33ZM111.104 117.273V105.273H113.126V106.716H113.246C113.352 106.504 113.501 106.278 113.695 106.04C113.888 105.797 114.149 105.591 114.479 105.42C114.808 105.246 115.229 105.159 115.74 105.159C116.414 105.159 117.022 105.331 117.564 105.676C118.109 106.017 118.541 106.523 118.859 107.193C119.181 107.86 119.342 108.678 119.342 109.648C119.342 110.606 119.185 111.42 118.871 112.091C118.556 112.761 118.128 113.273 117.587 113.625C117.045 113.977 116.431 114.153 115.746 114.153C115.246 114.153 114.831 114.07 114.501 113.903C114.172 113.737 113.907 113.536 113.706 113.301C113.509 113.062 113.356 112.837 113.246 112.625H113.161V117.273H111.104ZM113.121 109.636C113.121 110.201 113.2 110.695 113.359 111.119C113.522 111.544 113.755 111.875 114.058 112.114C114.365 112.348 114.736 112.466 115.172 112.466C115.626 112.466 116.007 112.345 116.314 112.102C116.621 111.856 116.852 111.521 117.007 111.097C117.166 110.669 117.246 110.182 117.246 109.636C117.246 109.095 117.168 108.614 117.013 108.193C116.857 107.773 116.626 107.443 116.32 107.205C116.013 106.966 115.63 106.847 115.172 106.847C114.732 106.847 114.359 106.962 114.053 107.193C113.746 107.424 113.513 107.748 113.354 108.165C113.198 108.581 113.121 109.072 113.121 109.636Z" fill="#4BC1BD"/>
<rect y="183" width="237" height="1" fill="#2C2C2C"/>
<path d="M26 156L32 162L38 156" stroke="#4BC1BD" stroke-width="2" stroke-linecap="round" stroke-linejoin="round"/>
<path d="M55.1477 153.364H57.7273L61.1818 161.795H61.3182L64.7727 153.364H67.3523V165H65.3295V157.006H65.2216L62.0057 164.966H60.4943L57.2784 156.989H57.1705V165H55.1477V153.364ZM73.3636 165.17C72.5114 165.17 71.7727 164.983 71.1477 164.608C70.5227 164.233 70.0379 163.708 69.6932 163.034C69.3523 162.36 69.1818 161.572 69.1818 160.67C69.1818 159.769 69.3523 158.979 69.6932 158.301C70.0379 157.623 70.5227 157.097 71.1477 156.722C71.7727 156.347 72.5114 156.159 73.3636 156.159C74.2159 156.159 74.9545 156.347 75.5795 156.722C76.2045 157.097 76.6875 157.623 77.0284 158.301C77.3731 158.979 77.5455 159.769 77.5455 160.67C77.5455 161.572 77.3731 162.36 77.0284 163.034C76.6875 163.708 76.2045 164.233 75.5795 164.608C74.9545 164.983 74.2159 165.17 73.3636 165.17ZM73.375 163.523C73.8371 163.523 74.2235 163.396 74.5341 163.142C74.8447 162.884 75.0758 162.54 75.2273 162.108C75.3826 161.676 75.4602 161.195 75.4602 160.665C75.4602 160.131 75.3826 159.648 75.2273 159.216C75.0758 158.78 74.8447 158.434 74.5341 158.176C74.2235 157.919 73.8371 157.79 73.375 157.79C72.9015 157.79 72.5076 157.919 72.1932 158.176C71.8826 158.434 71.6496 158.78 71.4943 159.216C71.3428 159.648 71.267 160.131 71.267 160.665C71.267 161.195 71.3428 161.676 71.4943 162.108C71.6496 162.54 71.8826 162.884 72.1932 163.142C72.5076 163.396 72.9015 163.523 73.375 163.523ZM86.7898 156.273L83.6818 165H81.4091L78.3011 156.273H80.4943L82.5 162.756H82.5909L84.6023 156.273H86.7898ZM91.7798 165.17C90.9048 165.17 90.1491 164.989 89.5128 164.625C88.8802 164.258 88.3935 163.739 88.0526 163.068C87.7116 162.394 87.5412 161.6 87.5412 160.688C87.5412 159.79 87.7116 159.002 88.0526 158.324C88.3973 157.642 88.8783 157.112 89.4957 156.733C90.1132 156.35 90.8385 156.159 91.6719 156.159C92.2098 156.159 92.7173 156.246 93.1946 156.42C93.6757 156.591 94.0999 156.856 94.4673 157.216C94.8385 157.576 95.1302 158.034 95.3423 158.591C95.5545 159.144 95.6605 159.803 95.6605 160.568V161.199H88.5071V159.812H93.6889C93.6851 159.419 93.5999 159.068 93.4332 158.761C93.2666 158.451 93.0336 158.206 92.7344 158.028C92.4389 157.85 92.0942 157.761 91.7003 157.761C91.2798 157.761 90.9105 157.864 90.5923 158.068C90.2741 158.269 90.026 158.534 89.848 158.864C89.6738 159.189 89.5848 159.547 89.581 159.938V161.148C89.581 161.655 89.6738 162.091 89.8594 162.455C90.045 162.814 90.3045 163.091 90.6378 163.284C90.9711 163.473 91.3613 163.568 91.8082 163.568C92.1075 163.568 92.3783 163.527 92.6207 163.443C92.8632 163.356 93.0734 163.229 93.2514 163.062C93.4295 162.896 93.5639 162.689 93.6548 162.443L95.5753 162.659C95.4541 163.167 95.223 163.61 94.8821 163.989C94.545 164.364 94.1132 164.655 93.5866 164.864C93.0601 165.068 92.4579 165.17 91.7798 165.17ZM104.608 165.153C103.922 165.153 103.309 164.977 102.767 164.625C102.225 164.273 101.797 163.761 101.483 163.091C101.169 162.42 101.011 161.606 101.011 160.648C101.011 159.678 101.17 158.86 101.489 158.193C101.811 157.523 102.244 157.017 102.79 156.676C103.335 156.331 103.943 156.159 104.614 156.159C105.125 156.159 105.545 156.246 105.875 156.42C106.205 156.591 106.466 156.797 106.659 157.04C106.852 157.278 107.002 157.504 107.108 157.716H107.193V153.364H109.256V165H107.233V163.625H107.108C107.002 163.837 106.848 164.062 106.648 164.301C106.447 164.536 106.182 164.737 105.852 164.903C105.523 165.07 105.108 165.153 104.608 165.153ZM105.182 163.466C105.617 163.466 105.989 163.348 106.295 163.114C106.602 162.875 106.835 162.544 106.994 162.119C107.153 161.695 107.233 161.201 107.233 160.636C107.233 160.072 107.153 159.581 106.994 159.165C106.839 158.748 106.608 158.424 106.301 158.193C105.998 157.962 105.625 157.847 105.182 157.847C104.723 157.847 104.341 157.966 104.034 158.205C103.727 158.443 103.496 158.773 103.341 159.193C103.186 159.614 103.108 160.095 103.108 160.636C103.108 161.182 103.186 161.669 103.341 162.097C103.5 162.521 103.733 162.856 104.04 163.102C104.35 163.345 104.731 163.466 105.182 163.466ZM115.254 165.17C114.402 165.17 113.663 164.983 113.038 164.608C112.413 164.233 111.929 163.708 111.584 163.034C111.243 162.36 111.072 161.572 111.072 160.67C111.072 159.769 111.243 158.979 111.584 158.301C111.929 157.623 112.413 157.097 113.038 156.722C113.663 156.347 114.402 156.159 115.254 156.159C116.107 156.159 116.845 156.347 117.47 156.722C118.095 157.097 118.578 157.623 118.919 158.301C119.264 158.979 119.436 159.769 119.436 160.67C119.436 161.572 119.264 162.36 118.919 163.034C118.578 163.708 118.095 164.233 117.47 164.608C116.845 164.983 116.107 165.17 115.254 165.17ZM115.266 163.523C115.728 163.523 116.114 163.396 116.425 163.142C116.735 162.884 116.966 162.54 117.118 162.108C117.273 161.676 117.351 161.195 117.351 160.665C117.351 160.131 117.273 159.648 117.118 159.216C116.966 158.78 116.735 158.434 116.425 158.176C116.114 157.919 115.728 157.79 115.266 157.79C114.792 157.79 114.398 157.919 114.084 158.176C113.773 158.434 113.54 158.78 113.385 159.216C113.233 159.648 113.158 160.131 113.158 160.665C113.158 161.195 113.233 161.676 113.385 162.108C113.54 162.54 113.773 162.884 114.084 163.142C114.398 163.396 114.792 163.523 115.266 163.523ZM122.733 165L120.267 156.273H122.364L123.898 162.409H123.977L125.545 156.273H127.619L129.188 162.375H129.273L130.784 156.273H132.886L130.415 165H128.273L126.636 159.102H126.517L124.881 165H122.733ZM136.379 159.886V165H134.322V156.273H136.288V157.756H136.391C136.591 157.267 136.911 156.879 137.351 156.591C137.794 156.303 138.341 156.159 138.993 156.159C139.595 156.159 140.12 156.288 140.567 156.545C141.018 156.803 141.366 157.176 141.612 157.665C141.862 158.153 141.985 158.746 141.982 159.443V165H139.925V159.761C139.925 159.178 139.773 158.722 139.47 158.392C139.171 158.062 138.756 157.898 138.226 157.898C137.866 157.898 137.546 157.977 137.266 158.136C136.989 158.292 136.771 158.517 136.612 158.812C136.457 159.108 136.379 159.466 136.379 159.886Z" fill="#4BC1BD"/>
<rect y="234" width="237" height="1" fill="#2C2C2C"/>
<path d="M23.3 205L32 210M32 210L40.7 205M32 210V220M41 206C40.9996 205.649 40.9071 205.305 40.7315 205.001C40.556 204.697 40.3037 204.445 40 204.27L33 200.27C32.696 200.094 32.3511 200.002 32 200.002C31.6489 200.002 31.304 200.094 31 200.27L24 204.27C23.6963 204.445 23.444 204.697 23.2685 205.001C23.0929 205.305 23.0004 205.649 23 206V214C23.0004 214.351 23.0929 214.695 23.2685 214.999C23.444 215.302 23.6963 215.555 24 215.73L31 219.73C31.304 219.905 31.6489 219.998 32 219.998C32.3511 219.998 32.696 219.905 33 219.73L40 215.73C40.3037 215.555 40.556 215.302 40.7315 214.999C40.9071 214.695 40.9996 214.351 41 214V206Z" stroke="#4BC1BD" stroke-width="2" stroke-linecap="round" stroke-linejoin="round"/>
<path d="M55.1477 204.364H57.7273L61.1818 212.795H61.3182L64.7727 204.364H67.3523V216H65.3295V208.006H65.2216L62.0057 215.966H60.4943L57.2784 207.989H57.1705V216H55.1477V204.364ZM72.0682 216.176C71.5152 216.176 71.017 216.078 70.5739 215.881C70.1345 215.68 69.786 215.384 69.5284 214.994C69.2746 214.604 69.1477 214.123 69.1477 213.551C69.1477 213.059 69.2386 212.652 69.4205 212.33C69.6023 212.008 69.8504 211.75 70.1648 211.557C70.4792 211.364 70.8333 211.218 71.2273 211.119C71.625 211.017 72.036 210.943 72.4602 210.898C72.9716 210.845 73.3864 210.797 73.7045 210.756C74.0227 210.71 74.2538 210.642 74.3977 210.551C74.5455 210.456 74.6193 210.311 74.6193 210.114V210.08C74.6193 209.652 74.4924 209.32 74.2386 209.085C73.9848 208.85 73.6193 208.733 73.142 208.733C72.6383 208.733 72.2386 208.843 71.9432 209.062C71.6515 209.282 71.4545 209.542 71.3523 209.841L69.4318 209.568C69.5833 209.038 69.8333 208.595 70.1818 208.239C70.5303 207.879 70.9564 207.61 71.4602 207.432C71.964 207.25 72.5208 207.159 73.1307 207.159C73.5511 207.159 73.9697 207.208 74.3864 207.307C74.803 207.405 75.1837 207.568 75.5284 207.795C75.8731 208.019 76.1496 208.324 76.358 208.71C76.5701 209.097 76.6761 209.58 76.6761 210.159V216H74.6989V214.801H74.6307C74.5057 215.044 74.3295 215.271 74.1023 215.483C73.8788 215.691 73.5966 215.86 73.2557 215.989C72.9186 216.114 72.5227 216.176 72.0682 216.176ZM72.6023 214.665C73.0152 214.665 73.3731 214.583 73.6761 214.42C73.9792 214.254 74.2121 214.034 74.375 213.761C74.5417 213.489 74.625 213.191 74.625 212.869V211.841C74.5606 211.894 74.4508 211.943 74.2955 211.989C74.1439 212.034 73.9735 212.074 73.7841 212.108C73.5947 212.142 73.4072 212.172 73.2216 212.199C73.036 212.225 72.875 212.248 72.7386 212.267C72.4318 212.309 72.1572 212.377 71.9148 212.472C71.6723 212.566 71.4811 212.699 71.3409 212.869C71.2008 213.036 71.1307 213.252 71.1307 213.517C71.1307 213.896 71.2689 214.182 71.5455 214.375C71.822 214.568 72.1742 214.665 72.6023 214.665ZM80.6193 213.261L80.6136 210.778H80.9432L84.0795 207.273H86.483L82.625 211.568H82.1989L80.6193 213.261ZM78.7443 216V204.364H80.8011V216H78.7443ZM84.2216 216L81.3807 212.028L82.767 210.58L86.6818 216H84.2216ZM91.358 216.17C90.483 216.17 89.7273 215.989 89.0909 215.625C88.4583 215.258 87.9716 214.739 87.6307 214.068C87.2898 213.394 87.1193 212.6 87.1193 211.688C87.1193 210.79 87.2898 210.002 87.6307 209.324C87.9754 208.642 88.4564 208.112 89.0739 207.733C89.6913 207.35 90.4167 207.159 91.25 207.159C91.7879 207.159 92.2955 207.246 92.7727 207.42C93.2538 207.591 93.678 207.856 94.0455 208.216C94.4167 208.576 94.7083 209.034 94.9205 209.591C95.1326 210.144 95.2386 210.803 95.2386 211.568V212.199H88.0852V210.812H93.267C93.2633 210.419 93.178 210.068 93.0114 209.761C92.8447 209.451 92.6117 209.206 92.3125 209.028C92.017 208.85 91.6723 208.761 91.2784 208.761C90.858 208.761 90.4886 208.864 90.1705 209.068C89.8523 209.269 89.6042 209.534 89.4261 209.864C89.2519 210.189 89.1629 210.547 89.1591 210.938V212.148C89.1591 212.655 89.2519 213.091 89.4375 213.455C89.6231 213.814 89.8826 214.091 90.2159 214.284C90.5492 214.473 90.9394 214.568 91.3864 214.568C91.6856 214.568 91.9564 214.527 92.1989 214.443C92.4413 214.356 92.6515 214.229 92.8295 214.062C93.0076 213.896 93.142 213.689 93.233 213.443L95.1534 213.659C95.0322 214.167 94.8011 214.61 94.4602 214.989C94.1231 215.364 93.6913 215.655 93.1648 215.864C92.6383 216.068 92.036 216.17 91.358 216.17ZM101.038 216V204.364H105.402C106.296 204.364 107.046 204.519 107.652 204.83C108.262 205.14 108.722 205.576 109.033 206.136C109.347 206.693 109.504 207.343 109.504 208.085C109.504 208.831 109.345 209.479 109.027 210.028C108.713 210.574 108.249 210.996 107.635 211.295C107.021 211.591 106.268 211.739 105.374 211.739H102.266V209.989H105.089C105.612 209.989 106.04 209.917 106.374 209.773C106.707 209.625 106.953 209.411 107.112 209.131C107.275 208.847 107.357 208.498 107.357 208.085C107.357 207.672 107.275 207.32 107.112 207.028C106.949 206.733 106.701 206.509 106.368 206.358C106.035 206.203 105.605 206.125 105.078 206.125H103.146V216H101.038ZM107.05 210.727L109.93 216H107.578L104.749 210.727H107.05ZM115.092 216.17C114.217 216.17 113.462 215.989 112.825 215.625C112.193 215.258 111.706 214.739 111.365 214.068C111.024 213.394 110.854 212.6 110.854 211.688C110.854 210.79 111.024 210.002 111.365 209.324C111.71 208.642 112.191 208.112 112.808 207.733C113.426 207.35 114.151 207.159 114.984 207.159C115.522 207.159 116.03 207.246 116.507 207.42C116.988 207.591 117.412 207.856 117.78 208.216C118.151 208.576 118.443 209.034 118.655 209.591C118.867 210.144 118.973 210.803 118.973 211.568V212.199H111.82V210.812H117.001C116.998 210.419 116.912 210.068 116.746 209.761C116.579 209.451 116.346 209.206 116.047 209.028C115.751 208.85 115.407 208.761 115.013 208.761C114.592 208.761 114.223 208.864 113.905 209.068C113.587 209.269 113.339 209.534 113.161 209.864C112.986 210.189 112.897 210.547 112.893 210.938V212.148C112.893 212.655 112.986 213.091 113.172 213.455C113.357 213.814 113.617 214.091 113.95 214.284C114.284 214.473 114.674 214.568 115.121 214.568C115.42 214.568 115.691 214.527 115.933 214.443C116.176 214.356 116.386 214.229 116.564 214.062C116.742 213.896 116.876 213.689 116.967 213.443L118.888 213.659C118.767 214.167 118.536 214.61 118.195 214.989C117.857 215.364 117.426 215.655 116.899 215.864C116.373 216.068 115.77 216.17 115.092 216.17ZM126.276 212.33V207.273H128.332V216H126.338V214.449H126.247C126.05 214.937 125.726 215.337 125.276 215.648C124.829 215.958 124.277 216.114 123.622 216.114C123.05 216.114 122.545 215.987 122.105 215.733C121.67 215.475 121.329 215.102 121.082 214.614C120.836 214.121 120.713 213.527 120.713 212.83V207.273H122.77V212.511C122.77 213.064 122.921 213.504 123.224 213.83C123.527 214.155 123.925 214.318 124.418 214.318C124.721 214.318 125.014 214.244 125.298 214.097C125.582 213.949 125.815 213.729 125.997 213.438C126.183 213.142 126.276 212.773 126.276 212.33ZM137.345 209.58L135.47 209.784C135.417 209.595 135.324 209.417 135.192 209.25C135.063 209.083 134.889 208.949 134.669 208.847C134.449 208.744 134.18 208.693 133.862 208.693C133.434 208.693 133.074 208.786 132.783 208.972C132.495 209.157 132.353 209.398 132.357 209.693C132.353 209.947 132.446 210.153 132.635 210.312C132.828 210.472 133.146 210.602 133.589 210.705L135.078 211.023C135.904 211.201 136.518 211.483 136.919 211.869C137.324 212.256 137.529 212.761 137.533 213.386C137.529 213.936 137.368 214.42 137.05 214.841C136.735 215.258 136.298 215.583 135.737 215.818C135.177 216.053 134.533 216.17 133.805 216.17C132.737 216.17 131.877 215.947 131.226 215.5C130.574 215.049 130.186 214.422 130.061 213.619L132.067 213.426C132.158 213.82 132.351 214.117 132.646 214.318C132.942 214.519 133.326 214.619 133.8 214.619C134.288 214.619 134.68 214.519 134.976 214.318C135.275 214.117 135.425 213.869 135.425 213.574C135.425 213.324 135.328 213.117 135.135 212.955C134.946 212.792 134.65 212.667 134.249 212.58L132.76 212.267C131.923 212.093 131.304 211.799 130.902 211.386C130.5 210.97 130.302 210.443 130.305 209.807C130.302 209.269 130.447 208.803 130.743 208.409C131.042 208.011 131.457 207.705 131.987 207.489C132.521 207.269 133.137 207.159 133.834 207.159C134.857 207.159 135.661 207.377 136.249 207.812C136.839 208.248 137.205 208.837 137.345 209.58ZM141.74 216.176C141.187 216.176 140.689 216.078 140.246 215.881C139.806 215.68 139.458 215.384 139.2 214.994C138.946 214.604 138.82 214.123 138.82 213.551C138.82 213.059 138.911 212.652 139.092 212.33C139.274 212.008 139.522 211.75 139.837 211.557C140.151 211.364 140.505 211.218 140.899 211.119C141.297 211.017 141.708 210.943 142.132 210.898C142.643 210.845 143.058 210.797 143.376 210.756C143.695 210.71 143.926 210.642 144.07 210.551C144.217 210.456 144.291 210.311 144.291 210.114V210.08C144.291 209.652 144.164 209.32 143.911 209.085C143.657 208.85 143.291 208.733 142.814 208.733C142.31 208.733 141.911 208.843 141.615 209.062C141.323 209.282 141.126 209.542 141.024 209.841L139.104 209.568C139.255 209.038 139.505 208.595 139.854 208.239C140.202 207.879 140.628 207.61 141.132 207.432C141.636 207.25 142.193 207.159 142.803 207.159C143.223 207.159 143.642 207.208 144.058 207.307C144.475 207.405 144.856 207.568 145.2 207.795C145.545 208.019 145.821 208.324 146.03 208.71C146.242 209.097 146.348 209.58 146.348 210.159V216H144.371V214.801H144.303C144.178 215.044 144.001 215.271 143.774 215.483C143.551 215.691 143.268 215.86 142.928 215.989C142.59 216.114 142.195 216.176 141.74 216.176ZM142.274 214.665C142.687 214.665 143.045 214.583 143.348 214.42C143.651 214.254 143.884 214.034 144.047 213.761C144.214 213.489 144.297 213.191 144.297 212.869V211.841C144.232 211.894 144.123 211.943 143.967 211.989C143.816 212.034 143.645 212.074 143.456 212.108C143.267 212.142 143.079 212.172 142.893 212.199C142.708 212.225 142.547 212.248 142.411 212.267C142.104 212.309 141.829 212.377 141.587 212.472C141.344 212.566 141.153 212.699 141.013 212.869C140.873 213.036 140.803 213.252 140.803 213.517C140.803 213.896 140.941 214.182 141.217 214.375C141.494 214.568 141.846 214.665 142.274 214.665ZM148.507 216V204.364H150.564V208.716H150.649C150.755 208.504 150.905 208.278 151.098 208.04C151.291 207.797 151.553 207.591 151.882 207.42C152.212 207.246 152.632 207.159 153.143 207.159C153.818 207.159 154.426 207.331 154.967 207.676C155.513 208.017 155.945 208.523 156.263 209.193C156.585 209.86 156.746 210.678 156.746 211.648C156.746 212.606 156.589 213.42 156.274 214.091C155.96 214.761 155.532 215.273 154.99 215.625C154.448 215.977 153.835 216.153 153.149 216.153C152.649 216.153 152.234 216.07 151.905 215.903C151.575 215.737 151.31 215.536 151.109 215.301C150.912 215.062 150.759 214.837 150.649 214.625H150.53V216H148.507ZM150.524 211.636C150.524 212.201 150.604 212.695 150.763 213.119C150.926 213.544 151.159 213.875 151.462 214.114C151.768 214.348 152.14 214.466 152.575 214.466C153.03 214.466 153.411 214.345 153.717 214.102C154.024 213.856 154.255 213.521 154.411 213.097C154.57 212.669 154.649 212.182 154.649 211.636C154.649 211.095 154.571 210.614 154.416 210.193C154.261 209.773 154.03 209.443 153.723 209.205C153.416 208.966 153.034 208.847 152.575 208.847C152.136 208.847 151.763 208.962 151.456 209.193C151.149 209.424 150.916 209.748 150.757 210.165C150.602 210.581 150.524 211.072 150.524 211.636ZM160.551 204.364V216H158.494V204.364H160.551ZM166.53 216.17C165.655 216.17 164.899 215.989 164.263 215.625C163.63 215.258 163.143 214.739 162.803 214.068C162.462 213.394 162.291 212.6 162.291 211.688C162.291 210.79 162.462 210.002 162.803 209.324C163.147 208.642 163.628 208.112 164.246 207.733C164.863 207.35 165.589 207.159 166.422 207.159C166.96 207.159 167.467 207.246 167.945 207.42C168.426 207.591 168.85 207.856 169.217 208.216C169.589 208.576 169.88 209.034 170.092 209.591C170.304 210.144 170.411 210.803 170.411 211.568V212.199H163.257V210.812H168.439C168.435 210.419 168.35 210.068 168.183 209.761C168.017 209.451 167.784 209.206 167.484 209.028C167.189 208.85 166.844 208.761 166.45 208.761C166.03 208.761 165.661 208.864 165.342 209.068C165.024 209.269 164.776 209.534 164.598 209.864C164.424 210.189 164.335 210.547 164.331 210.938V212.148C164.331 212.655 164.424 213.091 164.609 213.455C164.795 213.814 165.054 214.091 165.388 214.284C165.721 214.473 166.111 214.568 166.558 214.568C166.857 214.568 167.128 214.527 167.371 214.443C167.613 214.356 167.823 214.229 168.001 214.062C168.179 213.896 168.314 213.689 168.405 213.443L170.325 213.659C170.204 214.167 169.973 214.61 169.632 214.989C169.295 215.364 168.863 215.655 168.337 215.864C167.81 216.068 167.208 216.17 166.53 216.17Z" fill="#4BC1BD"/>
<path d="M23 255H41M39 255V269C39 270 38 271 37 271H27C26 271 25 270 25 269V255M28 255V253C28 252 29 251 30 251H34C35 251 36 252 36 253V255M30 260V266M34 260V266" stroke="#4BC1BD" stroke-width="2" stroke-linecap="round" stroke-linejoin="round"/>
<path d="M59.0909 267H55.1477V255.364H59.1705C60.3258 255.364 61.3182 255.597 62.1477 256.062C62.9811 256.525 63.6212 257.189 64.0682 258.057C64.5152 258.924 64.7386 259.962 64.7386 261.17C64.7386 262.383 64.5133 263.424 64.0625 264.295C63.6155 265.167 62.9697 265.835 62.125 266.301C61.2841 266.767 60.2727 267 59.0909 267ZM57.2557 265.176H58.9886C59.7992 265.176 60.4754 265.028 61.017 264.733C61.5587 264.434 61.9659 263.989 62.2386 263.398C62.5114 262.803 62.6477 262.061 62.6477 261.17C62.6477 260.28 62.5114 259.542 62.2386 258.955C61.9659 258.364 61.5625 257.922 61.0284 257.631C60.4981 257.335 59.839 257.188 59.0511 257.188H57.2557V265.176ZM70.5142 267.17C69.6392 267.17 68.8835 266.989 68.2472 266.625C67.6146 266.258 67.1278 265.739 66.7869 265.068C66.446 264.394 66.2756 263.6 66.2756 262.688C66.2756 261.79 66.446 261.002 66.7869 260.324C67.1316 259.642 67.6127 259.112 68.2301 258.733C68.8475 258.35 69.5729 258.159 70.4062 258.159C70.9441 258.159 71.4517 258.246 71.929 258.42C72.41 258.591 72.8343 258.856 73.2017 259.216C73.5729 259.576 73.8646 260.034 74.0767 260.591C74.2888 261.144 74.3949 261.803 74.3949 262.568V263.199H67.2415V261.812H72.4233C72.4195 261.419 72.3343 261.068 72.1676 260.761C72.0009 260.451 71.768 260.206 71.4688 260.028C71.1733 259.85 70.8286 259.761 70.4347 259.761C70.0142 259.761 69.6449 259.864 69.3267 260.068C69.0085 260.269 68.7604 260.534 68.5824 260.864C68.4081 261.189 68.3191 261.547 68.3153 261.938V263.148C68.3153 263.655 68.4081 264.091 68.5938 264.455C68.7794 264.814 69.0388 265.091 69.3722 265.284C69.7055 265.473 70.0956 265.568 70.5426 265.568C70.8419 265.568 71.1127 265.527 71.3551 265.443C71.5975 265.356 71.8078 265.229 71.9858 265.062C72.1638 264.896 72.2983 264.689 72.3892 264.443L74.3097 264.659C74.1884 265.167 73.9574 265.61 73.6165 265.989C73.2794 266.364 72.8475 266.655 72.321 266.864C71.7945 267.068 71.1922 267.17 70.5142 267.17ZM78.1918 255.364V267H76.1349V255.364H78.1918ZM84.1705 267.17C83.2955 267.17 82.5398 266.989 81.9034 266.625C81.2708 266.258 80.7841 265.739 80.4432 265.068C80.1023 264.394 79.9318 263.6 79.9318 262.688C79.9318 261.79 80.1023 261.002 80.4432 260.324C80.7879 259.642 81.2689 259.112 81.8864 258.733C82.5038 258.35 83.2292 258.159 84.0625 258.159C84.6004 258.159 85.108 258.246 85.5852 258.42C86.0663 258.591 86.4905 258.856 86.858 259.216C87.2292 259.576 87.5208 260.034 87.733 260.591C87.9451 261.144 88.0511 261.803 88.0511 262.568V263.199H80.8977V261.812H86.0795C86.0758 261.419 85.9905 261.068 85.8239 260.761C85.6572 260.451 85.4242 260.206 85.125 260.028C84.8295 259.85 84.4848 259.761 84.0909 259.761C83.6705 259.761 83.3011 259.864 82.983 260.068C82.6648 260.269 82.4167 260.534 82.2386 260.864C82.0644 261.189 81.9754 261.547 81.9716 261.938V263.148C81.9716 263.655 82.0644 264.091 82.25 264.455C82.4356 264.814 82.6951 265.091 83.0284 265.284C83.3617 265.473 83.7519 265.568 84.1989 265.568C84.4981 265.568 84.7689 265.527 85.0114 265.443C85.2538 265.356 85.464 265.229 85.642 265.062C85.8201 264.896 85.9545 264.689 86.0455 264.443L87.9659 264.659C87.8447 265.167 87.6136 265.61 87.2727 265.989C86.9356 266.364 86.5038 266.655 85.9773 266.864C85.4508 267.068 84.8485 267.17 84.1705 267.17ZM94.1491 258.273V259.864H89.1321V258.273H94.1491ZM90.3707 256.182H92.4276V264.375C92.4276 264.652 92.4692 264.864 92.5526 265.011C92.6397 265.155 92.7533 265.254 92.8935 265.307C93.0336 265.36 93.1889 265.386 93.3594 265.386C93.4882 265.386 93.6056 265.377 93.7116 265.358C93.8215 265.339 93.9048 265.322 93.9616 265.307L94.3082 266.915C94.1984 266.953 94.0412 266.994 93.8366 267.04C93.6359 267.085 93.3897 267.112 93.098 267.119C92.5829 267.134 92.1188 267.057 91.706 266.886C91.2931 266.712 90.9654 266.443 90.723 266.08C90.4844 265.716 90.367 265.261 90.3707 264.716V256.182ZM99.6392 267.17C98.7642 267.17 98.0085 266.989 97.3722 266.625C96.7396 266.258 96.2528 265.739 95.9119 265.068C95.571 264.394 95.4006 263.6 95.4006 262.688C95.4006 261.79 95.571 261.002 95.9119 260.324C96.2566 259.642 96.7377 259.112 97.3551 258.733C97.9725 258.35 98.6979 258.159 99.5312 258.159C100.069 258.159 100.577 258.246 101.054 258.42C101.535 258.591 101.959 258.856 102.327 259.216C102.698 259.576 102.99 260.034 103.202 260.591C103.414 261.144 103.52 261.803 103.52 262.568V263.199H96.3665V261.812H101.548C101.545 261.419 101.459 261.068 101.293 260.761C101.126 260.451 100.893 260.206 100.594 260.028C100.298 259.85 99.9536 259.761 99.5597 259.761C99.1392 259.761 98.7699 259.864 98.4517 260.068C98.1335 260.269 97.8854 260.534 97.7074 260.864C97.5331 261.189 97.4441 261.547 97.4403 261.938V263.148C97.4403 263.655 97.5331 264.091 97.7188 264.455C97.9044 264.814 98.1638 265.091 98.4972 265.284C98.8305 265.473 99.2206 265.568 99.6676 265.568C99.9669 265.568 100.238 265.527 100.48 265.443C100.723 265.356 100.933 265.229 101.111 265.062C101.289 264.896 101.423 264.689 101.514 264.443L103.435 264.659C103.313 265.167 103.082 265.61 102.741 265.989C102.404 266.364 101.973 266.655 101.446 266.864C100.92 267.068 100.317 267.17 99.6392 267.17Z" fill="#4BC1BD"/>
</svg>
