<svg width="237" height="355" viewBox="0 0 237 355" fill="none" xmlns="http://www.w3.org/2000/svg">
<path d="M12 0.5H225C231.351 0.5 236.5 5.64873 236.5 12V343C236.5 349.351 231.351 354.5 225 354.5H12C5.64872 354.5 0.5 349.351 0.5 343V12C0.5 5.64872 5.64873 0.5 12 0.5Z" fill="black"/>
<path d="M12 0.5H225C231.351 0.5 236.5 5.64873 236.5 12V343C236.5 349.351 231.351 354.5 225 354.5H12C5.64872 354.5 0.5 349.351 0.5 343V12C0.5 5.64872 5.64873 0.5 12 0.5Z" stroke="#2C2C2C"/>
<rect y="50" width="237" height="1" fill="#2C2C2C"/>
<path d="M32 27V35M32 27L28 31M32 27L36 31M24 28.899C23.257 28.1399 22.6965 27.2217 22.361 26.214C22.0255 25.2062 21.9237 24.1353 22.0633 23.0823C22.203 22.0294 22.5804 21.022 23.1671 20.1366C23.7537 19.2511 24.5342 18.5107 25.4493 17.9716C26.3645 17.4324 27.3903 17.1086 28.4491 17.0246C29.508 16.9406 30.572 17.0987 31.5607 17.4869C32.5494 17.8751 33.4368 18.4831 34.1557 19.2651C34.8746 20.047 35.4061 20.9823 35.71 22H37.5C38.4655 21.9999 39.4054 22.3103 40.181 22.8855C40.9565 23.4606 41.5265 24.2699 41.8067 25.1938C42.087 26.1178 42.0627 27.1074 41.7373 28.0164C41.412 28.9254 40.8028 29.7057 40 30.242" stroke="#4BC1BD" stroke-width="2" stroke-linecap="round" stroke-linejoin="round"/>
<path d="M62.483 20.3636H64.5909V27.9659C64.5909 28.7992 64.3939 29.5322 64 30.1648C63.6098 30.7973 63.0606 31.2917 62.3523 31.6477C61.6439 32 60.8163 32.1761 59.8693 32.1761C58.9186 32.1761 58.089 32 57.3807 31.6477C56.6723 31.2917 56.1231 30.7973 55.733 30.1648C55.3428 29.5322 55.1477 28.7992 55.1477 27.9659V20.3636H57.2557V27.7898C57.2557 28.2746 57.3617 28.7064 57.5739 29.0852C57.7898 29.464 58.0928 29.7614 58.483 29.9773C58.8731 30.1894 59.3352 30.2955 59.8693 30.2955C60.4034 30.2955 60.8655 30.1894 61.2557 29.9773C61.6496 29.7614 61.9527 29.464 62.1648 29.0852C62.3769 28.7064 62.483 28.2746 62.483 27.7898V20.3636ZM66.7912 35.2727V23.2727H68.8139V24.7159H68.9332C69.0393 24.5038 69.1889 24.2784 69.3821 24.0398C69.5753 23.7973 69.8366 23.5909 70.1662 23.4205C70.4957 23.2462 70.9162 23.1591 71.4276 23.1591C72.1018 23.1591 72.7098 23.3314 73.2514 23.6761C73.7969 24.017 74.2287 24.5227 74.5469 25.1932C74.8688 25.8598 75.0298 26.678 75.0298 27.6477C75.0298 28.6061 74.8726 29.4205 74.5582 30.0909C74.2438 30.7614 73.8158 31.2727 73.2741 31.625C72.7325 31.9773 72.1188 32.1534 71.4332 32.1534C70.9332 32.1534 70.5185 32.0701 70.1889 31.9034C69.8594 31.7367 69.5942 31.536 69.3935 31.3011C69.1965 31.0625 69.0431 30.8371 68.9332 30.625H68.848V35.2727H66.7912ZM68.8082 27.6364C68.8082 28.2008 68.8878 28.6951 69.0469 29.1193C69.2098 29.5436 69.4427 29.875 69.7457 30.1136C70.0526 30.3485 70.4238 30.4659 70.8594 30.4659C71.3139 30.4659 71.6946 30.3447 72.0014 30.1023C72.3082 29.8561 72.5393 29.5208 72.6946 29.0966C72.8537 28.6686 72.9332 28.1818 72.9332 27.6364C72.9332 27.0947 72.8556 26.6136 72.7003 26.1932C72.545 25.7727 72.3139 25.4432 72.0071 25.2045C71.7003 24.9659 71.3177 24.8466 70.8594 24.8466C70.42 24.8466 70.0469 24.9621 69.7401 25.1932C69.4332 25.4242 69.2003 25.7481 69.0412 26.1648C68.8859 26.5814 68.8082 27.072 68.8082 27.6364ZM78.848 20.3636V32H76.7912V20.3636H78.848ZM84.7699 32.1705C83.9176 32.1705 83.179 31.983 82.554 31.608C81.929 31.233 81.4441 30.7083 81.0994 30.0341C80.7585 29.3598 80.5881 28.572 80.5881 27.6705C80.5881 26.7689 80.7585 25.9792 81.0994 25.3011C81.4441 24.6231 81.929 24.0966 82.554 23.7216C83.179 23.3466 83.9176 23.1591 84.7699 23.1591C85.6222 23.1591 86.3608 23.3466 86.9858 23.7216C87.6108 24.0966 88.0938 24.6231 88.4347 25.3011C88.7794 25.9792 88.9517 26.7689 88.9517 27.6705C88.9517 28.572 88.7794 29.3598 88.4347 30.0341C88.0938 30.7083 87.6108 31.233 86.9858 31.608C86.3608 31.983 85.6222 32.1705 84.7699 32.1705ZM84.7812 30.5227C85.2434 30.5227 85.6297 30.3958 85.9403 30.142C86.2509 29.8845 86.482 29.5398 86.6335 29.108C86.7888 28.6761 86.8665 28.1951 86.8665 27.6648C86.8665 27.1307 86.7888 26.6477 86.6335 26.2159C86.482 25.7803 86.2509 25.4337 85.9403 25.1761C85.6297 24.9186 85.2434 24.7898 84.7812 24.7898C84.3078 24.7898 83.9138 24.9186 83.5994 25.1761C83.2888 25.4337 83.0559 25.7803 82.9006 26.2159C82.7491 26.6477 82.6733 27.1307 82.6733 27.6648C82.6733 28.1951 82.7491 28.6761 82.9006 29.108C83.0559 29.5398 83.2888 29.8845 83.5994 30.142C83.9138 30.3958 84.3078 30.5227 84.7812 30.5227ZM93.2088 32.1761C92.6558 32.1761 92.1577 32.0777 91.7145 31.8807C91.2751 31.6799 90.9266 31.3845 90.669 30.9943C90.4152 30.6042 90.2884 30.1231 90.2884 29.5511C90.2884 29.0587 90.3793 28.6515 90.5611 28.3295C90.7429 28.0076 90.991 27.75 91.3054 27.5568C91.6198 27.3636 91.974 27.2178 92.3679 27.1193C92.7656 27.017 93.1766 26.9432 93.6009 26.8977C94.1122 26.8447 94.527 26.7973 94.8452 26.7557C95.1634 26.7102 95.3944 26.642 95.5384 26.5511C95.6861 26.4564 95.7599 26.3106 95.7599 26.1136V26.0795C95.7599 25.6515 95.633 25.3201 95.3793 25.0852C95.1255 24.8504 94.7599 24.733 94.2827 24.733C93.7789 24.733 93.3793 24.8428 93.0838 25.0625C92.7921 25.2822 92.5952 25.5417 92.4929 25.8409L90.5724 25.5682C90.724 25.0379 90.974 24.5947 91.3224 24.2386C91.6709 23.8788 92.0971 23.6098 92.6009 23.4318C93.1046 23.25 93.6615 23.1591 94.2713 23.1591C94.6918 23.1591 95.1103 23.2083 95.527 23.3068C95.9437 23.4053 96.3243 23.5682 96.669 23.7955C97.0137 24.0189 97.2902 24.3239 97.4986 24.7102C97.7107 25.0966 97.8168 25.5795 97.8168 26.1591V32H95.8395V30.8011H95.7713C95.6463 31.0436 95.4702 31.2708 95.2429 31.483C95.0194 31.6913 94.7372 31.8598 94.3963 31.9886C94.0592 32.1136 93.6634 32.1761 93.2088 32.1761ZM93.7429 30.6648C94.1558 30.6648 94.5137 30.5833 94.8168 30.4205C95.1198 30.2538 95.3527 30.0341 95.5156 29.7614C95.6823 29.4886 95.7656 29.1913 95.7656 28.8693V27.8409C95.7012 27.8939 95.5914 27.9432 95.4361 27.9886C95.2846 28.0341 95.1141 28.0739 94.9247 28.108C94.7353 28.142 94.5478 28.1723 94.3622 28.1989C94.1766 28.2254 94.0156 28.2481 93.8793 28.267C93.5724 28.3087 93.2978 28.3769 93.0554 28.4716C92.813 28.5663 92.6217 28.6989 92.4815 28.8693C92.3414 29.036 92.2713 29.2519 92.2713 29.517C92.2713 29.8958 92.4096 30.1818 92.6861 30.375C92.9626 30.5682 93.3149 30.6648 93.7429 30.6648ZM103.124 32.1534C102.438 32.1534 101.824 31.9773 101.283 31.625C100.741 31.2727 100.313 30.7614 99.9986 30.0909C99.6842 29.4205 99.527 28.6061 99.527 27.6477C99.527 26.678 99.6861 25.8598 100.004 25.1932C100.326 24.5227 100.76 24.017 101.305 23.6761C101.851 23.3314 102.459 23.1591 103.129 23.1591C103.641 23.1591 104.061 23.2462 104.391 23.4205C104.72 23.5909 104.982 23.7973 105.175 24.0398C105.368 24.2784 105.518 24.5038 105.624 24.7159H105.709V20.3636H107.771V32H105.749V30.625H105.624C105.518 30.8371 105.364 31.0625 105.163 31.3011C104.963 31.536 104.697 31.7367 104.368 31.9034C104.038 32.0701 103.624 32.1534 103.124 32.1534ZM103.697 30.4659C104.133 30.4659 104.504 30.3485 104.811 30.1136C105.118 29.875 105.351 29.5436 105.51 29.1193C105.669 28.6951 105.749 28.2008 105.749 27.6364C105.749 27.072 105.669 26.5814 105.51 26.1648C105.355 25.7481 105.124 25.4242 104.817 25.1932C104.514 24.9621 104.141 24.8466 103.697 24.8466C103.239 24.8466 102.857 24.9659 102.55 25.2045C102.243 25.4432 102.012 25.7727 101.857 26.1932C101.701 26.6136 101.624 27.0947 101.624 27.6364C101.624 28.1818 101.701 28.6686 101.857 29.0966C102.016 29.5208 102.249 29.8561 102.555 30.1023C102.866 30.3447 103.247 30.4659 103.697 30.4659ZM117.739 32.1705C116.867 32.1705 116.119 31.9792 115.494 31.5966C114.873 31.214 114.394 30.6856 114.057 30.0114C113.723 29.3333 113.557 28.553 113.557 27.6705C113.557 26.7841 113.727 26.0019 114.068 25.3239C114.409 24.642 114.89 24.1117 115.511 23.733C116.136 23.3504 116.875 23.1591 117.727 23.1591C118.436 23.1591 119.063 23.2898 119.608 23.5511C120.157 23.8087 120.595 24.1742 120.92 24.6477C121.246 25.1174 121.432 25.6667 121.477 26.2955H119.511C119.432 25.875 119.242 25.5246 118.943 25.2443C118.648 24.9602 118.252 24.8182 117.756 24.8182C117.335 24.8182 116.966 24.9318 116.648 25.1591C116.33 25.3826 116.081 25.7045 115.903 26.125C115.729 26.5455 115.642 27.0492 115.642 27.6364C115.642 28.2311 115.729 28.7424 115.903 29.1705C116.078 29.5947 116.322 29.9223 116.636 30.1534C116.955 30.3807 117.328 30.4943 117.756 30.4943C118.059 30.4943 118.33 30.4375 118.568 30.3239C118.811 30.2064 119.013 30.0379 119.176 29.8182C119.339 29.5985 119.451 29.3314 119.511 29.017H121.477C121.428 29.6345 121.246 30.1818 120.932 30.6591C120.617 31.1326 120.189 31.5038 119.648 31.7727C119.106 32.0379 118.47 32.1705 117.739 32.1705ZM126.973 32.1705C126.121 32.1705 125.382 31.983 124.757 31.608C124.132 31.233 123.647 30.7083 123.303 30.0341C122.962 29.3598 122.791 28.572 122.791 27.6705C122.791 26.7689 122.962 25.9792 123.303 25.3011C123.647 24.6231 124.132 24.0966 124.757 23.7216C125.382 23.3466 126.121 23.1591 126.973 23.1591C127.825 23.1591 128.564 23.3466 129.189 23.7216C129.814 24.0966 130.297 24.6231 130.638 25.3011C130.982 25.9792 131.155 26.7689 131.155 27.6705C131.155 28.572 130.982 29.3598 130.638 30.0341C130.297 30.7083 129.814 31.233 129.189 31.608C128.564 31.983 127.825 32.1705 126.973 32.1705ZM126.984 30.5227C127.446 30.5227 127.833 30.3958 128.143 30.142C128.454 29.8845 128.685 29.5398 128.837 29.108C128.992 28.6761 129.07 28.1951 129.07 27.6648C129.07 27.1307 128.992 26.6477 128.837 26.2159C128.685 25.7803 128.454 25.4337 128.143 25.1761C127.833 24.9186 127.446 24.7898 126.984 24.7898C126.511 24.7898 126.117 24.9186 125.803 25.1761C125.492 25.4337 125.259 25.7803 125.104 26.2159C124.952 26.6477 124.876 27.1307 124.876 27.6648C124.876 28.1951 124.952 28.6761 125.104 29.108C125.259 29.5398 125.492 29.8845 125.803 30.142C126.117 30.3958 126.511 30.5227 126.984 30.5227ZM140.399 23.2727L137.291 32H135.018L131.911 23.2727H134.104L136.109 29.7557H136.2L138.212 23.2727H140.399ZM145.389 32.1705C144.514 32.1705 143.759 31.9886 143.122 31.625C142.49 31.2576 142.003 30.7386 141.662 30.0682C141.321 29.3939 141.151 28.6004 141.151 27.6875C141.151 26.7898 141.321 26.0019 141.662 25.3239C142.007 24.642 142.488 24.1117 143.105 23.733C143.723 23.3504 144.448 23.1591 145.281 23.1591C145.819 23.1591 146.327 23.2462 146.804 23.4205C147.285 23.5909 147.709 23.8561 148.077 24.2159C148.448 24.5758 148.74 25.0341 148.952 25.5909C149.164 26.1439 149.27 26.803 149.27 27.5682V28.1989H142.116V26.8125H147.298C147.295 26.4186 147.209 26.0682 147.043 25.7614C146.876 25.4508 146.643 25.2064 146.344 25.0284C146.048 24.8504 145.704 24.7614 145.31 24.7614C144.889 24.7614 144.52 24.8636 144.202 25.0682C143.884 25.2689 143.635 25.5341 143.457 25.8636C143.283 26.1894 143.194 26.5473 143.19 26.9375V28.1477C143.19 28.6553 143.283 29.0909 143.469 29.4545C143.654 29.8144 143.914 30.0909 144.247 30.2841C144.58 30.4735 144.971 30.5682 145.418 30.5682C145.717 30.5682 145.988 30.5265 146.23 30.4432C146.473 30.3561 146.683 30.2292 146.861 30.0625C147.039 29.8958 147.173 29.6894 147.264 29.4432L149.185 29.6591C149.063 30.1667 148.832 30.6098 148.491 30.9886C148.154 31.3636 147.723 31.6553 147.196 31.8636C146.67 32.0682 146.067 32.1705 145.389 32.1705ZM151.01 32V23.2727H153.004V24.7273H153.095C153.254 24.2235 153.527 23.8352 153.913 23.5625C154.304 23.286 154.749 23.1477 155.249 23.1477C155.362 23.1477 155.489 23.1534 155.629 23.1648C155.773 23.1723 155.893 23.1856 155.987 23.2045V25.0966C155.9 25.0663 155.762 25.0398 155.572 25.017C155.387 24.9905 155.207 24.9773 155.033 24.9773C154.658 24.9773 154.321 25.0587 154.021 25.2216C153.726 25.3807 153.493 25.6023 153.322 25.8864C153.152 26.1705 153.067 26.4981 153.067 26.8693V32H151.01ZM161.322 32V23.2727H163.379V32H161.322ZM162.357 22.0341C162.031 22.0341 161.75 21.9261 161.516 21.7102C161.281 21.4905 161.163 21.2273 161.163 20.9205C161.163 20.6098 161.281 20.3466 161.516 20.1307C161.75 19.911 162.031 19.8011 162.357 19.8011C162.686 19.8011 162.966 19.911 163.197 20.1307C163.432 20.3466 163.55 20.6098 163.55 20.9205C163.55 21.2273 163.432 21.4905 163.197 21.7102C162.966 21.9261 162.686 22.0341 162.357 22.0341ZM165.494 32V23.2727H167.46V24.7557H167.562C167.744 24.2557 168.045 23.8655 168.466 23.5852C168.886 23.3011 169.388 23.1591 169.972 23.1591C170.562 23.1591 171.061 23.303 171.466 23.5909C171.875 23.875 172.163 24.2633 172.33 24.7557H172.42C172.614 24.2708 172.939 23.8845 173.398 23.5966C173.86 23.3049 174.407 23.1591 175.04 23.1591C175.843 23.1591 176.498 23.4129 177.006 23.9205C177.513 24.428 177.767 25.1686 177.767 26.142V32H175.705V26.4602C175.705 25.9186 175.561 25.5227 175.273 25.2727C174.985 25.0189 174.633 24.892 174.216 24.892C173.72 24.892 173.331 25.0473 173.051 25.358C172.775 25.6648 172.636 26.0644 172.636 26.5568V32H170.619V26.375C170.619 25.9242 170.483 25.5644 170.21 25.2955C169.941 25.0265 169.589 24.892 169.153 24.892C168.858 24.892 168.589 24.9678 168.347 25.1193C168.104 25.267 167.911 25.4773 167.767 25.75C167.623 26.0189 167.551 26.3333 167.551 26.6932V32H165.494ZM182.365 32.1761C181.812 32.1761 181.314 32.0777 180.871 31.8807C180.431 31.6799 180.083 31.3845 179.825 30.9943C179.571 30.6042 179.445 30.1231 179.445 29.5511C179.445 29.0587 179.536 28.6515 179.717 28.3295C179.899 28.0076 180.147 27.75 180.462 27.5568C180.776 27.3636 181.13 27.2178 181.524 27.1193C181.922 27.017 182.333 26.9432 182.757 26.8977C183.268 26.8447 183.683 26.7973 184.001 26.7557C184.32 26.7102 184.551 26.642 184.695 26.5511C184.842 26.4564 184.916 26.3106 184.916 26.1136V26.0795C184.916 25.6515 184.789 25.3201 184.536 25.0852C184.282 24.8504 183.916 24.733 183.439 24.733C182.935 24.733 182.536 24.8428 182.24 25.0625C181.948 25.2822 181.751 25.5417 181.649 25.8409L179.729 25.5682C179.88 25.0379 180.13 24.5947 180.479 24.2386C180.827 23.8788 181.253 23.6098 181.757 23.4318C182.261 23.25 182.818 23.1591 183.428 23.1591C183.848 23.1591 184.267 23.2083 184.683 23.3068C185.1 23.4053 185.481 23.5682 185.825 23.7955C186.17 24.0189 186.446 24.3239 186.655 24.7102C186.867 25.0966 186.973 25.5795 186.973 26.1591V32H184.996V30.8011H184.928C184.803 31.0436 184.626 31.2708 184.399 31.483C184.176 31.6913 183.893 31.8598 183.553 31.9886C183.215 32.1136 182.82 32.1761 182.365 32.1761ZM182.899 30.6648C183.312 30.6648 183.67 30.5833 183.973 30.4205C184.276 30.2538 184.509 30.0341 184.672 29.7614C184.839 29.4886 184.922 29.1913 184.922 28.8693V27.8409C184.857 27.8939 184.748 27.9432 184.592 27.9886C184.441 28.0341 184.27 28.0739 184.081 28.108C183.892 28.142 183.704 28.1723 183.518 28.1989C183.333 28.2254 183.172 28.2481 183.036 28.267C182.729 28.3087 182.454 28.3769 182.212 28.4716C181.969 28.5663 181.778 28.6989 181.638 28.8693C181.498 29.036 181.428 29.2519 181.428 29.517C181.428 29.8958 181.566 30.1818 181.842 30.375C182.119 30.5682 182.471 30.6648 182.899 30.6648ZM192.837 35.4545C192.098 35.4545 191.464 35.3542 190.933 35.1534C190.403 34.9564 189.977 34.6913 189.655 34.358C189.333 34.0246 189.109 33.6553 188.984 33.25L190.837 32.8011C190.92 32.9716 191.041 33.1402 191.2 33.3068C191.359 33.4773 191.573 33.6174 191.842 33.7273C192.115 33.8409 192.458 33.8977 192.871 33.8977C193.454 33.8977 193.937 33.7557 194.32 33.4716C194.702 33.1913 194.893 32.7292 194.893 32.0852V30.4318H194.791C194.685 30.6439 194.53 30.8617 194.325 31.0852C194.125 31.3087 193.857 31.4962 193.524 31.6477C193.195 31.7992 192.78 31.875 192.28 31.875C191.609 31.875 191.001 31.7178 190.456 31.4034C189.914 31.0852 189.482 30.6117 189.161 29.983C188.842 29.3504 188.683 28.5587 188.683 27.608C188.683 26.6496 188.842 25.8409 189.161 25.1818C189.482 24.5189 189.916 24.017 190.462 23.6761C191.007 23.3314 191.615 23.1591 192.286 23.1591C192.797 23.1591 193.217 23.2462 193.547 23.4205C193.88 23.5909 194.145 23.7973 194.342 24.0398C194.539 24.2784 194.689 24.5038 194.791 24.7159H194.905V23.2727H196.933V32.142C196.933 32.8883 196.755 33.5057 196.399 33.9943C196.043 34.483 195.556 34.8485 194.939 35.0909C194.321 35.3333 193.621 35.4545 192.837 35.4545ZM192.854 30.2614C193.289 30.2614 193.661 30.1553 193.967 29.9432C194.274 29.7311 194.507 29.4261 194.666 29.0284C194.825 28.6307 194.905 28.1534 194.905 27.5966C194.905 27.0473 194.825 26.5663 194.666 26.1534C194.511 25.7405 194.28 25.4205 193.973 25.1932C193.67 24.9621 193.297 24.8466 192.854 24.8466C192.395 24.8466 192.013 24.9659 191.706 25.2045C191.399 25.4432 191.168 25.7708 191.013 26.1875C190.857 26.6004 190.78 27.0701 190.78 27.5966C190.78 28.1307 190.857 28.5985 191.013 29C191.172 29.3977 191.405 29.7083 191.712 29.9318C192.022 30.1515 192.403 30.2614 192.854 30.2614ZM202.905 32.1705C202.03 32.1705 201.274 31.9886 200.638 31.625C200.005 31.2576 199.518 30.7386 199.178 30.0682C198.837 29.3939 198.666 28.6004 198.666 27.6875C198.666 26.7898 198.837 26.0019 199.178 25.3239C199.522 24.642 200.003 24.1117 200.621 23.733C201.238 23.3504 201.964 23.1591 202.797 23.1591C203.335 23.1591 203.842 23.2462 204.32 23.4205C204.801 23.5909 205.225 23.8561 205.592 24.2159C205.964 24.5758 206.255 25.0341 206.467 25.5909C206.679 26.1439 206.786 26.803 206.786 27.5682V28.1989H199.632V26.8125H204.814C204.81 26.4186 204.725 26.0682 204.558 25.7614C204.392 25.4508 204.159 25.2064 203.859 25.0284C203.564 24.8504 203.219 24.7614 202.825 24.7614C202.405 24.7614 202.036 24.8636 201.717 25.0682C201.399 25.2689 201.151 25.5341 200.973 25.8636C200.799 26.1894 200.71 26.5473 200.706 26.9375V28.1477C200.706 28.6553 200.799 29.0909 200.984 29.4545C201.17 29.8144 201.429 30.0909 201.763 30.2841C202.096 30.4735 202.486 30.5682 202.933 30.5682C203.232 30.5682 203.503 30.5265 203.746 30.4432C203.988 30.3561 204.198 30.2292 204.376 30.0625C204.554 29.8958 204.689 29.6894 204.78 29.4432L206.7 29.6591C206.579 30.1667 206.348 30.6098 206.007 30.9886C205.67 31.3636 205.238 31.6553 204.712 31.8636C204.185 32.0682 203.583 32.1705 202.905 32.1705Z" fill="#4BC1BD"/>
<mask id="path-5-inside-1_9326_33504" fill="white">
<path d="M0 51H237V101H0V51Z"/>
</mask>
<path d="M237 100H0V102H237V100Z" fill="#2C2C2C" mask="url(#path-5-inside-1_9326_33504)"/>
<path d="M17 56.5H220C226.351 56.5 231.5 61.6487 231.5 68V84C231.5 90.3513 226.351 95.5 220 95.5H17C10.6487 95.5 5.5 90.3513 5.5 84V68C5.5 61.6487 10.6487 56.5 17 56.5Z" stroke="#2C2C2C"/>
<path d="M175.733 67V85M168.733 67H182.733C183.838 67 184.733 67.8954 184.733 69V83C184.733 84.1046 183.838 85 182.733 85H168.733C167.628 85 166.733 84.1046 166.733 83V69C166.733 67.8954 167.628 67 168.733 67Z" stroke="#4BC1BD" stroke-width="2" stroke-linecap="round" stroke-linejoin="round"/>
<path d="M17 56.5H106.5C112.851 56.5 118 61.6487 118 68V84C118 90.3513 112.851 95.5 106.5 95.5H17C10.6487 95.5 5.5 90.3513 5.5 84V68C5.5 61.6487 10.6487 56.5 17 56.5Z" fill="#4BC1BD"/>
<path d="M17 56.5H106.5C112.851 56.5 118 61.6487 118 68V84C118 90.3513 112.851 95.5 106.5 95.5H17C10.6487 95.5 5.5 90.3513 5.5 84V68C5.5 61.6487 10.6487 56.5 17 56.5Z" stroke="#4BC1BD"/>
<path d="M68.75 67H54.75C53.6454 67 52.75 67.8954 52.75 69V83C52.75 84.1046 53.6454 85 54.75 85H68.75C69.8546 85 70.75 84.1046 70.75 83V69C70.75 67.8954 69.8546 67 68.75 67Z" stroke="black" stroke-width="2" stroke-linecap="round" stroke-linejoin="round"/>
<mask id="path-13-inside-2_9326_33504" fill="white">
<path d="M0 101H237V151H0V101Z"/>
</mask>
<path d="M237 150H0V152H237V150Z" fill="#2C2C2C" mask="url(#path-13-inside-2_9326_33504)"/>
<path d="M17 106.5H220C226.351 106.5 231.5 111.649 231.5 118V134C231.5 140.351 226.351 145.5 220 145.5H17C10.6487 145.5 5.5 140.351 5.5 134V118C5.5 111.649 10.6487 106.5 17 106.5Z" stroke="#2C2C2C"/>
<path d="M166.233 131C165.534 127.703 165.534 124.297 166.233 121C166.325 120.665 166.502 120.36 166.748 120.115C166.993 119.869 167.298 119.692 167.633 119.6C172.996 118.711 178.47 118.711 183.833 119.6C184.168 119.692 184.473 119.869 184.718 120.115C184.964 120.36 185.141 120.665 185.233 121C185.932 124.297 185.932 127.703 185.233 131C185.141 131.335 184.964 131.64 184.718 131.885C184.473 132.131 184.168 132.308 183.833 132.4C178.47 133.289 172.996 133.289 167.633 132.4C167.298 132.308 166.993 132.131 166.748 131.885C166.502 131.64 166.325 131.335 166.233 131Z" stroke="#4BC1BD" stroke-width="2" stroke-linecap="round" stroke-linejoin="round"/>
<path d="M173.733 129L178.733 126L173.733 123V129Z" stroke="#4BC1BD" stroke-width="2" stroke-linecap="round" stroke-linejoin="round"/>
<path d="M17 106.5H106.5C112.851 106.5 118 111.649 118 118V134C118 140.351 112.851 145.5 106.5 145.5H17C10.6487 145.5 5.5 140.351 5.5 134V118C5.5 111.649 10.6487 106.5 17 106.5Z" fill="#4BC1BD"/>
<path d="M17 106.5H106.5C112.851 106.5 118 111.649 118 118V134C118 140.351 112.851 145.5 106.5 145.5H17C10.6487 145.5 5.5 140.351 5.5 134V118C5.5 111.649 10.6487 106.5 17 106.5Z" stroke="#4BC1BD"/>
<path d="M61.75 127V135M61.75 127L57.75 131M61.75 127L65.75 131M53.75 128.899C53.007 128.14 52.4465 127.222 52.111 126.214C51.7755 125.206 51.6737 124.135 51.8133 123.082C51.953 122.029 52.3304 121.022 52.9171 120.137C53.5037 119.251 54.2842 118.511 55.1993 117.972C56.1145 117.432 57.1403 117.109 58.1991 117.025C59.258 116.941 60.322 117.099 61.3107 117.487C62.2994 117.875 63.1868 118.483 63.9057 119.265C64.6246 120.047 65.1561 120.982 65.46 122H67.25C68.2155 122 69.1554 122.31 69.931 122.885C70.7065 123.461 71.2765 124.27 71.5567 125.194C71.837 126.118 71.8127 127.107 71.4873 128.016C71.162 128.925 70.5528 129.706 69.75 130.242" stroke="black" stroke-width="2" stroke-linecap="round" stroke-linejoin="round"/>
<rect y="201" width="237" height="1" fill="#2C2C2C"/>
<path d="M38 180L32 174L26 180" stroke="#4BC1BD" stroke-width="2" stroke-linecap="round" stroke-linejoin="round"/>
<path d="M55.1477 171.364H57.7273L61.1818 179.795H61.3182L64.7727 171.364H67.3523V183H65.3295V175.006H65.2216L62.0057 182.966H60.4943L57.2784 174.989H57.1705V183H55.1477V171.364ZM73.3636 183.17C72.5114 183.17 71.7727 182.983 71.1477 182.608C70.5227 182.233 70.0379 181.708 69.6932 181.034C69.3523 180.36 69.1818 179.572 69.1818 178.67C69.1818 177.769 69.3523 176.979 69.6932 176.301C70.0379 175.623 70.5227 175.097 71.1477 174.722C71.7727 174.347 72.5114 174.159 73.3636 174.159C74.2159 174.159 74.9545 174.347 75.5795 174.722C76.2045 175.097 76.6875 175.623 77.0284 176.301C77.3731 176.979 77.5455 177.769 77.5455 178.67C77.5455 179.572 77.3731 180.36 77.0284 181.034C76.6875 181.708 76.2045 182.233 75.5795 182.608C74.9545 182.983 74.2159 183.17 73.3636 183.17ZM73.375 181.523C73.8371 181.523 74.2235 181.396 74.5341 181.142C74.8447 180.884 75.0758 180.54 75.2273 180.108C75.3826 179.676 75.4602 179.195 75.4602 178.665C75.4602 178.131 75.3826 177.648 75.2273 177.216C75.0758 176.78 74.8447 176.434 74.5341 176.176C74.2235 175.919 73.8371 175.79 73.375 175.79C72.9015 175.79 72.5076 175.919 72.1932 176.176C71.8826 176.434 71.6496 176.78 71.4943 177.216C71.3428 177.648 71.267 178.131 71.267 178.665C71.267 179.195 71.3428 179.676 71.4943 180.108C71.6496 180.54 71.8826 180.884 72.1932 181.142C72.5076 181.396 72.9015 181.523 73.375 181.523ZM86.7898 174.273L83.6818 183H81.4091L78.3011 174.273H80.4943L82.5 180.756H82.5909L84.6023 174.273H86.7898ZM91.7798 183.17C90.9048 183.17 90.1491 182.989 89.5128 182.625C88.8802 182.258 88.3935 181.739 88.0526 181.068C87.7116 180.394 87.5412 179.6 87.5412 178.688C87.5412 177.79 87.7116 177.002 88.0526 176.324C88.3973 175.642 88.8783 175.112 89.4957 174.733C90.1132 174.35 90.8385 174.159 91.6719 174.159C92.2098 174.159 92.7173 174.246 93.1946 174.42C93.6757 174.591 94.0999 174.856 94.4673 175.216C94.8385 175.576 95.1302 176.034 95.3423 176.591C95.5545 177.144 95.6605 177.803 95.6605 178.568V179.199H88.5071V177.812H93.6889C93.6851 177.419 93.5999 177.068 93.4332 176.761C93.2666 176.451 93.0336 176.206 92.7344 176.028C92.4389 175.85 92.0942 175.761 91.7003 175.761C91.2798 175.761 90.9105 175.864 90.5923 176.068C90.2741 176.269 90.026 176.534 89.848 176.864C89.6738 177.189 89.5848 177.547 89.581 177.938V179.148C89.581 179.655 89.6738 180.091 89.8594 180.455C90.045 180.814 90.3045 181.091 90.6378 181.284C90.9711 181.473 91.3613 181.568 91.8082 181.568C92.1075 181.568 92.3783 181.527 92.6207 181.443C92.8632 181.356 93.0734 181.229 93.2514 181.062C93.4295 180.896 93.5639 180.689 93.6548 180.443L95.5753 180.659C95.4541 181.167 95.223 181.61 94.8821 181.989C94.545 182.364 94.1132 182.655 93.5866 182.864C93.0601 183.068 92.4579 183.17 91.7798 183.17ZM106.932 179.33V174.273H108.989V183H106.994V181.449H106.903C106.706 181.937 106.383 182.337 105.932 182.648C105.485 182.958 104.934 183.114 104.278 183.114C103.706 183.114 103.201 182.987 102.761 182.733C102.326 182.475 101.985 182.102 101.739 181.614C101.492 181.121 101.369 180.527 101.369 179.83V174.273H103.426V179.511C103.426 180.064 103.578 180.504 103.881 180.83C104.184 181.155 104.581 181.318 105.074 181.318C105.377 181.318 105.67 181.244 105.955 181.097C106.239 180.949 106.472 180.729 106.653 180.438C106.839 180.142 106.932 179.773 106.932 179.33ZM111.104 186.273V174.273H113.126V175.716H113.246C113.352 175.504 113.501 175.278 113.695 175.04C113.888 174.797 114.149 174.591 114.479 174.42C114.808 174.246 115.229 174.159 115.74 174.159C116.414 174.159 117.022 174.331 117.564 174.676C118.109 175.017 118.541 175.523 118.859 176.193C119.181 176.86 119.342 177.678 119.342 178.648C119.342 179.606 119.185 180.42 118.871 181.091C118.556 181.761 118.128 182.273 117.587 182.625C117.045 182.977 116.431 183.153 115.746 183.153C115.246 183.153 114.831 183.07 114.501 182.903C114.172 182.737 113.907 182.536 113.706 182.301C113.509 182.062 113.356 181.837 113.246 181.625H113.161V186.273H111.104ZM113.121 178.636C113.121 179.201 113.2 179.695 113.359 180.119C113.522 180.544 113.755 180.875 114.058 181.114C114.365 181.348 114.736 181.466 115.172 181.466C115.626 181.466 116.007 181.345 116.314 181.102C116.621 180.856 116.852 180.521 117.007 180.097C117.166 179.669 117.246 179.182 117.246 178.636C117.246 178.095 117.168 177.614 117.013 177.193C116.857 176.773 116.626 176.443 116.32 176.205C116.013 175.966 115.63 175.847 115.172 175.847C114.732 175.847 114.359 175.962 114.053 176.193C113.746 176.424 113.513 176.748 113.354 177.165C113.198 177.581 113.121 178.072 113.121 178.636Z" fill="#4BC1BD"/>
<rect y="252" width="237" height="1" fill="#2C2C2C"/>
<path d="M26 225L32 231L38 225" stroke="#4BC1BD" stroke-width="2" stroke-linecap="round" stroke-linejoin="round"/>
<path d="M55.1477 222.364H57.7273L61.1818 230.795H61.3182L64.7727 222.364H67.3523V234H65.3295V226.006H65.2216L62.0057 233.966H60.4943L57.2784 225.989H57.1705V234H55.1477V222.364ZM73.3636 234.17C72.5114 234.17 71.7727 233.983 71.1477 233.608C70.5227 233.233 70.0379 232.708 69.6932 232.034C69.3523 231.36 69.1818 230.572 69.1818 229.67C69.1818 228.769 69.3523 227.979 69.6932 227.301C70.0379 226.623 70.5227 226.097 71.1477 225.722C71.7727 225.347 72.5114 225.159 73.3636 225.159C74.2159 225.159 74.9545 225.347 75.5795 225.722C76.2045 226.097 76.6875 226.623 77.0284 227.301C77.3731 227.979 77.5455 228.769 77.5455 229.67C77.5455 230.572 77.3731 231.36 77.0284 232.034C76.6875 232.708 76.2045 233.233 75.5795 233.608C74.9545 233.983 74.2159 234.17 73.3636 234.17ZM73.375 232.523C73.8371 232.523 74.2235 232.396 74.5341 232.142C74.8447 231.884 75.0758 231.54 75.2273 231.108C75.3826 230.676 75.4602 230.195 75.4602 229.665C75.4602 229.131 75.3826 228.648 75.2273 228.216C75.0758 227.78 74.8447 227.434 74.5341 227.176C74.2235 226.919 73.8371 226.79 73.375 226.79C72.9015 226.79 72.5076 226.919 72.1932 227.176C71.8826 227.434 71.6496 227.78 71.4943 228.216C71.3428 228.648 71.267 229.131 71.267 229.665C71.267 230.195 71.3428 230.676 71.4943 231.108C71.6496 231.54 71.8826 231.884 72.1932 232.142C72.5076 232.396 72.9015 232.523 73.375 232.523ZM86.7898 225.273L83.6818 234H81.4091L78.3011 225.273H80.4943L82.5 231.756H82.5909L84.6023 225.273H86.7898ZM91.7798 234.17C90.9048 234.17 90.1491 233.989 89.5128 233.625C88.8802 233.258 88.3935 232.739 88.0526 232.068C87.7116 231.394 87.5412 230.6 87.5412 229.688C87.5412 228.79 87.7116 228.002 88.0526 227.324C88.3973 226.642 88.8783 226.112 89.4957 225.733C90.1132 225.35 90.8385 225.159 91.6719 225.159C92.2098 225.159 92.7173 225.246 93.1946 225.42C93.6757 225.591 94.0999 225.856 94.4673 226.216C94.8385 226.576 95.1302 227.034 95.3423 227.591C95.5545 228.144 95.6605 228.803 95.6605 229.568V230.199H88.5071V228.812H93.6889C93.6851 228.419 93.5999 228.068 93.4332 227.761C93.2666 227.451 93.0336 227.206 92.7344 227.028C92.4389 226.85 92.0942 226.761 91.7003 226.761C91.2798 226.761 90.9105 226.864 90.5923 227.068C90.2741 227.269 90.026 227.534 89.848 227.864C89.6738 228.189 89.5848 228.547 89.581 228.938V230.148C89.581 230.655 89.6738 231.091 89.8594 231.455C90.045 231.814 90.3045 232.091 90.6378 232.284C90.9711 232.473 91.3613 232.568 91.8082 232.568C92.1075 232.568 92.3783 232.527 92.6207 232.443C92.8632 232.356 93.0734 232.229 93.2514 232.062C93.4295 231.896 93.5639 231.689 93.6548 231.443L95.5753 231.659C95.4541 232.167 95.223 232.61 94.8821 232.989C94.545 233.364 94.1132 233.655 93.5866 233.864C93.0601 234.068 92.4579 234.17 91.7798 234.17ZM104.608 234.153C103.922 234.153 103.309 233.977 102.767 233.625C102.225 233.273 101.797 232.761 101.483 232.091C101.169 231.42 101.011 230.606 101.011 229.648C101.011 228.678 101.17 227.86 101.489 227.193C101.811 226.523 102.244 226.017 102.79 225.676C103.335 225.331 103.943 225.159 104.614 225.159C105.125 225.159 105.545 225.246 105.875 225.42C106.205 225.591 106.466 225.797 106.659 226.04C106.852 226.278 107.002 226.504 107.108 226.716H107.193V222.364H109.256V234H107.233V232.625H107.108C107.002 232.837 106.848 233.062 106.648 233.301C106.447 233.536 106.182 233.737 105.852 233.903C105.523 234.07 105.108 234.153 104.608 234.153ZM105.182 232.466C105.617 232.466 105.989 232.348 106.295 232.114C106.602 231.875 106.835 231.544 106.994 231.119C107.153 230.695 107.233 230.201 107.233 229.636C107.233 229.072 107.153 228.581 106.994 228.165C106.839 227.748 106.608 227.424 106.301 227.193C105.998 226.962 105.625 226.847 105.182 226.847C104.723 226.847 104.341 226.966 104.034 227.205C103.727 227.443 103.496 227.773 103.341 228.193C103.186 228.614 103.108 229.095 103.108 229.636C103.108 230.182 103.186 230.669 103.341 231.097C103.5 231.521 103.733 231.856 104.04 232.102C104.35 232.345 104.731 232.466 105.182 232.466ZM115.254 234.17C114.402 234.17 113.663 233.983 113.038 233.608C112.413 233.233 111.929 232.708 111.584 232.034C111.243 231.36 111.072 230.572 111.072 229.67C111.072 228.769 111.243 227.979 111.584 227.301C111.929 226.623 112.413 226.097 113.038 225.722C113.663 225.347 114.402 225.159 115.254 225.159C116.107 225.159 116.845 225.347 117.47 225.722C118.095 226.097 118.578 226.623 118.919 227.301C119.264 227.979 119.436 228.769 119.436 229.67C119.436 230.572 119.264 231.36 118.919 232.034C118.578 232.708 118.095 233.233 117.47 233.608C116.845 233.983 116.107 234.17 115.254 234.17ZM115.266 232.523C115.728 232.523 116.114 232.396 116.425 232.142C116.735 231.884 116.966 231.54 117.118 231.108C117.273 230.676 117.351 230.195 117.351 229.665C117.351 229.131 117.273 228.648 117.118 228.216C116.966 227.78 116.735 227.434 116.425 227.176C116.114 226.919 115.728 226.79 115.266 226.79C114.792 226.79 114.398 226.919 114.084 227.176C113.773 227.434 113.54 227.78 113.385 228.216C113.233 228.648 113.158 229.131 113.158 229.665C113.158 230.195 113.233 230.676 113.385 231.108C113.54 231.54 113.773 231.884 114.084 232.142C114.398 232.396 114.792 232.523 115.266 232.523ZM122.733 234L120.267 225.273H122.364L123.898 231.409H123.977L125.545 225.273H127.619L129.188 231.375H129.273L130.784 225.273H132.886L130.415 234H128.273L126.636 228.102H126.517L124.881 234H122.733ZM136.379 228.886V234H134.322V225.273H136.288V226.756H136.391C136.591 226.267 136.911 225.879 137.351 225.591C137.794 225.303 138.341 225.159 138.993 225.159C139.595 225.159 140.12 225.288 140.567 225.545C141.018 225.803 141.366 226.176 141.612 226.665C141.862 227.153 141.985 227.746 141.982 228.443V234H139.925V228.761C139.925 228.178 139.773 227.722 139.47 227.392C139.171 227.062 138.756 226.898 138.226 226.898C137.866 226.898 137.546 226.977 137.266 227.136C136.989 227.292 136.771 227.517 136.612 227.812C136.457 228.108 136.379 228.466 136.379 228.886Z" fill="#4BC1BD"/>
<rect y="303" width="237" height="1" fill="#2C2C2C"/>
<path d="M23.3 274L32 279M32 279L40.7 274M32 279V289M41 275C40.9996 274.649 40.9071 274.305 40.7315 274.001C40.556 273.698 40.3037 273.445 40 273.27L33 269.27C32.696 269.094 32.3511 269.002 32 269.002C31.6489 269.002 31.304 269.094 31 269.27L24 273.27C23.6963 273.445 23.444 273.698 23.2685 274.001C23.0929 274.305 23.0004 274.649 23 275V283C23.0004 283.351 23.0929 283.695 23.2685 283.999C23.444 284.303 23.6963 284.555 24 284.73L31 288.73C31.304 288.906 31.6489 288.998 32 288.998C32.3511 288.998 32.696 288.906 33 288.73L40 284.73C40.3037 284.555 40.556 284.303 40.7315 283.999C40.9071 283.695 40.9996 283.351 41 283V275Z" stroke="#4BC1BD" stroke-width="2" stroke-linecap="round" stroke-linejoin="round"/>
<path d="M55.1477 273.364H57.7273L61.1818 281.795H61.3182L64.7727 273.364H67.3523V285H65.3295V277.006H65.2216L62.0057 284.966H60.4943L57.2784 276.989H57.1705V285H55.1477V273.364ZM72.0682 285.176C71.5152 285.176 71.017 285.078 70.5739 284.881C70.1345 284.68 69.786 284.384 69.5284 283.994C69.2746 283.604 69.1477 283.123 69.1477 282.551C69.1477 282.059 69.2386 281.652 69.4205 281.33C69.6023 281.008 69.8504 280.75 70.1648 280.557C70.4792 280.364 70.8333 280.218 71.2273 280.119C71.625 280.017 72.036 279.943 72.4602 279.898C72.9716 279.845 73.3864 279.797 73.7045 279.756C74.0227 279.71 74.2538 279.642 74.3977 279.551C74.5455 279.456 74.6193 279.311 74.6193 279.114V279.08C74.6193 278.652 74.4924 278.32 74.2386 278.085C73.9848 277.85 73.6193 277.733 73.142 277.733C72.6383 277.733 72.2386 277.843 71.9432 278.062C71.6515 278.282 71.4545 278.542 71.3523 278.841L69.4318 278.568C69.5833 278.038 69.8333 277.595 70.1818 277.239C70.5303 276.879 70.9564 276.61 71.4602 276.432C71.964 276.25 72.5208 276.159 73.1307 276.159C73.5511 276.159 73.9697 276.208 74.3864 276.307C74.803 276.405 75.1837 276.568 75.5284 276.795C75.8731 277.019 76.1496 277.324 76.358 277.71C76.5701 278.097 76.6761 278.58 76.6761 279.159V285H74.6989V283.801H74.6307C74.5057 284.044 74.3295 284.271 74.1023 284.483C73.8788 284.691 73.5966 284.86 73.2557 284.989C72.9186 285.114 72.5227 285.176 72.0682 285.176ZM72.6023 283.665C73.0152 283.665 73.3731 283.583 73.6761 283.42C73.9792 283.254 74.2121 283.034 74.375 282.761C74.5417 282.489 74.625 282.191 74.625 281.869V280.841C74.5606 280.894 74.4508 280.943 74.2955 280.989C74.1439 281.034 73.9735 281.074 73.7841 281.108C73.5947 281.142 73.4072 281.172 73.2216 281.199C73.036 281.225 72.875 281.248 72.7386 281.267C72.4318 281.309 72.1572 281.377 71.9148 281.472C71.6723 281.566 71.4811 281.699 71.3409 281.869C71.2008 282.036 71.1307 282.252 71.1307 282.517C71.1307 282.896 71.2689 283.182 71.5455 283.375C71.822 283.568 72.1742 283.665 72.6023 283.665ZM80.6193 282.261L80.6136 279.778H80.9432L84.0795 276.273H86.483L82.625 280.568H82.1989L80.6193 282.261ZM78.7443 285V273.364H80.8011V285H78.7443ZM84.2216 285L81.3807 281.028L82.767 279.58L86.6818 285H84.2216ZM91.358 285.17C90.483 285.17 89.7273 284.989 89.0909 284.625C88.4583 284.258 87.9716 283.739 87.6307 283.068C87.2898 282.394 87.1193 281.6 87.1193 280.688C87.1193 279.79 87.2898 279.002 87.6307 278.324C87.9754 277.642 88.4564 277.112 89.0739 276.733C89.6913 276.35 90.4167 276.159 91.25 276.159C91.7879 276.159 92.2955 276.246 92.7727 276.42C93.2538 276.591 93.678 276.856 94.0455 277.216C94.4167 277.576 94.7083 278.034 94.9205 278.591C95.1326 279.144 95.2386 279.803 95.2386 280.568V281.199H88.0852V279.812H93.267C93.2633 279.419 93.178 279.068 93.0114 278.761C92.8447 278.451 92.6117 278.206 92.3125 278.028C92.017 277.85 91.6723 277.761 91.2784 277.761C90.858 277.761 90.4886 277.864 90.1705 278.068C89.8523 278.269 89.6042 278.534 89.4261 278.864C89.2519 279.189 89.1629 279.547 89.1591 279.938V281.148C89.1591 281.655 89.2519 282.091 89.4375 282.455C89.6231 282.814 89.8826 283.091 90.2159 283.284C90.5492 283.473 90.9394 283.568 91.3864 283.568C91.6856 283.568 91.9564 283.527 92.1989 283.443C92.4413 283.356 92.6515 283.229 92.8295 283.062C93.0076 282.896 93.142 282.689 93.233 282.443L95.1534 282.659C95.0322 283.167 94.8011 283.61 94.4602 283.989C94.1231 284.364 93.6913 284.655 93.1648 284.864C92.6383 285.068 92.036 285.17 91.358 285.17ZM101.038 285V273.364H105.402C106.296 273.364 107.046 273.519 107.652 273.83C108.262 274.14 108.722 274.576 109.033 275.136C109.347 275.693 109.504 276.343 109.504 277.085C109.504 277.831 109.345 278.479 109.027 279.028C108.713 279.574 108.249 279.996 107.635 280.295C107.021 280.591 106.268 280.739 105.374 280.739H102.266V278.989H105.089C105.612 278.989 106.04 278.917 106.374 278.773C106.707 278.625 106.953 278.411 107.112 278.131C107.275 277.847 107.357 277.498 107.357 277.085C107.357 276.672 107.275 276.32 107.112 276.028C106.949 275.733 106.701 275.509 106.368 275.358C106.035 275.203 105.605 275.125 105.078 275.125H103.146V285H101.038ZM107.05 279.727L109.93 285H107.578L104.749 279.727H107.05ZM115.092 285.17C114.217 285.17 113.462 284.989 112.825 284.625C112.193 284.258 111.706 283.739 111.365 283.068C111.024 282.394 110.854 281.6 110.854 280.688C110.854 279.79 111.024 279.002 111.365 278.324C111.71 277.642 112.191 277.112 112.808 276.733C113.426 276.35 114.151 276.159 114.984 276.159C115.522 276.159 116.03 276.246 116.507 276.42C116.988 276.591 117.412 276.856 117.78 277.216C118.151 277.576 118.443 278.034 118.655 278.591C118.867 279.144 118.973 279.803 118.973 280.568V281.199H111.82V279.812H117.001C116.998 279.419 116.912 279.068 116.746 278.761C116.579 278.451 116.346 278.206 116.047 278.028C115.751 277.85 115.407 277.761 115.013 277.761C114.592 277.761 114.223 277.864 113.905 278.068C113.587 278.269 113.339 278.534 113.161 278.864C112.986 279.189 112.897 279.547 112.893 279.938V281.148C112.893 281.655 112.986 282.091 113.172 282.455C113.357 282.814 113.617 283.091 113.95 283.284C114.284 283.473 114.674 283.568 115.121 283.568C115.42 283.568 115.691 283.527 115.933 283.443C116.176 283.356 116.386 283.229 116.564 283.062C116.742 282.896 116.876 282.689 116.967 282.443L118.888 282.659C118.767 283.167 118.536 283.61 118.195 283.989C117.857 284.364 117.426 284.655 116.899 284.864C116.373 285.068 115.77 285.17 115.092 285.17ZM126.276 281.33V276.273H128.332V285H126.338V283.449H126.247C126.05 283.937 125.726 284.337 125.276 284.648C124.829 284.958 124.277 285.114 123.622 285.114C123.05 285.114 122.545 284.987 122.105 284.733C121.67 284.475 121.329 284.102 121.082 283.614C120.836 283.121 120.713 282.527 120.713 281.83V276.273H122.77V281.511C122.77 282.064 122.921 282.504 123.224 282.83C123.527 283.155 123.925 283.318 124.418 283.318C124.721 283.318 125.014 283.244 125.298 283.097C125.582 282.949 125.815 282.729 125.997 282.438C126.183 282.142 126.276 281.773 126.276 281.33ZM137.345 278.58L135.47 278.784C135.417 278.595 135.324 278.417 135.192 278.25C135.063 278.083 134.889 277.949 134.669 277.847C134.449 277.744 134.18 277.693 133.862 277.693C133.434 277.693 133.074 277.786 132.783 277.972C132.495 278.157 132.353 278.398 132.357 278.693C132.353 278.947 132.446 279.153 132.635 279.312C132.828 279.472 133.146 279.602 133.589 279.705L135.078 280.023C135.904 280.201 136.518 280.483 136.919 280.869C137.324 281.256 137.529 281.761 137.533 282.386C137.529 282.936 137.368 283.42 137.05 283.841C136.735 284.258 136.298 284.583 135.737 284.818C135.177 285.053 134.533 285.17 133.805 285.17C132.737 285.17 131.877 284.947 131.226 284.5C130.574 284.049 130.186 283.422 130.061 282.619L132.067 282.426C132.158 282.82 132.351 283.117 132.646 283.318C132.942 283.519 133.326 283.619 133.8 283.619C134.288 283.619 134.68 283.519 134.976 283.318C135.275 283.117 135.425 282.869 135.425 282.574C135.425 282.324 135.328 282.117 135.135 281.955C134.946 281.792 134.65 281.667 134.249 281.58L132.76 281.267C131.923 281.093 131.304 280.799 130.902 280.386C130.5 279.97 130.302 279.443 130.305 278.807C130.302 278.269 130.447 277.803 130.743 277.409C131.042 277.011 131.457 276.705 131.987 276.489C132.521 276.269 133.137 276.159 133.834 276.159C134.857 276.159 135.661 276.377 136.249 276.812C136.839 277.248 137.205 277.837 137.345 278.58ZM141.74 285.176C141.187 285.176 140.689 285.078 140.246 284.881C139.806 284.68 139.458 284.384 139.2 283.994C138.946 283.604 138.82 283.123 138.82 282.551C138.82 282.059 138.911 281.652 139.092 281.33C139.274 281.008 139.522 280.75 139.837 280.557C140.151 280.364 140.505 280.218 140.899 280.119C141.297 280.017 141.708 279.943 142.132 279.898C142.643 279.845 143.058 279.797 143.376 279.756C143.695 279.71 143.926 279.642 144.07 279.551C144.217 279.456 144.291 279.311 144.291 279.114V279.08C144.291 278.652 144.164 278.32 143.911 278.085C143.657 277.85 143.291 277.733 142.814 277.733C142.31 277.733 141.911 277.843 141.615 278.062C141.323 278.282 141.126 278.542 141.024 278.841L139.104 278.568C139.255 278.038 139.505 277.595 139.854 277.239C140.202 276.879 140.628 276.61 141.132 276.432C141.636 276.25 142.193 276.159 142.803 276.159C143.223 276.159 143.642 276.208 144.058 276.307C144.475 276.405 144.856 276.568 145.2 276.795C145.545 277.019 145.821 277.324 146.03 277.71C146.242 278.097 146.348 278.58 146.348 279.159V285H144.371V283.801H144.303C144.178 284.044 144.001 284.271 143.774 284.483C143.551 284.691 143.268 284.86 142.928 284.989C142.59 285.114 142.195 285.176 141.74 285.176ZM142.274 283.665C142.687 283.665 143.045 283.583 143.348 283.42C143.651 283.254 143.884 283.034 144.047 282.761C144.214 282.489 144.297 282.191 144.297 281.869V280.841C144.232 280.894 144.123 280.943 143.967 280.989C143.816 281.034 143.645 281.074 143.456 281.108C143.267 281.142 143.079 281.172 142.893 281.199C142.708 281.225 142.547 281.248 142.411 281.267C142.104 281.309 141.829 281.377 141.587 281.472C141.344 281.566 141.153 281.699 141.013 281.869C140.873 282.036 140.803 282.252 140.803 282.517C140.803 282.896 140.941 283.182 141.217 283.375C141.494 283.568 141.846 283.665 142.274 283.665ZM148.507 285V273.364H150.564V277.716H150.649C150.755 277.504 150.905 277.278 151.098 277.04C151.291 276.797 151.553 276.591 151.882 276.42C152.212 276.246 152.632 276.159 153.143 276.159C153.818 276.159 154.426 276.331 154.967 276.676C155.513 277.017 155.945 277.523 156.263 278.193C156.585 278.86 156.746 279.678 156.746 280.648C156.746 281.606 156.589 282.42 156.274 283.091C155.96 283.761 155.532 284.273 154.99 284.625C154.448 284.977 153.835 285.153 153.149 285.153C152.649 285.153 152.234 285.07 151.905 284.903C151.575 284.737 151.31 284.536 151.109 284.301C150.912 284.062 150.759 283.837 150.649 283.625H150.53V285H148.507ZM150.524 280.636C150.524 281.201 150.604 281.695 150.763 282.119C150.926 282.544 151.159 282.875 151.462 283.114C151.768 283.348 152.14 283.466 152.575 283.466C153.03 283.466 153.411 283.345 153.717 283.102C154.024 282.856 154.255 282.521 154.411 282.097C154.57 281.669 154.649 281.182 154.649 280.636C154.649 280.095 154.571 279.614 154.416 279.193C154.261 278.773 154.03 278.443 153.723 278.205C153.416 277.966 153.034 277.847 152.575 277.847C152.136 277.847 151.763 277.962 151.456 278.193C151.149 278.424 150.916 278.748 150.757 279.165C150.602 279.581 150.524 280.072 150.524 280.636ZM160.551 273.364V285H158.494V273.364H160.551ZM166.53 285.17C165.655 285.17 164.899 284.989 164.263 284.625C163.63 284.258 163.143 283.739 162.803 283.068C162.462 282.394 162.291 281.6 162.291 280.688C162.291 279.79 162.462 279.002 162.803 278.324C163.147 277.642 163.628 277.112 164.246 276.733C164.863 276.35 165.589 276.159 166.422 276.159C166.96 276.159 167.467 276.246 167.945 276.42C168.426 276.591 168.85 276.856 169.217 277.216C169.589 277.576 169.88 278.034 170.092 278.591C170.304 279.144 170.411 279.803 170.411 280.568V281.199H163.257V279.812H168.439C168.435 279.419 168.35 279.068 168.183 278.761C168.017 278.451 167.784 278.206 167.484 278.028C167.189 277.85 166.844 277.761 166.45 277.761C166.03 277.761 165.661 277.864 165.342 278.068C165.024 278.269 164.776 278.534 164.598 278.864C164.424 279.189 164.335 279.547 164.331 279.938V281.148C164.331 281.655 164.424 282.091 164.609 282.455C164.795 282.814 165.054 283.091 165.388 283.284C165.721 283.473 166.111 283.568 166.558 283.568C166.857 283.568 167.128 283.527 167.371 283.443C167.613 283.356 167.823 283.229 168.001 283.062C168.179 282.896 168.314 282.689 168.405 282.443L170.325 282.659C170.204 283.167 169.973 283.61 169.632 283.989C169.295 284.364 168.863 284.655 168.337 284.864C167.81 285.068 167.208 285.17 166.53 285.17Z" fill="#4BC1BD"/>
<path d="M23 324H41M39 324V338C39 339 38 340 37 340H27C26 340 25 339 25 338V324M28 324V322C28 321 29 320 30 320H34C35 320 36 321 36 322V324M30 329V335M34 329V335" stroke="#4BC1BD" stroke-width="2" stroke-linecap="round" stroke-linejoin="round"/>
<path d="M59.0909 336H55.1477V324.364H59.1705C60.3258 324.364 61.3182 324.597 62.1477 325.062C62.9811 325.525 63.6212 326.189 64.0682 327.057C64.5152 327.924 64.7386 328.962 64.7386 330.17C64.7386 331.383 64.5133 332.424 64.0625 333.295C63.6155 334.167 62.9697 334.835 62.125 335.301C61.2841 335.767 60.2727 336 59.0909 336ZM57.2557 334.176H58.9886C59.7992 334.176 60.4754 334.028 61.017 333.733C61.5587 333.434 61.9659 332.989 62.2386 332.398C62.5114 331.803 62.6477 331.061 62.6477 330.17C62.6477 329.28 62.5114 328.542 62.2386 327.955C61.9659 327.364 61.5625 326.922 61.0284 326.631C60.4981 326.335 59.839 326.188 59.0511 326.188H57.2557V334.176ZM70.5142 336.17C69.6392 336.17 68.8835 335.989 68.2472 335.625C67.6146 335.258 67.1278 334.739 66.7869 334.068C66.446 333.394 66.2756 332.6 66.2756 331.688C66.2756 330.79 66.446 330.002 66.7869 329.324C67.1316 328.642 67.6127 328.112 68.2301 327.733C68.8475 327.35 69.5729 327.159 70.4062 327.159C70.9441 327.159 71.4517 327.246 71.929 327.42C72.41 327.591 72.8343 327.856 73.2017 328.216C73.5729 328.576 73.8646 329.034 74.0767 329.591C74.2888 330.144 74.3949 330.803 74.3949 331.568V332.199H67.2415V330.812H72.4233C72.4195 330.419 72.3343 330.068 72.1676 329.761C72.0009 329.451 71.768 329.206 71.4688 329.028C71.1733 328.85 70.8286 328.761 70.4347 328.761C70.0142 328.761 69.6449 328.864 69.3267 329.068C69.0085 329.269 68.7604 329.534 68.5824 329.864C68.4081 330.189 68.3191 330.547 68.3153 330.938V332.148C68.3153 332.655 68.4081 333.091 68.5938 333.455C68.7794 333.814 69.0388 334.091 69.3722 334.284C69.7055 334.473 70.0956 334.568 70.5426 334.568C70.8419 334.568 71.1127 334.527 71.3551 334.443C71.5975 334.356 71.8078 334.229 71.9858 334.062C72.1638 333.896 72.2983 333.689 72.3892 333.443L74.3097 333.659C74.1884 334.167 73.9574 334.61 73.6165 334.989C73.2794 335.364 72.8475 335.655 72.321 335.864C71.7945 336.068 71.1922 336.17 70.5142 336.17ZM78.1918 324.364V336H76.1349V324.364H78.1918ZM84.1705 336.17C83.2955 336.17 82.5398 335.989 81.9034 335.625C81.2708 335.258 80.7841 334.739 80.4432 334.068C80.1023 333.394 79.9318 332.6 79.9318 331.688C79.9318 330.79 80.1023 330.002 80.4432 329.324C80.7879 328.642 81.2689 328.112 81.8864 327.733C82.5038 327.35 83.2292 327.159 84.0625 327.159C84.6004 327.159 85.108 327.246 85.5852 327.42C86.0663 327.591 86.4905 327.856 86.858 328.216C87.2292 328.576 87.5208 329.034 87.733 329.591C87.9451 330.144 88.0511 330.803 88.0511 331.568V332.199H80.8977V330.812H86.0795C86.0758 330.419 85.9905 330.068 85.8239 329.761C85.6572 329.451 85.4242 329.206 85.125 329.028C84.8295 328.85 84.4848 328.761 84.0909 328.761C83.6705 328.761 83.3011 328.864 82.983 329.068C82.6648 329.269 82.4167 329.534 82.2386 329.864C82.0644 330.189 81.9754 330.547 81.9716 330.938V332.148C81.9716 332.655 82.0644 333.091 82.25 333.455C82.4356 333.814 82.6951 334.091 83.0284 334.284C83.3617 334.473 83.7519 334.568 84.1989 334.568C84.4981 334.568 84.7689 334.527 85.0114 334.443C85.2538 334.356 85.464 334.229 85.642 334.062C85.8201 333.896 85.9545 333.689 86.0455 333.443L87.9659 333.659C87.8447 334.167 87.6136 334.61 87.2727 334.989C86.9356 335.364 86.5038 335.655 85.9773 335.864C85.4508 336.068 84.8485 336.17 84.1705 336.17ZM94.1491 327.273V328.864H89.1321V327.273H94.1491ZM90.3707 325.182H92.4276V333.375C92.4276 333.652 92.4692 333.864 92.5526 334.011C92.6397 334.155 92.7533 334.254 92.8935 334.307C93.0336 334.36 93.1889 334.386 93.3594 334.386C93.4882 334.386 93.6056 334.377 93.7116 334.358C93.8215 334.339 93.9048 334.322 93.9616 334.307L94.3082 335.915C94.1984 335.953 94.0412 335.994 93.8366 336.04C93.6359 336.085 93.3897 336.112 93.098 336.119C92.5829 336.134 92.1188 336.057 91.706 335.886C91.2931 335.712 90.9654 335.443 90.723 335.08C90.4844 334.716 90.367 334.261 90.3707 333.716V325.182ZM99.6392 336.17C98.7642 336.17 98.0085 335.989 97.3722 335.625C96.7396 335.258 96.2528 334.739 95.9119 334.068C95.571 333.394 95.4006 332.6 95.4006 331.688C95.4006 330.79 95.571 330.002 95.9119 329.324C96.2566 328.642 96.7377 328.112 97.3551 327.733C97.9725 327.35 98.6979 327.159 99.5312 327.159C100.069 327.159 100.577 327.246 101.054 327.42C101.535 327.591 101.959 327.856 102.327 328.216C102.698 328.576 102.99 329.034 103.202 329.591C103.414 330.144 103.52 330.803 103.52 331.568V332.199H96.3665V330.812H101.548C101.545 330.419 101.459 330.068 101.293 329.761C101.126 329.451 100.893 329.206 100.594 329.028C100.298 328.85 99.9536 328.761 99.5597 328.761C99.1392 328.761 98.7699 328.864 98.4517 329.068C98.1335 329.269 97.8854 329.534 97.7074 329.864C97.5331 330.189 97.4441 330.547 97.4403 330.938V332.148C97.4403 332.655 97.5331 333.091 97.7188 333.455C97.9044 333.814 98.1638 334.091 98.4972 334.284C98.8305 334.473 99.2206 334.568 99.6676 334.568C99.9669 334.568 100.238 334.527 100.48 334.443C100.723 334.356 100.933 334.229 101.111 334.062C101.289 333.896 101.423 333.689 101.514 333.443L103.435 333.659C103.313 334.167 103.082 334.61 102.741 334.989C102.404 335.364 101.973 335.655 101.446 335.864C100.92 336.068 100.317 336.17 99.6392 336.17Z" fill="#4BC1BD"/>
</svg>
