<svg width="480" height="636" viewBox="0 0 480 636" fill="none" xmlns="http://www.w3.org/2000/svg">
<path d="M0.5 12C0.5 5.64872 5.64873 0.5 12 0.5H468C474.351 0.5 479.5 5.64873 479.5 12V624C479.5 630.351 474.351 635.5 468 635.5H12C5.64871 635.5 0.5 630.351 0.5 624V12Z" fill="black"/>
<path d="M0.5 12C0.5 5.64872 5.64873 0.5 12 0.5H468C474.351 0.5 479.5 5.64873 479.5 12V624C479.5 630.351 474.351 635.5 468 635.5H12C5.64871 635.5 0.5 630.351 0.5 624V12Z" stroke="#2C2C2C"/>
<circle cx="240" cy="105" r="64.5" fill="black" stroke="#2C2C2C"/>
<path d="M240 106V114M240 106L236 110M240 106L244 110M232 107.899C231.257 107.14 230.696 106.222 230.361 105.214C230.025 104.206 229.924 103.136 230.063 102.083C230.203 101.03 230.58 100.022 231.167 99.1368C231.754 98.2513 232.534 97.511 233.449 96.9718C234.364 96.4327 235.39 96.1088 236.449 96.0248C237.508 95.9409 238.572 96.099 239.561 96.4871C240.549 96.8753 241.437 97.4834 242.156 98.2653C242.874 99.0472 243.406 99.9825 243.71 101H245.5C246.465 101 247.405 101.311 248.181 101.886C248.956 102.461 249.526 103.27 249.807 104.194C250.087 105.118 250.063 106.108 249.737 107.017C249.412 107.926 248.803 108.706 248 109.242" stroke="#4BC1BD" stroke-width="2" stroke-linecap="round" stroke-linejoin="round"/>
<circle cx="285" cy="150" r="19.5" fill="black" stroke="#2C2C2C"/>
<path d="M287.5 142H282.5L280 145H277C276.47 145 275.961 145.211 275.586 145.586C275.211 145.961 275 146.47 275 147V156C275 156.53 275.211 157.039 275.586 157.414C275.961 157.789 276.47 158 277 158H293C293.53 158 294.039 157.789 294.414 157.414C294.789 157.039 295 156.53 295 156V147C295 146.47 294.789 145.961 294.414 145.586C294.039 145.211 293.53 145 293 145H290L287.5 142Z" stroke="#4BC1BD" stroke-width="2" stroke-linecap="round" stroke-linejoin="round"/>
<path d="M285 154C286.657 154 288 152.657 288 151C288 149.343 286.657 148 285 148C283.343 148 282 149.343 282 151C282 152.657 283.343 154 285 154Z" stroke="#4BC1BD" stroke-width="2" stroke-linecap="round" stroke-linejoin="round"/>
<rect x="41" y="223" width="398" height="48" rx="5" fill="#2C2C2C"/>
<rect x="41" y="223" width="398" height="48" rx="5" stroke="#454444" stroke-width="2"/>
<path d="M57.5682 241.364V253H56.2273V241.364H57.5682ZM65.6841 249.432V244.273H67.0251V253H65.6841V251.523H65.5932C65.3887 251.966 65.0705 252.343 64.6387 252.653C64.2069 252.96 63.6614 253.114 63.0023 253.114C62.4569 253.114 61.972 252.994 61.5478 252.756C61.1235 252.513 60.7902 252.15 60.5478 251.665C60.3054 251.176 60.1841 250.561 60.1841 249.818V244.273H61.5251V249.727C61.5251 250.364 61.7031 250.871 62.0591 251.25C62.419 251.629 62.8773 251.818 63.4341 251.818C63.7675 251.818 64.1065 251.733 64.4512 251.562C64.7997 251.392 65.0913 251.131 65.3262 250.778C65.5648 250.426 65.6841 249.977 65.6841 249.432ZM72.2092 253.205C71.6562 253.205 71.1543 253.1 70.7035 252.892C70.2528 252.68 69.8948 252.375 69.6297 251.977C69.3645 251.576 69.2319 251.091 69.2319 250.523C69.2319 250.023 69.3304 249.617 69.5274 249.307C69.7244 248.992 69.9876 248.746 70.3172 248.568C70.6467 248.39 71.0103 248.258 71.4081 248.17C71.8096 248.08 72.213 248.008 72.6183 247.955C73.1486 247.886 73.5785 247.835 73.9081 247.801C74.2414 247.763 74.4838 247.701 74.6353 247.614C74.7906 247.527 74.8683 247.375 74.8683 247.159V247.114C74.8683 246.553 74.7149 246.117 74.4081 245.807C74.105 245.496 73.6448 245.341 73.0274 245.341C72.3872 245.341 71.8853 245.481 71.5217 245.761C71.1581 246.042 70.9024 246.341 70.7547 246.659L69.4819 246.205C69.7092 245.674 70.0122 245.261 70.391 244.966C70.7736 244.667 71.1903 244.458 71.641 244.341C72.0956 244.22 72.5425 244.159 72.9819 244.159C73.2622 244.159 73.5842 244.193 73.9478 244.261C74.3153 244.326 74.6694 244.46 75.0103 244.665C75.355 244.869 75.641 245.178 75.8683 245.591C76.0956 246.004 76.2092 246.557 76.2092 247.25V253H74.8683V251.818H74.8001C74.7092 252.008 74.5577 252.21 74.3456 252.426C74.1334 252.642 73.8512 252.826 73.499 252.977C73.1467 253.129 72.7168 253.205 72.2092 253.205ZM72.4137 252C72.9441 252 73.391 251.896 73.7547 251.688C74.1221 251.479 74.3986 251.21 74.5842 250.881C74.7736 250.551 74.8683 250.205 74.8683 249.841V248.614C74.8115 248.682 74.6865 248.744 74.4933 248.801C74.3039 248.854 74.0842 248.902 73.8342 248.943C73.588 248.981 73.3475 249.015 73.1126 249.045C72.8816 249.072 72.6941 249.095 72.5501 249.114C72.2016 249.159 71.8759 249.233 71.5728 249.335C71.2736 249.434 71.0312 249.583 70.8456 249.784C70.6637 249.981 70.5728 250.25 70.5728 250.591C70.5728 251.057 70.7452 251.409 71.0899 251.648C71.4384 251.883 71.8797 252 72.4137 252ZM80.1576 247.75V253H78.8166V244.273H80.1121V245.636H80.2257C80.4303 245.193 80.7409 244.837 81.1576 244.568C81.5742 244.295 82.1121 244.159 82.7712 244.159C83.3621 244.159 83.8791 244.28 84.3223 244.523C84.7655 244.761 85.1102 245.125 85.3564 245.614C85.6026 246.098 85.7257 246.712 85.7257 247.455V253H84.3848V247.545C84.3848 246.86 84.2068 246.326 83.8507 245.943C83.4947 245.557 83.006 245.364 82.3848 245.364C81.9568 245.364 81.5742 245.456 81.2371 245.642C80.9038 245.828 80.6405 246.098 80.4473 246.455C80.2541 246.811 80.1576 247.242 80.1576 247.75ZM95.0406 256.068C93.8815 256.068 92.8569 255.909 91.9667 255.591C91.0766 255.277 90.3284 254.813 89.7224 254.199C89.1163 253.585 88.658 252.833 88.3474 251.943C88.0368 251.053 87.8815 250.034 87.8815 248.886C87.8815 247.777 88.0387 246.784 88.3531 245.909C88.6712 245.034 89.1315 244.292 89.7337 243.682C90.3398 243.068 91.0747 242.6 91.9383 242.278C92.8057 241.956 93.7868 241.795 94.8815 241.795C95.9459 241.795 96.8777 241.97 97.6769 242.318C98.48 242.663 99.1504 243.131 99.6883 243.722C100.23 244.309 100.635 244.97 100.904 245.705C101.177 246.439 101.313 247.197 101.313 247.977C101.313 248.527 101.287 249.083 101.234 249.648C101.181 250.212 101.069 250.731 100.899 251.205C100.728 251.674 100.465 252.053 100.109 252.341C99.7565 252.629 99.2792 252.773 98.6769 252.773C98.4118 252.773 98.1201 252.731 97.8019 252.648C97.4837 252.564 97.2016 252.426 96.9553 252.233C96.7091 252.04 96.5633 251.78 96.5178 251.455H96.4497C96.3587 251.674 96.2186 251.883 96.0292 252.08C95.8436 252.277 95.5993 252.434 95.2962 252.551C94.997 252.669 94.6315 252.72 94.1997 252.705C93.7072 252.686 93.2735 252.576 92.8985 252.375C92.5235 252.17 92.2091 251.894 91.9553 251.545C91.7053 251.193 91.5159 250.786 91.3872 250.324C91.2622 249.858 91.1997 249.356 91.1997 248.818C91.1997 248.307 91.2754 247.839 91.4269 247.415C91.5784 246.991 91.7887 246.619 92.0576 246.301C92.3303 245.983 92.6485 245.729 93.0122 245.54C93.3796 245.347 93.7754 245.227 94.1997 245.182C94.5784 245.144 94.9231 245.161 95.2337 245.233C95.5444 245.301 95.8 245.405 96.0008 245.545C96.2016 245.682 96.3284 245.833 96.3815 246H96.4497V245.364H97.6542V250.5C97.6542 250.818 97.7432 251.098 97.9212 251.341C98.0993 251.583 98.3587 251.705 98.6997 251.705C99.086 251.705 99.3815 251.572 99.586 251.307C99.7944 251.042 99.9364 250.633 100.012 250.08C100.092 249.527 100.131 248.818 100.131 247.955C100.131 247.447 100.061 246.947 99.9212 246.455C99.7849 245.958 99.5766 245.494 99.2962 245.062C99.0197 244.631 98.6694 244.25 98.2451 243.92C97.8209 243.591 97.3228 243.333 96.7508 243.148C96.1826 242.958 95.5368 242.864 94.8133 242.864C93.9231 242.864 93.1258 243.002 92.4212 243.278C91.7205 243.551 91.1239 243.951 90.6315 244.477C90.1428 245 89.7697 245.636 89.5122 246.386C89.2584 247.133 89.1315 247.981 89.1315 248.932C89.1315 249.898 89.2584 250.756 89.5122 251.506C89.7697 252.256 90.1485 252.888 90.6485 253.403C91.1523 253.919 91.7754 254.309 92.5178 254.574C93.2603 254.843 94.1163 254.977 95.086 254.977C95.5027 254.977 95.9137 254.938 96.319 254.858C96.7243 254.778 97.0822 254.691 97.3928 254.597C97.7034 254.502 97.9269 254.432 98.0633 254.386L98.3815 255.432C98.1466 255.53 97.8398 255.629 97.461 255.727C97.086 255.826 96.6845 255.907 96.2565 255.972C95.8322 256.036 95.4269 256.068 95.0406 256.068ZM94.3815 251.545C94.8891 251.545 95.3 251.443 95.6144 251.239C95.9288 251.034 96.158 250.725 96.3019 250.312C96.4459 249.9 96.5178 249.379 96.5178 248.75C96.5178 248.114 96.4383 247.617 96.2792 247.261C96.1201 246.905 95.8853 246.655 95.5747 246.511C95.2641 246.367 94.8815 246.295 94.4269 246.295C93.9951 246.295 93.6258 246.409 93.319 246.636C93.0159 246.86 92.783 247.159 92.6201 247.534C92.461 247.905 92.3815 248.311 92.3815 248.75C92.3815 249.235 92.4459 249.691 92.5747 250.119C92.7034 250.544 92.9137 250.888 93.2053 251.153C93.497 251.415 93.8891 251.545 94.3815 251.545ZM110.617 244.273L107.389 253H106.026L102.799 244.273H104.253L106.662 251.227H106.753L109.162 244.273H110.617ZM112.547 253V244.273H113.888V253H112.547ZM113.228 242.818C112.967 242.818 112.742 242.729 112.552 242.551C112.367 242.373 112.274 242.159 112.274 241.909C112.274 241.659 112.367 241.445 112.552 241.267C112.742 241.089 112.967 241 113.228 241C113.49 241 113.713 241.089 113.899 241.267C114.088 241.445 114.183 241.659 114.183 241.909C114.183 242.159 114.088 242.373 113.899 242.551C113.713 242.729 113.49 242.818 113.228 242.818ZM119.799 253.182C119.072 253.182 118.43 252.998 117.873 252.631C117.316 252.259 116.88 251.737 116.566 251.062C116.252 250.384 116.094 249.583 116.094 248.659C116.094 247.742 116.252 246.947 116.566 246.273C116.88 245.598 117.318 245.078 117.879 244.71C118.439 244.343 119.087 244.159 119.822 244.159C120.39 244.159 120.839 244.254 121.168 244.443C121.502 244.629 121.755 244.841 121.93 245.08C122.108 245.314 122.246 245.508 122.344 245.659H122.458V241.364H123.799V253H122.504V251.659H122.344C122.246 251.818 122.106 252.019 121.924 252.261C121.742 252.5 121.483 252.714 121.146 252.903C120.808 253.089 120.36 253.182 119.799 253.182ZM119.981 251.977C120.519 251.977 120.973 251.837 121.344 251.557C121.716 251.273 121.998 250.881 122.191 250.381C122.384 249.877 122.481 249.295 122.481 248.636C122.481 247.985 122.386 247.415 122.197 246.926C122.007 246.434 121.727 246.051 121.356 245.778C120.985 245.502 120.526 245.364 119.981 245.364C119.413 245.364 118.939 245.509 118.56 245.801C118.185 246.089 117.903 246.481 117.714 246.977C117.528 247.47 117.435 248.023 117.435 248.636C117.435 249.258 117.53 249.822 117.719 250.33C117.913 250.833 118.197 251.235 118.572 251.534C118.95 251.83 119.42 251.977 119.981 251.977ZM130.26 253.182C129.419 253.182 128.694 252.996 128.084 252.625C127.478 252.25 127.01 251.727 126.681 251.057C126.355 250.383 126.192 249.598 126.192 248.705C126.192 247.811 126.355 247.023 126.681 246.341C127.01 245.655 127.468 245.121 128.056 244.739C128.646 244.352 129.336 244.159 130.124 244.159C130.578 244.159 131.027 244.235 131.47 244.386C131.914 244.538 132.317 244.784 132.681 245.125C133.044 245.462 133.334 245.909 133.55 246.466C133.766 247.023 133.874 247.708 133.874 248.523V249.091H127.146V247.932H132.51C132.51 247.439 132.412 247 132.215 246.614C132.021 246.227 131.745 245.922 131.385 245.699C131.029 245.475 130.609 245.364 130.124 245.364C129.59 245.364 129.128 245.496 128.737 245.761C128.351 246.023 128.054 246.364 127.845 246.784C127.637 247.205 127.533 247.655 127.533 248.136V248.909C127.533 249.568 127.646 250.127 127.874 250.585C128.105 251.04 128.425 251.386 128.834 251.625C129.243 251.86 129.718 251.977 130.26 251.977C130.612 251.977 130.931 251.928 131.215 251.83C131.503 251.727 131.751 251.576 131.959 251.375C132.167 251.17 132.328 250.917 132.442 250.614L133.737 250.977C133.601 251.417 133.372 251.803 133.05 252.136C132.728 252.466 132.33 252.723 131.857 252.909C131.383 253.091 130.851 253.182 130.26 253.182ZM139.619 253.182C138.831 253.182 138.14 252.994 137.545 252.619C136.954 252.244 136.492 251.72 136.159 251.045C135.829 250.371 135.664 249.583 135.664 248.682C135.664 247.773 135.829 246.979 136.159 246.301C136.492 245.623 136.954 245.097 137.545 244.722C138.14 244.347 138.831 244.159 139.619 244.159C140.407 244.159 141.096 244.347 141.687 244.722C142.282 245.097 142.744 245.623 143.074 246.301C143.407 246.979 143.574 247.773 143.574 248.682C143.574 249.583 143.407 250.371 143.074 251.045C142.744 251.72 142.282 252.244 141.687 252.619C141.096 252.994 140.407 253.182 139.619 253.182ZM139.619 251.977C140.217 251.977 140.71 251.824 141.096 251.517C141.483 251.21 141.769 250.807 141.954 250.307C142.14 249.807 142.233 249.265 142.233 248.682C142.233 248.098 142.14 247.555 141.954 247.051C141.769 246.547 141.483 246.14 141.096 245.83C140.71 245.519 140.217 245.364 139.619 245.364C139.02 245.364 138.528 245.519 138.142 245.83C137.755 246.14 137.469 246.547 137.284 247.051C137.098 247.555 137.005 248.098 137.005 248.682C137.005 249.265 137.098 249.807 137.284 250.307C137.469 250.807 137.755 251.21 138.142 251.517C138.528 251.824 139.02 251.977 139.619 251.977ZM145.78 244.273H147.121V253.636C147.121 254.174 147.029 254.64 146.843 255.034C146.661 255.428 146.385 255.733 146.013 255.949C145.646 256.165 145.182 256.273 144.621 256.273C144.576 256.273 144.53 256.273 144.485 256.273C144.439 256.273 144.394 256.273 144.349 256.273V255.023C144.394 255.023 144.436 255.023 144.474 255.023C144.511 255.023 144.553 255.023 144.599 255.023C145.008 255.023 145.307 254.902 145.496 254.659C145.686 254.42 145.78 254.08 145.78 253.636V244.273ZM146.439 242.818C146.178 242.818 145.953 242.729 145.763 242.551C145.578 242.373 145.485 242.159 145.485 241.909C145.485 241.659 145.578 241.445 145.763 241.267C145.953 241.089 146.178 241 146.439 241C146.701 241 146.924 241.089 147.11 241.267C147.299 241.445 147.394 241.659 147.394 241.909C147.394 242.159 147.299 242.373 147.11 242.551C146.924 242.729 146.701 242.818 146.439 242.818ZM153.283 253.182C152.495 253.182 151.804 252.994 151.209 252.619C150.618 252.244 150.156 251.72 149.823 251.045C149.493 250.371 149.328 249.583 149.328 248.682C149.328 247.773 149.493 246.979 149.823 246.301C150.156 245.623 150.618 245.097 151.209 244.722C151.804 244.347 152.495 244.159 153.283 244.159C154.071 244.159 154.76 244.347 155.351 244.722C155.946 245.097 156.408 245.623 156.737 246.301C157.071 246.979 157.237 247.773 157.237 248.682C157.237 249.583 157.071 250.371 156.737 251.045C156.408 251.72 155.946 252.244 155.351 252.619C154.76 252.994 154.071 253.182 153.283 253.182ZM153.283 251.977C153.881 251.977 154.374 251.824 154.76 251.517C155.146 251.21 155.432 250.807 155.618 250.307C155.804 249.807 155.896 249.265 155.896 248.682C155.896 248.098 155.804 247.555 155.618 247.051C155.432 246.547 155.146 246.14 154.76 245.83C154.374 245.519 153.881 245.364 153.283 245.364C152.684 245.364 152.192 245.519 151.805 245.83C151.419 246.14 151.133 246.547 150.948 247.051C150.762 247.555 150.669 248.098 150.669 248.682C150.669 249.265 150.762 249.807 150.948 250.307C151.133 250.807 151.419 251.21 151.805 251.517C152.192 251.824 152.684 251.977 153.283 251.977ZM159.626 253V241.364H160.967V245.659H161.081C161.179 245.508 161.315 245.314 161.49 245.08C161.668 244.841 161.921 244.629 162.251 244.443C162.584 244.254 163.035 244.159 163.603 244.159C164.338 244.159 164.986 244.343 165.546 244.71C166.107 245.078 166.545 245.598 166.859 246.273C167.173 246.947 167.331 247.742 167.331 248.659C167.331 249.583 167.173 250.384 166.859 251.062C166.545 251.737 166.109 252.259 165.552 252.631C164.995 252.998 164.353 253.182 163.626 253.182C163.065 253.182 162.616 253.089 162.279 252.903C161.942 252.714 161.683 252.5 161.501 252.261C161.319 252.019 161.179 251.818 161.081 251.659H160.921V253H159.626ZM160.944 248.636C160.944 249.295 161.041 249.877 161.234 250.381C161.427 250.881 161.709 251.273 162.081 251.557C162.452 251.837 162.906 251.977 163.444 251.977C164.005 251.977 164.473 251.83 164.848 251.534C165.226 251.235 165.51 250.833 165.7 250.33C165.893 249.822 165.99 249.258 165.99 248.636C165.99 248.023 165.895 247.47 165.706 246.977C165.52 246.481 165.238 246.089 164.859 245.801C164.484 245.509 164.012 245.364 163.444 245.364C162.899 245.364 162.44 245.502 162.069 245.778C161.698 246.051 161.418 246.434 161.228 246.926C161.039 247.415 160.944 247.985 160.944 248.636ZM175.723 246.227L174.519 246.568C174.443 246.367 174.331 246.172 174.184 245.983C174.04 245.79 173.843 245.631 173.593 245.506C173.343 245.381 173.023 245.318 172.633 245.318C172.098 245.318 171.653 245.441 171.297 245.688C170.945 245.93 170.769 246.239 170.769 246.614C170.769 246.947 170.89 247.21 171.133 247.403C171.375 247.597 171.754 247.758 172.269 247.886L173.564 248.205C174.345 248.394 174.926 248.684 175.309 249.074C175.691 249.46 175.883 249.958 175.883 250.568C175.883 251.068 175.739 251.515 175.451 251.909C175.167 252.303 174.769 252.614 174.258 252.841C173.746 253.068 173.151 253.182 172.473 253.182C171.583 253.182 170.847 252.989 170.263 252.602C169.68 252.216 169.311 251.652 169.155 250.909L170.428 250.591C170.549 251.061 170.778 251.413 171.116 251.648C171.456 251.883 171.901 252 172.451 252C173.076 252 173.572 251.867 173.939 251.602C174.311 251.333 174.496 251.011 174.496 250.636C174.496 250.333 174.39 250.08 174.178 249.875C173.966 249.667 173.64 249.511 173.201 249.409L171.746 249.068C170.947 248.879 170.36 248.585 169.985 248.188C169.614 247.786 169.428 247.284 169.428 246.682C169.428 246.189 169.566 245.754 169.843 245.375C170.123 244.996 170.504 244.699 170.985 244.483C171.47 244.267 172.019 244.159 172.633 244.159C173.496 244.159 174.174 244.348 174.667 244.727C175.163 245.106 175.515 245.606 175.723 246.227ZM179.038 253.091C178.758 253.091 178.517 252.991 178.317 252.79C178.116 252.589 178.016 252.348 178.016 252.068C178.016 251.788 178.116 251.547 178.317 251.347C178.517 251.146 178.758 251.045 179.038 251.045C179.319 251.045 179.559 251.146 179.76 251.347C179.961 251.547 180.061 251.788 180.061 252.068C180.061 252.254 180.014 252.424 179.919 252.58C179.828 252.735 179.705 252.86 179.55 252.955C179.398 253.045 179.228 253.091 179.038 253.091ZM186.173 253.182C185.355 253.182 184.65 252.989 184.059 252.602C183.468 252.216 183.014 251.684 182.695 251.006C182.377 250.328 182.218 249.553 182.218 248.682C182.218 247.795 182.381 247.013 182.707 246.335C183.036 245.653 183.495 245.121 184.082 244.739C184.673 244.352 185.362 244.159 186.15 244.159C186.764 244.159 187.317 244.273 187.809 244.5C188.302 244.727 188.705 245.045 189.019 245.455C189.334 245.864 189.529 246.341 189.605 246.886H188.264C188.161 246.489 187.934 246.136 187.582 245.83C187.233 245.519 186.764 245.364 186.173 245.364C185.65 245.364 185.192 245.5 184.798 245.773C184.408 246.042 184.103 246.422 183.883 246.915C183.667 247.403 183.559 247.977 183.559 248.636C183.559 249.311 183.665 249.898 183.877 250.398C184.093 250.898 184.396 251.286 184.786 251.562C185.18 251.839 185.642 251.977 186.173 251.977C186.521 251.977 186.838 251.917 187.122 251.795C187.406 251.674 187.646 251.5 187.843 251.273C188.04 251.045 188.18 250.773 188.264 250.455H189.605C189.529 250.97 189.341 251.434 189.042 251.847C188.747 252.256 188.355 252.581 187.866 252.824C187.381 253.062 186.817 253.182 186.173 253.182ZM193.066 247.75V253H191.725V241.364H193.066V245.636H193.179C193.384 245.186 193.691 244.828 194.1 244.562C194.513 244.294 195.062 244.159 195.747 244.159C196.342 244.159 196.863 244.278 197.31 244.517C197.757 244.752 198.104 245.114 198.35 245.602C198.6 246.087 198.725 246.705 198.725 247.455V253H197.384V247.545C197.384 246.852 197.204 246.316 196.844 245.938C196.488 245.555 195.994 245.364 195.361 245.364C194.922 245.364 194.528 245.456 194.179 245.642C193.835 245.828 193.562 246.098 193.361 246.455C193.164 246.811 193.066 247.242 193.066 247.75Z" fill="#454444"/>
<path d="M41.4091 209V197.364H48.4318V198.614H42.8182V202.545H48.0682V203.795H42.8182V207.75H48.5227V209H41.4091ZM50.7898 209V200.273H52.0852V201.636H52.1989C52.3807 201.17 52.6742 200.809 53.0795 200.551C53.4848 200.29 53.9716 200.159 54.5398 200.159C55.1155 200.159 55.5947 200.29 55.9773 200.551C56.3636 200.809 56.6648 201.17 56.8807 201.636H56.9716C57.1951 201.186 57.5303 200.828 57.9773 200.562C58.4242 200.294 58.9602 200.159 59.5852 200.159C60.3655 200.159 61.0038 200.403 61.5 200.892C61.9962 201.377 62.2443 202.133 62.2443 203.159V209H60.9034V203.159C60.9034 202.515 60.7273 202.055 60.375 201.778C60.0227 201.502 59.608 201.364 59.1307 201.364C58.517 201.364 58.0417 201.549 57.7045 201.92C57.3674 202.288 57.1989 202.754 57.1989 203.318V209H55.8352V203.023C55.8352 202.527 55.6742 202.127 55.3523 201.824C55.0303 201.517 54.6155 201.364 54.108 201.364C53.7595 201.364 53.4337 201.456 53.1307 201.642C52.8314 201.828 52.589 202.085 52.4034 202.415C52.2216 202.741 52.1307 203.117 52.1307 203.545V209H50.7898ZM67.2642 209.205C66.7112 209.205 66.2093 209.1 65.7585 208.892C65.3078 208.68 64.9498 208.375 64.6847 207.977C64.4195 207.576 64.2869 207.091 64.2869 206.523C64.2869 206.023 64.3854 205.617 64.5824 205.307C64.7794 204.992 65.0426 204.746 65.3722 204.568C65.7017 204.39 66.0653 204.258 66.4631 204.17C66.8646 204.08 67.268 204.008 67.6733 203.955C68.2036 203.886 68.6335 203.835 68.9631 203.801C69.2964 203.763 69.5388 203.701 69.6903 203.614C69.8456 203.527 69.9233 203.375 69.9233 203.159V203.114C69.9233 202.553 69.7699 202.117 69.4631 201.807C69.16 201.496 68.6998 201.341 68.0824 201.341C67.4422 201.341 66.9403 201.481 66.5767 201.761C66.2131 202.042 65.9574 202.341 65.8097 202.659L64.5369 202.205C64.7642 201.674 65.0672 201.261 65.446 200.966C65.8286 200.667 66.2453 200.458 66.696 200.341C67.1506 200.22 67.5975 200.159 68.0369 200.159C68.3172 200.159 68.6392 200.193 69.0028 200.261C69.3703 200.326 69.7244 200.46 70.0653 200.665C70.41 200.869 70.696 201.178 70.9233 201.591C71.1506 202.004 71.2642 202.557 71.2642 203.25V209H69.9233V207.818H69.8551C69.7642 208.008 69.6127 208.21 69.4006 208.426C69.1884 208.642 68.9063 208.826 68.554 208.977C68.2017 209.129 67.7718 209.205 67.2642 209.205ZM67.4688 208C67.9991 208 68.446 207.896 68.8097 207.688C69.1771 207.479 69.4536 207.21 69.6392 206.881C69.8286 206.551 69.9233 206.205 69.9233 205.841V204.614C69.8665 204.682 69.7415 204.744 69.5483 204.801C69.3589 204.854 69.1392 204.902 68.8892 204.943C68.643 204.981 68.4025 205.015 68.1676 205.045C67.9366 205.072 67.7491 205.095 67.6051 205.114C67.2566 205.159 66.9309 205.233 66.6278 205.335C66.3286 205.434 66.0862 205.583 65.9006 205.784C65.7188 205.981 65.6278 206.25 65.6278 206.591C65.6278 207.057 65.8002 207.409 66.1449 207.648C66.4934 207.883 66.9347 208 67.4688 208ZM73.7116 209V200.273H75.0526V209H73.7116ZM74.3935 198.818C74.1321 198.818 73.9067 198.729 73.7173 198.551C73.5317 198.373 73.4389 198.159 73.4389 197.909C73.4389 197.659 73.5317 197.445 73.7173 197.267C73.9067 197.089 74.1321 197 74.3935 197C74.6548 197 74.8783 197.089 75.0639 197.267C75.2533 197.445 75.348 197.659 75.348 197.909C75.348 198.159 75.2533 198.373 75.0639 198.551C74.8783 198.729 74.6548 198.818 74.3935 198.818ZM78.8494 197.364V209H77.5085V197.364H78.8494Z" fill="#808080"/>
<rect x="41" y="325" width="398" height="48" rx="5" fill="black"/>
<rect x="41" y="325" width="398" height="48" rx="5" stroke="#2C2C2C" stroke-width="2"/>
<path d="M56.4091 355V343.364H57.8182V353.75H63.2273V355H56.4091ZM70.8873 351.432V346.273H72.2282V355H70.8873V353.523H70.7964C70.5918 353.966 70.2736 354.343 69.8418 354.653C69.41 354.96 68.8645 355.114 68.2055 355.114C67.66 355.114 67.1752 354.994 66.7509 354.756C66.3267 354.513 65.9933 354.15 65.7509 353.665C65.5085 353.176 65.3873 352.561 65.3873 351.818V346.273H66.7282V351.727C66.7282 352.364 66.9062 352.871 67.2623 353.25C67.6221 353.629 68.0805 353.818 68.6373 353.818C68.9706 353.818 69.3096 353.733 69.6543 353.562C70.0028 353.392 70.2945 353.131 70.5293 352.778C70.768 352.426 70.8873 351.977 70.8873 351.432ZM77.4123 355.205C76.8593 355.205 76.3574 355.1 75.9066 354.892C75.4559 354.68 75.0979 354.375 74.8328 353.977C74.5676 353.576 74.4351 353.091 74.4351 352.523C74.4351 352.023 74.5335 351.617 74.7305 351.307C74.9275 350.992 75.1907 350.746 75.5203 350.568C75.8498 350.39 76.2135 350.258 76.6112 350.17C77.0127 350.08 77.4161 350.008 77.8214 349.955C78.3517 349.886 78.7816 349.835 79.1112 349.801C79.4445 349.763 79.687 349.701 79.8385 349.614C79.9938 349.527 80.0714 349.375 80.0714 349.159V349.114C80.0714 348.553 79.918 348.117 79.6112 347.807C79.3082 347.496 78.8479 347.341 78.2305 347.341C77.5904 347.341 77.0885 347.481 76.7248 347.761C76.3612 348.042 76.1055 348.341 75.9578 348.659L74.6851 348.205C74.9123 347.674 75.2154 347.261 75.5941 346.966C75.9767 346.667 76.3934 346.458 76.8441 346.341C77.2987 346.22 77.7457 346.159 78.1851 346.159C78.4654 346.159 78.7873 346.193 79.151 346.261C79.5184 346.326 79.8726 346.46 80.2135 346.665C80.5582 346.869 80.8441 347.178 81.0714 347.591C81.2987 348.004 81.4123 348.557 81.4123 349.25V355H80.0714V353.818H80.0032C79.9123 354.008 79.7608 354.21 79.5487 354.426C79.3366 354.642 79.0544 354.826 78.7021 354.977C78.3498 355.129 77.9199 355.205 77.4123 355.205ZM77.6169 354C78.1472 354 78.5941 353.896 78.9578 353.688C79.3252 353.479 79.6017 353.21 79.7873 352.881C79.9767 352.551 80.0714 352.205 80.0714 351.841V350.614C80.0146 350.682 79.8896 350.744 79.6964 350.801C79.507 350.854 79.2873 350.902 79.0373 350.943C78.7911 350.981 78.5506 351.015 78.3157 351.045C78.0847 351.072 77.8972 351.095 77.7532 351.114C77.4048 351.159 77.079 351.233 76.776 351.335C76.4767 351.434 76.2343 351.583 76.0487 351.784C75.8669 351.981 75.776 352.25 75.776 352.591C75.776 353.057 75.9483 353.409 76.293 353.648C76.6415 353.883 77.0828 354 77.6169 354ZM85.3607 349.75V355H84.0198V346.273H85.3152V347.636H85.4289C85.6334 347.193 85.944 346.837 86.3607 346.568C86.7773 346.295 87.3152 346.159 87.9743 346.159C88.5652 346.159 89.0823 346.28 89.5255 346.523C89.9686 346.761 90.3133 347.125 90.5595 347.614C90.8058 348.098 90.9289 348.712 90.9289 349.455V355H89.588V349.545C89.588 348.86 89.4099 348.326 89.0539 347.943C88.6978 347.557 88.2092 347.364 87.588 347.364C87.1599 347.364 86.7773 347.456 86.4402 347.642C86.1069 347.828 85.8436 348.098 85.6505 348.455C85.4573 348.811 85.3607 349.242 85.3607 349.75ZM106.336 347C106.211 346.617 106.046 346.275 105.841 345.972C105.64 345.665 105.4 345.403 105.12 345.188C104.843 344.972 104.529 344.807 104.176 344.693C103.824 344.58 103.438 344.523 103.017 344.523C102.328 344.523 101.701 344.701 101.137 345.057C100.572 345.413 100.123 345.938 99.7901 346.631C99.4567 347.324 99.2901 348.174 99.2901 349.182C99.2901 350.189 99.4586 351.04 99.7957 351.733C100.133 352.426 100.589 352.951 101.165 353.307C101.741 353.663 102.389 353.841 103.108 353.841C103.775 353.841 104.362 353.699 104.87 353.415C105.381 353.127 105.779 352.722 106.063 352.199C106.351 351.672 106.495 351.053 106.495 350.341L106.926 350.432H103.426V349.182H107.858V350.432C107.858 351.39 107.654 352.223 107.245 352.932C106.839 353.64 106.279 354.189 105.563 354.58C104.851 354.966 104.032 355.159 103.108 355.159C102.078 355.159 101.173 354.917 100.392 354.432C99.6158 353.947 99.0098 353.258 98.5741 352.364C98.1423 351.47 97.9264 350.409 97.9264 349.182C97.9264 348.261 98.0495 347.434 98.2957 346.699C98.5457 345.96 98.898 345.331 99.3526 344.812C99.8071 344.294 100.345 343.896 100.966 343.619C101.587 343.343 102.271 343.205 103.017 343.205C103.631 343.205 104.203 343.297 104.733 343.483C105.267 343.665 105.743 343.924 106.159 344.261C106.58 344.595 106.93 344.994 107.211 345.46C107.491 345.922 107.684 346.436 107.79 347H106.336ZM110.797 346.273H112.138V355.636C112.138 356.174 112.045 356.64 111.859 357.034C111.677 357.428 111.401 357.733 111.03 357.949C110.662 358.165 110.198 358.273 109.638 358.273C109.592 358.273 109.547 358.273 109.501 358.273C109.456 358.273 109.41 358.273 109.365 358.273V357.023C109.41 357.023 109.452 357.023 109.49 357.023C109.528 357.023 109.569 357.023 109.615 357.023C110.024 357.023 110.323 356.902 110.513 356.659C110.702 356.42 110.797 356.08 110.797 355.636V346.273ZM111.456 344.818C111.194 344.818 110.969 344.729 110.78 344.551C110.594 344.373 110.501 344.159 110.501 343.909C110.501 343.659 110.594 343.445 110.78 343.267C110.969 343.089 111.194 343 111.456 343C111.717 343 111.941 343.089 112.126 343.267C112.316 343.445 112.41 343.659 112.41 343.909C112.41 344.159 112.316 344.373 112.126 344.551C111.941 344.729 111.717 344.818 111.456 344.818ZM118.299 355.182C117.511 355.182 116.82 354.994 116.225 354.619C115.634 354.244 115.172 353.72 114.839 353.045C114.509 352.371 114.344 351.583 114.344 350.682C114.344 349.773 114.509 348.979 114.839 348.301C115.172 347.623 115.634 347.097 116.225 346.722C116.82 346.347 117.511 346.159 118.299 346.159C119.087 346.159 119.776 346.347 120.367 346.722C120.962 347.097 121.424 347.623 121.754 348.301C122.087 348.979 122.254 349.773 122.254 350.682C122.254 351.583 122.087 352.371 121.754 353.045C121.424 353.72 120.962 354.244 120.367 354.619C119.776 354.994 119.087 355.182 118.299 355.182ZM118.299 353.977C118.897 353.977 119.39 353.824 119.776 353.517C120.163 353.21 120.449 352.807 120.634 352.307C120.82 351.807 120.913 351.265 120.913 350.682C120.913 350.098 120.82 349.555 120.634 349.051C120.449 348.547 120.163 348.14 119.776 347.83C119.39 347.519 118.897 347.364 118.299 347.364C117.7 347.364 117.208 347.519 116.822 347.83C116.435 348.14 116.149 348.547 115.964 349.051C115.778 349.555 115.685 350.098 115.685 350.682C115.685 351.265 115.778 351.807 115.964 352.307C116.149 352.807 116.435 353.21 116.822 353.517C117.208 353.824 117.7 353.977 118.299 353.977ZM125.71 351.818L125.688 350.159H125.96L129.779 346.273H131.438L127.369 350.386H127.256L125.71 351.818ZM124.46 355V343.364H125.801V355H124.46ZM130.006 355L126.597 350.682L127.551 349.75L131.71 355H130.006ZM135.892 355.205C135.339 355.205 134.837 355.1 134.386 354.892C133.935 354.68 133.577 354.375 133.312 353.977C133.047 353.576 132.914 353.091 132.914 352.523C132.914 352.023 133.013 351.617 133.21 351.307C133.407 350.992 133.67 350.746 134 350.568C134.329 350.39 134.693 350.258 135.091 350.17C135.492 350.08 135.895 350.008 136.301 349.955C136.831 349.886 137.261 349.835 137.591 349.801C137.924 349.763 138.166 349.701 138.318 349.614C138.473 349.527 138.551 349.375 138.551 349.159V349.114C138.551 348.553 138.397 348.117 138.091 347.807C137.788 347.496 137.327 347.341 136.71 347.341C136.07 347.341 135.568 347.481 135.204 347.761C134.841 348.042 134.585 348.341 134.437 348.659L133.164 348.205C133.392 347.674 133.695 347.261 134.074 346.966C134.456 346.667 134.873 346.458 135.324 346.341C135.778 346.22 136.225 346.159 136.664 346.159C136.945 346.159 137.267 346.193 137.63 346.261C137.998 346.326 138.352 346.46 138.693 346.665C139.038 346.869 139.324 347.178 139.551 347.591C139.778 348.004 139.892 348.557 139.892 349.25V355H138.551V353.818H138.483C138.392 354.008 138.24 354.21 138.028 354.426C137.816 354.642 137.534 354.826 137.181 354.977C136.829 355.129 136.399 355.205 135.892 355.205ZM136.096 354C136.627 354 137.074 353.896 137.437 353.688C137.805 353.479 138.081 353.21 138.267 352.881C138.456 352.551 138.551 352.205 138.551 351.841V350.614C138.494 350.682 138.369 350.744 138.176 350.801C137.986 350.854 137.767 350.902 137.517 350.943C137.27 350.981 137.03 351.015 136.795 351.045C136.564 351.072 136.377 351.095 136.233 351.114C135.884 351.159 135.558 351.233 135.255 351.335C134.956 351.434 134.714 351.583 134.528 351.784C134.346 351.981 134.255 352.25 134.255 352.591C134.255 353.057 134.428 353.409 134.772 353.648C135.121 353.883 135.562 354 136.096 354ZM142.499 346.273H143.84V355.636C143.84 356.174 143.747 356.64 143.562 357.034C143.38 357.428 143.103 357.733 142.732 357.949C142.365 358.165 141.901 358.273 141.34 358.273C141.295 358.273 141.249 358.273 141.204 358.273C141.158 358.273 141.113 358.273 141.067 358.273V357.023C141.113 357.023 141.154 357.023 141.192 357.023C141.23 357.023 141.272 357.023 141.317 357.023C141.726 357.023 142.026 356.902 142.215 356.659C142.404 356.42 142.499 356.08 142.499 355.636V346.273ZM143.158 344.818C142.897 344.818 142.671 344.729 142.482 344.551C142.296 344.373 142.204 344.159 142.204 343.909C142.204 343.659 142.296 343.445 142.482 343.267C142.671 343.089 142.897 343 143.158 343C143.42 343 143.643 343.089 143.829 343.267C144.018 343.445 144.113 343.659 144.113 343.909C144.113 344.159 144.018 344.373 143.829 344.551C143.643 344.729 143.42 344.818 143.158 344.818Z" fill="white"/>
<path d="M41.4091 311V299.364H48.3864V300.614H42.8182V304.545H47.8636V305.795H42.8182V311H41.4091ZM55.571 307.432V302.273H56.9119V311H55.571V309.523H55.4801C55.2756 309.966 54.9574 310.343 54.5256 310.653C54.0938 310.96 53.5483 311.114 52.8892 311.114C52.3438 311.114 51.8589 310.994 51.4347 310.756C51.0104 310.513 50.6771 310.15 50.4347 309.665C50.1922 309.176 50.071 308.561 50.071 307.818V302.273H51.4119V307.727C51.4119 308.364 51.59 308.871 51.946 309.25C52.3059 309.629 52.7642 309.818 53.321 309.818C53.6544 309.818 53.9934 309.733 54.3381 309.562C54.6866 309.392 54.9782 309.131 55.2131 308.778C55.4517 308.426 55.571 307.977 55.571 307.432ZM60.7088 299.364V311H59.3679V299.364H60.7088ZM64.5057 299.364V311H63.1648V299.364H64.5057ZM80.8707 299.364V311H79.5071L73.1662 301.864H73.0526V311H71.6435V299.364H73.0071L79.3707 308.523H79.4844V299.364H80.8707ZM86.0767 311.205C85.5237 311.205 85.0218 311.1 84.571 310.892C84.1203 310.68 83.7623 310.375 83.4972 309.977C83.232 309.576 83.0994 309.091 83.0994 308.523C83.0994 308.023 83.1979 307.617 83.3949 307.307C83.5919 306.992 83.8551 306.746 84.1847 306.568C84.5142 306.39 84.8778 306.258 85.2756 306.17C85.6771 306.08 86.0805 306.008 86.4858 305.955C87.0161 305.886 87.446 305.835 87.7756 305.801C88.1089 305.763 88.3513 305.701 88.5028 305.614C88.6581 305.527 88.7358 305.375 88.7358 305.159V305.114C88.7358 304.553 88.5824 304.117 88.2756 303.807C87.9725 303.496 87.5123 303.341 86.8949 303.341C86.2547 303.341 85.7528 303.481 85.3892 303.761C85.0256 304.042 84.7699 304.341 84.6222 304.659L83.3494 304.205C83.5767 303.674 83.8797 303.261 84.2585 302.966C84.6411 302.667 85.0578 302.458 85.5085 302.341C85.9631 302.22 86.41 302.159 86.8494 302.159C87.1297 302.159 87.4517 302.193 87.8153 302.261C88.1828 302.326 88.5369 302.46 88.8778 302.665C89.2225 302.869 89.5085 303.178 89.7358 303.591C89.9631 304.004 90.0767 304.557 90.0767 305.25V311H88.7358V309.818H88.6676C88.5767 310.008 88.4252 310.21 88.2131 310.426C88.0009 310.642 87.7188 310.826 87.3665 310.977C87.0142 311.129 86.5843 311.205 86.0767 311.205ZM86.2812 310C86.8116 310 87.2585 309.896 87.6222 309.688C87.9896 309.479 88.2661 309.21 88.4517 308.881C88.6411 308.551 88.7358 308.205 88.7358 307.841V306.614C88.679 306.682 88.554 306.744 88.3608 306.801C88.1714 306.854 87.9517 306.902 87.7017 306.943C87.4555 306.981 87.215 307.015 86.9801 307.045C86.7491 307.072 86.5616 307.095 86.4176 307.114C86.0691 307.159 85.7434 307.233 85.4403 307.335C85.1411 307.434 84.8987 307.583 84.7131 307.784C84.5313 307.981 84.4403 308.25 84.4403 308.591C84.4403 309.057 84.6127 309.409 84.9574 309.648C85.3059 309.883 85.7472 310 86.2812 310ZM92.5241 311V302.273H93.8196V303.636H93.9332C94.1151 303.17 94.4086 302.809 94.8139 302.551C95.2192 302.29 95.706 302.159 96.2741 302.159C96.8499 302.159 97.3291 302.29 97.7116 302.551C98.098 302.809 98.3991 303.17 98.6151 303.636H98.706C98.9295 303.186 99.2647 302.828 99.7116 302.562C100.159 302.294 100.695 302.159 101.32 302.159C102.1 302.159 102.738 302.403 103.234 302.892C103.731 303.377 103.979 304.133 103.979 305.159V311H102.638V305.159C102.638 304.515 102.462 304.055 102.109 303.778C101.757 303.502 101.342 303.364 100.865 303.364C100.251 303.364 99.776 303.549 99.4389 303.92C99.1018 304.288 98.9332 304.754 98.9332 305.318V311H97.5696V305.023C97.5696 304.527 97.4086 304.127 97.0866 303.824C96.7647 303.517 96.3499 303.364 95.8423 303.364C95.4938 303.364 95.1681 303.456 94.8651 303.642C94.5658 303.828 94.3234 304.085 94.1378 304.415C93.956 304.741 93.8651 305.117 93.8651 305.545V311H92.5241ZM110.089 311.182C109.249 311.182 108.523 310.996 107.913 310.625C107.307 310.25 106.839 309.727 106.51 309.057C106.184 308.383 106.021 307.598 106.021 306.705C106.021 305.811 106.184 305.023 106.51 304.341C106.839 303.655 107.298 303.121 107.885 302.739C108.476 302.352 109.165 302.159 109.953 302.159C110.408 302.159 110.857 302.235 111.3 302.386C111.743 302.538 112.146 302.784 112.51 303.125C112.874 303.462 113.163 303.909 113.379 304.466C113.595 305.023 113.703 305.708 113.703 306.523V307.091H106.976V305.932H112.339C112.339 305.439 112.241 305 112.044 304.614C111.851 304.227 111.574 303.922 111.214 303.699C110.858 303.475 110.438 303.364 109.953 303.364C109.419 303.364 108.957 303.496 108.567 303.761C108.18 304.023 107.883 304.364 107.675 304.784C107.466 305.205 107.362 305.655 107.362 306.136V306.909C107.362 307.568 107.476 308.127 107.703 308.585C107.934 309.04 108.254 309.386 108.663 309.625C109.072 309.86 109.548 309.977 110.089 309.977C110.442 309.977 110.76 309.928 111.044 309.83C111.332 309.727 111.58 309.576 111.788 309.375C111.997 309.17 112.158 308.917 112.271 308.614L113.567 308.977C113.43 309.417 113.201 309.803 112.879 310.136C112.557 310.466 112.16 310.723 111.686 310.909C111.213 311.091 110.68 311.182 110.089 311.182Z" fill="#808080"/>
<path d="M48.38 416.28C47.2733 416.28 46.2467 416.107 45.3 415.76C44.3667 415.4 43.5533 414.893 42.86 414.24C42.18 413.587 41.6467 412.82 41.26 411.94C40.8733 411.047 40.68 410.067 40.68 409C40.68 407.933 40.8733 406.96 41.26 406.08C41.6467 405.187 42.18 404.413 42.86 403.76C43.5533 403.107 44.3667 402.607 45.3 402.26C46.2467 401.9 47.2733 401.72 48.38 401.72C49.6733 401.72 50.8267 401.947 51.84 402.4C52.8667 402.853 53.72 403.507 54.4 404.36L51.88 406.64C51.4267 406.107 50.9267 405.7 50.38 405.42C49.8467 405.14 49.2467 405 48.58 405C48.0067 405 47.48 405.093 47 405.28C46.52 405.467 46.1067 405.74 45.76 406.1C45.4267 406.447 45.16 406.867 44.96 407.36C44.7733 407.853 44.68 408.4 44.68 409C44.68 409.6 44.7733 410.147 44.96 410.64C45.16 411.133 45.4267 411.56 45.76 411.92C46.1067 412.267 46.52 412.533 47 412.72C47.48 412.907 48.0067 413 48.58 413C49.2467 413 49.8467 412.86 50.38 412.58C50.9267 412.3 51.4267 411.893 51.88 411.36L54.4 413.64C53.72 414.48 52.8667 415.133 51.84 415.6C50.8267 416.053 49.6733 416.28 48.38 416.28ZM61.0936 416.18C59.9069 416.18 58.8536 415.94 57.9336 415.46C57.0136 414.98 56.2869 414.32 55.7536 413.48C55.2336 412.627 54.9736 411.653 54.9736 410.56C54.9736 409.467 55.2336 408.5 55.7536 407.66C56.2869 406.82 57.0136 406.167 57.9336 405.7C58.8536 405.22 59.9069 404.98 61.0936 404.98C62.2803 404.98 63.3336 405.22 64.2536 405.7C65.1869 406.167 65.9136 406.82 66.4336 407.66C66.9536 408.5 67.2136 409.467 67.2136 410.56C67.2136 411.653 66.9536 412.627 66.4336 413.48C65.9136 414.32 65.1869 414.98 64.2536 415.46C63.3336 415.94 62.2803 416.18 61.0936 416.18ZM61.0936 413.16C61.5336 413.16 61.9203 413.06 62.2536 412.86C62.6003 412.66 62.8736 412.367 63.0736 411.98C63.2736 411.58 63.3736 411.107 63.3736 410.56C63.3736 410.013 63.2736 409.553 63.0736 409.18C62.8736 408.793 62.6003 408.5 62.2536 408.3C61.9203 408.1 61.5336 408 61.0936 408C60.6669 408 60.2803 408.1 59.9336 408.3C59.6003 408.5 59.3269 408.793 59.1136 409.18C58.9136 409.553 58.8136 410.013 58.8136 410.56C58.8136 411.107 58.9136 411.58 59.1136 411.98C59.3269 412.367 59.6003 412.66 59.9336 412.86C60.2803 413.06 60.6669 413.16 61.0936 413.16ZM83.0939 404.98C83.9339 404.98 84.6806 405.153 85.3339 405.5C86.0006 405.833 86.5206 406.353 86.8939 407.06C87.2806 407.767 87.4739 408.68 87.4739 409.8V416H83.6739V410.42C83.6739 409.647 83.5272 409.087 83.2339 408.74C82.9406 408.38 82.5406 408.2 82.0339 408.2C81.6739 408.2 81.3472 408.287 81.0539 408.46C80.7606 408.633 80.5339 408.9 80.3739 409.26C80.2139 409.607 80.1339 410.06 80.1339 410.62V416H76.3339V410.42C76.3339 409.647 76.1872 409.087 75.8939 408.74C75.6139 408.38 75.2139 408.2 74.6939 408.2C74.3206 408.2 73.9872 408.287 73.6939 408.46C73.4139 408.633 73.1872 408.9 73.0139 409.26C72.8539 409.607 72.7739 410.06 72.7739 410.62V416H68.9739V405.16H72.5939V408.18L71.8739 407.32C72.2739 406.547 72.8206 405.967 73.5139 405.58C74.2072 405.18 74.9806 404.98 75.8339 404.98C76.8072 404.98 77.6606 405.233 78.3939 405.74C79.1406 406.233 79.6406 407.007 79.8939 408.06L78.6539 407.8C79.0406 406.92 79.6206 406.233 80.3939 405.74C81.1806 405.233 82.0806 404.98 83.0939 404.98ZM96.6923 416.18C95.7723 416.18 94.9857 415.98 94.3323 415.58C93.679 415.167 93.179 414.553 92.8323 413.74C92.499 412.913 92.3323 411.86 92.3323 410.58C92.3323 409.287 92.4923 408.233 92.8123 407.42C93.1323 406.593 93.6123 405.98 94.2523 405.58C94.9057 405.18 95.719 404.98 96.6923 404.98C97.679 404.98 98.5723 405.213 99.3723 405.68C100.186 406.133 100.826 406.78 101.292 407.62C101.772 408.447 102.012 409.433 102.012 410.58C102.012 411.727 101.772 412.72 101.292 413.56C100.826 414.4 100.186 415.047 99.3723 415.5C98.5723 415.953 97.679 416.18 96.6923 416.18ZM89.8723 419.88V405.16H93.4923V407L93.4723 410.58L93.6723 414.18V419.88H89.8723ZM95.8923 413.16C96.319 413.16 96.699 413.06 97.0323 412.86C97.379 412.66 97.6523 412.367 97.8523 411.98C98.0657 411.593 98.1723 411.127 98.1723 410.58C98.1723 410.033 98.0657 409.567 97.8523 409.18C97.6523 408.793 97.379 408.5 97.0323 408.3C96.699 408.1 96.319 408 95.8923 408C95.4657 408 95.079 408.1 94.7323 408.3C94.399 408.5 94.1257 408.793 93.9123 409.18C93.7123 409.567 93.6123 410.033 93.6123 410.58C93.6123 411.127 93.7123 411.593 93.9123 411.98C94.1257 412.367 94.399 412.66 94.7323 412.86C95.079 413.06 95.4657 413.16 95.8923 413.16ZM110.164 416V413.98L109.904 413.48V409.76C109.904 409.16 109.718 408.7 109.344 408.38C108.984 408.047 108.404 407.88 107.604 407.88C107.084 407.88 106.558 407.967 106.024 408.14C105.491 408.3 105.038 408.527 104.664 408.82L103.384 406.24C103.998 405.84 104.731 405.533 105.584 405.32C106.451 405.093 107.311 404.98 108.164 404.98C109.924 404.98 111.284 405.387 112.244 406.2C113.218 407 113.704 408.26 113.704 409.98V416H110.164ZM106.964 416.18C106.098 416.18 105.364 416.033 104.764 415.74C104.164 415.447 103.704 415.047 103.384 414.54C103.078 414.033 102.924 413.467 102.924 412.84C102.924 412.173 103.091 411.6 103.424 411.12C103.771 410.627 104.298 410.253 105.004 410C105.711 409.733 106.624 409.6 107.744 409.6H110.304V411.58H108.264C107.651 411.58 107.218 411.68 106.964 411.88C106.724 412.08 106.604 412.347 106.604 412.68C106.604 413.013 106.731 413.28 106.984 413.48C107.238 413.68 107.584 413.78 108.024 413.78C108.438 413.78 108.811 413.68 109.144 413.48C109.491 413.267 109.744 412.947 109.904 412.52L110.424 413.92C110.224 414.667 109.831 415.233 109.244 415.62C108.671 415.993 107.911 416.18 106.964 416.18ZM123.163 404.98C124.003 404.98 124.763 405.153 125.443 405.5C126.123 405.833 126.656 406.353 127.043 407.06C127.443 407.767 127.643 408.68 127.643 409.8V416H123.843V410.42C123.843 409.647 123.683 409.087 123.363 408.74C123.056 408.38 122.623 408.2 122.063 408.2C121.663 408.2 121.296 408.293 120.963 408.48C120.629 408.653 120.369 408.927 120.183 409.3C119.996 409.673 119.903 410.16 119.903 410.76V416H116.103V405.16H119.723V408.24L119.023 407.34C119.436 406.553 120.003 405.967 120.723 405.58C121.443 405.18 122.256 404.98 123.163 404.98ZM131.693 420.06C131.12 420.06 130.54 419.967 129.953 419.78C129.38 419.607 128.913 419.373 128.553 419.08L129.873 416.42C130.1 416.62 130.36 416.773 130.653 416.88C130.96 417 131.26 417.06 131.553 417.06C131.967 417.06 132.293 416.967 132.533 416.78C132.773 416.593 132.98 416.3 133.153 415.9L133.653 414.64L133.953 414.26L137.633 405.16H141.253L136.573 416.44C136.2 417.373 135.767 418.1 135.273 418.62C134.793 419.153 134.253 419.527 133.653 419.74C133.067 419.953 132.413 420.06 131.693 420.06ZM133.173 416.46L128.393 405.16H132.293L135.813 413.92L133.173 416.46ZM148.236 416V402H152.196V416H148.236ZM161.893 404.98C162.733 404.98 163.493 405.153 164.173 405.5C164.853 405.833 165.387 406.353 165.773 407.06C166.173 407.767 166.373 408.68 166.373 409.8V416H162.573V410.42C162.573 409.647 162.413 409.087 162.093 408.74C161.787 408.38 161.353 408.2 160.793 408.2C160.393 408.2 160.027 408.293 159.693 408.48C159.36 408.653 159.1 408.927 158.913 409.3C158.727 409.673 158.633 410.16 158.633 410.76V416H154.833V405.16H158.453V408.24L157.753 407.34C158.167 406.553 158.733 405.967 159.453 405.58C160.173 405.18 160.987 404.98 161.893 404.98ZM169.199 416V405.28C169.199 403.973 169.586 402.933 170.359 402.16C171.146 401.373 172.266 400.98 173.719 400.98C174.186 400.98 174.646 401.027 175.099 401.12C175.552 401.213 175.932 401.353 176.239 401.54L175.299 404.22C175.139 404.127 174.959 404.053 174.759 404C174.559 403.933 174.359 403.9 174.159 403.9C173.759 403.9 173.446 404.02 173.219 404.26C173.006 404.487 172.899 404.84 172.899 405.32V406.1L172.999 407.68V416H169.199ZM167.619 408.4V405.56H175.479V408.4H167.619ZM182.207 416.18C181.02 416.18 179.967 415.94 179.047 415.46C178.127 414.98 177.4 414.32 176.867 413.48C176.347 412.627 176.087 411.653 176.087 410.56C176.087 409.467 176.347 408.5 176.867 407.66C177.4 406.82 178.127 406.167 179.047 405.7C179.967 405.22 181.02 404.98 182.207 404.98C183.394 404.98 184.447 405.22 185.367 405.7C186.3 406.167 187.027 406.82 187.547 407.66C188.067 408.5 188.327 409.467 188.327 410.56C188.327 411.653 188.067 412.627 187.547 413.48C187.027 414.32 186.3 414.98 185.367 415.46C184.447 415.94 183.394 416.18 182.207 416.18ZM182.207 413.16C182.647 413.16 183.034 413.06 183.367 412.86C183.714 412.66 183.987 412.367 184.187 411.98C184.387 411.58 184.487 411.107 184.487 410.56C184.487 410.013 184.387 409.553 184.187 409.18C183.987 408.793 183.714 408.5 183.367 408.3C183.034 408.1 182.647 408 182.207 408C181.78 408 181.394 408.1 181.047 408.3C180.714 408.5 180.44 408.793 180.227 409.18C180.027 409.553 179.927 410.013 179.927 410.56C179.927 411.107 180.027 411.58 180.227 411.98C180.44 412.367 180.714 412.66 181.047 412.86C181.394 413.06 181.78 413.16 182.207 413.16ZM190.087 416V405.16H193.707V408.32L193.167 407.42C193.487 406.607 194.007 406 194.727 405.6C195.447 405.187 196.321 404.98 197.347 404.98V408.4C197.174 408.373 197.021 408.36 196.887 408.36C196.767 408.347 196.634 408.34 196.487 408.34C195.714 408.34 195.087 408.553 194.607 408.98C194.127 409.393 193.887 410.073 193.887 411.02V416H190.087ZM213.035 404.98C213.875 404.98 214.622 405.153 215.275 405.5C215.942 405.833 216.462 406.353 216.835 407.06C217.222 407.767 217.415 408.68 217.415 409.8V416H213.615V410.42C213.615 409.647 213.469 409.087 213.175 408.74C212.882 408.38 212.482 408.2 211.975 408.2C211.615 408.2 211.289 408.287 210.995 408.46C210.702 408.633 210.475 408.9 210.315 409.26C210.155 409.607 210.075 410.06 210.075 410.62V416H206.275V410.42C206.275 409.647 206.129 409.087 205.835 408.74C205.555 408.38 205.155 408.2 204.635 408.2C204.262 408.2 203.929 408.287 203.635 408.46C203.355 408.633 203.129 408.9 202.955 409.26C202.795 409.607 202.715 410.06 202.715 410.62V416H198.915V405.16H202.535V408.18L201.815 407.32C202.215 406.547 202.762 405.967 203.455 405.58C204.149 405.18 204.922 404.98 205.775 404.98C206.749 404.98 207.602 405.233 208.335 405.74C209.082 406.233 209.582 407.007 209.835 408.06L208.595 407.8C208.982 406.92 209.562 406.233 210.335 405.74C211.122 405.233 212.022 404.98 213.035 404.98ZM226.434 416V413.98L226.174 413.48V409.76C226.174 409.16 225.987 408.7 225.614 408.38C225.254 408.047 224.674 407.88 223.874 407.88C223.354 407.88 222.827 407.967 222.294 408.14C221.76 408.3 221.307 408.527 220.934 408.82L219.654 406.24C220.267 405.84 221 405.533 221.854 405.32C222.72 405.093 223.58 404.98 224.434 404.98C226.194 404.98 227.554 405.387 228.514 406.2C229.487 407 229.974 408.26 229.974 409.98V416H226.434ZM223.234 416.18C222.367 416.18 221.634 416.033 221.034 415.74C220.434 415.447 219.974 415.047 219.654 414.54C219.347 414.033 219.194 413.467 219.194 412.84C219.194 412.173 219.36 411.6 219.694 411.12C220.04 410.627 220.567 410.253 221.274 410C221.98 409.733 222.894 409.6 224.014 409.6H226.574V411.58H224.534C223.92 411.58 223.487 411.68 223.234 411.88C222.994 412.08 222.874 412.347 222.874 412.68C222.874 413.013 223 413.28 223.254 413.48C223.507 413.68 223.854 413.78 224.294 413.78C224.707 413.78 225.08 413.68 225.414 413.48C225.76 413.267 226.014 412.947 226.174 412.52L226.694 413.92C226.494 414.667 226.1 415.233 225.514 415.62C224.94 415.993 224.18 416.18 223.234 416.18ZM237.212 416.18C235.826 416.18 234.746 415.84 233.972 415.16C233.199 414.467 232.812 413.427 232.812 412.04V402.74H236.612V412C236.612 412.387 236.719 412.693 236.932 412.92C237.146 413.133 237.419 413.24 237.752 413.24C238.206 413.24 238.592 413.127 238.912 412.9L239.852 415.56C239.532 415.773 239.139 415.927 238.672 416.02C238.206 416.127 237.719 416.18 237.212 416.18ZM231.232 408.4V405.56H239.092V408.4H231.232ZM241.318 416V405.16H245.118V416H241.318ZM243.218 403.96C242.524 403.96 241.964 403.767 241.538 403.38C241.111 402.993 240.898 402.513 240.898 401.94C240.898 401.367 241.111 400.887 241.538 400.5C241.964 400.113 242.524 399.92 243.218 399.92C243.911 399.92 244.471 400.107 244.898 400.48C245.324 400.84 245.538 401.307 245.538 401.88C245.538 402.48 245.324 402.98 244.898 403.38C244.484 403.767 243.924 403.96 243.218 403.96ZM253.027 416.18C251.841 416.18 250.787 415.94 249.867 415.46C248.947 414.98 248.221 414.32 247.687 413.48C247.167 412.627 246.907 411.653 246.907 410.56C246.907 409.467 247.167 408.5 247.687 407.66C248.221 406.82 248.947 406.167 249.867 405.7C250.787 405.22 251.841 404.98 253.027 404.98C254.214 404.98 255.267 405.22 256.187 405.7C257.121 406.167 257.847 406.82 258.367 407.66C258.887 408.5 259.147 409.467 259.147 410.56C259.147 411.653 258.887 412.627 258.367 413.48C257.847 414.32 257.121 414.98 256.187 415.46C255.267 415.94 254.214 416.18 253.027 416.18ZM253.027 413.16C253.467 413.16 253.854 413.06 254.187 412.86C254.534 412.66 254.807 412.367 255.007 411.98C255.207 411.58 255.307 411.107 255.307 410.56C255.307 410.013 255.207 409.553 255.007 409.18C254.807 408.793 254.534 408.5 254.187 408.3C253.854 408.1 253.467 408 253.027 408C252.601 408 252.214 408.1 251.867 408.3C251.534 408.5 251.261 408.793 251.047 409.18C250.847 409.553 250.747 410.013 250.747 410.56C250.747 411.107 250.847 411.58 251.047 411.98C251.261 412.367 251.534 412.66 251.867 412.86C252.214 413.06 252.601 413.16 253.027 413.16ZM267.968 404.98C268.808 404.98 269.568 405.153 270.247 405.5C270.928 405.833 271.461 406.353 271.848 407.06C272.248 407.767 272.448 408.68 272.448 409.8V416H268.648V410.42C268.648 409.647 268.488 409.087 268.168 408.74C267.861 408.38 267.428 408.2 266.868 408.2C266.468 408.2 266.101 408.293 265.768 408.48C265.434 408.653 265.174 408.927 264.988 409.3C264.801 409.673 264.708 410.16 264.708 410.76V416H260.908V405.16H264.528V408.24L263.828 407.34C264.241 406.553 264.808 405.967 265.528 405.58C266.248 405.18 267.061 404.98 267.968 404.98Z" fill="white"/>
<rect x="41" y="477" width="398" height="56" rx="5" fill="black"/>
<rect x="41" y="477" width="398" height="56" rx="5" stroke="#2C2C2C" stroke-width="2"/>
<path d="M76 514L71.7 509.7M74 504C74 508.418 70.4183 512 66 512C61.5817 512 58 508.418 58 504C58 499.582 61.5817 496 66 496C70.4183 496 74 499.582 74 504Z" stroke="#4BC1BD" stroke-width="2" stroke-linecap="round" stroke-linejoin="round"/>
<path d="M50.7727 455H49.3636C49.2803 454.595 49.1345 454.239 48.9261 453.932C48.7216 453.625 48.4716 453.367 48.1761 453.159C47.8845 452.947 47.5606 452.788 47.2045 452.682C46.8485 452.576 46.4773 452.523 46.0909 452.523C45.3864 452.523 44.7481 452.701 44.1761 453.057C43.608 453.413 43.1553 453.938 42.8182 454.631C42.4848 455.324 42.3182 456.174 42.3182 457.182C42.3182 458.189 42.4848 459.04 42.8182 459.733C43.1553 460.426 43.608 460.951 44.1761 461.307C44.7481 461.663 45.3864 461.841 46.0909 461.841C46.4773 461.841 46.8485 461.788 47.2045 461.682C47.5606 461.576 47.8845 461.419 48.1761 461.21C48.4716 460.998 48.7216 460.739 48.9261 460.432C49.1345 460.121 49.2803 459.765 49.3636 459.364H50.7727C50.6667 459.958 50.4735 460.491 50.1932 460.96C49.9129 461.43 49.5644 461.83 49.1477 462.159C48.7311 462.485 48.2633 462.733 47.7443 462.903C47.2292 463.074 46.678 463.159 46.0909 463.159C45.0985 463.159 44.2159 462.917 43.4432 462.432C42.6705 461.947 42.0625 461.258 41.6193 460.364C41.1761 459.47 40.9545 458.409 40.9545 457.182C40.9545 455.955 41.1761 454.894 41.6193 454C42.0625 453.106 42.6705 452.417 43.4432 451.932C44.2159 451.447 45.0985 451.205 46.0909 451.205C46.678 451.205 47.2292 451.29 47.7443 451.46C48.2633 451.631 48.7311 451.881 49.1477 452.21C49.5644 452.536 49.9129 452.934 50.1932 453.403C50.4735 453.869 50.6667 454.402 50.7727 455ZM56.4134 463.182C55.6255 463.182 54.9342 462.994 54.3395 462.619C53.7486 462.244 53.2865 461.72 52.9531 461.045C52.6236 460.371 52.4588 459.583 52.4588 458.682C52.4588 457.773 52.6236 456.979 52.9531 456.301C53.2865 455.623 53.7486 455.097 54.3395 454.722C54.9342 454.347 55.6255 454.159 56.4134 454.159C57.2012 454.159 57.8906 454.347 58.4815 454.722C59.0762 455.097 59.5384 455.623 59.8679 456.301C60.2012 456.979 60.3679 457.773 60.3679 458.682C60.3679 459.583 60.2012 460.371 59.8679 461.045C59.5384 461.72 59.0762 462.244 58.4815 462.619C57.8906 462.994 57.2012 463.182 56.4134 463.182ZM56.4134 461.977C57.0118 461.977 57.5043 461.824 57.8906 461.517C58.277 461.21 58.563 460.807 58.7486 460.307C58.9342 459.807 59.027 459.265 59.027 458.682C59.027 458.098 58.9342 457.555 58.7486 457.051C58.563 456.547 58.277 456.14 57.8906 455.83C57.5043 455.519 57.0118 455.364 56.4134 455.364C55.8149 455.364 55.3224 455.519 54.9361 455.83C54.5497 456.14 54.2637 456.547 54.0781 457.051C53.8925 457.555 53.7997 458.098 53.7997 458.682C53.7997 459.265 53.8925 459.807 54.0781 460.307C54.2637 460.807 54.5497 461.21 54.9361 461.517C55.3224 461.824 55.8149 461.977 56.4134 461.977ZM62.4148 463V454.273H63.7102V455.636H63.8239C64.0057 455.17 64.2992 454.809 64.7045 454.551C65.1098 454.29 65.5966 454.159 66.1648 454.159C66.7405 454.159 67.2197 454.29 67.6023 454.551C67.9886 454.809 68.2898 455.17 68.5057 455.636H68.5966C68.8201 455.186 69.1553 454.828 69.6023 454.562C70.0492 454.294 70.5852 454.159 71.2102 454.159C71.9905 454.159 72.6288 454.403 73.125 454.892C73.6212 455.377 73.8693 456.133 73.8693 457.159V463H72.5284V457.159C72.5284 456.515 72.3523 456.055 72 455.778C71.6477 455.502 71.233 455.364 70.7557 455.364C70.142 455.364 69.6667 455.549 69.3295 455.92C68.9924 456.288 68.8239 456.754 68.8239 457.318V463H67.4602V457.023C67.4602 456.527 67.2992 456.127 66.9773 455.824C66.6553 455.517 66.2405 455.364 65.733 455.364C65.3845 455.364 65.0587 455.456 64.7557 455.642C64.4564 455.828 64.214 456.085 64.0284 456.415C63.8466 456.741 63.7557 457.117 63.7557 457.545V463H62.4148ZM76.321 466.273V454.273H77.6165V455.659H77.7756C77.8741 455.508 78.0104 455.314 78.1847 455.08C78.3627 454.841 78.6165 454.629 78.946 454.443C79.2794 454.254 79.7301 454.159 80.2983 454.159C81.0331 454.159 81.6809 454.343 82.2415 454.71C82.8021 455.078 83.2396 455.598 83.554 456.273C83.8684 456.947 84.0256 457.742 84.0256 458.659C84.0256 459.583 83.8684 460.384 83.554 461.062C83.2396 461.737 82.804 462.259 82.2472 462.631C81.6903 462.998 81.0483 463.182 80.321 463.182C79.7604 463.182 79.3116 463.089 78.9744 462.903C78.6373 462.714 78.3778 462.5 78.196 462.261C78.0142 462.019 77.8741 461.818 77.7756 461.659H77.6619V466.273H76.321ZM77.6392 458.636C77.6392 459.295 77.7358 459.877 77.929 460.381C78.1222 460.881 78.4044 461.273 78.7756 461.557C79.1468 461.837 79.6013 461.977 80.1392 461.977C80.6998 461.977 81.1676 461.83 81.5426 461.534C81.9214 461.235 82.2055 460.833 82.3949 460.33C82.5881 459.822 82.6847 459.258 82.6847 458.636C82.6847 458.023 82.59 457.47 82.4006 456.977C82.215 456.481 81.9328 456.089 81.554 455.801C81.179 455.509 80.7074 455.364 80.1392 455.364C79.5938 455.364 79.1354 455.502 78.7642 455.778C78.393 456.051 78.1127 456.434 77.9233 456.926C77.7339 457.415 77.6392 457.985 77.6392 458.636ZM88.6392 463.205C88.0862 463.205 87.5843 463.1 87.1335 462.892C86.6828 462.68 86.3248 462.375 86.0597 461.977C85.7945 461.576 85.6619 461.091 85.6619 460.523C85.6619 460.023 85.7604 459.617 85.9574 459.307C86.1544 458.992 86.4176 458.746 86.7472 458.568C87.0767 458.39 87.4403 458.258 87.8381 458.17C88.2396 458.08 88.643 458.008 89.0483 457.955C89.5786 457.886 90.0085 457.835 90.3381 457.801C90.6714 457.763 90.9138 457.701 91.0653 457.614C91.2206 457.527 91.2983 457.375 91.2983 457.159V457.114C91.2983 456.553 91.1449 456.117 90.8381 455.807C90.535 455.496 90.0748 455.341 89.4574 455.341C88.8172 455.341 88.3153 455.481 87.9517 455.761C87.5881 456.042 87.3324 456.341 87.1847 456.659L85.9119 456.205C86.1392 455.674 86.4422 455.261 86.821 454.966C87.2036 454.667 87.6203 454.458 88.071 454.341C88.5256 454.22 88.9725 454.159 89.4119 454.159C89.6922 454.159 90.0142 454.193 90.3778 454.261C90.7453 454.326 91.0994 454.46 91.4403 454.665C91.785 454.869 92.071 455.178 92.2983 455.591C92.5256 456.004 92.6392 456.557 92.6392 457.25V463H91.2983V461.818H91.2301C91.1392 462.008 90.9877 462.21 90.7756 462.426C90.5634 462.642 90.2813 462.826 89.929 462.977C89.5767 463.129 89.1468 463.205 88.6392 463.205ZM88.8438 462C89.3741 462 89.821 461.896 90.1847 461.688C90.5521 461.479 90.8286 461.21 91.0142 460.881C91.2036 460.551 91.2983 460.205 91.2983 459.841V458.614C91.2415 458.682 91.1165 458.744 90.9233 458.801C90.7339 458.854 90.5142 458.902 90.2642 458.943C90.018 458.981 89.7775 459.015 89.5426 459.045C89.3116 459.072 89.1241 459.095 88.9801 459.114C88.6316 459.159 88.3059 459.233 88.0028 459.335C87.7036 459.434 87.4612 459.583 87.2756 459.784C87.0938 459.981 87.0028 460.25 87.0028 460.591C87.0028 461.057 87.1752 461.409 87.5199 461.648C87.8684 461.883 88.3097 462 88.8438 462ZM96.4276 457.75V463H95.0866V454.273H96.3821V455.636H96.4957C96.7003 455.193 97.0109 454.837 97.4276 454.568C97.8442 454.295 98.3821 454.159 99.0412 454.159C99.6321 454.159 100.149 454.28 100.592 454.523C101.036 454.761 101.38 455.125 101.626 455.614C101.873 456.098 101.996 456.712 101.996 457.455V463H100.655V457.545C100.655 456.86 100.477 456.326 100.121 455.943C99.7647 455.557 99.276 455.364 98.6548 455.364C98.2268 455.364 97.8442 455.456 97.5071 455.642C97.1738 455.828 96.9105 456.098 96.7173 456.455C96.5241 456.811 96.4276 457.242 96.4276 457.75ZM104.997 466.273C104.77 466.273 104.567 466.254 104.389 466.216C104.211 466.182 104.088 466.148 104.02 466.114L104.361 464.932C104.687 465.015 104.974 465.045 105.224 465.023C105.474 465 105.696 464.888 105.889 464.688C106.086 464.491 106.266 464.17 106.429 463.727L106.679 463.045L103.452 454.273H104.906L107.315 461.227H107.406L109.815 454.273H111.27L107.565 464.273C107.399 464.723 107.192 465.097 106.946 465.392C106.7 465.691 106.414 465.913 106.088 466.057C105.766 466.201 105.402 466.273 104.997 466.273Z" fill="#808080"/>
<rect x="40" y="546" width="400" height="50" rx="25" fill="#4BC1BD"/>
<path d="M220.214 565.364H222.322V572.966C222.322 573.799 222.125 574.532 221.731 575.165C221.341 575.797 220.792 576.292 220.084 576.648C219.375 577 218.548 577.176 217.601 577.176C216.65 577.176 215.82 577 215.112 576.648C214.404 576.292 213.854 575.797 213.464 575.165C213.074 574.532 212.879 573.799 212.879 572.966V565.364H214.987V572.79C214.987 573.275 215.093 573.706 215.305 574.085C215.521 574.464 215.824 574.761 216.214 574.977C216.604 575.189 217.066 575.295 217.601 575.295C218.135 575.295 218.597 575.189 218.987 574.977C219.381 574.761 219.684 574.464 219.896 574.085C220.108 573.706 220.214 573.275 220.214 572.79V565.364ZM224.682 580.273V568.273H226.705V569.716H226.824C226.931 569.504 227.08 569.278 227.273 569.04C227.467 568.797 227.728 568.591 228.057 568.42C228.387 568.246 228.807 568.159 229.319 568.159C229.993 568.159 230.601 568.331 231.143 568.676C231.688 569.017 232.12 569.523 232.438 570.193C232.76 570.86 232.921 571.678 232.921 572.648C232.921 573.606 232.764 574.42 232.449 575.091C232.135 575.761 231.707 576.273 231.165 576.625C230.624 576.977 230.01 577.153 229.324 577.153C228.824 577.153 228.41 577.07 228.08 576.903C227.751 576.737 227.485 576.536 227.285 576.301C227.088 576.062 226.934 575.837 226.824 575.625H226.739V580.273H224.682ZM226.699 572.636C226.699 573.201 226.779 573.695 226.938 574.119C227.101 574.544 227.334 574.875 227.637 575.114C227.944 575.348 228.315 575.466 228.751 575.466C229.205 575.466 229.586 575.345 229.893 575.102C230.199 574.856 230.431 574.521 230.586 574.097C230.745 573.669 230.824 573.182 230.824 572.636C230.824 572.095 230.747 571.614 230.592 571.193C230.436 570.773 230.205 570.443 229.898 570.205C229.592 569.966 229.209 569.847 228.751 569.847C228.311 569.847 227.938 569.962 227.631 570.193C227.324 570.424 227.092 570.748 226.932 571.165C226.777 571.581 226.699 572.072 226.699 572.636ZM238.081 577.153C237.395 577.153 236.782 576.977 236.24 576.625C235.699 576.273 235.27 575.761 234.956 575.091C234.642 574.42 234.484 573.606 234.484 572.648C234.484 571.678 234.644 570.86 234.962 570.193C235.284 569.523 235.717 569.017 236.263 568.676C236.808 568.331 237.416 568.159 238.087 568.159C238.598 568.159 239.019 568.246 239.348 568.42C239.678 568.591 239.939 568.797 240.132 569.04C240.325 569.278 240.475 569.504 240.581 569.716H240.666V565.364H242.729V577H240.706V575.625H240.581C240.475 575.837 240.322 576.062 240.121 576.301C239.92 576.536 239.655 576.737 239.325 576.903C238.996 577.07 238.581 577.153 238.081 577.153ZM238.655 575.466C239.091 575.466 239.462 575.348 239.769 575.114C240.075 574.875 240.308 574.544 240.467 574.119C240.627 573.695 240.706 573.201 240.706 572.636C240.706 572.072 240.627 571.581 240.467 571.165C240.312 570.748 240.081 570.424 239.774 570.193C239.471 569.962 239.098 569.847 238.655 569.847C238.197 569.847 237.814 569.966 237.507 570.205C237.2 570.443 236.969 570.773 236.814 571.193C236.659 571.614 236.581 572.095 236.581 572.636C236.581 573.182 236.659 573.669 236.814 574.097C236.973 574.521 237.206 574.856 237.513 575.102C237.824 575.345 238.204 575.466 238.655 575.466ZM247.592 577.176C247.039 577.176 246.541 577.078 246.098 576.881C245.658 576.68 245.31 576.384 245.052 575.994C244.798 575.604 244.671 575.123 244.671 574.551C244.671 574.059 244.762 573.652 244.944 573.33C245.126 573.008 245.374 572.75 245.689 572.557C246.003 572.364 246.357 572.218 246.751 572.119C247.149 572.017 247.56 571.943 247.984 571.898C248.495 571.845 248.91 571.797 249.228 571.756C249.546 571.71 249.778 571.642 249.921 571.551C250.069 571.456 250.143 571.311 250.143 571.114V571.08C250.143 570.652 250.016 570.32 249.762 570.085C249.509 569.85 249.143 569.733 248.666 569.733C248.162 569.733 247.762 569.843 247.467 570.062C247.175 570.282 246.978 570.542 246.876 570.841L244.956 570.568C245.107 570.038 245.357 569.595 245.706 569.239C246.054 568.879 246.48 568.61 246.984 568.432C247.488 568.25 248.045 568.159 248.654 568.159C249.075 568.159 249.493 568.208 249.91 568.307C250.327 568.405 250.707 568.568 251.052 568.795C251.397 569.019 251.673 569.324 251.882 569.71C252.094 570.097 252.2 570.58 252.2 571.159V577H250.223V575.801H250.154C250.029 576.044 249.853 576.271 249.626 576.483C249.403 576.691 249.12 576.86 248.779 576.989C248.442 577.114 248.046 577.176 247.592 577.176ZM248.126 575.665C248.539 575.665 248.897 575.583 249.2 575.42C249.503 575.254 249.736 575.034 249.899 574.761C250.065 574.489 250.149 574.191 250.149 573.869V572.841C250.084 572.894 249.975 572.943 249.819 572.989C249.668 573.034 249.497 573.074 249.308 573.108C249.118 573.142 248.931 573.172 248.745 573.199C248.56 573.225 248.399 573.248 248.262 573.267C247.956 573.309 247.681 573.377 247.439 573.472C247.196 573.566 247.005 573.699 246.865 573.869C246.725 574.036 246.654 574.252 246.654 574.517C246.654 574.896 246.793 575.182 247.069 575.375C247.346 575.568 247.698 575.665 248.126 575.665ZM258.786 568.273V569.864H253.769V568.273H258.786ZM255.008 566.182H257.064V574.375C257.064 574.652 257.106 574.864 257.189 575.011C257.277 575.155 257.39 575.254 257.53 575.307C257.67 575.36 257.826 575.386 257.996 575.386C258.125 575.386 258.242 575.377 258.349 575.358C258.458 575.339 258.542 575.322 258.599 575.307L258.945 576.915C258.835 576.953 258.678 576.994 258.474 577.04C258.273 577.085 258.027 577.112 257.735 577.119C257.22 577.134 256.756 577.057 256.343 576.886C255.93 576.712 255.602 576.443 255.36 576.08C255.121 575.716 255.004 575.261 255.008 574.716V566.182ZM264.436 577.17C263.561 577.17 262.805 576.989 262.169 576.625C261.536 576.258 261.05 575.739 260.709 575.068C260.368 574.394 260.197 573.6 260.197 572.688C260.197 571.79 260.368 571.002 260.709 570.324C261.054 569.642 261.535 569.112 262.152 568.733C262.769 568.35 263.495 568.159 264.328 568.159C264.866 568.159 265.374 568.246 265.851 568.42C266.332 568.591 266.756 568.856 267.124 569.216C267.495 569.576 267.786 570.034 267.999 570.591C268.211 571.144 268.317 571.803 268.317 572.568V573.199H261.163V571.812H266.345C266.341 571.419 266.256 571.068 266.089 570.761C265.923 570.451 265.69 570.206 265.391 570.028C265.095 569.85 264.75 569.761 264.357 569.761C263.936 569.761 263.567 569.864 263.249 570.068C262.93 570.269 262.682 570.534 262.504 570.864C262.33 571.189 262.241 571.547 262.237 571.938V573.148C262.237 573.655 262.33 574.091 262.516 574.455C262.701 574.814 262.961 575.091 263.294 575.284C263.627 575.473 264.018 575.568 264.464 575.568C264.764 575.568 265.035 575.527 265.277 575.443C265.519 575.356 265.73 575.229 265.908 575.062C266.086 574.896 266.22 574.689 266.311 574.443L268.232 574.659C268.11 575.167 267.879 575.61 267.538 575.989C267.201 576.364 266.769 576.655 266.243 576.864C265.716 577.068 265.114 577.17 264.436 577.17Z" fill="black"/>
</svg>
