<svg width="500" height="491" viewBox="0 0 500 491" fill="none" xmlns="http://www.w3.org/2000/svg">
<path d="M12 0.5H488C494.351 0.5 499.5 5.64873 499.5 12V479C499.5 485.351 494.351 490.5 488 490.5H12C5.64872 490.5 0.5 485.351 0.5 479V12C0.5 5.64873 5.64873 0.5 12 0.5Z" fill="black" stroke="#2C2C2C"/>
<rect x="21" y="118" width="458" height="48" rx="5" fill="black"/>
<rect x="21" y="118" width="458" height="48" rx="5" stroke="#2C2C2C" stroke-width="2"/>
<path d="M25.8636 92.3636H27.2727V100.682C27.2727 101.424 27.1364 102.055 26.8636 102.574C26.5909 103.093 26.2064 103.487 25.7102 103.756C25.214 104.025 24.6288 104.159 23.9545 104.159C23.3182 104.159 22.7519 104.044 22.2557 103.812C21.7595 103.578 21.3693 103.244 21.0852 102.812C20.8011 102.381 20.6591 101.867 20.6591 101.273H22.0455C22.0455 101.602 22.1269 101.89 22.2898 102.136C22.4564 102.379 22.6837 102.568 22.9716 102.705C23.2595 102.841 23.5871 102.909 23.9545 102.909C24.3598 102.909 24.7045 102.824 24.9886 102.653C25.2727 102.483 25.4886 102.233 25.6364 101.903C25.7879 101.57 25.8636 101.163 25.8636 100.682V92.3636ZM33.4602 104.182C32.6723 104.182 31.9811 103.994 31.3864 103.619C30.7955 103.244 30.3333 102.72 30 102.045C29.6705 101.371 29.5057 100.583 29.5057 99.6818C29.5057 98.7727 29.6705 97.9792 30 97.3011C30.3333 96.6231 30.7955 96.0966 31.3864 95.7216C31.9811 95.3466 32.6723 95.1591 33.4602 95.1591C34.2481 95.1591 34.9375 95.3466 35.5284 95.7216C36.1231 96.0966 36.5852 96.6231 36.9148 97.3011C37.2481 97.9792 37.4148 98.7727 37.4148 99.6818C37.4148 100.583 37.2481 101.371 36.9148 102.045C36.5852 102.72 36.1231 103.244 35.5284 103.619C34.9375 103.994 34.2481 104.182 33.4602 104.182ZM33.4602 102.977C34.0587 102.977 34.5511 102.824 34.9375 102.517C35.3239 102.21 35.6098 101.807 35.7955 101.307C35.9811 100.807 36.0739 100.265 36.0739 99.6818C36.0739 99.0985 35.9811 98.5549 35.7955 98.0511C35.6098 97.5473 35.3239 97.1402 34.9375 96.8295C34.5511 96.5189 34.0587 96.3636 33.4602 96.3636C32.8617 96.3636 32.3693 96.5189 31.983 96.8295C31.5966 97.1402 31.3106 97.5473 31.125 98.0511C30.9394 98.5549 30.8466 99.0985 30.8466 99.6818C30.8466 100.265 30.9394 100.807 31.125 101.307C31.3106 101.807 31.5966 102.21 31.983 102.517C32.3693 102.824 32.8617 102.977 33.4602 102.977ZM39.6435 104V92.3636H40.9844V96.6591H41.098C41.1965 96.5076 41.3329 96.3144 41.5071 96.0795C41.6851 95.8409 41.9389 95.6288 42.2685 95.4432C42.6018 95.2538 43.0526 95.1591 43.6207 95.1591C44.3556 95.1591 45.0033 95.3428 45.5639 95.7102C46.1245 96.0777 46.562 96.5985 46.8764 97.2727C47.1908 97.947 47.348 98.7424 47.348 99.6591C47.348 100.583 47.1908 101.384 46.8764 102.062C46.562 102.737 46.1264 103.259 45.5696 103.631C45.0128 103.998 44.3707 104.182 43.6435 104.182C43.0829 104.182 42.634 104.089 42.2969 103.903C41.9598 103.714 41.7003 103.5 41.5185 103.261C41.3366 103.019 41.1965 102.818 41.098 102.659H40.9389V104H39.6435ZM40.9616 99.6364C40.9616 100.295 41.0582 100.877 41.2514 101.381C41.4446 101.881 41.7268 102.273 42.098 102.557C42.4692 102.837 42.9238 102.977 43.4616 102.977C44.0223 102.977 44.4901 102.83 44.8651 102.534C45.2438 102.235 45.5279 101.833 45.7173 101.33C45.9105 100.822 46.0071 100.258 46.0071 99.6364C46.0071 99.0227 45.9124 98.4697 45.723 97.9773C45.5374 97.4811 45.2552 97.089 44.8764 96.8011C44.5014 96.5095 44.0298 96.3636 43.4616 96.3636C42.9162 96.3636 42.4579 96.5019 42.0866 96.7784C41.7154 97.0511 41.4351 97.4337 41.2457 97.9261C41.0563 98.4148 40.9616 98.9848 40.9616 99.6364ZM53.4446 93.6136V92.3636H62.1719V93.6136H58.5128V104H57.1037V93.6136H53.4446ZM64.1648 104V95.2727H65.5057V104H64.1648ZM64.8466 93.8182C64.5852 93.8182 64.3598 93.7292 64.1705 93.5511C63.9848 93.3731 63.892 93.1591 63.892 92.9091C63.892 92.6591 63.9848 92.4451 64.1705 92.267C64.3598 92.089 64.5852 92 64.8466 92C65.108 92 65.3314 92.089 65.517 92.267C65.7064 92.4451 65.8011 92.6591 65.8011 92.9091C65.8011 93.1591 65.7064 93.3731 65.517 93.5511C65.3314 93.7292 65.108 93.8182 64.8466 93.8182ZM71.7571 95.2727V96.4091H67.2344V95.2727H71.7571ZM68.5526 93.1818H69.8935V101.5C69.8935 101.879 69.9484 102.163 70.0582 102.352C70.1719 102.538 70.3158 102.663 70.4901 102.727C70.6681 102.788 70.8556 102.818 71.0526 102.818C71.2003 102.818 71.3215 102.811 71.4162 102.795C71.5109 102.777 71.5866 102.761 71.6435 102.75L71.9162 103.955C71.8253 103.989 71.6984 104.023 71.5355 104.057C71.3726 104.095 71.1662 104.114 70.9162 104.114C70.5374 104.114 70.1662 104.032 69.8026 103.869C69.4427 103.706 69.1435 103.458 68.9048 103.125C68.67 102.792 68.5526 102.371 68.5526 101.864V93.1818ZM75.3026 92.3636V104H73.9616V92.3636H75.3026ZM81.4176 104.182C80.5767 104.182 79.8513 103.996 79.2415 103.625C78.6354 103.25 78.1676 102.727 77.8381 102.057C77.5123 101.383 77.3494 100.598 77.3494 99.7045C77.3494 98.8106 77.5123 98.0227 77.8381 97.3409C78.1676 96.6553 78.6259 96.1212 79.2131 95.7386C79.804 95.3523 80.4934 95.1591 81.2812 95.1591C81.7358 95.1591 82.1847 95.2348 82.6278 95.3864C83.071 95.5379 83.4744 95.7841 83.8381 96.125C84.2017 96.4621 84.4915 96.9091 84.7074 97.4659C84.9233 98.0227 85.0312 98.7083 85.0312 99.5227V100.091H78.304V98.9318H83.6676C83.6676 98.4394 83.5691 98 83.3722 97.6136C83.179 97.2273 82.9025 96.9223 82.5426 96.6989C82.1866 96.4754 81.7661 96.3636 81.2812 96.3636C80.7472 96.3636 80.285 96.4962 79.8949 96.7614C79.5085 97.0227 79.2112 97.3636 79.0028 97.7841C78.7945 98.2045 78.6903 98.6553 78.6903 99.1364V99.9091C78.6903 100.568 78.804 101.127 79.0312 101.585C79.2623 102.04 79.5824 102.386 79.9915 102.625C80.4006 102.86 80.8759 102.977 81.4176 102.977C81.7699 102.977 82.0881 102.928 82.3722 102.83C82.66 102.727 82.9081 102.576 83.1165 102.375C83.3248 102.17 83.4858 101.917 83.5994 101.614L84.8949 101.977C84.7585 102.417 84.5294 102.803 84.2074 103.136C83.8854 103.466 83.4877 103.723 83.0142 103.909C82.5407 104.091 82.0085 104.182 81.4176 104.182Z" fill="#808080"/>
<rect x="21" y="220" width="458" height="56" rx="5" fill="black"/>
<rect x="21" y="220" width="458" height="56" rx="5" stroke="#2C2C2C" stroke-width="2"/>
<path d="M55 246C55 250.993 49.461 256.193 47.601 257.799C47.4277 257.929 47.2168 258 47 258C46.7832 258 46.5723 257.929 46.399 257.799C44.539 256.193 39 250.993 39 246C39 243.878 39.8429 241.843 41.3431 240.343C42.8434 238.843 44.8783 238 47 238C49.1217 238 51.1566 238.843 52.6569 240.343C54.1571 241.843 55 243.878 55 246Z" stroke="#4BC1BD" stroke-width="2" stroke-linecap="round" stroke-linejoin="round"/>
<path d="M47 249C48.6569 249 50 247.657 50 246C50 244.343 48.6569 243 47 243C45.3431 243 44 244.343 44 246C44 247.657 45.3431 249 47 249Z" stroke="#4BC1BD" stroke-width="2" stroke-linecap="round" stroke-linejoin="round"/>
<path d="M25.8636 194.364H27.2727V202.682C27.2727 203.424 27.1364 204.055 26.8636 204.574C26.5909 205.093 26.2064 205.487 25.7102 205.756C25.214 206.025 24.6288 206.159 23.9545 206.159C23.3182 206.159 22.7519 206.044 22.2557 205.812C21.7595 205.578 21.3693 205.244 21.0852 204.812C20.8011 204.381 20.6591 203.867 20.6591 203.273H22.0455C22.0455 203.602 22.1269 203.89 22.2898 204.136C22.4564 204.379 22.6837 204.568 22.9716 204.705C23.2595 204.841 23.5871 204.909 23.9545 204.909C24.3598 204.909 24.7045 204.824 24.9886 204.653C25.2727 204.483 25.4886 204.233 25.6364 203.903C25.7879 203.57 25.8636 203.163 25.8636 202.682V194.364ZM33.4602 206.182C32.6723 206.182 31.9811 205.994 31.3864 205.619C30.7955 205.244 30.3333 204.72 30 204.045C29.6705 203.371 29.5057 202.583 29.5057 201.682C29.5057 200.773 29.6705 199.979 30 199.301C30.3333 198.623 30.7955 198.097 31.3864 197.722C31.9811 197.347 32.6723 197.159 33.4602 197.159C34.2481 197.159 34.9375 197.347 35.5284 197.722C36.1231 198.097 36.5852 198.623 36.9148 199.301C37.2481 199.979 37.4148 200.773 37.4148 201.682C37.4148 202.583 37.2481 203.371 36.9148 204.045C36.5852 204.72 36.1231 205.244 35.5284 205.619C34.9375 205.994 34.2481 206.182 33.4602 206.182ZM33.4602 204.977C34.0587 204.977 34.5511 204.824 34.9375 204.517C35.3239 204.21 35.6098 203.807 35.7955 203.307C35.9811 202.807 36.0739 202.265 36.0739 201.682C36.0739 201.098 35.9811 200.555 35.7955 200.051C35.6098 199.547 35.3239 199.14 34.9375 198.83C34.5511 198.519 34.0587 198.364 33.4602 198.364C32.8617 198.364 32.3693 198.519 31.983 198.83C31.5966 199.14 31.3106 199.547 31.125 200.051C30.9394 200.555 30.8466 201.098 30.8466 201.682C30.8466 202.265 30.9394 202.807 31.125 203.307C31.3106 203.807 31.5966 204.21 31.983 204.517C32.3693 204.824 32.8617 204.977 33.4602 204.977ZM39.6435 206V194.364H40.9844V198.659H41.098C41.1965 198.508 41.3329 198.314 41.5071 198.08C41.6851 197.841 41.9389 197.629 42.2685 197.443C42.6018 197.254 43.0526 197.159 43.6207 197.159C44.3556 197.159 45.0033 197.343 45.5639 197.71C46.1245 198.078 46.562 198.598 46.8764 199.273C47.1908 199.947 47.348 200.742 47.348 201.659C47.348 202.583 47.1908 203.384 46.8764 204.062C46.562 204.737 46.1264 205.259 45.5696 205.631C45.0128 205.998 44.3707 206.182 43.6435 206.182C43.0829 206.182 42.634 206.089 42.2969 205.903C41.9598 205.714 41.7003 205.5 41.5185 205.261C41.3366 205.019 41.1965 204.818 41.098 204.659H40.9389V206H39.6435ZM40.9616 201.636C40.9616 202.295 41.0582 202.877 41.2514 203.381C41.4446 203.881 41.7268 204.273 42.098 204.557C42.4692 204.837 42.9238 204.977 43.4616 204.977C44.0223 204.977 44.4901 204.83 44.8651 204.534C45.2438 204.235 45.5279 203.833 45.7173 203.33C45.9105 202.822 46.0071 202.258 46.0071 201.636C46.0071 201.023 45.9124 200.47 45.723 199.977C45.5374 199.481 45.2552 199.089 44.8764 198.801C44.5014 198.509 44.0298 198.364 43.4616 198.364C42.9162 198.364 42.4579 198.502 42.0866 198.778C41.7154 199.051 41.4351 199.434 41.2457 199.926C41.0563 200.415 40.9616 200.985 40.9616 201.636ZM54.081 206V194.364H55.4901V204.75H60.8991V206H54.081ZM66.4446 206.182C65.6567 206.182 64.9654 205.994 64.3707 205.619C63.7798 205.244 63.3177 204.72 62.9844 204.045C62.6548 203.371 62.4901 202.583 62.4901 201.682C62.4901 200.773 62.6548 199.979 62.9844 199.301C63.3177 198.623 63.7798 198.097 64.3707 197.722C64.9654 197.347 65.6567 197.159 66.4446 197.159C67.2325 197.159 67.9219 197.347 68.5128 197.722C69.1075 198.097 69.5696 198.623 69.8991 199.301C70.2325 199.979 70.3991 200.773 70.3991 201.682C70.3991 202.583 70.2325 203.371 69.8991 204.045C69.5696 204.72 69.1075 205.244 68.5128 205.619C67.9219 205.994 67.2325 206.182 66.4446 206.182ZM66.4446 204.977C67.0431 204.977 67.5355 204.824 67.9219 204.517C68.3082 204.21 68.5942 203.807 68.7798 203.307C68.9654 202.807 69.0582 202.265 69.0582 201.682C69.0582 201.098 68.9654 200.555 68.7798 200.051C68.5942 199.547 68.3082 199.14 67.9219 198.83C67.5355 198.519 67.0431 198.364 66.4446 198.364C65.8461 198.364 65.3537 198.519 64.9673 198.83C64.581 199.14 64.295 199.547 64.1094 200.051C63.9238 200.555 63.831 201.098 63.831 201.682C63.831 202.265 63.9238 202.807 64.1094 203.307C64.295 203.807 64.581 204.21 64.9673 204.517C65.3537 204.824 65.8461 204.977 66.4446 204.977ZM75.9915 206.182C75.1733 206.182 74.4688 205.989 73.8778 205.602C73.2869 205.216 72.8324 204.684 72.5142 204.006C72.196 203.328 72.0369 202.553 72.0369 201.682C72.0369 200.795 72.1998 200.013 72.5256 199.335C72.8551 198.653 73.3134 198.121 73.9006 197.739C74.4915 197.352 75.1809 197.159 75.9688 197.159C76.5824 197.159 77.1354 197.273 77.6278 197.5C78.1203 197.727 78.5237 198.045 78.8381 198.455C79.1525 198.864 79.3475 199.341 79.4233 199.886H78.0824C77.9801 199.489 77.7528 199.136 77.4006 198.83C77.0521 198.519 76.5824 198.364 75.9915 198.364C75.4688 198.364 75.0104 198.5 74.6165 198.773C74.2263 199.042 73.9214 199.422 73.7017 199.915C73.4858 200.403 73.3778 200.977 73.3778 201.636C73.3778 202.311 73.4839 202.898 73.696 203.398C73.9119 203.898 74.215 204.286 74.6051 204.562C74.9991 204.839 75.4612 204.977 75.9915 204.977C76.34 204.977 76.6562 204.917 76.9403 204.795C77.2244 204.674 77.465 204.5 77.6619 204.273C77.8589 204.045 77.9991 203.773 78.0824 203.455H79.4233C79.3475 203.97 79.16 204.434 78.8608 204.847C78.5653 205.256 78.1733 205.581 77.6847 205.824C77.1998 206.062 76.6354 206.182 75.9915 206.182ZM83.9517 206.205C83.3987 206.205 82.8968 206.1 82.446 205.892C81.9953 205.68 81.6373 205.375 81.3722 204.977C81.107 204.576 80.9744 204.091 80.9744 203.523C80.9744 203.023 81.0729 202.617 81.2699 202.307C81.4669 201.992 81.7301 201.746 82.0597 201.568C82.3892 201.39 82.7528 201.258 83.1506 201.17C83.5521 201.08 83.9555 201.008 84.3608 200.955C84.8911 200.886 85.321 200.835 85.6506 200.801C85.9839 200.763 86.2263 200.701 86.3778 200.614C86.5331 200.527 86.6108 200.375 86.6108 200.159V200.114C86.6108 199.553 86.4574 199.117 86.1506 198.807C85.8475 198.496 85.3873 198.341 84.7699 198.341C84.1297 198.341 83.6278 198.481 83.2642 198.761C82.9006 199.042 82.6449 199.341 82.4972 199.659L81.2244 199.205C81.4517 198.674 81.7547 198.261 82.1335 197.966C82.5161 197.667 82.9328 197.458 83.3835 197.341C83.8381 197.22 84.285 197.159 84.7244 197.159C85.0047 197.159 85.3267 197.193 85.6903 197.261C86.0578 197.326 86.4119 197.46 86.7528 197.665C87.0975 197.869 87.3835 198.178 87.6108 198.591C87.8381 199.004 87.9517 199.557 87.9517 200.25V206H86.6108V204.818H86.5426C86.4517 205.008 86.3002 205.21 86.0881 205.426C85.8759 205.642 85.5938 205.826 85.2415 205.977C84.8892 206.129 84.4593 206.205 83.9517 206.205ZM84.1562 205C84.6866 205 85.1335 204.896 85.4972 204.688C85.8646 204.479 86.1411 204.21 86.3267 203.881C86.5161 203.551 86.6108 203.205 86.6108 202.841V201.614C86.554 201.682 86.429 201.744 86.2358 201.801C86.0464 201.854 85.8267 201.902 85.5767 201.943C85.3305 201.981 85.09 202.015 84.8551 202.045C84.6241 202.072 84.4366 202.095 84.2926 202.114C83.9441 202.159 83.6184 202.233 83.3153 202.335C83.0161 202.434 82.7737 202.583 82.5881 202.784C82.4063 202.981 82.3153 203.25 82.3153 203.591C82.3153 204.057 82.4877 204.409 82.8324 204.648C83.1809 204.883 83.6222 205 84.1562 205ZM94.1946 197.273V198.409H89.6719V197.273H94.1946ZM90.9901 195.182H92.331V203.5C92.331 203.879 92.3859 204.163 92.4957 204.352C92.6094 204.538 92.7533 204.663 92.9276 204.727C93.1056 204.788 93.2931 204.818 93.4901 204.818C93.6378 204.818 93.759 204.811 93.8537 204.795C93.9484 204.777 94.0241 204.761 94.081 204.75L94.3537 205.955C94.2628 205.989 94.1359 206.023 93.973 206.057C93.8101 206.095 93.6037 206.114 93.3537 206.114C92.9749 206.114 92.6037 206.032 92.2401 205.869C91.8802 205.706 91.581 205.458 91.3423 205.125C91.1075 204.792 90.9901 204.371 90.9901 203.864V195.182ZM96.2116 206V197.273H97.5526V206H96.2116ZM96.8935 195.818C96.6321 195.818 96.4067 195.729 96.2173 195.551C96.0317 195.373 95.9389 195.159 95.9389 194.909C95.9389 194.659 96.0317 194.445 96.2173 194.267C96.4067 194.089 96.6321 194 96.8935 194C97.1548 194 97.3783 194.089 97.5639 194.267C97.7533 194.445 97.848 194.659 97.848 194.909C97.848 195.159 97.7533 195.373 97.5639 195.551C97.3783 195.729 97.1548 195.818 96.8935 195.818ZM103.554 206.182C102.766 206.182 102.075 205.994 101.48 205.619C100.889 205.244 100.427 204.72 100.094 204.045C99.7642 203.371 99.5994 202.583 99.5994 201.682C99.5994 200.773 99.7642 199.979 100.094 199.301C100.427 198.623 100.889 198.097 101.48 197.722C102.075 197.347 102.766 197.159 103.554 197.159C104.342 197.159 105.031 197.347 105.622 197.722C106.217 198.097 106.679 198.623 107.009 199.301C107.342 199.979 107.509 200.773 107.509 201.682C107.509 202.583 107.342 203.371 107.009 204.045C106.679 204.72 106.217 205.244 105.622 205.619C105.031 205.994 104.342 206.182 103.554 206.182ZM103.554 204.977C104.152 204.977 104.645 204.824 105.031 204.517C105.418 204.21 105.704 203.807 105.889 203.307C106.075 202.807 106.168 202.265 106.168 201.682C106.168 201.098 106.075 200.555 105.889 200.051C105.704 199.547 105.418 199.14 105.031 198.83C104.645 198.519 104.152 198.364 103.554 198.364C102.955 198.364 102.463 198.519 102.077 198.83C101.69 199.14 101.404 199.547 101.219 200.051C101.033 200.555 100.94 201.098 100.94 201.682C100.94 202.265 101.033 202.807 101.219 203.307C101.404 203.807 101.69 204.21 102.077 204.517C102.463 204.824 102.955 204.977 103.554 204.977ZM110.896 200.75V206H109.555V197.273H110.851V198.636H110.964C111.169 198.193 111.48 197.837 111.896 197.568C112.313 197.295 112.851 197.159 113.51 197.159C114.101 197.159 114.618 197.28 115.061 197.523C115.504 197.761 115.849 198.125 116.095 198.614C116.341 199.098 116.464 199.712 116.464 200.455V206H115.124V200.545C115.124 199.86 114.946 199.326 114.589 198.943C114.233 198.557 113.745 198.364 113.124 198.364C112.696 198.364 112.313 198.456 111.976 198.642C111.643 198.828 111.379 199.098 111.186 199.455C110.993 199.811 110.896 200.242 110.896 200.75Z" fill="#808080"/>
<rect x="21" y="322" width="458" height="78" rx="5" fill="black"/>
<rect x="21" y="322" width="458" height="78" rx="5" stroke="#2C2C2C" stroke-width="2"/>
<path d="M475 389L468 396M475 393L472 396" stroke="#454444"/>
<path d="M27.7727 299.273C27.7045 298.697 27.428 298.25 26.9432 297.932C26.4583 297.614 25.8636 297.455 25.1591 297.455C24.6439 297.455 24.1932 297.538 23.8068 297.705C23.4242 297.871 23.125 298.1 22.9091 298.392C22.697 298.684 22.5909 299.015 22.5909 299.386C22.5909 299.697 22.6648 299.964 22.8125 300.188C22.964 300.407 23.1572 300.591 23.392 300.739C23.6269 300.883 23.8731 301.002 24.1307 301.097C24.3883 301.187 24.625 301.261 24.8409 301.318L26.0227 301.636C26.3258 301.716 26.6629 301.826 27.0341 301.966C27.4091 302.106 27.767 302.297 28.108 302.54C28.4527 302.778 28.7367 303.085 28.9602 303.46C29.1837 303.835 29.2955 304.295 29.2955 304.841C29.2955 305.47 29.1307 306.038 28.8011 306.545C28.4754 307.053 27.9981 307.456 27.3693 307.756C26.7443 308.055 25.9848 308.205 25.0909 308.205C24.2576 308.205 23.536 308.07 22.9261 307.801C22.3201 307.532 21.8428 307.157 21.4943 306.676C21.1496 306.195 20.9545 305.636 20.9091 305H22.3636C22.4015 305.439 22.5492 305.803 22.8068 306.091C23.0682 306.375 23.3977 306.587 23.7955 306.727C24.197 306.864 24.6288 306.932 25.0909 306.932C25.6288 306.932 26.1117 306.845 26.5398 306.67C26.9678 306.492 27.3068 306.246 27.5568 305.932C27.8068 305.614 27.9318 305.242 27.9318 304.818C27.9318 304.432 27.8239 304.117 27.608 303.875C27.392 303.633 27.108 303.436 26.7557 303.284C26.4034 303.133 26.0227 303 25.6136 302.886L24.1818 302.477C23.2727 302.216 22.553 301.843 22.0227 301.358C21.4924 300.873 21.2273 300.239 21.2273 299.455C21.2273 298.803 21.4034 298.235 21.7557 297.75C22.1117 297.261 22.589 296.883 23.1875 296.614C23.7898 296.341 24.4621 296.205 25.2045 296.205C25.9545 296.205 26.6212 296.339 27.2045 296.608C27.7879 296.873 28.25 297.237 28.5909 297.699C28.9356 298.161 29.1174 298.686 29.1364 299.273H27.7727ZM32.7713 302.75V308H31.4304V296.364H32.7713V300.636H32.8849C33.0895 300.186 33.3963 299.828 33.8054 299.562C34.2183 299.294 34.7675 299.159 35.4531 299.159C36.0478 299.159 36.5687 299.278 37.0156 299.517C37.4626 299.752 37.8092 300.114 38.0554 300.602C38.3054 301.087 38.4304 301.705 38.4304 302.455V308H37.0895V302.545C37.0895 301.852 36.9096 301.316 36.5497 300.938C36.1937 300.555 35.6993 300.364 35.0668 300.364C34.6274 300.364 34.2334 300.456 33.8849 300.642C33.5402 300.828 33.2675 301.098 33.0668 301.455C32.8698 301.811 32.7713 302.242 32.7713 302.75ZM44.429 308.182C43.6411 308.182 42.9498 307.994 42.3551 307.619C41.7642 307.244 41.3021 306.72 40.9688 306.045C40.6392 305.371 40.4744 304.583 40.4744 303.682C40.4744 302.773 40.6392 301.979 40.9688 301.301C41.3021 300.623 41.7642 300.097 42.3551 299.722C42.9498 299.347 43.6411 299.159 44.429 299.159C45.2169 299.159 45.9063 299.347 46.4972 299.722C47.0919 300.097 47.554 300.623 47.8835 301.301C48.2169 301.979 48.3835 302.773 48.3835 303.682C48.3835 304.583 48.2169 305.371 47.8835 306.045C47.554 306.72 47.0919 307.244 46.4972 307.619C45.9063 307.994 45.2169 308.182 44.429 308.182ZM44.429 306.977C45.0275 306.977 45.5199 306.824 45.9062 306.517C46.2926 306.21 46.5786 305.807 46.7642 305.307C46.9498 304.807 47.0426 304.265 47.0426 303.682C47.0426 303.098 46.9498 302.555 46.7642 302.051C46.5786 301.547 46.2926 301.14 45.9062 300.83C45.5199 300.519 45.0275 300.364 44.429 300.364C43.8305 300.364 43.3381 300.519 42.9517 300.83C42.5653 301.14 42.2794 301.547 42.0938 302.051C41.9081 302.555 41.8153 303.098 41.8153 303.682C41.8153 304.265 41.9081 304.807 42.0938 305.307C42.2794 305.807 42.5653 306.21 42.9517 306.517C43.3381 306.824 43.8305 306.977 44.429 306.977ZM50.4304 308V299.273H51.7259V300.591H51.8168C51.9759 300.159 52.2637 299.809 52.6804 299.54C53.0971 299.271 53.5668 299.136 54.0895 299.136C54.188 299.136 54.3111 299.138 54.4588 299.142C54.6065 299.146 54.7183 299.152 54.794 299.159V300.523C54.7486 300.511 54.6444 300.494 54.4815 300.472C54.3224 300.445 54.1539 300.432 53.9759 300.432C53.5516 300.432 53.1728 300.521 52.8395 300.699C52.5099 300.873 52.2486 301.116 52.0554 301.426C51.866 301.733 51.7713 302.083 51.7713 302.477V308H50.4304ZM60.7259 299.273V300.409H56.2031V299.273H60.7259ZM57.5213 297.182H58.8622V305.5C58.8622 305.879 58.9171 306.163 59.027 306.352C59.1406 306.538 59.2846 306.663 59.4588 306.727C59.6368 306.788 59.8243 306.818 60.0213 306.818C60.169 306.818 60.2902 306.811 60.3849 306.795C60.4796 306.777 60.5554 306.761 60.6122 306.75L60.8849 307.955C60.794 307.989 60.6671 308.023 60.5043 308.057C60.3414 308.095 60.1349 308.114 59.8849 308.114C59.5062 308.114 59.1349 308.032 58.7713 307.869C58.4115 307.706 58.1122 307.458 57.8736 307.125C57.6387 306.792 57.5213 306.371 57.5213 305.864V297.182ZM71.0156 308H67.4247V296.364H71.1747C72.3035 296.364 73.2694 296.597 74.0724 297.062C74.8755 297.525 75.491 298.189 75.919 299.057C76.3471 299.92 76.5611 300.955 76.5611 302.159C76.5611 303.371 76.3452 304.415 75.9134 305.29C75.4815 306.161 74.8527 306.831 74.027 307.301C73.2012 307.767 72.1974 308 71.0156 308ZM68.8338 306.75H70.9247C71.8868 306.75 72.6842 306.564 73.3168 306.193C73.9493 305.822 74.4209 305.294 74.7315 304.608C75.0421 303.922 75.1974 303.106 75.1974 302.159C75.1974 301.22 75.044 300.411 74.7372 299.733C74.4304 299.051 73.9721 298.528 73.3622 298.165C72.7524 297.797 71.9929 297.614 71.0838 297.614H68.8338V306.75ZM82.402 308.182C81.5611 308.182 80.8357 307.996 80.2259 307.625C79.6198 307.25 79.152 306.727 78.8224 306.057C78.4967 305.383 78.3338 304.598 78.3338 303.705C78.3338 302.811 78.4967 302.023 78.8224 301.341C79.152 300.655 79.6103 300.121 80.1974 299.739C80.7884 299.352 81.4777 299.159 82.2656 299.159C82.7202 299.159 83.169 299.235 83.6122 299.386C84.0554 299.538 84.4588 299.784 84.8224 300.125C85.1861 300.462 85.4759 300.909 85.6918 301.466C85.9077 302.023 86.0156 302.708 86.0156 303.523V304.091H79.2884V302.932H84.652C84.652 302.439 84.5535 302 84.3565 301.614C84.1634 301.227 83.8868 300.922 83.527 300.699C83.1709 300.475 82.7505 300.364 82.2656 300.364C81.7315 300.364 81.2694 300.496 80.8793 300.761C80.4929 301.023 80.1955 301.364 79.9872 301.784C79.7789 302.205 79.6747 302.655 79.6747 303.136V303.909C79.6747 304.568 79.7884 305.127 80.0156 305.585C80.2467 306.04 80.5668 306.386 80.9759 306.625C81.3849 306.86 81.8603 306.977 82.402 306.977C82.7543 306.977 83.0724 306.928 83.3565 306.83C83.6444 306.727 83.8925 306.576 84.1009 306.375C84.3092 306.17 84.4702 305.917 84.5838 305.614L85.8793 305.977C85.7429 306.417 85.5137 306.803 85.1918 307.136C84.8698 307.466 84.4721 307.723 83.9986 307.909C83.5251 308.091 82.9929 308.182 82.402 308.182ZM94.2372 301.227L93.0327 301.568C92.9569 301.367 92.8452 301.172 92.6974 300.983C92.5535 300.79 92.3565 300.631 92.1065 300.506C91.8565 300.381 91.5365 300.318 91.1463 300.318C90.6122 300.318 90.1671 300.441 89.8111 300.688C89.4588 300.93 89.2827 301.239 89.2827 301.614C89.2827 301.947 89.4039 302.21 89.6463 302.403C89.8887 302.597 90.2675 302.758 90.7827 302.886L92.0781 303.205C92.8584 303.394 93.4399 303.684 93.8224 304.074C94.205 304.46 94.3963 304.958 94.3963 305.568C94.3963 306.068 94.2524 306.515 93.9645 306.909C93.6804 307.303 93.2827 307.614 92.7713 307.841C92.2599 308.068 91.6652 308.182 90.9872 308.182C90.0971 308.182 89.3603 307.989 88.777 307.602C88.1937 307.216 87.8243 306.652 87.669 305.909L88.9418 305.591C89.063 306.061 89.2921 306.413 89.6293 306.648C89.9702 306.883 90.4152 307 90.9645 307C91.5895 307 92.0857 306.867 92.4531 306.602C92.8243 306.333 93.0099 306.011 93.0099 305.636C93.0099 305.333 92.9039 305.08 92.6918 304.875C92.4796 304.667 92.1539 304.511 91.7145 304.409L90.2599 304.068C89.4607 303.879 88.8736 303.585 88.4986 303.188C88.1274 302.786 87.9418 302.284 87.9418 301.682C87.9418 301.189 88.08 300.754 88.3565 300.375C88.6368 299.996 89.0175 299.699 89.4986 299.483C89.9834 299.267 90.5327 299.159 91.1463 299.159C92.0099 299.159 92.688 299.348 93.1804 299.727C93.6766 300.106 94.0289 300.606 94.2372 301.227ZM99.9602 308.182C99.142 308.182 98.4375 307.989 97.8466 307.602C97.2557 307.216 96.8011 306.684 96.483 306.006C96.1648 305.328 96.0057 304.553 96.0057 303.682C96.0057 302.795 96.1686 302.013 96.4943 301.335C96.8239 300.653 97.2822 300.121 97.8693 299.739C98.4602 299.352 99.1496 299.159 99.9375 299.159C100.551 299.159 101.104 299.273 101.597 299.5C102.089 299.727 102.492 300.045 102.807 300.455C103.121 300.864 103.316 301.341 103.392 301.886H102.051C101.949 301.489 101.722 301.136 101.369 300.83C101.021 300.519 100.551 300.364 99.9602 300.364C99.4375 300.364 98.9792 300.5 98.5852 300.773C98.1951 301.042 97.8902 301.422 97.6705 301.915C97.4545 302.403 97.3466 302.977 97.3466 303.636C97.3466 304.311 97.4527 304.898 97.6648 305.398C97.8807 305.898 98.1837 306.286 98.5739 306.562C98.9678 306.839 99.4299 306.977 99.9602 306.977C100.309 306.977 100.625 306.917 100.909 306.795C101.193 306.674 101.434 306.5 101.631 306.273C101.828 306.045 101.968 305.773 102.051 305.455H103.392C103.316 305.97 103.129 306.434 102.83 306.847C102.534 307.256 102.142 307.581 101.653 307.824C101.169 308.062 100.604 308.182 99.9602 308.182ZM105.352 308V299.273H106.648V300.591H106.739C106.898 300.159 107.186 299.809 107.602 299.54C108.019 299.271 108.489 299.136 109.011 299.136C109.11 299.136 109.233 299.138 109.381 299.142C109.528 299.146 109.64 299.152 109.716 299.159V300.523C109.67 300.511 109.566 300.494 109.403 300.472C109.244 300.445 109.076 300.432 108.898 300.432C108.473 300.432 108.095 300.521 107.761 300.699C107.432 300.873 107.17 301.116 106.977 301.426C106.788 301.733 106.693 302.083 106.693 302.477V308H105.352ZM111.305 308V299.273H112.646V308H111.305ZM111.987 297.818C111.726 297.818 111.5 297.729 111.311 297.551C111.125 297.373 111.033 297.159 111.033 296.909C111.033 296.659 111.125 296.445 111.311 296.267C111.5 296.089 111.726 296 111.987 296C112.249 296 112.472 296.089 112.658 296.267C112.847 296.445 112.942 296.659 112.942 296.909C112.942 297.159 112.847 297.373 112.658 297.551C112.472 297.729 112.249 297.818 111.987 297.818ZM115.102 311.273V299.273H116.398V300.659H116.557C116.655 300.508 116.792 300.314 116.966 300.08C117.144 299.841 117.398 299.629 117.727 299.443C118.061 299.254 118.511 299.159 119.08 299.159C119.814 299.159 120.462 299.343 121.023 299.71C121.583 300.078 122.021 300.598 122.335 301.273C122.65 301.947 122.807 302.742 122.807 303.659C122.807 304.583 122.65 305.384 122.335 306.062C122.021 306.737 121.585 307.259 121.028 307.631C120.472 307.998 119.83 308.182 119.102 308.182C118.542 308.182 118.093 308.089 117.756 307.903C117.419 307.714 117.159 307.5 116.977 307.261C116.795 307.019 116.655 306.818 116.557 306.659H116.443V311.273H115.102ZM116.42 303.636C116.42 304.295 116.517 304.877 116.71 305.381C116.903 305.881 117.186 306.273 117.557 306.557C117.928 306.837 118.383 306.977 118.92 306.977C119.481 306.977 119.949 306.83 120.324 306.534C120.703 306.235 120.987 305.833 121.176 305.33C121.369 304.822 121.466 304.258 121.466 303.636C121.466 303.023 121.371 302.47 121.182 301.977C120.996 301.481 120.714 301.089 120.335 300.801C119.96 300.509 119.489 300.364 118.92 300.364C118.375 300.364 117.917 300.502 117.545 300.778C117.174 301.051 116.894 301.434 116.705 301.926C116.515 302.415 116.42 302.985 116.42 303.636ZM128.648 299.273V300.409H124.125V299.273H128.648ZM125.443 297.182H126.784V305.5C126.784 305.879 126.839 306.163 126.949 306.352C127.063 306.538 127.206 306.663 127.381 306.727C127.559 306.788 127.746 306.818 127.943 306.818C128.091 306.818 128.212 306.811 128.307 306.795C128.402 306.777 128.477 306.761 128.534 306.75L128.807 307.955C128.716 307.989 128.589 308.023 128.426 308.057C128.263 308.095 128.057 308.114 127.807 308.114C127.428 308.114 127.057 308.032 126.693 307.869C126.333 307.706 126.034 307.458 125.795 307.125C125.561 306.792 125.443 306.371 125.443 305.864V297.182ZM130.665 308V299.273H132.006V308H130.665ZM131.347 297.818C131.085 297.818 130.86 297.729 130.67 297.551C130.485 297.373 130.392 297.159 130.392 296.909C130.392 296.659 130.485 296.445 130.67 296.267C130.86 296.089 131.085 296 131.347 296C131.608 296 131.831 296.089 132.017 296.267C132.206 296.445 132.301 296.659 132.301 296.909C132.301 297.159 132.206 297.373 132.017 297.551C131.831 297.729 131.608 297.818 131.347 297.818ZM138.007 308.182C137.219 308.182 136.528 307.994 135.933 307.619C135.342 307.244 134.88 306.72 134.547 306.045C134.217 305.371 134.053 304.583 134.053 303.682C134.053 302.773 134.217 301.979 134.547 301.301C134.88 300.623 135.342 300.097 135.933 299.722C136.528 299.347 137.219 299.159 138.007 299.159C138.795 299.159 139.484 299.347 140.075 299.722C140.67 300.097 141.132 300.623 141.462 301.301C141.795 301.979 141.962 302.773 141.962 303.682C141.962 304.583 141.795 305.371 141.462 306.045C141.132 306.72 140.67 307.244 140.075 307.619C139.484 307.994 138.795 308.182 138.007 308.182ZM138.007 306.977C138.606 306.977 139.098 306.824 139.484 306.517C139.871 306.21 140.157 305.807 140.342 305.307C140.528 304.807 140.621 304.265 140.621 303.682C140.621 303.098 140.528 302.555 140.342 302.051C140.157 301.547 139.871 301.14 139.484 300.83C139.098 300.519 138.606 300.364 138.007 300.364C137.409 300.364 136.916 300.519 136.53 300.83C136.143 301.14 135.857 301.547 135.672 302.051C135.486 302.555 135.393 303.098 135.393 303.682C135.393 304.265 135.486 304.807 135.672 305.307C135.857 305.807 136.143 306.21 136.53 306.517C136.916 306.824 137.409 306.977 138.007 306.977ZM145.349 302.75V308H144.009V299.273H145.304V300.636H145.418C145.622 300.193 145.933 299.837 146.349 299.568C146.766 299.295 147.304 299.159 147.963 299.159C148.554 299.159 149.071 299.28 149.514 299.523C149.957 299.761 150.302 300.125 150.548 300.614C150.795 301.098 150.918 301.712 150.918 302.455V308H149.577V302.545C149.577 301.86 149.399 301.326 149.043 300.943C148.687 300.557 148.198 300.364 147.577 300.364C147.149 300.364 146.766 300.456 146.429 300.642C146.096 300.828 145.832 301.098 145.639 301.455C145.446 301.811 145.349 302.242 145.349 302.75Z" fill="#808080"/>
<rect x="20" y="421" width="460" height="50" rx="25" fill="#4BC1BD"/>
<path d="M236.853 452H234.603L238.7 440.364H241.302L245.404 452H243.154L240.046 442.75H239.956L236.853 452ZM236.927 447.438H243.064V449.131H236.927V447.438ZM249.979 452.153C249.294 452.153 248.68 451.977 248.138 451.625C247.597 451.273 247.169 450.761 246.854 450.091C246.54 449.42 246.383 448.606 246.383 447.648C246.383 446.678 246.542 445.86 246.86 445.193C247.182 444.523 247.616 444.017 248.161 443.676C248.706 443.331 249.314 443.159 249.985 443.159C250.496 443.159 250.917 443.246 251.246 443.42C251.576 443.591 251.837 443.797 252.03 444.04C252.224 444.278 252.373 444.504 252.479 444.716H252.564V440.364H254.627V452H252.604V450.625H252.479C252.373 450.837 252.22 451.062 252.019 451.301C251.818 451.536 251.553 451.737 251.224 451.903C250.894 452.07 250.479 452.153 249.979 452.153ZM250.553 450.466C250.989 450.466 251.36 450.348 251.667 450.114C251.974 449.875 252.206 449.544 252.366 449.119C252.525 448.695 252.604 448.201 252.604 447.636C252.604 447.072 252.525 446.581 252.366 446.165C252.21 445.748 251.979 445.424 251.672 445.193C251.369 444.962 250.996 444.847 250.553 444.847C250.095 444.847 249.712 444.966 249.405 445.205C249.099 445.443 248.867 445.773 248.712 446.193C248.557 446.614 248.479 447.095 248.479 447.636C248.479 448.182 248.557 448.669 248.712 449.097C248.871 449.521 249.104 449.856 249.411 450.102C249.722 450.345 250.102 450.466 250.553 450.466ZM260.217 452.153C259.532 452.153 258.918 451.977 258.376 451.625C257.835 451.273 257.407 450.761 257.092 450.091C256.778 449.42 256.621 448.606 256.621 447.648C256.621 446.678 256.78 445.86 257.098 445.193C257.42 444.523 257.854 444.017 258.399 443.676C258.945 443.331 259.553 443.159 260.223 443.159C260.734 443.159 261.155 443.246 261.484 443.42C261.814 443.591 262.075 443.797 262.268 444.04C262.462 444.278 262.611 444.504 262.717 444.716H262.803V440.364H264.865V452H262.842V450.625H262.717C262.611 450.837 262.458 451.062 262.257 451.301C262.056 451.536 261.791 451.737 261.462 451.903C261.132 452.07 260.717 452.153 260.217 452.153ZM260.791 450.466C261.227 450.466 261.598 450.348 261.905 450.114C262.212 449.875 262.445 449.544 262.604 449.119C262.763 448.695 262.842 448.201 262.842 447.636C262.842 447.072 262.763 446.581 262.604 446.165C262.448 445.748 262.217 445.424 261.911 445.193C261.607 444.962 261.234 444.847 260.791 444.847C260.333 444.847 259.95 444.966 259.643 445.205C259.337 445.443 259.106 445.773 258.95 446.193C258.795 446.614 258.717 447.095 258.717 447.636C258.717 448.182 258.795 448.669 258.95 449.097C259.109 449.521 259.342 449.856 259.649 450.102C259.96 450.345 260.34 450.466 260.791 450.466Z" fill="black"/>
<rect x="20" y="64" width="460" height="1" fill="#2C2C2C"/>
<path d="M19.748 40L25.31 27.4H28.82L34.4 40H30.692L26.336 29.146H27.74L23.384 40H19.748ZM22.79 37.552L23.708 34.924H29.864L30.782 37.552H22.79ZM39.4085 40.162C38.5205 40.162 37.7105 39.958 36.9785 39.55C36.2585 39.13 35.6825 38.548 35.2505 37.804C34.8185 37.048 34.6025 36.148 34.6025 35.104C34.6025 34.072 34.8185 33.184 35.2505 32.44C35.6825 31.684 36.2585 31.102 36.9785 30.694C37.7105 30.286 38.5205 30.082 39.4085 30.082C40.2485 30.082 40.9565 30.262 41.5325 30.622C42.1205 30.982 42.5645 31.534 42.8645 32.278C43.1645 33.022 43.3145 33.964 43.3145 35.104C43.3145 36.268 43.1705 37.222 42.8825 37.966C42.5945 38.71 42.1625 39.262 41.5865 39.622C41.0105 39.982 40.2845 40.162 39.4085 40.162ZM40.1285 37.444C40.5125 37.444 40.8545 37.354 41.1545 37.174C41.4665 36.994 41.7125 36.73 41.8925 36.382C42.0725 36.022 42.1625 35.596 42.1625 35.104C42.1625 34.612 42.0725 34.198 41.8925 33.862C41.7125 33.514 41.4665 33.25 41.1545 33.07C40.8545 32.89 40.5125 32.8 40.1285 32.8C39.7325 32.8 39.3785 32.89 39.0665 33.07C38.7665 33.25 38.5265 33.514 38.3465 33.862C38.1665 34.198 38.0765 34.612 38.0765 35.104C38.0765 35.596 38.1665 36.022 38.3465 36.382C38.5265 36.73 38.7665 36.994 39.0665 37.174C39.3785 37.354 39.7325 37.444 40.1285 37.444ZM42.2705 40V38.326L42.2885 35.104L42.1085 31.882V26.644H45.5285V40H42.2705ZM51.9769 40.162C51.0889 40.162 50.2789 39.958 49.5469 39.55C48.8269 39.13 48.2509 38.548 47.8189 37.804C47.3869 37.048 47.1709 36.148 47.1709 35.104C47.1709 34.072 47.3869 33.184 47.8189 32.44C48.2509 31.684 48.8269 31.102 49.5469 30.694C50.2789 30.286 51.0889 30.082 51.9769 30.082C52.8169 30.082 53.5249 30.262 54.1009 30.622C54.6889 30.982 55.1329 31.534 55.4329 32.278C55.7329 33.022 55.8829 33.964 55.8829 35.104C55.8829 36.268 55.7389 37.222 55.4509 37.966C55.1629 38.71 54.7309 39.262 54.1549 39.622C53.5789 39.982 52.8529 40.162 51.9769 40.162ZM52.6969 37.444C53.0809 37.444 53.4229 37.354 53.7229 37.174C54.0349 36.994 54.2809 36.73 54.4609 36.382C54.6409 36.022 54.7309 35.596 54.7309 35.104C54.7309 34.612 54.6409 34.198 54.4609 33.862C54.2809 33.514 54.0349 33.25 53.7229 33.07C53.4229 32.89 53.0809 32.8 52.6969 32.8C52.3009 32.8 51.9469 32.89 51.6349 33.07C51.3349 33.25 51.0949 33.514 50.9149 33.862C50.7349 34.198 50.6449 34.612 50.6449 35.104C50.6449 35.596 50.7349 36.022 50.9149 36.382C51.0949 36.73 51.3349 36.994 51.6349 37.174C51.9469 37.354 52.3009 37.444 52.6969 37.444ZM54.8389 40V38.326L54.8569 35.104L54.6769 31.882V26.644H58.0969V40H54.8389ZM68.4515 40.252C67.5275 40.252 66.6875 40.096 65.9315 39.784C65.1875 39.46 64.5695 38.998 64.0775 38.398L66.0215 36.094C66.3575 36.526 66.7055 36.856 67.0655 37.084C67.4255 37.3 67.8035 37.408 68.1995 37.408C69.2555 37.408 69.7835 36.796 69.7835 35.572V30.154H65.4275V27.4H73.3115V35.356C73.3115 37 72.8975 38.23 72.0695 39.046C71.2415 39.85 70.0355 40.252 68.4515 40.252ZM80.451 40.162C79.383 40.162 78.435 39.946 77.607 39.514C76.779 39.082 76.125 38.488 75.645 37.732C75.177 36.964 74.943 36.088 74.943 35.104C74.943 34.12 75.177 33.25 75.645 32.494C76.125 31.738 76.779 31.15 77.607 30.73C78.435 30.298 79.383 30.082 80.451 30.082C81.519 30.082 82.467 30.298 83.295 30.73C84.135 31.15 84.789 31.738 85.257 32.494C85.725 33.25 85.959 34.12 85.959 35.104C85.959 36.088 85.725 36.964 85.257 37.732C84.789 38.488 84.135 39.082 83.295 39.514C82.467 39.946 81.519 40.162 80.451 40.162ZM80.451 37.444C80.847 37.444 81.195 37.354 81.495 37.174C81.807 36.994 82.053 36.73 82.233 36.382C82.413 36.022 82.503 35.596 82.503 35.104C82.503 34.612 82.413 34.198 82.233 33.862C82.053 33.514 81.807 33.25 81.495 33.07C81.195 32.89 80.847 32.8 80.451 32.8C80.067 32.8 79.719 32.89 79.407 33.07C79.107 33.25 78.861 33.514 78.669 33.862C78.489 34.198 78.399 34.612 78.399 35.104C78.399 35.596 78.489 36.022 78.669 36.382C78.861 36.73 79.107 36.994 79.407 37.174C79.719 37.354 80.067 37.444 80.451 37.444ZM93.6813 40.162C92.8053 40.162 92.0733 39.982 91.4853 39.622C90.9093 39.262 90.4773 38.71 90.1893 37.966C89.9013 37.222 89.7573 36.268 89.7573 35.104C89.7573 33.964 89.9073 33.022 90.2073 32.278C90.5193 31.534 90.9693 30.982 91.5573 30.622C92.1453 30.262 92.8533 30.082 93.6813 30.082C94.5693 30.082 95.3733 30.286 96.0933 30.694C96.8253 31.102 97.4013 31.684 97.8213 32.44C98.2533 33.184 98.4693 34.072 98.4693 35.104C98.4693 36.148 98.2533 37.048 97.8213 37.804C97.4013 38.548 96.8253 39.13 96.0933 39.55C95.3733 39.958 94.5693 40.162 93.6813 40.162ZM87.5433 40V26.644H90.9633V31.882L90.7833 35.104L90.8013 38.326V40H87.5433ZM92.9613 37.444C93.3453 37.444 93.6873 37.354 93.9873 37.174C94.2993 36.994 94.5453 36.73 94.7253 36.382C94.9173 36.022 95.0133 35.596 95.0133 35.104C95.0133 34.612 94.9173 34.198 94.7253 33.862C94.5453 33.514 94.2993 33.25 93.9873 33.07C93.6873 32.89 93.3453 32.8 92.9613 32.8C92.5773 32.8 92.2293 32.89 91.9173 33.07C91.6173 33.25 91.3713 33.514 91.1793 33.862C90.9993 34.198 90.9093 34.612 90.9093 35.104C90.9093 35.596 90.9993 36.022 91.1793 36.382C91.3713 36.73 91.6173 36.994 91.9173 37.174C92.2293 37.354 92.5773 37.444 92.9613 37.444Z" fill="white"/>
<path d="M474 26L462 38M462 26L474 38" stroke="#4BC1BD" stroke-width="2" stroke-linecap="round" stroke-linejoin="round"/>
</svg>
